<svg xmlns="http://www.w3.org/2000/svg" xmlns:xlink="http://www.w3.org/1999/xlink" width="500" zoomAndPan="magnify" viewBox="0 0 375 374.999991" height="500" preserveAspectRatio="xMidYMid meet" version="1.0"><rect x="-37.5" width="450" fill="#ffffff" y="-37.499999" height="449.999989" fill-opacity="1"/><rect x="-37.5" width="450" fill="#ffffff" y="-37.499999" height="449.999989" fill-opacity="1"/><path fill="#35a15e" d="M 0.632812 21.28125 C 1.640625 21.5625 17.035156 25.84375 32.761719 25.84375 C 41.910156 25.84375 51.167969 24.394531 57.777344 19.867188 C 76.65625 6.9375 87.113281 2.089844 102.980469 5.539062 C 117.035156 8.597656 126.261719 7.921875 130.390625 3.539062 C 130.679688 3.234375 130.667969 2.753906 130.359375 2.464844 C 130.054688 2.175781 129.566406 2.191406 129.285156 2.496094 C 125.546875 6.464844 116.808594 6.980469 103.308594 4.050781 C 85.519531 0.183594 73.910156 6.972656 56.914062 18.617188 C 39.539062 30.519531 1.433594 19.921875 1.054688 19.816406 C 0.648438 19.699219 0.230469 19.9375 0.113281 20.34375 C -0.0078125 20.746094 0.230469 21.164062 0.632812 21.28125 Z M 0.632812 21.28125 " fill-opacity="1" fill-rule="nonzero"/><path fill="#35a15e" d="M 73.988281 28.703125 C 51.335938 48.222656 8.988281 48.441406 1.257812 43.339844 C 0.90625 43.109375 0.433594 43.199219 0.207031 43.550781 C -0.0234375 43.902344 0.0703125 44.375 0.417969 44.613281 C 3.402344 46.582031 10.171875 47.792969 18.734375 47.792969 C 35.722656 47.792969 59.722656 43.011719 74.988281 29.855469 C 91.835938 15.34375 118.777344 30 136.609375 39.699219 C 142.671875 42.996094 147.90625 45.839844 151.429688 46.824219 C 153.398438 47.375 155.15625 47.023438 156.652344 45.789062 C 165.03125 38.828125 162.078125 4.410156 161.949219 2.953125 C 161.910156 2.535156 161.542969 2.230469 161.125 2.257812 C 160.703125 2.296875 160.390625 2.664062 160.429688 3.082031 C 160.460938 3.433594 163.441406 38.15625 155.675781 44.613281 C 154.574219 45.527344 153.316406 45.773438 151.84375 45.359375 C 148.484375 44.421875 143.320312 41.613281 137.34375 38.355469 C 119.136719 28.460938 91.632812 13.503906 73.988281 28.703125 Z M 73.988281 28.703125 " fill-opacity="1" fill-rule="nonzero"/><path fill="#35a15e" d="M 132.09375 48.832031 C 119.644531 36 109.59375 36.339844 97.972656 36.738281 C 94.773438 36.84375 91.472656 36.960938 87.992188 36.792969 C 79.976562 36.386719 68.667969 41.058594 57.722656 45.574219 C 46.703125 50.113281 35.3125 54.8125 28.046875 53.9375 C 13.421875 52.171875 0.863281 53.921875 0.734375 53.9375 C 0.3125 53.996094 0.0234375 54.378906 0.0820312 54.796875 C 0.144531 55.21875 0.527344 55.5 0.945312 55.445312 C 1.070312 55.429688 13.4375 53.714844 27.863281 55.445312 C 35.523438 56.371094 46.589844 51.808594 58.304688 46.976562 C 69.09375 42.53125 80.238281 37.929688 87.914062 38.308594 C 91.464844 38.484375 94.796875 38.371094 98.027344 38.265625 C 109.289062 37.875 119.011719 37.539062 130.996094 49.890625 C 138.265625 57.390625 144.496094 66.714844 149.988281 74.949219 C 156.550781 84.777344 162.214844 93.261719 168.351562 97.257812 C 176.074219 102.292969 182.347656 105.972656 188.320312 105.972656 C 191.449219 105.972656 194.496094 104.964844 197.632812 102.613281 C 199.226562 101.417969 200.105469 99.980469 200.234375 98.355469 C 200.570312 94.222656 196.128906 89.597656 191.429688 84.699219 C 188.144531 81.28125 184.757812 77.75 183.164062 74.492188 C 173.3125 54.273438 176.011719 18.984375 178.820312 3.152344 C 178.898438 2.738281 178.613281 2.34375 178.203125 2.265625 C 177.78125 2.191406 177.394531 2.472656 177.316406 2.886719 C 174.515625 18.6875 173.84375 34.59375 175.378906 48.894531 C 176.507812 59.421875 178.90625 69.242188 181.789062 75.15625 C 183.484375 78.632812 186.964844 82.25 190.320312 85.753906 C 194.578125 90.191406 198.992188 94.777344 198.707031 98.226562 C 198.609375 99.417969 197.960938 100.453125 196.707031 101.386719 C 188.390625 107.628906 180.40625 103.292969 169.175781 95.96875 C 163.296875 92.136719 157.710938 83.777344 151.25 74.085938 C 145.730469 65.816406 139.457031 56.429688 132.09375 48.832031 Z M 132.09375 48.832031 " fill-opacity="1" fill-rule="nonzero"/><path fill="#35a15e" d="M 1.191406 73.054688 C 6.304688 70.425781 10.113281 70.394531 15.867188 70.355469 C 25.054688 70.285156 38.929688 70.1875 69.605469 58.652344 C 89.585938 51.136719 105.046875 50.097656 116.875 55.476562 C 124.5 58.949219 133.453125 65.617188 142.089844 88.8125 C 151.578125 114.265625 163.351562 120.164062 183.125 122.605469 C 188.726562 123.296875 193.441406 124.558594 197.234375 125.578125 C 200.808594 126.542969 203.769531 127.335938 206.234375 127.335938 C 207.730469 127.335938 209.042969 127.046875 210.207031 126.320312 C 212.511719 124.886719 214.015625 121.894531 215.070312 116.613281 C 217.566406 104.125 209.078125 89.246094 201.585938 76.117188 C 198.496094 70.699219 195.570312 65.570312 193.472656 60.816406 C 186.308594 44.589844 195.144531 3.609375 195.234375 3.199219 C 195.328125 2.785156 195.066406 2.382812 194.65625 2.289062 C 194.234375 2.199219 193.839844 2.457031 193.746094 2.871094 C 193.375 4.570312 184.71875 44.75 192.085938 61.4375 C 194.214844 66.265625 197.152344 71.414062 200.273438 76.871094 C 207.628906 89.765625 215.976562 104.382812 213.589844 116.308594 C 212.636719 121.078125 211.308594 123.847656 209.414062 125.023438 C 206.898438 126.585938 203.019531 125.550781 197.648438 124.109375 C 193.808594 123.078125 189.03125 121.796875 183.324219 121.09375 C 163.75 118.675781 152.804688 113.152344 143.53125 88.285156 C 138.574219 74.980469 131.605469 60.511719 117.515625 54.097656 C 105.300781 48.535156 89.457031 49.5625 69.082031 57.230469 C 38.660156 68.675781 24.941406 68.777344 15.867188 68.84375 C 10.105469 68.890625 5.9375 68.921875 0.496094 71.714844 C 0.121094 71.902344 -0.0234375 72.371094 0.167969 72.742188 C 0.351562 73.101562 0.816406 73.246094 1.191406 73.054688 Z M 1.191406 73.054688 " fill-opacity="1" fill-rule="nonzero"/><path fill="#35a15e" d="M 193.746094 350.378906 C 200.464844 356.0625 220.390625 363.136719 238.828125 361.066406 C 252.035156 359.585938 262.453125 353.886719 269.796875 344.136719 C 283.242188 326.261719 277.167969 312 271.808594 299.425781 C 268.351562 291.316406 265.085938 283.648438 266.75 275.519531 C 271.34375 253.074219 269.070312 244.582031 257.011719 239.171875 C 245.902344 234.183594 237.117188 228.484375 225.175781 200.390625 C 218.925781 185.679688 210.621094 181.316406 203.949219 177.804688 C 198.167969 174.761719 193.976562 172.558594 193.542969 164.652344 C 192.542969 146.644531 187.414062 138.511719 159.046875 125.871094 C 144.546875 119.40625 138.207031 108.015625 132.070312 97.007812 C 126.378906 86.789062 120.492188 76.230469 108.144531 70.234375 C 93.753906 63.246094 83.503906 67.609375 72.652344 72.230469 C 64.28125 75.796875 55.625 79.488281 44.476562 78 C 18.820312 74.582031 0.671875 84.113281 0.496094 84.203125 C 0.121094 84.402344 -0.015625 84.867188 0.183594 85.234375 C 0.382812 85.605469 0.847656 85.746094 1.214844 85.546875 C 1.390625 85.453125 19.117188 76.152344 44.269531 79.511719 C 55.832031 81.050781 64.683594 77.285156 73.246094 73.636719 C 83.769531 69.15625 93.714844 64.921875 107.480469 71.605469 C 119.402344 77.398438 124.910156 87.285156 130.742188 97.753906 C 137 108.984375 143.464844 120.597656 158.4375 127.273438 C 186.292969 139.6875 191.046875 147.148438 192.03125 164.742188 C 192.519531 173.511719 197.257812 176.003906 203.257812 179.15625 C 209.710938 182.550781 217.75 186.777344 223.785156 200.992188 C 234.917969 227.195312 243.175781 234.632812 256.402344 240.570312 C 267.742188 245.660156 269.734375 253.433594 265.269531 275.222656 C 263.515625 283.824219 266.863281 291.695312 270.421875 300.035156 C 275.871094 312.832031 281.507812 326.054688 268.589844 343.230469 C 261.515625 352.628906 251.449219 358.128906 238.675781 359.5625 C 219.128906 361.753906 200.136719 353.78125 194.753906 349.226562 C 188.207031 343.6875 165.382812 326.152344 146.730469 333.179688 C 130.8125 339.175781 115.289062 323.199219 106.015625 313.664062 L 105.175781 312.800781 C 94.097656 301.425781 69.4375 289.726562 46.910156 304.117188 C 33.65625 312.558594 26.335938 321.871094 28.664062 327.289062 C 30.640625 331.890625 38.804688 332.667969 51.648438 329.480469 C 73.566406 324.046875 79.109375 331.8125 87.496094 343.578125 C 90.53125 347.835938 93.980469 352.667969 98.675781 357.433594 C 105.734375 364.59375 110.464844 368.941406 113.59375 371.816406 C 118.1875 376.042969 119.578125 377.320312 120.53125 380.179688 C 120.636719 380.5 120.9375 380.699219 121.257812 380.699219 C 121.339844 380.699219 121.417969 380.683594 121.5 380.660156 C 121.898438 380.523438 122.117188 380.097656 121.980469 379.691406 C 120.898438 376.457031 119.316406 375.007812 114.625 370.695312 C 111.503906 367.828125 106.789062 363.484375 99.757812 356.359375 C 95.148438 351.683594 91.738281 346.90625 88.730469 342.695312 C 80.289062 330.867188 74.199219 322.316406 51.277344 328 C 34.433594 332.171875 30.832031 328.472656 30.058594 326.6875 C 28.433594 322.902344 33.257812 314.625 47.703125 305.390625 C 72.035156 289.84375 96.628906 306.222656 104.054688 313.855469 L 104.894531 314.714844 C 112.953125 323.007812 125.589844 336.027344 139.488281 336.019531 C 142.035156 336.019531 144.625 335.582031 147.234375 334.597656 C 165.121094 327.863281 187.359375 344.976562 193.746094 350.378906 Z M 193.746094 350.378906 " fill-opacity="1" fill-rule="nonzero"/><path fill="#35a15e" d="M 83.28125 363.964844 C 72.871094 364.195312 72.019531 364.21875 66.125 349.988281 C 64.746094 346.648438 62.667969 344.707031 59.96875 344.234375 C 52.40625 342.914062 41.851562 353.222656 32.523438 363.476562 C 23.136719 373.808594 1.207031 369.652344 0.984375 369.613281 C 0.574219 369.527344 0.167969 369.804688 0.0898438 370.214844 C 0.015625 370.628906 0.28125 371.03125 0.695312 371.109375 C 1.625 371.292969 23.6875 375.472656 33.664062 364.507812 C 39.132812 358.488281 51.949219 344.386719 59.707031 345.746094 C 61.890625 346.128906 63.53125 347.707031 64.714844 350.574219 C 70.589844 364.773438 71.804688 365.746094 83.3125 365.492188 C 88.21875 365.371094 92.1875 366.714844 94.804688 369.34375 C 97.316406 371.863281 98.574219 375.519531 98.453125 379.914062 C 98.445312 380.332031 98.773438 380.683594 99.195312 380.699219 C 99.203125 380.699219 99.210938 380.699219 99.214844 380.699219 C 99.628906 380.699219 99.964844 380.371094 99.980469 379.957031 C 100.109375 375.136719 98.699219 371.101562 95.890625 368.269531 C 92.972656 365.339844 88.617188 363.84375 83.28125 363.964844 Z M 83.28125 363.964844 " fill-opacity="1" fill-rule="nonzero"/><path fill="#35a15e" d="M 71.390625 379.179688 C 71.332031 379.171875 65.203125 378.347656 59.121094 371.800781 C 52.117188 364.257812 46.894531 364.234375 36.800781 371.710938 C 26.894531 379.042969 20.421875 379.171875 20.359375 379.171875 C 19.941406 379.171875 19.597656 379.515625 19.597656 379.9375 C 19.597656 380.355469 19.941406 380.699219 20.359375 380.699219 C 20.644531 380.699219 27.34375 380.605469 37.714844 372.9375 C 48.117188 365.242188 52.214844 366.605469 58.007812 372.847656 C 64.492188 379.828125 70.941406 380.667969 71.210938 380.699219 C 71.238281 380.699219 71.269531 380.707031 71.300781 380.707031 C 71.683594 380.707031 72.011719 380.425781 72.054688 380.035156 C 72.109375 379.609375 71.8125 379.234375 71.390625 379.179688 Z M 71.390625 379.179688 " fill-opacity="1" fill-rule="nonzero"/><path fill="#35a15e" d="M 22.78125 339.878906 C 21.375 339.582031 19.695312 340.726562 17.558594 342.175781 C 15.019531 343.90625 11.859375 346.058594 8.953125 345.65625 C 6.859375 345.363281 5.882812 346.210938 5.488281 346.746094 C 4.816406 347.652344 4.792969 348.9375 5.410156 350.253906 C 6.363281 352.277344 9.148438 354.742188 13.875 355.007812 C 14.09375 355.023438 14.308594 355.023438 14.515625 355.023438 C 19.292969 355.023438 21.886719 351.902344 23.03125 349.988281 C 24.878906 346.890625 25.359375 342.886719 24.117188 340.871094 C 23.796875 340.328125 23.34375 339.992188 22.78125 339.878906 Z M 21.726562 349.203125 C 20.710938 350.902344 18.347656 353.734375 13.964844 353.484375 C 9.914062 353.253906 7.570312 351.246094 6.800781 349.597656 C 6.433594 348.8125 6.402344 348.082031 6.722656 347.644531 C 6.976562 347.304688 7.472656 347.121094 8.136719 347.121094 C 8.324219 347.121094 8.53125 347.136719 8.753906 347.164062 C 12.257812 347.644531 15.675781 345.3125 18.429688 343.441406 C 20.039062 342.34375 21.703125 341.214844 22.46875 341.375 C 22.566406 341.398438 22.6875 341.449219 22.824219 341.671875 C 23.65625 343.023438 23.421875 346.371094 21.726562 349.203125 Z M 21.726562 349.203125 " fill-opacity="1" fill-rule="nonzero"/><path fill="#35a15e" d="M 378.09375 330.074219 C 378.492188 329.929688 378.695312 329.496094 378.550781 329.097656 C 378.40625 328.703125 377.964844 328.496094 377.574219 328.640625 C 370.59375 331.179688 361.183594 340.792969 347.964844 358.898438 C 342.5625 366.300781 333.34375 371.183594 322.667969 372.28125 C 313.316406 373.246094 304.402344 371.039062 299.40625 366.53125 C 288.753906 356.910156 277.457031 353.179688 256.929688 366.246094 C 234.261719 380.675781 215.152344 377.722656 203.121094 372.710938 C 197.839844 370.503906 192.910156 367.542969 188.144531 364.683594 C 178.570312 358.929688 169.527344 353.492188 157.660156 353.492188 C 157.605469 353.492188 157.542969 353.492188 157.492188 353.492188 C 153.398438 353.507812 150.578125 354.824219 149.082031 357.414062 C 144.832031 364.753906 153.230469 379.675781 153.597656 380.308594 C 153.734375 380.554688 153.996094 380.699219 154.261719 380.699219 C 154.390625 380.699219 154.523438 380.667969 154.636719 380.597656 C 155.003906 380.394531 155.132812 379.929688 154.925781 379.5625 C 154.84375 379.417969 146.59375 364.761719 150.410156 358.183594 C 151.613281 356.101562 154.003906 355.039062 157.507812 355.023438 C 157.558594 355.023438 157.613281 355.023438 157.667969 355.023438 C 169.113281 355.023438 177.980469 360.359375 187.367188 365.996094 C 192.183594 368.886719 197.160156 371.878906 202.546875 374.121094 C 214.917969 379.28125 234.539062 382.316406 257.761719 367.539062 C 277.542969 354.949219 287.972656 358.25 298.398438 367.667969 C 303.710938 372.457031 313.074219 374.816406 322.835938 373.808594 C 333.9375 372.664062 343.546875 367.558594 349.207031 359.808594 C 362.226562 341.953125 371.410156 332.507812 378.09375 330.074219 Z M 378.09375 330.074219 " fill-opacity="1" fill-rule="nonzero"/><path fill="#35a15e" d="M 225.816406 139.871094 C 225.792969 142.25 225.777344 143.976562 225.851562 144.921875 C 225.96875 146.355469 225.792969 147.699219 225.625 148.996094 C 225.089844 153.125 224.539062 157.394531 232.988281 164.300781 C 233.90625 165.058594 234.828125 165.789062 235.742188 166.523438 C 245.648438 174.457031 254.195312 181.300781 251.578125 198.117188 C 249.28125 212.851562 259.460938 219.417969 272.34375 227.734375 C 276.511719 230.429688 280.832031 233.214844 285.171875 236.546875 C 299.679688 247.679688 296.820312 265.511719 294.726562 278.535156 C 294.308594 281.167969 293.902344 283.65625 293.695312 285.820312 C 293.027344 292.8125 295.332031 296.558594 297.175781 299.5625 C 298.789062 302.179688 300.0625 304.246094 299.109375 307.734375 C 298.648438 309.40625 297.335938 311.953125 295.820312 314.90625 C 290.246094 325.726562 280.921875 343.839844 297.527344 352.445312 C 301.597656 354.550781 305.617188 355.453125 309.53125 355.453125 C 323.863281 355.453125 336.859375 343.464844 346.132812 334.910156 C 347.332031 333.804688 348.476562 332.753906 349.566406 331.769531 C 361.402344 321.140625 378.109375 308.671875 378.277344 308.550781 C 378.613281 308.300781 378.679688 307.820312 378.429688 307.484375 C 378.175781 307.148438 377.695312 307.070312 377.359375 307.332031 C 377.191406 307.453125 360.425781 319.964844 348.542969 330.632812 C 347.453125 331.617188 346.300781 332.675781 345.09375 333.789062 C 332.90625 345.027344 316.21875 360.417969 298.222656 351.09375 C 282.960938 343.191406 291.507812 326.59375 297.160156 315.609375 C 298.71875 312.578125 300.070312 309.960938 300.566406 308.148438 C 301.6875 304.027344 300.121094 301.46875 298.460938 298.777344 C 296.636719 295.816406 294.574219 292.46875 295.199219 285.980469 C 295.40625 283.867188 295.804688 281.402344 296.222656 278.785156 C 298.375 265.390625 301.328125 247.03125 286.089844 235.351562 C 281.691406 231.976562 277.359375 229.179688 273.160156 226.46875 C 260.738281 218.449219 250.929688 212.117188 253.074219 198.367188 C 255.828125 180.683594 246.535156 173.234375 236.691406 165.347656 C 235.78125 164.613281 234.867188 163.882812 233.949219 163.132812 C 226.160156 156.761719 226.617188 153.261719 227.136719 149.203125 C 227.3125 147.820312 227.492188 146.394531 227.371094 144.808594 C 227.304688 143.921875 227.320312 142.226562 227.332031 139.886719 C 227.449219 127.058594 227.738281 92.992188 213.039062 70.746094 C 202.699219 55.089844 208.058594 41.125 213.230469 27.628906 C 216.511719 19.074219 219.609375 10.996094 218.550781 2.921875 C 218.496094 2.503906 218.113281 2.214844 217.695312 2.265625 C 217.277344 2.320312 216.984375 2.703125 217.039062 3.121094 C 218.046875 10.804688 215.015625 18.710938 211.8125 27.078125 C 206.746094 40.292969 200.996094 55.277344 211.773438 71.582031 C 226.210938 93.449219 225.921875 127.175781 225.816406 139.871094 Z M 225.816406 139.871094 " fill-opacity="1" fill-rule="nonzero"/><path fill="#35a15e" d="M 247.070312 85.386719 C 264.734375 88.253906 267.835938 91.46875 274.632812 98.496094 C 275.273438 99.15625 275.953125 99.859375 276.671875 100.59375 C 278.769531 102.730469 281.746094 105.0625 284.898438 107.535156 C 294.390625 114.980469 306.210938 124.253906 302.632812 134.828125 C 301.289062 138.789062 297.605469 143.847656 293.332031 149.707031 C 282.011719 165.21875 266.523438 186.464844 278.609375 209.371094 C 285.945312 223.273438 293.414062 227.386719 299.40625 230.679688 C 306.792969 234.746094 312.136719 237.683594 312.804688 257.523438 C 313.523438 278.710938 318.261719 292.804688 326.902344 299.410156 C 330.792969 302.386719 335.496094 303.875 340.957031 303.875 C 343.628906 303.875 346.476562 303.515625 349.5 302.804688 C 369.226562 298.152344 377.910156 285.675781 375.308594 265.726562 C 373.292969 250.289062 374.453125 237.707031 378.5 231.214844 C 378.71875 230.855469 378.613281 230.382812 378.253906 230.160156 C 377.894531 229.941406 377.421875 230.046875 377.199219 230.40625 C 372.980469 237.195312 371.738281 250.136719 373.796875 265.921875 C 376.277344 284.96875 367.988281 296.878906 349.15625 301.316406 C 340.417969 303.378906 333.242188 302.324219 327.839844 298.199219 C 319.582031 291.886719 315.042969 278.183594 314.339844 257.476562 C 313.636719 236.769531 307.984375 233.65625 300.152344 229.351562 C 294.332031 226.148438 287.089844 222.164062 279.96875 208.667969 C 268.332031 186.609375 283.5 165.804688 294.574219 150.613281 C 298.925781 144.65625 302.679688 139.503906 304.089844 135.324219 C 308.019531 123.726562 295.726562 114.082031 285.851562 106.335938 C 282.746094 103.894531 279.808594 101.59375 277.777344 99.53125 C 277.0625 98.800781 276.390625 98.105469 275.746094 97.441406 C 268.925781 90.382812 265.5 86.835938 247.328125 83.882812 C 237.949219 82.355469 229.25 73.734375 225.679688 62.421875 C 221.96875 50.671875 224.5625 39.332031 232.796875 31.3125 C 252.152344 12.460938 245.703125 2.976562 245.414062 2.578125 C 245.167969 2.234375 244.695312 2.160156 244.351562 2.402344 C 244.007812 2.648438 243.933594 3.121094 244.167969 3.464844 C 244.183594 3.488281 245.65625 5.660156 244.910156 9.980469 C 244.207031 14.046875 241.34375 20.859375 231.730469 30.222656 C 223.199219 38.539062 220.390625 50.746094 224.21875 62.878906 C 227.945312 74.726562 237.132812 83.769531 247.070312 85.386719 Z M 247.070312 85.386719 " fill-opacity="1" fill-rule="nonzero"/><path fill="#35a15e" d="M 241.992188 59.011719 C 243.71875 64.351562 247.6875 68.113281 253.800781 70.171875 C 268.710938 75.207031 277.898438 86.117188 283.980469 93.335938 C 285.21875 94.808594 286.285156 96.074219 287.277344 97.144531 C 289.292969 99.324219 293.765625 101.523438 298.957031 104.0625 C 309.195312 109.09375 323.214844 115.972656 325.292969 126.703125 C 327.816406 139.765625 312.585938 156.367188 302.503906 167.347656 C 300.222656 169.832031 298.246094 171.984375 296.796875 173.753906 C 292.1875 179.371094 290.371094 186.960938 292.054688 193.5625 C 293.246094 198.214844 296.703125 204.585938 306.402344 208.492188 C 322.855469 215.117188 322.855469 215.117188 322.828125 244.75 L 322.828125 248.671875 C 322.828125 264.59375 325.773438 275.195312 331.832031 281.066406 C 337.113281 286.1875 344.117188 287.179688 350.636719 287.179688 C 351.429688 287.179688 352.222656 287.164062 352.992188 287.140625 C 355.351562 287.066406 357.3125 286.164062 358.824219 284.457031 C 364.472656 278.054688 362.859375 261.140625 361.441406 246.214844 C 360.777344 239.21875 360.144531 232.609375 360.351562 227.894531 C 361.058594 211.414062 377.996094 202.679688 378.171875 202.589844 C 378.542969 202.398438 378.695312 201.9375 378.503906 201.566406 C 378.316406 201.191406 377.855469 201.039062 377.484375 201.230469 C 377.308594 201.320312 359.570312 210.445312 358.832031 227.835938 C 358.625 232.648438 359.257812 239.308594 359.929688 246.359375 C 361.320312 260.980469 362.898438 277.542969 357.6875 283.449219 C 356.449219 284.851562 354.902344 285.5625 352.957031 285.617188 C 346.140625 285.828125 338.410156 285.316406 332.898438 279.976562 C 327.152344 274.398438 324.351562 264.160156 324.351562 248.671875 L 324.351562 244.75 C 324.382812 214.660156 324.382812 214.085938 306.976562 207.074219 C 297.863281 203.402344 294.636719 197.492188 293.535156 193.179688 C 291.964844 187.046875 293.667969 179.972656 297.976562 174.722656 C 299.40625 172.984375 301.367188 170.847656 303.632812 168.375 C 313.921875 157.167969 329.464844 140.230469 326.789062 126.410156 C 324.566406 114.9375 310.152344 107.863281 299.621094 102.699219 C 294.566406 100.21875 290.210938 98.082031 288.394531 96.113281 C 287.433594 95.066406 286.371094 93.808594 285.140625 92.359375 C 278.953125 85.011719 269.597656 73.902344 254.28125 68.730469 C 248.648438 66.832031 245 63.40625 243.4375 58.542969 C 240.40625 49.144531 245.726562 36.867188 251.714844 28.519531 C 262.378906 13.644531 257.867188 3.152344 257.667969 2.71875 C 257.492188 2.335938 257.042969 2.160156 256.660156 2.335938 C 256.28125 2.503906 256.105469 2.960938 256.273438 3.34375 C 256.316406 3.441406 260.59375 13.519531 250.472656 27.636719 C 244.285156 36.28125 238.796875 49.066406 241.992188 59.011719 Z M 241.992188 59.011719 " fill-opacity="1" fill-rule="nonzero"/><path fill="#35a15e" d="M 287.972656 56.652344 C 291.125 58.355469 293.835938 60.742188 296.445312 63.054688 C 301.703125 67.699219 307.128906 72.5 316.523438 72.171875 L 318.078125 72.109375 C 326.765625 71.773438 337.570312 71.355469 344.324219 77.902344 C 348.667969 82.113281 350.835938 88.902344 350.757812 98.089844 C 350.550781 122.46875 359.585938 137.628906 377.613281 143.144531 C 377.6875 143.167969 377.765625 143.175781 377.835938 143.175781 C 378.164062 143.175781 378.460938 142.960938 378.566406 142.632812 C 378.6875 142.226562 378.460938 141.800781 378.0625 141.679688 C 360.761719 136.382812 352.085938 121.71875 352.285156 98.097656 C 352.367188 88.484375 350.046875 81.320312 345.394531 76.800781 C 338.171875 69.796875 327 70.234375 318.027344 70.578125 L 316.46875 70.636719 C 307.722656 70.957031 302.726562 66.554688 297.460938 61.902344 C 294.78125 59.535156 292.011719 57.085938 288.699219 55.300781 C 279.234375 50.203125 275.351562 38.761719 279.03125 26.8125 C 282.992188 13.949219 278.121094 3.144531 277.914062 2.6875 C 277.738281 2.304688 277.28125 2.136719 276.898438 2.3125 C 276.519531 2.488281 276.351562 2.9375 276.527344 3.328125 C 276.570312 3.433594 281.355469 14.054688 277.570312 26.363281 C 273.664062 39.042969 277.847656 51.203125 287.972656 56.652344 Z M 287.972656 56.652344 " fill-opacity="1" fill-rule="nonzero"/><path fill="#35a15e" d="M 293.453125 27.46875 C 291.941406 37.457031 295.574219 48.199219 302.496094 54.195312 C 305.703125 56.972656 310.667969 59.726562 317.796875 59.726562 C 320.691406 59.726562 323.941406 59.269531 327.566406 58.179688 C 334.121094 56.210938 340.042969 53.722656 345.269531 51.53125 C 359.777344 45.453125 369.363281 41.429688 377.191406 53.464844 C 377.421875 53.8125 377.894531 53.914062 378.246094 53.683594 C 378.597656 53.457031 378.695312 52.980469 378.46875 52.632812 C 369.941406 39.53125 359.34375 43.980469 344.675781 50.128906 C 339.484375 52.304688 333.601562 54.773438 327.125 56.722656 C 315.226562 60.300781 307.699219 56.699219 303.488281 53.042969 C 296.949219 47.375 293.523438 37.1875 294.957031 27.695312 C 297.429688 11.398438 290.917969 2.90625 290.636719 2.550781 C 290.378906 2.222656 289.898438 2.160156 289.570312 2.417969 C 289.242188 2.679688 289.179688 3.160156 289.4375 3.488281 C 289.507812 3.570312 295.820312 11.863281 293.453125 27.46875 Z M 293.453125 27.46875 " fill-opacity="1" fill-rule="nonzero"/><path fill="#35a15e" d="M 378.191406 73.675781 C 377.820312 73.476562 377.359375 73.613281 377.164062 73.988281 C 376.582031 75.070312 362.96875 100.601562 366.480469 110.113281 C 367.089844 111.769531 367.617188 113.328125 368.082031 114.699219 C 370.265625 121.148438 371.699219 125.414062 377.613281 127.289062 C 377.6875 127.3125 377.765625 127.328125 377.84375 127.328125 C 378.164062 127.328125 378.46875 127.121094 378.566406 126.792969 C 378.695312 126.390625 378.476562 125.960938 378.070312 125.832031 C 372.898438 124.191406 371.699219 120.644531 369.523438 114.210938 C 369.058594 112.832031 368.523438 111.257812 367.914062 109.589844 C 364.640625 100.714844 378.375 74.972656 378.511719 74.710938 C 378.703125 74.339844 378.566406 73.871094 378.191406 73.675781 Z M 378.191406 73.675781 " fill-opacity="1" fill-rule="nonzero"/><path fill="#35a15e" d="M 311.988281 36.828125 C 317.539062 39.597656 327.023438 42.398438 335.722656 42.398438 C 342.171875 42.398438 348.1875 40.867188 351.847656 36.648438 C 360.296875 26.925781 367.507812 24.515625 377.582031 28.046875 C 377.980469 28.183594 378.414062 27.980469 378.550781 27.582031 C 378.6875 27.1875 378.484375 26.75 378.085938 26.613281 C 367.308594 22.828125 359.632812 25.363281 350.695312 35.648438 C 342.636719 44.925781 321.957031 40.101562 312.675781 35.464844 C 302.953125 30.605469 304.023438 3.328125 304.039062 3.050781 C 304.054688 2.632812 303.734375 2.273438 303.304688 2.257812 C 302.871094 2.25 302.527344 2.5625 302.511719 2.992188 C 302.457031 4.152344 301.382812 31.535156 311.988281 36.828125 Z M 311.988281 36.828125 " fill-opacity="1" fill-rule="nonzero"/><path fill="#35a15e" d="M 331.601562 26.1875 C 332.542969 26.390625 333.480469 26.484375 334.417969 26.484375 C 342.035156 26.484375 349.574219 20.3125 352.648438 15.503906 C 358.496094 6.394531 377.6875 5.089844 377.878906 5.082031 C 378.300781 5.058594 378.621094 4.691406 378.597656 4.273438 C 378.574219 3.855469 378.222656 3.527344 377.789062 3.554688 C 376.972656 3.609375 357.625 4.914062 351.367188 14.679688 C 348.011719 19.914062 339.394531 26.308594 331.921875 24.691406 C 325.261719 23.25 320.765625 15.71875 318.910156 2.90625 C 318.851562 2.488281 318.46875 2.199219 318.050781 2.257812 C 317.628906 2.320312 317.347656 2.710938 317.402344 3.121094 C 319.867188 20.179688 326.480469 25.078125 331.601562 26.1875 Z M 331.601562 26.1875 " fill-opacity="1" fill-rule="nonzero"/><path fill="#35a15e" d="M 340.273438 6.402344 C 340.628906 6.5 341.035156 6.5625 341.492188 6.5625 C 342.949219 6.5625 344.890625 5.90625 347.164062 3.554688 C 347.453125 3.25 347.445312 2.769531 347.148438 2.480469 C 346.84375 2.191406 346.363281 2.199219 346.070312 2.496094 C 344.117188 4.515625 342.25 5.355469 340.675781 4.929688 C 339.53125 4.617188 338.738281 3.648438 338.546875 2.847656 C 338.449219 2.433594 338.035156 2.183594 337.625 2.28125 C 337.210938 2.382812 336.960938 2.792969 337.058594 3.207031 C 337.347656 4.394531 338.480469 5.914062 340.273438 6.402344 Z M 340.273438 6.402344 " fill-opacity="1" fill-rule="nonzero"/><path fill="#35a15e" d="M 309.234375 193.761719 C 313.890625 199.558594 318.453125 201.28125 322.125 202.671875 C 325.496094 203.945312 328.167969 204.960938 329.816406 208.667969 C 332.023438 213.628906 338.730469 218.800781 345.324219 218.800781 C 345.4375 218.800781 345.5625 218.800781 345.675781 218.792969 C 349.460938 218.6875 354.625 216.839844 357.734375 208.625 C 363.960938 192.1875 378.101562 183.039062 378.246094 182.949219 C 378.605469 182.71875 378.703125 182.253906 378.484375 181.894531 C 378.253906 181.539062 377.78125 181.4375 377.429688 181.660156 C 377.285156 181.75 362.722656 191.152344 356.3125 208.074219 C 354.085938 213.949219 350.398438 217.121094 345.636719 217.261719 C 339.5 217.4375 333.257812 212.628906 331.214844 208.035156 C 329.304688 203.746094 326.230469 202.582031 322.667969 201.230469 C 318.988281 199.832031 314.8125 198.253906 310.425781 192.785156 C 303.449219 184.09375 314.875 174.394531 324.964844 165.84375 C 326.808594 164.277344 328.550781 162.796875 330.113281 161.378906 C 335.90625 156.113281 335.34375 150.429688 334.792969 144.929688 C 334.351562 140.480469 333.890625 135.878906 336.65625 131.210938 C 337.984375 128.96875 339.472656 127.847656 341.210938 127.769531 C 346.324219 127.570312 352.832031 136.582031 356.703125 141.984375 L 357.3125 142.832031 C 362.90625 150.597656 377.078125 153.65625 377.675781 153.789062 C 378.085938 153.871094 378.492188 153.613281 378.574219 153.199219 C 378.660156 152.789062 378.398438 152.382812 377.988281 152.300781 C 377.847656 152.269531 363.792969 149.234375 358.550781 141.945312 L 357.945312 141.097656 C 353.6875 135.164062 347.285156 126.242188 341.394531 126.242188 C 341.308594 126.242188 341.226562 126.242188 341.140625 126.25 C 338.882812 126.351562 336.929688 127.761719 335.34375 130.441406 C 332.320312 135.535156 332.800781 140.390625 333.273438 145.082031 C 333.808594 150.445312 334.3125 155.503906 329.09375 160.25 C 327.550781 161.652344 325.816406 163.117188 323.980469 164.675781 C 313.882812 173.257812 301.320312 183.910156 309.234375 193.761719 Z M 309.234375 193.761719 " fill-opacity="1" fill-rule="nonzero"/><path fill="#35a15e" d="M 361.761719 154.160156 C 348.238281 151.0625 345.628906 154.71875 343.1875 160.65625 C 342.066406 163.386719 340.898438 166.214844 337.464844 167.925781 C 330.832031 171.238281 325.808594 177.609375 324.984375 183.789062 C 324.414062 188.054688 325.832031 191.84375 329.09375 194.765625 C 331.863281 197.246094 335.035156 198.527344 338.355469 198.527344 C 338.945312 198.527344 339.53125 198.492188 340.128906 198.40625 C 346.027344 197.605469 350.804688 193.148438 353.101562 189.578125 C 356.296875 184.605469 360 181.371094 365.128906 176.890625 C 366.472656 175.714844 367.898438 174.472656 369.425781 173.097656 C 372.789062 170.070312 372.78125 166.683594 372.1875 164.371094 C 370.882812 159.394531 365.746094 155.070312 361.761719 154.160156 Z M 368.386719 171.96875 C 366.867188 173.335938 365.441406 174.578125 364.105469 175.746094 C 359.082031 180.132812 355.117188 183.605469 351.804688 188.753906 C 349.683594 192.050781 345.292969 196.164062 339.914062 196.894531 C 336.363281 197.375 333.066406 196.277344 330.105469 193.628906 C 327.238281 191.066406 325.992188 187.734375 326.488281 183.992188 C 327.253906 178.292969 331.9375 172.390625 338.136719 169.292969 C 342.082031 167.324219 343.410156 164.085938 344.582031 161.234375 C 346.070312 157.609375 347.332031 154.558594 353.496094 154.558594 C 355.535156 154.558594 358.105469 154.894531 361.402344 155.648438 C 364.882812 156.441406 369.546875 160.386719 370.683594 164.757812 C 371.417969 167.519531 370.636719 169.949219 368.386719 171.96875 Z M 368.386719 171.96875 " fill-opacity="1" fill-rule="nonzero"/><path fill="#35a15e" d="M 335.9375 103.148438 C 336.402344 99.960938 336.722656 89.347656 321.507812 86.5625 C 317.828125 85.890625 316.316406 84.523438 314.5625 82.945312 C 312.324219 80.929688 309.785156 78.648438 302.425781 77.582031 C 298.308594 76.984375 295.964844 77.671875 295.46875 79.640625 C 294.542969 83.296875 301.496094 89.574219 306.207031 91.292969 C 307.089844 91.613281 307.9375 91.902344 308.738281 92.175781 C 314.058594 93.992188 317.574219 95.183594 320.675781 102.285156 C 322.863281 107.300781 326.613281 109.421875 329.648438 109.421875 C 329.929688 109.421875 330.207031 109.40625 330.480469 109.367188 C 333.386719 108.960938 335.433594 106.644531 335.9375 103.148438 Z M 322.070312 101.667969 C 318.707031 93.953125 314.730469 92.597656 309.226562 90.726562 C 308.433594 90.453125 307.59375 90.171875 306.722656 89.847656 C 302.105469 88.171875 296.351562 82.378906 296.949219 80.007812 C 297.132812 79.273438 298.152344 78.894531 299.824219 78.894531 C 300.511719 78.894531 301.304688 78.953125 302.207031 79.082031 C 309.105469 80.082031 311.363281 82.113281 313.539062 84.074219 C 315.386719 85.738281 317.125 87.300781 321.230469 88.054688 C 324.742188 88.699219 336.058594 91.671875 334.425781 102.925781 C 334.015625 105.75 332.503906 107.542969 330.265625 107.839844 C 327.679688 108.199219 324.148438 106.414062 322.070312 101.667969 Z M 322.070312 101.667969 " fill-opacity="1" fill-rule="nonzero"/><path fill="#35a15e" d="M 239.757812 152.214844 C 240.421875 159.289062 245.214844 165.035156 252.59375 167.582031 C 255.042969 168.429688 257.554688 168.832031 259.949219 168.832031 C 264.332031 168.832031 268.308594 167.46875 270.734375 164.902344 C 271.40625 164.195312 272.046875 163.53125 272.65625 162.898438 C 278.785156 156.542969 282.167969 153.03125 287.292969 135.363281 C 293.035156 115.59375 266.429688 102.242188 255.691406 98.761719 C 248.167969 96.320312 244.296875 98.472656 242.375 100.707031 C 238.941406 104.695312 239.085938 112.007812 242.75 119.316406 C 245.777344 125.375 244.296875 129.707031 242.429688 135.203125 C 240.855469 139.792969 239.085938 144.996094 239.757812 152.214844 Z M 244.109375 118.628906 C 240.78125 111.96875 240.542969 105.164062 243.527344 101.699219 C 244.953125 100.042969 247.023438 99.210938 249.632812 99.210938 C 251.28125 99.210938 253.152344 99.546875 255.210938 100.210938 C 260.746094 102.003906 269.628906 106.148438 276.441406 111.90625 C 284.996094 119.148438 288.148438 126.890625 285.820312 134.925781 C 280.792969 152.238281 277.511719 155.648438 271.550781 161.828125 C 270.933594 162.46875 270.292969 163.132812 269.621094 163.84375 C 266.261719 167.390625 259.46875 168.328125 253.089844 166.132812 C 246.296875 163.789062 241.878906 158.535156 241.277344 152.070312 C 240.636719 145.171875 242.34375 140.136719 243.863281 135.691406 C 245.773438 130.097656 247.421875 125.257812 244.109375 118.628906 Z M 244.109375 118.628906 " fill-opacity="1" fill-rule="nonzero"/><path fill="#35a15e" d="M 262.386719 146.339844 C 262.492188 146.339844 262.597656 146.332031 262.699219 146.324219 C 265.703125 146.074219 268.023438 142.34375 270.277344 138.734375 C 270.597656 138.214844 270.917969 137.703125 271.230469 137.207031 C 272.632812 135.019531 272.847656 132.445312 271.832031 129.96875 C 270.558594 126.832031 267.414062 124.199219 264.019531 123.40625 C 260.828125 122.664062 258.203125 123.710938 256.632812 126.351562 C 253.898438 130.9375 254.808594 140.085938 258.402344 144.144531 C 259.691406 145.609375 261.035156 146.339844 262.386719 146.339844 Z M 257.953125 127.144531 C 258.921875 125.527344 260.300781 124.710938 262.078125 124.710938 C 262.582031 124.710938 263.117188 124.777344 263.683594 124.910156 C 266.613281 125.585938 269.324219 127.855469 270.429688 130.554688 C 271.007812 131.972656 271.398438 134.148438 269.957031 136.398438 C 269.636719 136.902344 269.316406 137.414062 268.988281 137.941406 C 267.03125 141.078125 264.820312 144.632812 262.574219 144.816406 C 261.605469 144.898438 260.613281 144.347656 259.554688 143.144531 C 256.644531 139.855469 255.347656 131.507812 257.953125 127.144531 Z M 257.953125 127.144531 " fill-opacity="1" fill-rule="nonzero"/><path fill="#35a15e" d="M 331.207031 312.273438 C 327.457031 311.976562 324.605469 313.425781 321.300781 315.097656 C 319.71875 315.898438 318.09375 316.722656 316.140625 317.507812 C 311.980469 319.171875 307.175781 323.335938 306.03125 328.089844 C 305.359375 330.859375 306.03125 333.492188 307.96875 335.722656 C 310.296875 338.390625 312.394531 339.679688 314.585938 339.773438 C 314.667969 339.773438 314.753906 339.78125 314.835938 339.78125 C 318.066406 339.78125 321.09375 337.117188 324.421875 333.90625 C 329.433594 329.066406 334.898438 318.125 333.410156 313.984375 C 333.039062 312.960938 332.257812 312.359375 331.207031 312.273438 Z M 323.351562 332.796875 C 319.613281 336.40625 317.109375 338.332031 314.644531 338.238281 C 312.90625 338.164062 311.152344 337.039062 309.113281 334.707031 C 307.496094 332.84375 306.953125 330.738281 307.503906 328.441406 C 308.515625 324.238281 312.996094 320.398438 316.699219 318.921875 C 318.714844 318.109375 320.453125 317.234375 321.988281 316.457031 C 324.933594 314.960938 327.3125 313.753906 330.222656 313.753906 C 330.503906 313.753906 330.785156 313.761719 331.082031 313.785156 C 331.542969 313.824219 331.808594 314.027344 331.96875 314.488281 C 333.113281 317.683594 328.199219 328.121094 323.351562 332.796875 Z M 323.351562 332.796875 " fill-opacity="1" fill-rule="nonzero"/><path fill="#35a15e" d="M 207.925781 270.628906 C 215.613281 273.195312 222.054688 277.511719 224.730469 281.914062 C 226.167969 284.265625 229.257812 285.707031 232.84375 285.707031 C 232.929688 285.707031 233.019531 285.707031 233.101562 285.707031 C 236.726562 285.636719 239.773438 284.171875 241.039062 281.890625 C 243.742188 277.039062 240.308594 266.738281 234.363281 261.855469 C 229.089844 257.523438 224.554688 257.5 214.4375 259.589844 C 207.460938 261.03125 203.363281 263.445312 203.203125 266.191406 C 203.132812 267.472656 203.898438 269.289062 207.925781 270.628906 Z M 214.757812 261.085938 C 218.953125 260.214844 222.054688 259.796875 224.511719 259.796875 C 228.515625 259.796875 230.820312 260.910156 233.402344 263.039062 C 238.207031 266.992188 242.207031 276.664062 239.710938 281.152344 C 238.71875 282.929688 236.117188 284.121094 233.082031 284.179688 C 229.9375 284.25 227.226562 283.074219 226.035156 281.128906 C 223.183594 276.4375 216.429688 271.859375 208.414062 269.1875 C 206.019531 268.386719 204.675781 267.335938 204.738281 266.289062 C 204.828125 264.703125 207.964844 262.488281 214.757812 261.085938 Z M 214.757812 261.085938 " fill-opacity="1" fill-rule="nonzero"/><path fill="#35a15e" d="M 206.757812 311.535156 C 208.019531 311.535156 208.636719 310.945312 208.902344 310.566406 C 209.46875 309.757812 209.453125 308.597656 208.875 307.367188 C 208.058594 305.652344 205.925781 303.578125 202.628906 303.355469 C 197.449219 303.003906 195.175781 303.523438 195.046875 305.09375 C 194.824219 307.8125 203.707031 311.25 206.332031 311.511719 C 206.476562 311.527344 206.621094 311.535156 206.757812 311.535156 Z M 196.570312 305.253906 C 196.746094 305.109375 197.753906 304.554688 202.523438 304.875 C 204.996094 305.042969 206.796875 306.574219 207.492188 308.023438 C 207.820312 308.703125 207.882812 309.359375 207.652344 309.679688 C 207.414062 310.023438 206.8125 310.015625 206.476562 309.984375 C 203.378906 309.6875 196.898438 306.398438 196.570312 305.253906 Z M 196.570312 305.253906 " fill-opacity="1" fill-rule="nonzero"/><path fill="#35a15e" d="M 16.15625 168.421875 C 26.128906 187.824219 46.382812 194.570312 62.003906 192.636719 C 69.363281 191.730469 74.644531 188.90625 75.453125 185.445312 C 78.214844 173.609375 86.855469 167.300781 101.855469 166.15625 C 112.511719 165.339844 116.890625 170.542969 121.964844 176.5625 C 125.398438 180.636719 129.292969 185.246094 135.625 188.410156 C 146.652344 193.929688 147.15625 195.019531 149.59375 200.285156 C 150.53125 202.320312 151.699219 204.855469 153.78125 208.433594 C 161.445312 221.601562 189.703125 231.496094 198.96875 231.496094 C 199.167969 231.496094 199.355469 231.488281 199.539062 231.480469 C 203.691406 231.269531 208.980469 228.230469 211.054688 222.835938 C 214.460938 214.003906 207.285156 205.007812 202.714844 200.429688 C 196.945312 194.652344 191.910156 191.28125 187.476562 188.304688 C 178.722656 182.4375 172.9375 178.5625 170.90625 160.867188 C 168.351562 138.628906 162.742188 137.671875 151.5625 135.765625 C 149.019531 135.332031 146.144531 134.84375 142.945312 134.019531 C 126.308594 129.746094 124.363281 125.761719 119.800781 102.890625 C 117.496094 91.328125 110.671875 85.660156 105.351562 82.945312 C 96.1875 78.261719 85.59375 79.0625 79.632812 81.785156 C 72.261719 85.148438 61.691406 86.035156 50.496094 86.964844 C 45.652344 87.371094 40.636719 87.78125 35.828125 88.421875 C 20.261719 90.484375 0.855469 95.542969 0.65625 95.59375 C 0.25 95.703125 0.0078125 96.121094 0.113281 96.527344 C 0.222656 96.929688 0.640625 97.175781 1.046875 97.066406 C 1.234375 97.015625 20.558594 91.984375 36.035156 89.933594 C 40.804688 89.300781 45.796875 88.886719 50.628906 88.484375 C 61.960938 87.539062 72.660156 86.652344 80.277344 83.171875 C 85.914062 80.59375 95.949219 79.855469 104.664062 84.308594 C 111.855469 87.988281 116.578125 94.519531 118.3125 103.195312 C 122.964844 126.527344 125.1875 131.042969 142.570312 135.507812 C 145.828125 136.347656 148.746094 136.839844 151.316406 137.277344 C 162.070312 139.117188 166.976562 139.945312 169.402344 161.050781 C 171.515625 179.445312 177.53125 183.476562 186.644531 189.578125 C 191.023438 192.515625 195.992188 195.84375 201.652344 201.511719 C 209.101562 208.964844 211.941406 216.34375 209.652344 222.296875 C 207.804688 227.078125 203.140625 229.773438 199.480469 229.964844 C 191.984375 230.34375 162.75 220.785156 155.125 207.667969 C 153.078125 204.152344 151.925781 201.65625 151.003906 199.652344 C 148.457031 194.117188 147.84375 192.804688 136.335938 187.054688 C 130.285156 184.03125 126.667969 179.738281 123.164062 175.585938 C 118.035156 169.511719 113.207031 163.773438 101.765625 164.644531 C 86.226562 165.828125 76.878906 172.710938 73.988281 185.109375 C 73.339844 187.902344 68.453125 190.320312 61.839844 191.136719 C 46.726562 192.996094 27.167969 186.488281 17.53125 167.734375 C 9.996094 153.078125 10.828125 144.363281 11.492188 137.359375 C 12.234375 129.585938 12.765625 123.96875 1.304688 115.585938 C 0.960938 115.332031 0.488281 115.410156 0.238281 115.753906 C -0.015625 116.097656 0.0625 116.570312 0.40625 116.820312 C 11.164062 124.695312 10.691406 129.675781 9.972656 137.222656 C 9.273438 144.410156 8.417969 153.367188 16.15625 168.421875 Z M 16.15625 168.421875 " fill-opacity="1" fill-rule="nonzero"/><path fill="#35a15e" d="M 29.703125 144.402344 C 29.816406 155.078125 29.9375 167.171875 41.414062 173.214844 C 44.691406 174.9375 47.78125 175.667969 50.710938 175.667969 C 60.136719 175.667969 67.851562 168.117188 74.359375 161.746094 C 77.664062 158.511719 80.785156 155.457031 83.71875 153.734375 C 94.148438 147.585938 116.882812 152.476562 126.230469 160.617188 C 133.550781 166.988281 140.664062 169.910156 145.753906 168.644531 C 148.796875 167.878906 151.027344 165.707031 152.386719 162.15625 C 153.714844 158.6875 153.574219 155.519531 151.980469 152.726562 C 148.996094 147.515625 141.066406 143.792969 128.398438 141.664062 C 112.945312 139.0625 106.878906 132.308594 106.765625 117.554688 C 106.65625 103.140625 104.125 95.328125 90.554688 92.640625 C 81.007812 90.75 74.742188 93.472656 68.109375 96.367188 C 65.378906 97.554688 62.546875 98.785156 59.402344 99.722656 C 54.414062 101.203125 47.117188 100.921875 40.058594 100.636719 C 31.839844 100.308594 24.734375 100.027344 21.597656 102.429688 C 19.980469 103.675781 19.019531 105.476562 18.75 107.800781 C 18.140625 113.015625 21.140625 120.566406 26.398438 127.039062 C 29.5625 130.9375 29.632812 137.476562 29.703125 144.402344 Z M 20.269531 107.984375 C 20.492188 106.085938 21.253906 104.628906 22.527344 103.644531 C 24.277344 102.300781 27.902344 101.949219 32.304688 101.949219 C 34.699219 101.949219 37.316406 102.058594 39.996094 102.164062 C 47.179688 102.445312 54.609375 102.742188 59.839844 101.1875 C 63.074219 100.226562 65.945312 98.976562 68.722656 97.769531 C 75.125 94.976562 81.175781 92.34375 90.257812 94.144531 C 102.863281 96.648438 105.140625 103.691406 105.238281 117.578125 C 105.351562 133.042969 111.992188 140.457031 128.140625 143.175781 C 140.160156 145.195312 147.945312 148.757812 150.644531 153.488281 C 152.003906 155.863281 152.101562 158.59375 150.949219 161.617188 C 149.78125 164.660156 147.90625 166.53125 145.378906 167.164062 C 140.839844 168.292969 134.0625 165.414062 127.230469 159.464844 C 122.453125 155.304688 114.378906 151.878906 105.628906 150.308594 C 96.324219 148.628906 88.050781 149.402344 82.9375 152.414062 C 79.847656 154.238281 76.65625 157.351562 73.292969 160.65625 C 64.691406 169.078125 54.9375 178.613281 42.125 171.863281 C 31.457031 166.238281 31.34375 155.128906 31.226562 144.386719 C 31.152344 137.183594 31.082031 130.386719 27.585938 126.082031 C 22.648438 120.011719 19.710938 112.730469 20.269531 107.984375 Z M 20.269531 107.984375 " fill-opacity="1" fill-rule="nonzero"/><path fill="#35a15e" d="M 40.339844 142.449219 C 41.84375 146.820312 42.835938 149.714844 41.652344 153.589844 C 40.925781 155.96875 41.140625 157.9375 42.292969 159.441406 C 44.382812 162.179688 48.878906 162.332031 49.871094 162.332031 C 49.957031 162.332031 50.015625 162.332031 50.046875 162.332031 C 54.863281 162.324219 60.753906 159.296875 64.707031 154.792969 C 67.453125 151.667969 68.757812 148.355469 68.386719 145.480469 C 68.332031 145.042969 68.269531 144.625 68.21875 144.210938 C 67.789062 141.0625 67.445312 138.574219 68.589844 137.4375 C 69.628906 136.40625 72.035156 136.191406 76.140625 136.78125 C 82.3125 137.664062 89.1875 134.109375 92.492188 128.328125 C 95.507812 123.046875 94.851562 117.042969 90.699219 111.847656 C 80.039062 98.523438 68.292969 104.902344 62.648438 107.96875 C 60.777344 108.984375 57.59375 109.222656 54.230469 109.464844 C 45.871094 110.078125 35.472656 110.847656 36.386719 123.984375 C 36.996094 132.730469 38.851562 138.117188 40.339844 142.449219 Z M 54.34375 111 C 57.878906 110.738281 61.210938 110.496094 63.371094 109.320312 C 66.417969 107.664062 70.859375 105.253906 75.839844 105.253906 C 80.175781 105.253906 84.914062 107.078125 89.5 112.808594 C 94.628906 119.214844 92.746094 124.808594 91.164062 127.578125 C 88.210938 132.753906 81.847656 136.0625 76.351562 135.277344 C 71.667969 134.605469 68.933594 134.941406 67.507812 136.359375 C 65.820312 138.03125 66.210938 140.855469 66.699219 144.425781 C 66.753906 144.832031 66.8125 145.25 66.867188 145.683594 C 67.1875 148.125 66.011719 151.003906 63.554688 153.796875 C 59.921875 157.929688 54.359375 160.816406 50.023438 160.816406 C 50.015625 160.816406 50.007812 160.816406 50 160.816406 C 49.964844 160.816406 45.324219 160.921875 43.492188 158.519531 C 42.660156 157.425781 42.53125 155.917969 43.101562 154.039062 C 44.429688 149.683594 43.316406 146.449219 41.773438 141.953125 C 40.316406 137.710938 38.5 132.425781 37.90625 123.886719 C 37.097656 112.265625 45.863281 111.617188 54.34375 111 Z M 54.34375 111 " fill-opacity="1" fill-rule="nonzero"/><path fill="#35a15e" d="M 69.46875 129.953125 C 70.027344 130.195312 70.628906 130.308594 71.253906 130.308594 C 73.949219 130.308594 77.09375 128.242188 78.925781 125.792969 C 80.832031 123.246094 81.085938 120.675781 79.589844 118.910156 C 76.214844 114.921875 70.582031 111.992188 66.347656 114.105469 C 64.699219 114.929688 63.753906 117.117188 63.8125 119.957031 C 63.914062 123.605469 65.714844 128.289062 69.46875 129.953125 Z M 67.042969 115.476562 C 70.101562 113.945312 75.003906 115.851562 78.429688 119.902344 C 79.871094 121.605469 78.40625 123.953125 77.703125 124.886719 C 75.828125 127.386719 72.230469 129.515625 70.078125 128.5625 C 67.074219 127.226562 65.417969 123.207031 65.347656 119.933594 C 65.308594 117.730469 65.957031 116.019531 67.042969 115.476562 Z M 67.042969 115.476562 " fill-opacity="1" fill-rule="nonzero"/><path fill="#35a15e" d="M 1.304688 291.140625 C 7.585938 286.363281 27.558594 283.304688 36.914062 285.675781 L 37.898438 285.929688 C 46.726562 288.1875 52.054688 289.546875 71.558594 282.632812 C 84.289062 278.125 87.417969 280.070312 94.980469 284.769531 C 99.148438 287.355469 104.328125 290.574219 112.90625 294.007812 C 125.894531 299.203125 129.796875 307.636719 132.925781 314.410156 C 135.617188 320.238281 137.753906 324.832031 144.691406 323.910156 C 157.863281 322.15625 168.265625 320.765625 179.570312 328.402344 C 186.496094 333.082031 201.585938 339.582031 219.589844 339.582031 C 226.539062 339.582031 233.925781 338.613281 241.445312 336.195312 C 250.769531 333.195312 256.914062 328.402344 259.683594 321.949219 C 263.4375 313.226562 259.9375 304.15625 258.257812 300.660156 C 255.3125 294.527344 255.171875 290.117188 254.714844 275.507812 C 254.617188 272.226562 254.496094 268.449219 254.328125 264.03125 C 254.113281 258.445312 252.183594 253.976562 248.59375 250.746094 C 239.566406 242.621094 222.074219 243.796875 209.300781 244.652344 C 207.378906 244.78125 205.5625 244.902344 203.929688 244.980469 C 187.65625 245.75 171.691406 244.789062 155.332031 224.796875 C 146.8125 214.390625 138.792969 210.132812 132.933594 207.027344 C 127.1875 203.976562 123.386719 201.960938 122.242188 196.292969 C 119.632812 183.335938 110.535156 176.820312 102.886719 175.042969 C 100.285156 174.441406 97.613281 175.105469 95.179688 176.972656 C 90.945312 180.210938 87.707031 186.921875 87.488281 192.945312 C 87.433594 194.410156 86.648438 195.804688 85.152344 197.09375 C 79.246094 202.191406 63.753906 204.671875 48.316406 202.984375 C 29.167969 200.894531 1.726562 163.957031 1.449219 163.585938 C 1.199219 163.25 0.726562 163.171875 0.382812 163.425781 C 0.046875 163.675781 -0.03125 164.148438 0.222656 164.492188 C 1.359375 166.035156 28.335938 202.335938 48.148438 204.503906 C 63.972656 206.234375 79.953125 203.601562 86.152344 198.253906 C 87.984375 196.675781 88.945312 194.90625 89.011719 193.003906 C 89.21875 187.40625 92.203125 181.179688 96.109375 178.195312 C 98.210938 176.59375 100.375 176.035156 102.550781 176.539062 C 109.734375 178.210938 118.289062 184.351562 120.753906 196.605469 C 122.042969 202.992188 126.316406 205.257812 132.222656 208.394531 C 138.289062 211.605469 145.828125 215.613281 154.15625 225.78125 C 170.953125 246.308594 187.984375 247.285156 204.003906 246.519531 C 205.652344 246.445312 207.476562 246.320312 209.40625 246.191406 C 221.90625 245.351562 239.023438 244.207031 247.574219 251.898438 C 250.847656 254.84375 252.601562 258.949219 252.800781 264.105469 C 252.96875 268.515625 253.089844 272.300781 253.1875 275.574219 C 253.640625 290.039062 253.792969 294.917969 256.875 301.339844 C 258.460938 304.644531 261.773438 313.210938 258.273438 321.363281 C 255.675781 327.390625 249.855469 331.898438 240.964844 334.757812 C 214.542969 343.257812 189.800781 333.5 180.40625 327.160156 C 168.625 319.203125 157.972656 320.621094 144.480469 322.421875 C 138.648438 323.199219 136.917969 319.460938 134.296875 313.792969 C 131.222656 307.140625 127.011719 298.035156 113.464844 292.613281 C 105.007812 289.230469 99.886719 286.050781 95.773438 283.496094 C 88.007812 278.664062 84.457031 276.460938 71.035156 281.214844 C 51.96875 287.964844 47.101562 286.722656 38.257812 284.464844 L 37.273438 284.210938 C 27.390625 281.703125 7.042969 284.859375 0.367188 289.941406 C 0.03125 290.195312 -0.03125 290.675781 0.222656 291.011719 C 0.488281 291.332031 0.96875 291.398438 1.304688 291.140625 Z M 1.304688 291.140625 " fill-opacity="1" fill-rule="nonzero"/><path fill="#35a15e" d="M 1.039062 276.804688 C 1.648438 276.636719 16.019531 272.699219 19.988281 268.59375 C 24.023438 264.414062 30.257812 264.449219 36.675781 268.699219 C 44.445312 273.84375 58.808594 272.25 67.660156 267.824219 C 69.226562 267.042969 70.796875 266.121094 72.460938 265.144531 C 79.800781 260.847656 87.386719 256.410156 92.957031 265.121094 C 99.597656 275.5 103.511719 276.421875 112.089844 278.457031 C 113.136719 278.703125 114.257812 278.96875 115.464844 279.273438 C 116.945312 279.640625 118.242188 279.945312 119.394531 280.222656 C 126.902344 281.976562 128.253906 282.296875 134.765625 290.101562 C 142.121094 298.929688 143.496094 299.234375 160.320312 303.003906 L 164.121094 303.859375 C 175.113281 306.339844 180.011719 310.085938 185.191406 314.050781 C 189.785156 317.570312 194.535156 321.203125 203.714844 324.488281 C 211.117188 327.144531 217.71875 328.480469 223.046875 328.480469 C 227.417969 328.480469 230.9375 327.578125 233.355469 325.773438 C 235.804688 323.941406 236.988281 321.207031 236.789062 317.875 C 236.1875 307.863281 226.121094 299.914062 208.949219 289.566406 C 202.777344 285.84375 200.648438 281.671875 198.394531 277.261719 C 195.207031 271.003906 191.910156 264.542969 176.851562 259.605469 C 171.960938 258.003906 167.839844 256.789062 164.527344 255.8125 C 150.417969 251.65625 147.476562 250.792969 139.703125 236.914062 C 138.503906 234.769531 137.328125 232.648438 136.183594 230.574219 C 127.652344 215.09375 120.90625 202.863281 112.710938 201.449219 C 103.636719 199.886719 101.527344 202.296875 98.597656 206.707031 C 96.148438 210.386719 84.007812 212.773438 77.621094 211.613281 C 73.558594 210.875 69.554688 214.300781 65.691406 217.601562 C 62.691406 220.167969 59.59375 222.820312 56.746094 223.234375 C 50.144531 224.195312 40.292969 219.015625 32.800781 210.621094 C 28.960938 206.320312 23.078125 203.671875 17.390625 201.101562 C 11.445312 198.414062 5.289062 195.636719 1.433594 190.992188 C 1.167969 190.671875 0.6875 190.625 0.359375 190.890625 C 0.0390625 191.160156 -0.0078125 191.640625 0.257812 191.96875 C 4.34375 196.878906 10.660156 199.734375 16.765625 202.488281 C 22.566406 205.105469 28.039062 207.578125 31.664062 211.636719 C 39.476562 220.386719 49.878906 225.78125 56.96875 224.746094 C 60.25 224.265625 63.523438 221.464844 66.683594 218.761719 C 70.277344 215.6875 74.003906 212.507812 77.34375 213.109375 C 84.367188 214.382812 97.019531 211.820312 99.867188 207.546875 C 102.382812 203.761719 103.902344 201.480469 112.449219 202.953125 C 119.921875 204.242188 126.835938 216.785156 134.839844 231.304688 C 135.984375 233.382812 137.160156 235.511719 138.367188 237.664062 C 146.449219 252.089844 149.835938 253.082031 164.09375 257.285156 C 167.5625 258.308594 171.503906 259.46875 176.371094 261.0625 C 190.832031 265.800781 193.839844 271.707031 197.03125 277.964844 C 199.28125 282.371094 201.609375 286.9375 208.15625 290.886719 C 224.472656 300.722656 234.699219 308.679688 235.261719 317.980469 C 235.429688 320.820312 234.484375 323.03125 232.4375 324.566406 C 227.570312 328.214844 217.023438 327.65625 204.234375 323.070312 C 195.28125 319.859375 190.625 316.296875 186.125 312.855469 C 180.804688 308.78125 175.777344 304.933594 164.464844 302.386719 L 160.664062 301.53125 C 143.640625 297.714844 142.976562 297.570312 135.945312 289.140625 C 129.109375 280.9375 127.316406 280.519531 119.753906 278.75 C 118.601562 278.480469 117.3125 278.175781 115.847656 277.808594 C 114.632812 277.503906 113.503906 277.238281 112.449219 276.992188 C 104.039062 275.003906 100.558594 274.179688 94.257812 264.320312 C 87.890625 254.371094 79.289062 259.40625 71.699219 263.855469 C 70.050781 264.816406 68.5 265.726562 66.980469 266.488281 C 58.472656 270.738281 44.605469 272.140625 37.523438 267.457031 C 30.441406 262.773438 23.480469 262.808594 18.894531 267.5625 C 15.226562 271.371094 0.792969 275.324219 0.648438 275.359375 C 0.246094 275.46875 0 275.886719 0.113281 276.300781 C 0.214844 276.671875 0.640625 276.917969 1.039062 276.804688 Z M 1.039062 276.804688 " fill-opacity="1" fill-rule="nonzero"/><path fill="#35a15e" d="M 46.804688 248.910156 C 43.996094 249.558594 38.957031 248.289062 33.320312 245.511719 C 28.105469 242.949219 23.246094 239.523438 20.933594 236.792969 C 15.011719 229.796875 8.128906 225.109375 1.023438 223.25 C 0.617188 223.144531 0.199219 223.386719 0.0898438 223.792969 C -0.015625 224.195312 0.230469 224.613281 0.632812 224.722656 C 7.433594 226.507812 14.050781 231.015625 19.765625 237.777344 C 24.269531 243.09375 37.507812 250.59375 45.148438 250.59375 C 45.863281 250.59375 46.527344 250.527344 47.140625 250.390625 C 49.0625 249.945312 50.3125 248.777344 50.765625 247.007812 C 52.238281 241.1875 45.148438 238.800781 38.285156 236.488281 C 34.1875 235.105469 29.953125 233.679688 27.480469 231.582031 C 24.625 229.164062 21.992188 226.003906 19.667969 223.21875 C 16.386719 219.28125 13.554688 215.886719 10.828125 215.308594 C 6.753906 214.4375 1.375 209.972656 1.320312 209.929688 C 1 209.660156 0.519531 209.699219 0.246094 210.027344 C -0.0234375 210.347656 0.015625 210.828125 0.34375 211.101562 C 0.574219 211.292969 6.066406 215.847656 10.507812 216.800781 C 12.714844 217.273438 15.523438 220.640625 18.492188 224.203125 C 20.855469 227.042969 23.535156 230.253906 26.488281 232.757812 C 29.191406 235.046875 33.5625 236.519531 37.796875 237.945312 C 45.421875 240.515625 50.335938 242.507812 49.285156 246.648438 C 48.988281 247.855469 48.167969 248.597656 46.804688 248.910156 Z M 46.804688 248.910156 " fill-opacity="1" fill-rule="nonzero"/><path fill="#35a15e" d="M 14.917969 255.347656 C 11.738281 258.292969 3.753906 261.359375 0.894531 261.15625 C 0.480469 261.125 0.105469 261.4375 0.078125 261.855469 C 0.046875 262.277344 0.359375 262.640625 0.777344 262.671875 C 0.90625 262.679688 1.046875 262.6875 1.191406 262.6875 C 4.90625 262.6875 12.78125 259.40625 15.957031 256.460938 C 17.042969 255.453125 17.597656 254.492188 17.597656 253.601562 C 17.597656 250.007812 5.015625 243.917969 1.160156 242.132812 C 0.777344 241.957031 0.320312 242.125 0.144531 242.507812 C -0.03125 242.886719 0.136719 243.347656 0.519531 243.523438 C 7.996094 246.976562 16.070312 251.816406 16.070312 253.601562 C 16.070312 253.851562 15.917969 254.417969 14.917969 255.347656 Z M 14.917969 255.347656 " fill-opacity="1" fill-rule="nonzero"/><path fill="#35a15e" d="M 73.195312 253.089844 C 76.789062 254.523438 81.367188 252.082031 85.800781 249.726562 C 89.464844 247.773438 93.242188 245.757812 95.738281 246.480469 C 101.347656 248.113281 105.160156 251.632812 107.085938 256.941406 C 109.375 263.28125 117.195312 267.921875 126.09375 268.21875 C 135.40625 268.53125 141.328125 269.320312 145.996094 272.613281 C 152.523438 277.214844 156.84375 279.414062 159.367188 279.414062 C 159.796875 279.414062 160.175781 279.351562 160.503906 279.222656 C 161.261719 278.933594 161.765625 278.328125 161.960938 277.476562 C 163.054688 272.746094 153.140625 264.800781 145.835938 261.414062 C 140.082031 258.742188 131.671875 251.183594 120.84375 238.945312 C 115.914062 233.375 110.105469 232.910156 105.445312 232.527344 C 103.125 232.335938 101.125 232.175781 99.539062 231.472656 C 98.988281 231.230469 98.394531 230.949219 97.75 230.644531 C 92.507812 228.15625 83.738281 223.988281 74.597656 230.085938 C 69.882812 233.230469 67.523438 238.324219 68.117188 244.0625 C 68.570312 248.367188 70.660156 252.074219 73.195312 253.089844 Z M 75.4375 231.351562 C 83.863281 225.738281 91.820312 229.511719 97.09375 232.015625 C 97.75 232.328125 98.355469 232.617188 98.917969 232.863281 C 100.742188 233.671875 102.964844 233.847656 105.320312 234.039062 C 109.945312 234.410156 115.183594 234.839844 119.699219 239.945312 C 130.820312 252.511719 139.160156 259.988281 145.195312 262.789062 C 153.355469 266.578125 161.207031 273.941406 160.476562 277.125 C 160.367188 277.574219 160.152344 277.710938 159.964844 277.789062 C 159.007812 278.152344 156.039062 277.804688 146.882812 271.355469 C 141.898438 267.847656 135.757812 267.007812 126.148438 266.6875 C 116.472656 266.367188 110.230469 261.140625 108.519531 256.417969 C 106.421875 250.617188 102.269531 246.78125 96.164062 245.011719 C 95.660156 244.863281 95.125 244.796875 94.585938 244.796875 C 91.800781 244.796875 88.523438 246.542969 85.082031 248.375 C 80.960938 250.570312 76.695312 252.839844 73.757812 251.671875 C 71.789062 250.882812 70.019531 247.550781 69.636719 243.910156 C 69.378906 241.46875 69.429688 235.359375 75.4375 231.351562 Z M 75.4375 231.351562 " fill-opacity="1" fill-rule="nonzero"/><path fill="#35a15e" d="M 378.132812 371.671875 C 376.382812 370.925781 374.429688 371.3125 372.546875 371.695312 C 368.835938 372.4375 365.632812 373.078125 363.9375 365.683594 C 361.351562 354.40625 377.964844 347.058594 378.140625 346.988281 C 378.527344 346.820312 378.703125 346.371094 378.535156 345.992188 C 378.367188 345.601562 377.925781 345.425781 377.527344 345.59375 C 377.347656 345.671875 373.027344 347.5625 368.980469 350.980469 C 363.511719 355.613281 361.25 360.816406 362.449219 366.035156 C 363.882812 372.289062 366.625 373.65625 369.425781 373.65625 C 370.585938 373.65625 371.75 373.417969 372.84375 373.207031 C 374.582031 372.855469 376.222656 372.527344 377.527344 373.089844 C 377.917969 373.257812 378.367188 373.078125 378.527344 372.695312 C 378.703125 372.289062 378.519531 371.839844 378.132812 371.671875 Z M 378.132812 371.671875 " fill-opacity="1" fill-rule="nonzero"/></svg>