<svg width="163" height="123" viewBox="0 0 163 123" fill="none" xmlns="http://www.w3.org/2000/svg">
<path d="M127.096 104.995C127.268 103.873 125 102.591 122.028 102.132C119.057 101.673 116.507 102.21 116.334 103.333C116.162 104.455 118.43 105.737 121.402 106.196C124.373 106.655 126.923 106.117 127.096 104.995Z" fill="#D1D3D4"/>
<path d="M87.8299 103.129C88.8497 97.8071 75.31 90.7333 57.5882 87.3294C39.8664 83.9254 24.6733 85.4804 23.6535 90.8024C22.6337 96.1245 36.1734 103.198 53.8952 106.602C71.617 110.006 86.8101 108.451 87.8299 103.129Z" fill="#D1D3D4"/>
<path d="M139.479 98.6598H139.442L23.4842 77.0934C23.4578 77.089 23.4325 77.0793 23.4099 77.065C23.3873 77.0506 23.3678 77.0318 23.3526 77.0097C23.3374 76.9876 23.3268 76.9627 23.3214 76.9364C23.316 76.9102 23.3159 76.8831 23.3212 76.8568C23.3311 76.8039 23.3615 76.757 23.4058 76.7264C23.4501 76.6959 23.5046 76.6841 23.5576 76.6936L139.516 98.2559C139.57 98.2607 139.62 98.2869 139.654 98.3286C139.689 98.3703 139.706 98.4241 139.701 98.4782C139.696 98.5323 139.67 98.5823 139.629 98.6171C139.587 98.6519 139.533 98.6687 139.479 98.6639V98.6598Z" fill="#D1D3D4"/>
<path d="M75.848 12.1088L131.561 22.8103V87.7297L75.848 77.0282V12.1088Z" fill="white"/>
<path d="M131.557 87.9337H131.521L75.795 77.2281C75.749 77.2186 75.7076 77.1936 75.6779 77.1572C75.6482 77.1208 75.632 77.0752 75.632 77.0281V12.1087C75.6317 12.0784 75.638 12.0484 75.6507 12.0209C75.6634 11.9934 75.6821 11.969 75.7053 11.9496C75.7287 11.9312 75.7556 11.9178 75.7843 11.9101C75.813 11.9023 75.843 11.9005 75.8724 11.9047L131.598 22.6063C131.644 22.6166 131.686 22.6424 131.716 22.6795C131.745 22.7166 131.761 22.7628 131.761 22.8103V87.7297C131.762 87.7595 131.756 87.7892 131.743 87.8161C131.73 87.8431 131.711 87.8666 131.688 87.8848C131.652 87.9169 131.605 87.9343 131.557 87.9337ZM76.0517 76.8568L131.354 87.4645V22.9776L76.0517 12.3698V76.8568Z" fill="#D1D3D4"/>
<path d="M100.506 74.5924C100.459 74.5917 100.414 74.5752 100.378 74.5456C100.341 74.516 100.316 74.475 100.306 74.4292C99.9883 72.8544 100.233 71.3285 100.51 69.8965C100.917 67.7137 101.508 65.2331 102.996 63.3972C103.737 62.4385 104.757 61.7327 105.914 61.3763C107.072 61.0199 108.311 61.0304 109.463 61.4062C109.488 61.415 109.512 61.4288 109.532 61.4467C109.552 61.4646 109.568 61.4863 109.58 61.5106C109.592 61.5348 109.598 61.5611 109.6 61.588C109.602 61.6149 109.598 61.6419 109.589 61.6673C109.58 61.6928 109.566 61.7162 109.549 61.7363C109.531 61.7565 109.509 61.7729 109.485 61.7846C109.461 61.7964 109.434 61.8032 109.407 61.8048C109.381 61.8064 109.354 61.8026 109.328 61.7938C108.256 61.4448 107.102 61.4362 106.024 61.7692C104.947 62.1023 103.999 62.7607 103.309 63.6542C101.883 65.4167 101.325 67.8402 100.909 69.974C100.64 71.3652 100.404 72.8299 100.705 74.3476C100.711 74.3739 100.711 74.401 100.706 74.4273C100.701 74.4536 100.691 74.4786 100.676 74.501C100.661 74.5233 100.642 74.5425 100.62 74.5575C100.598 74.5725 100.573 74.583 100.547 74.5884L100.506 74.5924Z" fill="#D1D3D4"/>
<path d="M112.136 62.1569C111.525 62.1422 110.916 62.0698 110.318 61.9407C109.079 61.7367 107.869 61.3761 106.72 60.8677C104.168 59.5619 102.188 57.3575 101.162 54.6785C100.192 52.2305 100.045 49.7459 99.9068 47.3591C99.9055 47.3055 99.9245 47.2534 99.9601 47.2133C99.9956 47.1732 100.045 47.148 100.098 47.1429C100.152 47.1406 100.205 47.1593 100.245 47.1951C100.285 47.2309 100.31 47.2809 100.314 47.3346C100.453 49.6928 100.595 52.1285 101.537 54.5275C102.524 57.1111 104.431 59.2374 106.891 60.4964C108.009 60.9919 109.185 61.3429 110.392 61.5409C111.182 61.7333 112 61.7844 112.808 61.6918C112.835 61.6873 112.862 61.688 112.889 61.6941C112.915 61.7001 112.94 61.7113 112.962 61.727C112.985 61.7428 113.003 61.7627 113.018 61.7857C113.032 61.8087 113.042 61.8343 113.047 61.8611C113.051 61.8879 113.05 61.9153 113.044 61.9418C113.038 61.9683 113.027 61.9934 113.011 62.0155C112.996 62.0377 112.976 62.0566 112.953 62.071C112.93 62.0855 112.904 62.0953 112.878 62.0998C112.632 62.1392 112.384 62.1583 112.136 62.1569Z" fill="#D1D3D4"/>
<path d="M103.432 36.07C103.378 36.069 103.328 36.047 103.29 36.0089C103.253 35.9707 103.232 35.9194 103.232 35.866C103.232 33.9411 103.464 32.0231 103.925 30.1542C104.186 29.0934 104.573 27.9061 105.437 27.1391C106.94 25.805 109.312 26.0947 111.61 26.5108C112.046 26.5883 112.645 26.7515 112.878 27.2574C112.9 27.3067 112.901 27.3627 112.882 27.4131C112.863 27.4636 112.825 27.5045 112.776 27.5267C112.727 27.5491 112.671 27.5513 112.621 27.533C112.571 27.5147 112.53 27.4772 112.507 27.4288C112.356 27.0942 111.883 26.9718 111.541 26.9106C109.336 26.5027 107.058 26.2293 105.706 27.4451C104.923 28.1387 104.565 29.2525 104.32 30.2521C103.867 32.0931 103.639 33.9822 103.639 35.8783C103.636 35.9309 103.613 35.9803 103.574 36.0161C103.535 36.0518 103.484 36.0712 103.432 36.07Z" fill="#D1D3D4"/>
<path d="M101.631 36.8248C101.604 36.8232 101.578 36.8164 101.553 36.8047C101.529 36.7929 101.508 36.7766 101.49 36.7565C101.472 36.7364 101.458 36.713 101.45 36.6876C101.441 36.6622 101.437 36.6353 101.439 36.6085V36.5596C101.635 32.8877 101.928 27.3145 97.4251 25.4378C96.2281 24.9966 94.9762 24.722 93.7046 24.6218C93.6779 24.6186 93.652 24.6101 93.6285 24.5969C93.605 24.5837 93.5844 24.566 93.5677 24.5447C93.5511 24.5235 93.5388 24.4992 93.5315 24.4732C93.5242 24.4473 93.5221 24.4201 93.5253 24.3933C93.5285 24.3665 93.537 24.3406 93.5502 24.3171C93.5634 24.2936 93.5811 24.2729 93.6023 24.2562C93.6235 24.2396 93.6477 24.2272 93.6737 24.22C93.6996 24.2127 93.7268 24.2106 93.7535 24.2138C95.0618 24.3145 96.3497 24.5974 97.58 25.0543C102.348 27.0453 102.062 32.7816 101.846 36.5759V36.6126C101.848 36.6412 101.843 36.6696 101.832 36.6962C101.822 36.7227 101.806 36.7468 101.786 36.7668C101.765 36.7868 101.741 36.8023 101.714 36.8123C101.687 36.8223 101.659 36.8265 101.631 36.8248Z" fill="#D1D3D4"/>
<path d="M120.127 54.1684L89.1203 48.2159V31.1945L120.127 37.1512V54.1684Z" fill="white"/>
<path d="M120.127 54.3724H120.09L89.0836 48.4199C89.0365 48.4104 88.9941 48.385 88.9636 48.3478C88.9332 48.3106 88.9165 48.264 88.9165 48.2159V31.1945C88.9165 31.1648 88.923 31.1355 88.9357 31.1087C88.9484 31.0819 88.9669 31.0583 88.9899 31.0395C89.0136 31.0203 89.0411 31.0064 89.0706 30.9987C89.1001 30.991 89.1309 30.9896 89.161 30.9946L120.164 36.9513C120.21 36.9598 120.253 36.9845 120.283 37.021C120.314 37.0575 120.331 37.1036 120.331 37.1512V54.1562C120.33 54.1864 120.323 54.2161 120.311 54.2435C120.298 54.2709 120.28 54.2954 120.257 54.3153C120.222 54.3488 120.176 54.369 120.127 54.3724ZM89.324 48.0364L119.923 53.9155V37.3185L89.324 31.4434V48.0364Z" fill="#D1D3D4"/>
<path d="M114.479 41.839L94.7682 38.0529C94.3924 37.9724 94.0547 37.7676 93.8093 37.4716C93.5639 37.1756 93.4251 36.8055 93.4153 36.4209C93.4087 36.2519 93.4417 36.0838 93.5115 35.9298C93.5813 35.7758 93.6862 35.6403 93.8176 35.5341C93.949 35.4279 94.1034 35.3539 94.2684 35.318C94.4335 35.2822 94.6046 35.2854 94.7682 35.3275L114.479 39.1136C114.855 39.194 115.193 39.3986 115.44 39.6945C115.686 39.9905 115.825 40.3606 115.836 40.7456C115.842 40.9147 115.808 41.083 115.738 41.2369C115.668 41.3908 115.562 41.5262 115.431 41.6323C115.299 41.7384 115.144 41.8123 114.979 41.8482C114.814 41.8841 114.643 41.8809 114.479 41.839Z" fill="white"/>
<path d="M114.74 42.0715C114.64 42.0705 114.54 42.0596 114.442 42.0389L94.7315 38.2446C94.313 38.1535 93.9365 37.9257 93.6614 37.5971C93.3862 37.2684 93.228 36.8575 93.2116 36.429C93.2049 36.232 93.2429 36.0361 93.3226 35.856C93.4024 35.6758 93.5218 35.516 93.672 35.3886C93.8295 35.2634 94.0128 35.1746 94.2087 35.1287C94.4046 35.0829 94.6082 35.0811 94.8049 35.1234L114.507 38.93C114.926 39.0217 115.302 39.2496 115.577 39.5782C115.852 39.9067 116.01 40.3172 116.027 40.7455C116.032 40.9414 115.992 41.1357 115.912 41.3143C115.832 41.4929 115.712 41.6513 115.563 41.7778C115.331 41.9681 115.04 42.072 114.74 42.0715ZM114.52 41.639C114.66 41.6738 114.806 41.6761 114.947 41.6457C115.089 41.6153 115.221 41.553 115.335 41.4636C115.437 41.3745 115.518 41.2639 115.572 41.1398C115.626 41.0156 115.652 40.881 115.648 40.7455C115.635 40.4108 115.511 40.0901 115.296 39.8338C115.08 39.5775 114.786 39.4002 114.459 39.3298L94.7478 35.5437C94.6076 35.5083 94.4612 35.5057 94.3199 35.5361C94.1785 35.5666 94.0461 35.6292 93.9328 35.7191C93.8302 35.8076 93.7487 35.9181 93.6943 36.0424C93.64 36.1667 93.6143 36.3016 93.6191 36.4372C93.635 36.7687 93.7599 37.0856 93.9744 37.3387C94.1888 37.5918 94.4808 37.7668 94.8049 37.8366L114.52 41.639Z" fill="#D1D3D4"/>
<path d="M114.479 45.9311L94.7682 42.145C94.3924 42.0645 94.0547 41.8598 93.8093 41.5637C93.5639 41.2677 93.4251 40.8976 93.4153 40.513C93.4081 40.3437 93.4405 40.1751 93.5101 40.0206C93.5796 39.8661 93.6844 39.7301 93.8159 39.6234C93.9474 39.5167 94.102 39.4423 94.2674 39.4062C94.4328 39.3702 94.6043 39.3733 94.7682 39.4155L114.479 43.2058C114.855 43.2861 115.193 43.4907 115.44 43.7866C115.686 44.0826 115.825 44.4528 115.836 44.8377C115.842 45.0069 115.808 45.1751 115.738 45.329C115.668 45.4829 115.562 45.6183 115.431 45.7244C115.299 45.8305 115.144 45.9045 114.979 45.9404C114.814 45.9762 114.643 45.9731 114.479 45.9311Z" fill="white"/>
<path d="M114.74 46.1596C114.64 46.16 114.54 46.1504 114.442 46.131L94.7315 42.3449C94.313 42.2538 93.9365 42.026 93.6614 41.6974C93.3862 41.3687 93.228 40.9578 93.2116 40.5293C93.2061 40.3337 93.2447 40.1394 93.3244 39.9607C93.4041 39.782 93.5229 39.6236 93.672 39.4971C93.829 39.3708 94.0122 39.2814 94.2083 39.2355C94.4044 39.1896 94.6083 39.1884 94.8049 39.2319L114.507 43.018C114.926 43.1112 115.302 43.3401 115.576 43.6692C115.851 43.9983 116.01 44.4091 116.027 44.8377C116.032 45.0335 115.992 45.2277 115.912 45.4063C115.831 45.5848 115.712 45.7432 115.563 45.8699C115.33 46.0591 115.039 46.1615 114.74 46.1596ZM114.52 45.7312C114.66 45.7659 114.806 45.7682 114.947 45.7378C115.089 45.7074 115.221 45.6451 115.335 45.5557C115.436 45.4663 115.517 45.3557 115.571 45.2316C115.625 45.1075 115.652 44.9731 115.648 44.8377C115.636 44.5028 115.512 44.1816 115.296 43.9252C115.081 43.6688 114.786 43.4917 114.459 43.422L94.7478 39.6358C94.6076 39.6004 94.4612 39.5979 94.3199 39.6283C94.1785 39.6587 94.0461 39.7213 93.9328 39.8112C93.8302 39.8998 93.7487 40.0103 93.6943 40.1345C93.64 40.2588 93.6143 40.3937 93.6191 40.5293C93.6315 40.8637 93.7548 41.1844 93.9695 41.4407C94.1843 41.6971 94.4782 41.8745 94.8049 41.945L114.52 45.7312Z" fill="#D1D3D4"/>
<path d="M114.479 50.0232L94.7682 46.2371C94.3928 46.1559 94.0554 45.951 93.8101 45.6551C93.5648 45.3593 93.4258 44.9895 93.4153 44.6051C93.4081 44.4358 93.4405 44.2672 93.5101 44.1127C93.5796 43.9582 93.6844 43.8222 93.8159 43.7155C93.9474 43.6088 94.102 43.5344 94.2674 43.4984C94.4328 43.4623 94.6043 43.4654 94.7682 43.5076L114.479 47.2938C114.854 47.3755 115.192 47.5804 115.438 47.8761C115.684 48.1718 115.824 48.5412 115.836 48.9258C115.843 49.0952 115.809 49.2639 115.739 49.4184C115.669 49.5728 115.564 49.7087 115.432 49.8153C115.301 49.9219 115.146 49.9962 114.98 50.0323C114.815 50.0684 114.643 50.0653 114.479 50.0232Z" fill="white"/>
<path d="M114.74 50.2517C114.64 50.2522 114.54 50.2426 114.442 50.2232L94.7315 46.437C94.313 46.346 93.9365 46.1182 93.6614 45.7895C93.3862 45.4609 93.228 45.05 93.2116 44.6215C93.2061 44.4259 93.2447 44.2315 93.3244 44.0529C93.4041 43.8742 93.5229 43.7158 93.672 43.5893C93.829 43.463 94.0122 43.3736 94.2083 43.3277C94.4044 43.2818 94.6083 43.2805 94.8049 43.3241L114.507 47.1102C114.925 47.2026 115.301 47.4307 115.576 47.7591C115.851 48.0875 116.01 48.4977 116.027 48.9258C116.032 49.1217 115.993 49.3162 115.913 49.4949C115.832 49.6736 115.713 49.8319 115.563 49.958C115.332 50.1499 115.04 50.2539 114.74 50.2517ZM114.52 49.8233C114.66 49.8575 114.807 49.8592 114.948 49.828C115.089 49.7969 115.222 49.7339 115.335 49.6438C115.437 49.5549 115.518 49.4444 115.572 49.3202C115.627 49.196 115.653 49.0613 115.648 48.9258C115.634 48.5913 115.51 48.2709 115.295 48.0147C115.079 47.7585 114.785 47.581 114.459 47.51L94.7478 43.7239C94.6073 43.6891 94.4607 43.6872 94.3194 43.7183C94.178 43.7494 94.0457 43.8128 93.9328 43.9034C93.8299 43.9917 93.7483 44.1022 93.6939 44.2265C93.6396 44.3509 93.614 44.4859 93.6191 44.6215C93.6322 44.9556 93.7557 45.276 93.9704 45.5322C94.185 45.7884 94.4785 45.9661 94.8049 46.0372L114.52 49.8233Z" fill="#D1D3D4"/>
<path d="M127.14 68.032L108.884 64.5273V55.5189L127.14 59.0276V68.032Z" fill="white"/>
<path d="M127.14 68.236H127.099L108.847 64.7313C108.8 64.7235 108.757 64.6991 108.727 64.6624C108.696 64.6257 108.68 64.5792 108.68 64.5314V55.5189C108.68 55.4892 108.687 55.4599 108.699 55.4331C108.712 55.4063 108.731 55.3826 108.754 55.3639C108.776 55.3441 108.803 55.3297 108.832 55.3219C108.861 55.3142 108.891 55.3131 108.921 55.319L127.177 58.8277C127.224 58.8355 127.267 58.86 127.297 58.8967C127.328 58.9333 127.344 58.9798 127.344 59.0276V68.0279C127.343 68.0581 127.337 68.0878 127.324 68.1152C127.311 68.1426 127.293 68.1671 127.27 68.187C127.233 68.217 127.188 68.2342 127.14 68.236ZM109.088 64.356L126.936 67.7831V59.1949L109.088 55.7882V64.356Z" fill="#D1D3D4"/>
<path d="M93.6924 29.0485L80.2653 26.47V19.0486L93.6924 21.6271V29.0485Z" fill="white"/>
<path d="M93.6924 29.2688H93.6517L80.2286 26.6903C80.1815 26.6825 80.1387 26.658 80.108 26.6213C80.0774 26.5847 80.0609 26.5382 80.0615 26.4904V19.069C80.0614 19.0389 80.0683 19.0092 80.0817 18.9823C80.0952 18.9553 80.1148 18.9319 80.139 18.914C80.1613 18.8939 80.1881 18.8794 80.2171 18.8716C80.2462 18.8638 80.2766 18.863 80.306 18.8691L93.725 21.4272C93.7718 21.4358 93.8141 21.4605 93.8446 21.497C93.8751 21.5335 93.8919 21.5795 93.8921 21.6271V29.0485C93.8921 29.1026 93.8706 29.1545 93.8324 29.1927C93.7942 29.231 93.7424 29.2525 93.6883 29.2525L93.6924 29.2688ZM80.469 26.319L93.4887 28.82V21.7985L80.469 19.2975V26.319Z" fill="#D1D3D4"/>
<path d="M116.182 64.3559H116.138L110.693 63.3115C110.647 63.3029 110.604 63.2782 110.574 63.2417C110.543 63.2052 110.526 63.1592 110.526 63.1116V57.669C110.527 57.6384 110.534 57.6083 110.547 57.5808C110.561 57.5533 110.58 57.5291 110.604 57.5099C110.627 57.491 110.654 57.4776 110.683 57.4705C110.711 57.4635 110.742 57.463 110.771 57.4691L116.215 58.5135C116.261 58.5222 116.303 58.547 116.333 58.5836C116.363 58.6202 116.379 58.6662 116.378 58.7134V64.1642C116.378 64.1945 116.372 64.2245 116.359 64.252C116.347 64.2796 116.328 64.3039 116.305 64.3233C116.268 64.3464 116.225 64.3578 116.182 64.3559ZM110.942 62.9361L115.979 63.9031V58.8807L110.942 57.9138V62.9361Z" fill="#D1D3D4"/>
<path d="M114.409 61.4478C114.885 61.0144 114.847 60.1953 114.323 59.6183C113.8 59.0413 112.989 58.9249 112.513 59.3582C112.036 59.7916 112.075 60.6107 112.598 61.1877C113.122 61.7647 113.933 61.8811 114.409 61.4478Z" fill="white"/>
<path d="M113.693 61.908C113.597 61.9078 113.501 61.8996 113.407 61.8835C113.008 61.796 112.65 61.5782 112.388 61.2643C112.126 60.9504 111.976 60.5583 111.961 60.1496C111.954 59.9629 111.991 59.7773 112.067 59.6068C112.143 59.4364 112.257 59.2857 112.401 59.1663C112.551 59.0457 112.726 58.9603 112.914 58.9165C113.102 58.8728 113.297 58.8717 113.485 58.9134C113.883 59.0007 114.241 59.2179 114.503 59.531C114.765 59.844 114.915 60.2352 114.931 60.6432C114.935 60.8301 114.898 61.0156 114.822 61.1864C114.746 61.3571 114.633 61.5088 114.491 61.6306C114.266 61.8137 113.983 61.9118 113.693 61.908ZM113.199 59.2928C113.089 59.2926 112.979 59.315 112.878 59.3586C112.776 59.4021 112.684 59.4659 112.608 59.546C112.532 59.6262 112.473 59.721 112.434 59.8248C112.396 59.9285 112.379 60.039 112.384 60.1496C112.397 60.4638 112.514 60.7648 112.716 61.0055C112.918 61.2463 113.194 61.413 113.501 61.4796C113.629 61.5108 113.763 61.5123 113.893 61.484C114.022 61.4558 114.143 61.3985 114.247 61.3164C114.342 61.2328 114.418 61.1291 114.469 61.0127C114.519 60.8963 114.544 60.7702 114.54 60.6432C114.527 60.3292 114.41 60.0285 114.208 59.7879C114.006 59.5474 113.73 59.3804 113.424 59.3132C113.355 59.3017 113.285 59.2963 113.216 59.2969L113.199 59.2928Z" fill="#D1D3D4"/>
<path d="M112.694 61.5367L114.23 61.8346C114.768 61.9503 115.252 62.2422 115.606 62.6641C115.959 63.086 116.162 63.6139 116.182 64.1642L110.738 63.132C110.727 62.8866 110.773 62.642 110.873 62.4177C110.973 62.1934 111.124 61.9958 111.314 61.8406C111.505 61.6855 111.729 61.5772 111.968 61.5244C112.208 61.4716 112.456 61.4759 112.694 61.5367Z" fill="white"/>
<path d="M116.182 64.3559H116.138L110.693 63.3115C110.647 63.3029 110.604 63.2782 110.574 63.2417C110.543 63.2052 110.526 63.1592 110.526 63.1116C110.519 62.8423 110.572 62.5749 110.682 62.3291C110.792 62.0834 110.956 61.8655 111.162 61.6918C111.379 61.5185 111.631 61.396 111.901 61.3331C112.171 61.2703 112.452 61.2688 112.723 61.3287L114.259 61.6265C114.842 61.7535 115.367 62.0708 115.75 62.5287C116.134 62.9865 116.355 63.5589 116.378 64.156C116.378 64.1863 116.372 64.2164 116.359 64.2439C116.346 64.2714 116.328 64.2957 116.305 64.3151C116.269 64.3411 116.226 64.3554 116.182 64.3559ZM110.95 62.9402L115.962 63.9031C115.89 63.448 115.683 63.0251 115.368 62.6896C115.052 62.3541 114.643 62.1215 114.194 62.0222L112.653 61.7244C112.442 61.6753 112.222 61.6747 112.01 61.7228C111.799 61.7708 111.601 61.8662 111.431 62.0018C111.291 62.1198 111.176 62.2648 111.094 62.4281C111.011 62.5915 110.962 62.7698 110.95 62.9525V62.9402Z" fill="#D1D3D4"/>
<path d="M92.0502 27.5185H92.0094L81.72 25.5438C81.6729 25.5344 81.6306 25.5089 81.6001 25.4717C81.5696 25.4346 81.553 25.3879 81.553 25.3399V20.5745C81.5534 20.5443 81.5602 20.5146 81.5728 20.4872C81.5855 20.4598 81.6037 20.4353 81.6263 20.4154C81.6497 20.3971 81.6766 20.3839 81.7054 20.3769C81.7343 20.3699 81.7643 20.3691 81.7934 20.3746L92.095 22.333C92.1418 22.3415 92.1841 22.3662 92.2146 22.4027C92.2451 22.4392 92.2619 22.4853 92.2621 22.5329V27.3145C92.2616 27.3447 92.2549 27.3745 92.2422 27.4019C92.2296 27.4293 92.2114 27.4537 92.1887 27.4736C92.149 27.5039 92.1001 27.5197 92.0502 27.5185ZM81.9605 25.1889L91.8464 27.0861V22.741L81.9605 20.8397V25.1889Z" fill="#D1D3D4"/>
<path d="M81.7567 25.5398C81.7125 25.5405 81.6693 25.5264 81.6339 25.4998C81.5984 25.4732 81.5729 25.4356 81.5611 25.3929C81.5537 25.3669 81.5515 25.3397 81.5547 25.3129C81.5579 25.286 81.5663 25.2601 81.5796 25.2366C81.5929 25.213 81.6107 25.1924 81.632 25.1758C81.6533 25.1592 81.6777 25.147 81.7038 25.1399L91.9972 22.3534C92.0491 22.3396 92.1043 22.3469 92.1508 22.3736C92.1973 22.4004 92.2315 22.4444 92.2458 22.4962C92.2524 22.5222 92.2538 22.5492 92.2497 22.5758C92.2457 22.6023 92.2363 22.6278 92.2223 22.6506C92.2082 22.6734 92.1897 22.6932 92.1678 22.7087C92.146 22.7243 92.1212 22.7352 92.095 22.741L81.8016 25.5316L81.7567 25.5398Z" fill="#D1D3D4"/>
<path d="M92.0502 27.5185C92.0111 27.5184 91.9729 27.5071 91.9401 27.4859L81.6467 20.7418C81.6203 20.7295 81.5968 20.7116 81.5779 20.6894C81.559 20.6672 81.545 20.6411 81.537 20.6131C81.529 20.585 81.5271 20.5555 81.5314 20.5267C81.5357 20.4978 81.5462 20.4702 81.5621 20.4457C81.578 20.4212 81.599 20.4005 81.6236 20.3848C81.6482 20.3691 81.6759 20.359 81.7047 20.3549C81.7336 20.3509 81.763 20.3531 81.791 20.3614C81.8189 20.3698 81.8448 20.384 81.8667 20.4032L92.1602 27.1432C92.2055 27.1724 92.2374 27.2185 92.2489 27.2713C92.2603 27.3241 92.2504 27.3792 92.2213 27.4247C92.2026 27.4532 92.1773 27.4766 92.1474 27.493C92.1176 27.5093 92.0842 27.5181 92.0502 27.5185Z" fill="#D1D3D4"/>
<path d="M125.045 34.6624L110.974 31.9615V21.1049L125.045 23.8058V34.6624Z" fill="white"/>
<path d="M125.045 34.8664H125.009L110.938 32.1655C110.891 32.1577 110.848 32.1333 110.817 32.0966C110.787 32.0599 110.77 32.0134 110.771 31.9656V21.109C110.771 21.0784 110.778 21.0483 110.792 21.0208C110.805 20.9933 110.824 20.9691 110.848 20.9499C110.871 20.931 110.898 20.9176 110.927 20.9105C110.956 20.9035 110.986 20.903 111.015 20.9091L125.103 23.6059C125.149 23.6153 125.19 23.6403 125.22 23.6768C125.249 23.7132 125.266 23.7588 125.266 23.8058V34.6624C125.265 34.6926 125.258 34.7223 125.246 34.7498C125.233 34.7772 125.215 34.8016 125.192 34.8215C125.151 34.8543 125.098 34.8703 125.045 34.8664ZM111.19 31.7943L124.854 34.4176V23.9649L111.19 21.3375V31.7943Z" fill="#D1D3D4"/>
<path d="M121.5 31.9166L114.508 30.5784C114.198 30.5116 113.919 30.3433 113.715 30.1003C113.512 29.8572 113.395 29.5532 113.383 29.2361C113.378 29.0959 113.405 28.9564 113.464 28.8288C113.522 28.7012 113.609 28.5889 113.718 28.501C113.828 28.413 113.956 28.3518 114.093 28.3222C114.23 28.2926 114.372 28.2954 114.508 28.3304L121.5 29.6768C121.81 29.7438 122.088 29.9122 122.291 30.1553C122.494 30.3984 122.61 30.7024 122.621 31.0191C122.625 31.1584 122.597 31.2969 122.539 31.4235C122.481 31.5502 122.394 31.6615 122.285 31.7486C122.176 31.8357 122.049 31.8962 121.912 31.9254C121.776 31.9546 121.635 31.9516 121.5 31.9166Z" fill="white"/>
<path d="M121.712 32.1247C121.627 32.1245 121.543 32.1163 121.459 32.1003L114.507 30.7784C114.152 30.7021 113.832 30.5088 113.598 30.2293C113.365 29.9499 113.232 29.6002 113.22 29.2362C113.217 29.068 113.252 28.9012 113.322 28.7485C113.393 28.5959 113.497 28.4613 113.627 28.3549C113.761 28.2474 113.918 28.1715 114.085 28.1326C114.252 28.0938 114.426 28.0931 114.593 28.1305L121.569 29.4687C121.925 29.545 122.245 29.7383 122.479 30.0178C122.712 30.2973 122.845 30.6469 122.857 31.0109C122.861 31.161 122.833 31.3101 122.777 31.449C122.72 31.588 122.635 31.7137 122.528 31.8182C122.42 31.9228 122.292 32.004 122.152 32.0568C122.011 32.1095 121.862 32.1327 121.712 32.1247ZM114.312 28.4977C114.217 28.4935 114.122 28.5094 114.033 28.5444C113.945 28.5794 113.865 28.6328 113.798 28.7009C113.732 28.7691 113.68 28.8505 113.647 28.94C113.614 29.0294 113.601 29.1248 113.607 29.2199C113.618 29.4887 113.718 29.7464 113.89 29.9529C114.063 30.1594 114.298 30.3033 114.56 30.3622L121.537 31.7168C121.646 31.7426 121.759 31.7435 121.868 31.7195C121.978 31.6955 122.08 31.6471 122.168 31.578C122.25 31.5083 122.314 31.4211 122.357 31.3229C122.4 31.2247 122.421 31.1181 122.417 31.0109C122.405 30.7415 122.305 30.4834 122.132 30.2769C121.959 30.0703 121.722 29.9267 121.459 29.8686L114.507 28.5304C114.443 28.5176 114.377 28.5121 114.312 28.514V28.4977Z" fill="#D1D3D4"/>
<path d="M124.398 61.0676H124.361L118.798 59.9986C118.772 59.9943 118.747 59.9846 118.725 59.9702C118.702 59.9557 118.683 59.9368 118.668 59.9147C118.653 59.8925 118.643 59.8675 118.638 59.8413C118.633 59.815 118.634 59.7881 118.64 59.762C118.649 59.7091 118.68 59.6622 118.724 59.6316C118.768 59.6011 118.823 59.5893 118.876 59.5988L124.434 60.6841C124.488 60.6889 124.538 60.7151 124.573 60.7568C124.608 60.7985 124.624 60.8523 124.62 60.9064C124.615 60.9605 124.589 61.0105 124.547 61.0453C124.505 61.0801 124.452 61.0969 124.398 61.0921V61.0676Z" fill="#D1D3D4"/>
<path d="M124.398 63.2217H124.361L118.798 62.1528C118.772 62.1485 118.747 62.1388 118.725 62.1243C118.702 62.1099 118.683 62.091 118.668 62.0689C118.653 62.0467 118.643 62.0217 118.638 61.9955C118.633 61.9692 118.634 61.9422 118.64 61.9162C118.649 61.8633 118.68 61.8164 118.724 61.7858C118.768 61.7552 118.823 61.7434 118.876 61.753L124.434 62.8219C124.488 62.8268 124.538 62.853 124.573 62.8947C124.608 62.9364 124.624 62.9902 124.62 63.0443C124.615 63.0984 124.589 63.1483 124.547 63.1831C124.505 63.218 124.452 63.2348 124.398 63.2299V63.2217Z" fill="#D1D3D4"/>
<path d="M124.398 65.3759H124.361L118.798 64.307C118.772 64.3026 118.747 64.293 118.725 64.2785C118.702 64.2641 118.683 64.2452 118.668 64.223C118.653 64.2009 118.643 64.1759 118.638 64.1496C118.633 64.1234 118.634 64.0964 118.64 64.0704C118.649 64.0174 118.68 63.9706 118.724 63.94C118.768 63.9094 118.823 63.8976 118.876 63.9072L124.434 64.9761C124.488 64.981 124.538 65.0071 124.573 65.0488C124.608 65.0905 124.624 65.1443 124.62 65.1984C124.615 65.2526 124.589 65.3025 124.547 65.3373C124.505 65.3721 124.452 65.389 124.398 65.3841V65.3759Z" fill="#D1D3D4"/>
<path d="M121.598 25.45H121.557L114.385 24.071C114.359 24.0667 114.334 24.057 114.311 24.0426C114.289 24.0281 114.27 24.0092 114.255 23.9871C114.24 23.9649 114.23 23.9399 114.225 23.9137C114.22 23.8874 114.22 23.8604 114.226 23.8344C114.236 23.7815 114.267 23.7346 114.311 23.704C114.355 23.6735 114.41 23.6617 114.463 23.6712L121.635 25.0502C121.688 25.0601 121.734 25.0906 121.765 25.1349C121.795 25.1792 121.807 25.2338 121.798 25.2868C121.788 25.3326 121.762 25.3736 121.726 25.4032C121.69 25.4328 121.645 25.4493 121.598 25.45Z" fill="#D1D3D4"/>
<path d="M107.132 79.8596L96.3208 77.7829V66.6121L107.132 68.6888V79.8596Z" fill="white"/>
<path d="M107.132 80.0635H107.091L96.2841 77.9869C96.2373 77.9783 96.195 77.9536 96.1645 77.9171C96.134 77.8806 96.1172 77.8346 96.117 77.787V66.6121C96.117 66.5824 96.1236 66.5531 96.1362 66.5263C96.1489 66.4995 96.1674 66.4758 96.1904 66.4571C96.2129 66.4373 96.2397 66.4229 96.2687 66.4151C96.2977 66.4074 96.328 66.4063 96.3574 66.4122L107.172 68.4889C107.219 68.4974 107.262 68.5221 107.292 68.5586C107.323 68.5951 107.339 68.6412 107.34 68.6888V79.8596C107.34 79.9137 107.318 79.9655 107.28 80.0038C107.242 80.0421 107.19 80.0635 107.136 80.0635H107.132ZM96.5367 77.6156L106.94 79.6148V68.8438L96.5367 66.8447V77.6156Z" fill="#D1D3D4"/>
<path d="M105.298 71.4958H105.261L98.1138 70.125C98.0876 70.1196 98.0626 70.1091 98.0405 70.0941C98.0183 70.0791 97.9993 70.0599 97.9845 70.0376C97.9697 70.0152 97.9595 69.9902 97.9544 69.9639C97.9494 69.9376 97.9495 69.9105 97.9549 69.8843C97.9597 69.8582 97.9697 69.8333 97.9843 69.8111C97.9989 69.7889 98.0177 69.7699 98.0397 69.7551C98.0617 69.7403 98.0864 69.73 98.1124 69.7249C98.1385 69.7197 98.1652 69.7198 98.1912 69.7251L105.335 71.096C105.388 71.1059 105.434 71.1363 105.465 71.1807C105.495 71.225 105.507 71.2796 105.498 71.3326C105.488 71.3783 105.462 71.4193 105.426 71.449C105.39 71.4786 105.345 71.4951 105.298 71.4958Z" fill="#D1D3D4"/>
<path d="M105.298 74.1477H105.261L98.1138 72.7769C98.0876 72.7715 98.0626 72.7611 98.0405 72.7461C98.0183 72.7311 97.9993 72.7118 97.9845 72.6895C97.9697 72.6671 97.9595 72.6421 97.9544 72.6158C97.9494 72.5895 97.9495 72.5624 97.9549 72.5362C97.9597 72.5101 97.9697 72.4852 97.9843 72.463C97.9989 72.4409 98.0177 72.4218 98.0397 72.407C98.0617 72.3922 98.0864 72.3819 98.1124 72.3768C98.1385 72.3716 98.1652 72.3717 98.1912 72.3771L105.335 73.7397C105.388 73.7497 105.434 73.7801 105.465 73.8244C105.495 73.8688 105.507 73.9234 105.498 73.9764C105.489 74.0236 105.465 74.0665 105.428 74.0977C105.392 74.1289 105.346 74.1466 105.298 74.1477Z" fill="#D1D3D4"/>
<path d="M103.203 76.355H103.167L98.1138 75.3717C98.0597 75.3614 98.012 75.3301 97.981 75.2846C97.9501 75.239 97.9385 75.1831 97.9487 75.129C97.959 75.0749 97.9903 75.0271 98.0358 74.9961C98.0813 74.9651 98.1372 74.9535 98.1912 74.9637L103.244 75.9348C103.271 75.9396 103.296 75.9497 103.318 75.9646C103.341 75.9794 103.36 75.9987 103.375 76.0212C103.39 76.0437 103.4 76.0689 103.405 76.0954C103.41 76.122 103.409 76.1492 103.403 76.1755C103.398 76.2249 103.375 76.2706 103.338 76.3038C103.301 76.337 103.253 76.3552 103.203 76.355Z" fill="#D1D3D4"/>
<path d="M89.9108 60.2761H89.87L82.0298 58.7706C81.9766 58.7597 81.9297 58.7285 81.8993 58.6835C81.8688 58.6385 81.8571 58.5834 81.8667 58.5299C81.8721 58.5036 81.8826 58.4787 81.8975 58.4565C81.9125 58.4343 81.9317 58.4152 81.954 58.4005C81.9764 58.3857 82.0014 58.3755 82.0277 58.3704C82.0539 58.3653 82.081 58.3654 82.1072 58.3708L89.9475 59.8681C90.0003 59.878 90.0471 59.9085 90.0777 59.9528C90.1082 59.9971 90.12 60.0517 90.1105 60.1047C90.102 60.152 90.0775 60.1948 90.0412 60.226C90.0048 60.2573 89.9587 60.275 89.9108 60.2761Z" fill="#D1D3D4"/>
<path d="M89.9108 63.0218H89.87L82.0298 61.5C81.9769 61.4901 81.9301 61.4597 81.8995 61.4153C81.869 61.371 81.8572 61.3164 81.8667 61.2634C81.8776 61.2102 81.9088 61.1633 81.9538 61.1328C81.9987 61.1023 82.0538 61.0906 82.1072 61.1002L89.9475 62.6057C90.0003 62.6156 90.0471 62.6461 90.0777 62.6904C90.1082 62.7347 90.12 62.7893 90.1105 62.8423C90.1038 62.891 90.08 62.9358 90.0435 62.9687C90.0069 63.0015 89.9599 63.0204 89.9108 63.0218Z" fill="#D1D3D4"/>
<path d="M89.9108 65.7635H89.87L82.0298 64.258C81.9769 64.2481 81.9301 64.2177 81.8995 64.1733C81.869 64.129 81.8572 64.0744 81.8667 64.0214C81.8776 63.9682 81.9088 63.9213 81.9538 63.8908C81.9987 63.8603 82.0538 63.8486 82.1072 63.8582L89.9475 65.3637C90.0007 65.3746 90.0475 65.4058 90.0779 65.4508C90.1084 65.4958 90.1201 65.5509 90.1105 65.6044C90.1003 65.6497 90.0749 65.6902 90.0386 65.7191C90.0023 65.7481 89.9572 65.7637 89.9108 65.7635Z" fill="#D1D3D4"/>
<path d="M89.9108 68.5093H89.87L82.0298 67.0038C82.003 66.9987 81.9775 66.9884 81.9547 66.9734C81.932 66.9585 81.9123 66.9392 81.897 66.9166C81.8817 66.8941 81.8709 66.8688 81.8654 66.8421C81.8599 66.8154 81.8596 66.7878 81.8647 66.7611C81.8698 66.7343 81.8801 66.7087 81.895 66.6859C81.91 66.6631 81.9293 66.6435 81.9518 66.6282C81.9743 66.6128 81.9996 66.6021 82.0263 66.5965C82.0529 66.591 82.0804 66.5907 82.1072 66.5958L89.9475 68.1054C90.0003 68.1153 90.0471 68.1457 90.0777 68.1901C90.1082 68.2344 90.12 68.289 90.1105 68.342C90.1012 68.3885 90.0764 68.4304 90.04 68.4608C90.0037 68.4912 89.9581 68.5083 89.9108 68.5093Z" fill="#D1D3D4"/>
<path d="M89.9108 71.251H89.87L82.0298 69.7414C82.003 69.7363 81.9775 69.726 81.9547 69.7111C81.932 69.6961 81.9123 69.6768 81.897 69.6543C81.8817 69.6317 81.8709 69.6064 81.8654 69.5797C81.8599 69.553 81.8596 69.5254 81.8647 69.4987C81.8698 69.4719 81.8801 69.4463 81.895 69.4235C81.91 69.4007 81.9293 69.3811 81.9518 69.3658C81.9743 69.3504 81.9996 69.3397 82.0263 69.3341C82.0529 69.3286 82.0804 69.3283 82.1072 69.3334L89.9475 70.8389C90.0003 70.8488 90.0471 70.8793 90.0777 70.9236C90.1082 70.9679 90.12 71.0225 90.1105 71.0755C90.1029 71.1235 90.0788 71.1673 90.0423 71.1994C90.0058 71.2314 89.9593 71.2497 89.9108 71.251Z" fill="#D1D3D4"/>
<path d="M86.9034 73.4174H86.8668L82.0298 72.4872C81.9769 72.4773 81.9301 72.4469 81.8995 72.4025C81.869 72.3582 81.8572 72.3036 81.8667 72.2506C81.8776 72.1973 81.9088 72.1505 81.9538 72.12C81.9987 72.0895 82.0538 72.0778 82.1072 72.0874L86.9401 73.0176C86.9942 73.0225 87.0441 73.0486 87.0788 73.0903C87.1136 73.132 87.1304 73.1859 87.1255 73.24C87.1207 73.2941 87.0945 73.344 87.0529 73.3788C87.0112 73.4136 86.9575 73.4305 86.9034 73.4256V73.4174Z" fill="#D1D3D4"/>
<path d="M105.298 21.3783H105.261L100.653 20.4848C100.6 20.4749 100.553 20.4444 100.522 20.4001C100.492 20.3558 100.48 20.3011 100.49 20.2481C100.5 20.1949 100.532 20.148 100.577 20.1175C100.621 20.087 100.677 20.0753 100.73 20.085L105.347 20.9744C105.4 20.9843 105.447 21.0147 105.477 21.0591C105.508 21.1034 105.519 21.158 105.51 21.211C105.5 21.2596 105.474 21.3031 105.435 21.3338C105.396 21.3644 105.347 21.3802 105.298 21.3783Z" fill="#D1D3D4"/>
<path d="M105.298 23.1041H105.261L100.652 22.2147C100.626 22.2096 100.6 22.1993 100.577 22.1843C100.555 22.1694 100.535 22.1501 100.52 22.1275C100.504 22.105 100.494 22.0796 100.488 22.0529C100.483 22.0262 100.482 21.9987 100.487 21.9719C100.493 21.9451 100.503 21.9196 100.518 21.8968C100.533 21.874 100.552 21.8544 100.575 21.839C100.597 21.8237 100.622 21.8129 100.649 21.8074C100.676 21.8018 100.703 21.8016 100.73 21.8067L105.347 22.6961C105.4 22.706 105.447 22.7365 105.477 22.7808C105.508 22.8251 105.519 22.8797 105.51 22.9327C105.501 22.9821 105.475 23.0265 105.436 23.058C105.397 23.0895 105.348 23.1059 105.298 23.1041Z" fill="#D1D3D4"/>
<path d="M123.473 80.0514C123.419 79.2805 123.583 78.51 123.945 77.8278C124.243 77.3341 124.699 76.9384 124.944 76.4162C125.351 75.5145 125.066 74.4497 125.168 73.4582C125.253 72.6254 125.619 71.8466 126.207 71.251C126.724 70.7247 127.393 70.3657 127.886 69.819C128.701 68.9214 128.933 67.6566 129.393 66.555C130.051 64.969 131.192 63.6313 132.653 62.7322C131.765 64.5151 133.782 66.7794 132.869 68.5501C132.58 69.1091 132.026 69.5171 131.814 70.1127C131.301 71.5488 133.012 73.1033 132.462 74.5231C132.189 75.233 131.431 75.6451 131.076 76.3183C130.6 77.2281 130.975 78.3296 130.938 79.3578C130.881 80.7694 130.021 82.0383 129.002 83.0297C128.363 83.6376 127.658 84.168 126.965 84.7188C126.15 85.3756 125.795 86.0692 125.07 85.0125C124.069 83.5487 123.514 81.8251 123.473 80.0514Z" fill="#D1D3D4"/>
<path d="M122.556 80.8591C122.821 79.7657 123.008 78.5785 122.556 77.5463C122.05 76.3794 120.795 75.5512 120.644 74.2823C120.551 73.4663 120.97 72.6177 120.807 71.7977C120.644 70.9776 119.972 70.4227 119.422 69.823C118.157 68.429 117.405 66.6441 117.291 64.7639C116.438 65.771 115.75 66.9071 115.253 68.1298C114.821 69.3538 114.809 70.8348 115.547 71.9241C115.761 72.177 115.934 72.462 116.06 72.7687C116.313 73.5847 115.62 74.3272 115.265 75.0901C115.054 75.5275 114.966 76.0143 115.01 76.4982C115.055 76.9821 115.23 77.4447 115.518 77.8359C116.239 78.7376 117.633 79.0885 117.988 80.1859C118.077 80.5958 118.119 81.0149 118.11 81.4344C118.187 82.1608 118.478 82.8477 118.947 83.4073C119.416 83.967 120.041 84.3738 120.742 84.5759C121.598 84.784 121.582 84.4454 121.732 83.7232C121.953 82.7604 122.323 81.8261 122.556 80.8591Z" fill="#D1D3D4"/>
<path d="M125.274 72.989C125.881 70.8838 126.125 68.6888 126.765 66.5958C127.315 64.9587 127.985 63.3646 128.77 61.8264L126.162 62.928C125.327 63.2789 124.426 63.695 124.031 64.511C123.342 65.9349 124.577 67.7749 123.856 69.1662C123.543 69.6227 123.199 70.0563 122.825 70.4636C122.058 71.5447 122.173 73.0257 122.596 74.2824C122.776 74.8209 123.566 77.6116 124.271 76.8364C124.552 76.5263 124.577 75.3676 124.679 74.9433C124.862 74.2864 125.103 73.6418 125.274 72.989Z" fill="#D1D3D4"/>
<path d="M123.851 100.928C124.369 97.4888 125.999 85.3756 126.015 85.2532L125.567 85.192C125.567 85.3144 123.937 97.4317 123.407 100.859L123.851 100.928Z" fill="#D1D3D4"/>
<path d="M123.24 104.176H123.693C123.66 100.096 121.961 84.4943 120.983 83.4213L120.649 83.7273C121.296 84.4331 123.199 98.5822 123.24 104.176Z" fill="#D1D3D4"/>
<path d="M122.356 103.397L122.808 103.376C122.401 94.5758 124.283 76.0938 124.3 75.9102L123.851 75.8654C123.835 76.049 121.965 94.5472 122.356 103.397Z" fill="#D1D3D4"/>
<path d="M128.314 92.6419H118.615L119.296 102.474C119.357 103.292 119.724 104.057 120.322 104.616C120.921 105.175 121.708 105.489 122.527 105.494H124.402C125.221 105.49 126.009 105.177 126.609 104.617C127.209 104.058 127.576 103.293 127.637 102.474L128.314 92.6419Z" fill="white"/>
<path d="M124.402 105.698H122.527C121.655 105.696 120.817 105.364 120.179 104.768C119.542 104.172 119.154 103.357 119.092 102.487L118.411 92.6582C118.409 92.6298 118.413 92.6013 118.423 92.5745C118.433 92.5478 118.448 92.5235 118.468 92.5032C118.487 92.4826 118.509 92.4661 118.535 92.4548C118.56 92.4436 118.587 92.4378 118.615 92.4379H128.314C128.342 92.4378 128.37 92.4436 128.396 92.4549C128.421 92.4661 128.445 92.4826 128.464 92.5033C128.483 92.524 128.498 92.5485 128.507 92.5752C128.516 92.6018 128.52 92.6301 128.517 92.6582L127.841 102.487C127.778 103.358 127.389 104.173 126.751 104.768C126.113 105.364 125.274 105.696 124.402 105.698ZM118.835 92.8459L119.499 102.458C119.554 103.226 119.896 103.944 120.458 104.469C121.019 104.994 121.759 105.287 122.527 105.29H124.402C125.17 105.288 125.91 104.995 126.472 104.469C127.035 103.944 127.378 103.226 127.433 102.458L128.098 92.8459H118.835Z" fill="#D1D3D4"/>
<path d="M61.5325 44.6867C61.5325 44.6867 72.3109 47.1592 74.3076 46.7593C76.989 46.2208 79.6703 44.4134 82.0501 43.1323C84.5277 41.7941 86.9401 40.3702 89.4136 38.9912C90.8643 38.1752 92.3395 37.3878 93.8024 36.584C93.9539 36.49 94.1208 36.4237 94.2955 36.3882C94.4413 36.3761 94.588 36.3928 94.7275 36.4372C94.925 36.4884 95.1079 36.5851 95.2614 36.7197C95.415 36.8543 95.5349 37.023 95.6117 37.2124C95.8318 37.8611 95.2042 38.4363 94.7682 38.8443C93.4941 40.0302 92.1819 41.178 90.8317 42.2878L93.1382 42.096C93.1952 42.0776 93.2565 42.0776 93.3134 42.096C93.4724 42.1776 93.3949 42.4183 93.2849 42.5529C92.8571 42.9962 92.3287 43.3293 91.7445 43.524C89.9026 44.2869 88.4234 44.7765 86.8545 45.9433C85.4527 46.9715 84.0265 47.9833 82.5676 48.9094C80.3101 50.366 76.663 53.1158 73.7738 52.6303L60.3263 50.3619" fill="white"/>
<path d="M74.4299 52.8914C74.1814 52.8916 73.9333 52.8712 73.6882 52.8302L60.2407 50.5659L60.31 50.1579L73.7575 52.4222C76.2229 52.8302 79.2913 50.7903 81.5326 49.3093L82.4046 48.734C83.7657 47.8609 85.1634 46.894 86.6834 45.7761C87.9337 44.9038 89.2963 44.2052 90.7339 43.6994L91.6386 43.3322C92.1904 43.1477 92.6904 42.8345 93.0975 42.4183C93.1353 42.3741 93.1606 42.3206 93.1708 42.2633C93.1708 42.2633 93.1382 42.2633 93.126 42.2633L90.8195 42.4591C90.7757 42.4636 90.7315 42.4536 90.6938 42.4308C90.656 42.408 90.6267 42.3736 90.6101 42.3326C90.5936 42.2917 90.5908 42.2465 90.6021 42.2039C90.6134 42.1612 90.6382 42.1233 90.6728 42.096C92.0135 40.9985 93.3338 39.8398 94.6011 38.6607L94.6419 38.624C95.029 38.2609 95.5628 37.7672 95.3876 37.2613C95.322 37.1024 95.22 36.9612 95.0897 36.8492C94.9594 36.7372 94.8046 36.6576 94.6378 36.6167C94.5284 36.5768 94.4112 36.5628 94.2955 36.5759C94.1514 36.6107 94.0138 36.6686 93.888 36.7473L92.4903 37.5102C91.4878 38.0528 90.4895 38.5954 89.4992 39.1422L87.0216 40.5497C85.4283 41.4595 83.7616 42.402 82.1316 43.2873C81.6222 43.5648 81.1006 43.8626 80.5627 44.1686C78.5578 45.3191 76.4877 46.5064 74.3443 46.9348C72.3312 47.3428 61.9237 44.9642 61.4836 44.8622C61.4296 44.8503 61.3825 44.8174 61.3527 44.7707C61.3229 44.724 61.3128 44.6674 61.3247 44.6133C61.3366 44.5592 61.3694 44.512 61.416 44.4822C61.4627 44.4524 61.5192 44.4423 61.5732 44.4542C61.6833 44.4787 72.3272 46.9021 74.2669 46.5268C76.3329 46.1188 78.3826 44.9397 80.3794 43.8055C80.9173 43.4995 81.4429 43.1976 81.9523 42.9201C83.5823 42.0348 85.2408 41.0964 86.8423 40.1866L89.3199 38.779C90.3142 38.2351 91.3126 37.6911 92.315 37.1471L93.7128 36.3882C93.8858 36.2792 94.078 36.2044 94.2792 36.1679C94.4522 36.1488 94.6272 36.1669 94.7926 36.2209C95.022 36.2804 95.2339 36.3934 95.411 36.5509C95.5881 36.7084 95.7254 36.9057 95.8114 37.1267C96.0681 37.8815 95.4039 38.5057 94.9557 38.9178L94.9149 38.9545C93.8024 39.9949 92.6451 40.9944 91.4675 41.994L93.13 41.8553C93.2271 41.8386 93.3269 41.8528 93.4153 41.8961C93.4648 41.9202 93.508 41.9557 93.5413 41.9996C93.5745 42.0436 93.597 42.0948 93.6068 42.149C93.6173 42.2411 93.6086 42.3343 93.5813 42.4228C93.5539 42.5113 93.5085 42.5931 93.4479 42.6631C92.9964 43.1337 92.4368 43.4867 91.8179 43.6912L90.9092 44.0625C89.5041 44.563 88.172 45.2491 86.9483 46.1025C85.4242 47.2244 84.0183 48.1995 82.6532 49.0808C82.3802 49.2522 82.0909 49.448 81.7812 49.652C79.6703 51.0391 76.8871 52.8914 74.4299 52.8914Z" fill="#231F20"/>
<path d="M37.3107 50.672C31.1126 55.1843 30.3058 64.5844 30.1387 71.6468C29.9757 78.2888 31.459 84.6208 32.8404 91.0997C34.1933 97.4358 38.0523 99.0719 44.1811 100.484C53.2765 102.597 64.2138 102.115 73.4559 101.083C82.698 100.051 83.2645 93.4906 82.3313 86.0203C82.0746 83.9803 80.6239 82.6625 79.0713 81.5324C77.1282 80.233 75.4334 78.5956 74.0672 76.6977C69.6866 70.3126 69.4258 62.7648 66.4999 55.8412C64.1853 50.3619 59.0223 46.5431 53.0524 46.7389C47.0826 46.9348 41.4224 47.6773 37.3107 50.672Z" fill="white"/>
<path d="M58.9856 102.181C53.3173 102.181 48.3906 101.687 44.1322 100.696C38.4965 99.386 34.0751 97.8397 32.6407 91.1405L32.3473 89.7778C31.0311 83.6376 29.7842 77.84 29.9349 71.6427C30.2772 57.3426 34.0099 52.8343 37.1884 50.5088C41.5446 47.3387 47.649 46.7349 53.0443 46.5594C58.8797 46.3677 64.222 49.9906 66.6711 55.7882C67.7358 58.4899 68.606 61.2646 69.275 64.0908C70.3956 68.342 71.5529 72.7402 74.2057 76.6079C75.3793 78.3174 76.8626 79.7494 79.1609 81.3896C80.7502 82.5238 82.2579 83.8661 82.5228 86.008C83.0363 90.1369 83.2359 94.7757 80.8154 97.8397C79.2791 99.7899 76.8789 100.92 73.4804 101.295C68.6686 101.855 63.8297 102.151 58.9856 102.181ZM37.3107 50.672L37.4289 50.8393C31.4875 55.164 30.5014 64.2336 30.3424 71.6468C30.1917 77.7992 31.4345 83.5723 32.7467 89.6881L33.0401 91.0548C34.3074 96.9993 37.6571 98.7699 44.226 100.296C51.7362 102.038 61.2921 102.234 73.4356 100.891C76.7323 100.524 79.0428 99.4472 80.5098 97.5909C82.8366 94.637 82.6369 90.1001 82.1398 86.0529C81.8912 84.0701 80.4568 82.789 78.945 81.716C76.6018 80.0473 75.09 78.5867 73.8879 76.8201C71.1984 72.8952 70.0289 68.4644 68.9042 64.1724C68.2334 61.3645 67.3646 58.6077 66.3043 55.9228C63.9204 50.2844 58.737 46.7512 53.0687 46.947C47.7305 47.1184 41.7035 47.7141 37.437 50.8189L37.3107 50.672Z" fill="#231F20"/>
<path d="M53.5496 85.7305C52.4466 85.7286 51.3446 85.6646 50.2488 85.5388C48.1441 85.3005 46.0688 84.8494 44.0548 84.1924C41.3042 83.2989 39.4582 82.283 38.0687 80.8959C35.9578 78.7825 35.155 75.9347 34.8494 73.9151C34.1444 69.2518 34.8494 64.0989 35.3629 61.447C35.6949 59.6252 36.4224 57.8986 37.4941 56.3892C38.5658 54.8798 39.9555 53.6245 41.565 52.7119C43.794 51.4104 46.455 50.574 49.6865 50.1497C53.081 49.705 55.526 50.0681 57.3801 51.2962C60.4037 53.2953 61.2636 57.1386 61.887 60.9043L62.9425 67.2976C63.1992 68.8846 63.5578 71.0633 64.8047 72.0914C65.2442 72.4245 65.7183 72.709 66.2188 72.9401C67.0908 73.3848 67.9914 73.8417 68.4967 74.8413C69.1242 76.0653 69.3891 78.1623 68.7453 79.5209C68.0362 81.0223 66.5855 82.0097 65.5545 82.6217C61.9061 84.7229 57.758 85.7971 53.5496 85.7305ZM52.2456 50.3782C51.4032 50.3824 50.562 50.441 49.7272 50.5536C46.5447 50.9616 43.9367 51.7776 41.7565 53.0628C40.2013 53.949 38.8588 55.1654 37.8232 56.6265C36.7877 58.0876 36.0842 59.758 35.7622 61.5204C35.2732 64.1519 34.5397 69.2477 35.2528 73.854C35.5462 75.8123 36.3246 78.5703 38.358 80.6062C39.6987 81.9444 41.4917 82.9317 44.1812 83.8048C46.1684 84.4543 48.2164 84.8999 50.2937 85.1349C55.9131 85.7713 61.1128 84.7758 65.3345 82.2789C66.3166 81.6955 67.7021 80.7531 68.3663 79.3537C68.9572 78.1093 68.7045 76.1836 68.1218 75.0371C67.6735 74.1559 66.8708 73.7479 66.0232 73.3113C65.4962 73.0672 64.9975 72.7663 64.5358 72.4137C63.1666 71.2877 62.7958 69.0233 62.5268 67.371L61.4714 60.9819C60.8642 57.3099 60.0288 53.5524 57.1437 51.643C55.8642 50.7903 54.2749 50.3782 52.2456 50.3782Z" fill="#D1D3D4"/>
<path d="M38.305 79.2435C38.2648 79.2433 38.2255 79.2312 38.1921 79.2087C38.1588 79.1862 38.1328 79.1543 38.1175 79.117C38.1069 79.0924 38.1014 79.066 38.1012 79.0392C38.101 79.0124 38.1062 78.9858 38.1165 78.9611C38.1267 78.9364 38.1419 78.9139 38.1609 78.8952C38.18 78.8764 38.2027 78.8617 38.2276 78.8518C40.8885 77.7503 42.6612 78.0073 42.7345 78.0359C42.7886 78.044 42.8372 78.0732 42.8696 78.1172C42.9021 78.1612 42.9158 78.2163 42.9077 78.2704C42.8996 78.3246 42.8704 78.3732 42.8264 78.4057C42.7825 78.4383 42.7274 78.452 42.6734 78.4438C42.6734 78.4438 40.9293 78.195 38.3824 79.2598C38.3557 79.2604 38.3292 79.2548 38.305 79.2435Z" fill="#D1D3D4"/>
<path d="M76.9034 93.1805C76.9034 93.1805 78.9409 103.678 79.4992 104.233C80.0574 104.788 88.8717 104.384 88.7494 103.417C88.6272 102.45 84.0102 101.075 84.0102 101.075L82.5962 92.4216" fill="white"/>
<path d="M81.9075 104.698C80.6035 104.698 79.5685 104.6 79.3443 104.376C78.7738 103.809 77.0379 94.992 76.6956 93.2213C76.6903 93.1947 76.6903 93.1674 76.6956 93.1409C76.701 93.1143 76.7115 93.0891 76.7267 93.0667C76.7419 93.0443 76.7613 93.0252 76.784 93.0104C76.8066 92.9956 76.832 92.9855 76.8586 92.9806C76.9109 92.9709 76.965 92.9822 77.0091 93.0119C77.0533 93.0417 77.0841 93.0875 77.0949 93.1397C77.8732 97.1421 79.2465 103.654 79.6336 104.09C80.0656 104.425 85.3672 104.343 87.747 103.739C88.4642 103.556 88.5375 103.405 88.562 103.405C88.5008 102.891 86.1781 101.916 83.9694 101.279C83.9322 101.268 83.8988 101.247 83.8729 101.218C83.8469 101.19 83.8296 101.154 83.8227 101.116L82.4046 92.4583C82.396 92.4042 82.4092 92.3489 82.4413 92.3045C82.4734 92.2602 82.5218 92.2304 82.5758 92.2217C82.6298 92.2131 82.6851 92.2262 82.7294 92.2584C82.7737 92.2905 82.8035 92.339 82.8121 92.3931L84.2099 100.92C85.4324 101.283 88.8554 102.373 88.9695 103.368C88.9912 103.577 88.8554 103.753 88.562 103.894C87.5554 104.376 84.2873 104.698 81.9075 104.698Z" fill="#231F20"/>
<path d="M58.1869 97.8112C58.1869 97.8112 56.9033 107.224 57.5675 107.493C58.2318 107.762 67.2457 108.195 67.103 107.403C66.9604 106.612 62.5105 105.098 62.5105 105.098L64.1201 95.9181" fill="white"/>
<path d="M63.5374 108.048C60.9498 108.048 57.8935 107.827 57.4901 107.664C56.8218 107.391 57.3882 102.128 57.9832 97.7622C57.9907 97.7081 58.0195 97.6592 58.063 97.6263C58.1066 97.5934 58.1614 97.5792 58.2154 97.5868C58.2695 97.5943 58.3183 97.6231 58.3512 97.6667C58.384 97.7103 58.3982 97.7652 58.3907 97.8193C57.8079 102.103 57.3841 106.795 57.6735 107.293C59.2132 107.503 60.7651 107.611 62.319 107.615C65.4649 107.689 66.6425 107.505 66.887 107.366C66.6548 106.922 64.442 105.951 62.4494 105.273C62.4021 105.258 62.3621 105.226 62.3373 105.183C62.3124 105.14 62.3044 105.089 62.3149 105.041L63.9449 95.8651C63.9541 95.8109 63.9844 95.7627 64.0291 95.731C64.0738 95.6992 64.1292 95.6865 64.1833 95.6957C64.2373 95.7049 64.2855 95.7352 64.3172 95.78C64.3489 95.8248 64.3616 95.8803 64.3524 95.9344L62.755 104.943C63.9775 105.351 67.1764 106.538 67.319 107.346C67.3287 107.405 67.3216 107.466 67.2986 107.522C67.2755 107.577 67.2374 107.625 67.1886 107.66C66.83 107.946 65.2856 108.048 63.5374 108.048Z" fill="#231F20"/>
<path d="M68.843 76.9383C71.9034 76.4814 77.2742 95.8977 77.2742 95.8977L83.4193 95.1837C83.4193 95.1837 82.3068 77.6115 81.1332 72.7075C80.3182 69.3293 76.6507 67.677 72.9384 68.7745C67.3883 68.5542 61.6873 67.8483 61.6873 67.8483L68.843 76.9383Z" fill="#231F20"/>
<path d="M77.2742 96.1017C77.23 96.1024 77.1867 96.0883 77.1513 96.0617C77.1159 96.0352 77.0904 95.9975 77.0786 95.9548C77.0786 95.9059 75.7176 91.0589 74.0142 86.314C71.0639 78.1053 69.5317 77.0445 68.8756 77.1424C68.8397 77.1477 68.803 77.1434 68.7693 77.1297C68.7357 77.1161 68.7062 77.0937 68.6841 77.0649L61.5325 67.9749C61.5066 67.9432 61.4908 67.9045 61.4872 67.8638C61.4836 67.823 61.4922 67.7821 61.5121 67.7464C61.5316 67.7106 61.5616 67.6817 61.598 67.6634C61.6345 67.6452 61.6756 67.6386 61.7159 67.6444C61.7729 67.6444 67.4535 68.3502 72.918 68.5705C73.8686 68.271 74.8695 68.1657 75.8614 68.261C76.8534 68.3564 77.8161 68.6503 78.6923 69.1254C79.3512 69.5018 79.9259 70.0095 80.3808 70.6173C80.8357 71.225 81.1612 71.9198 81.337 72.6586C82.4984 77.5218 83.6149 94.992 83.6271 95.1715C83.6306 95.2232 83.6138 95.2743 83.5803 95.3139C83.5469 95.3534 83.4994 95.3785 83.4478 95.3836L77.3027 96.1017H77.2742ZM68.9408 76.7262C72.0175 76.7262 76.6833 93.0459 77.425 95.6774L83.2033 95.0042C83.077 93.0703 82.0257 77.3097 80.9376 72.7524C80.7769 72.069 80.4767 71.4263 80.0559 70.8646C79.6352 70.3029 79.1029 69.8344 78.4926 69.4885C77.6586 69.0394 76.7426 68.7631 75.7996 68.6762C74.8565 68.5892 73.9056 68.6935 73.0036 68.9826H72.9384C68.3785 68.8031 63.6596 68.2849 62.16 68.1136L68.9449 76.7303L68.9408 76.7262Z" fill="#231F20"/>
<path d="M54.5153 43.2262C54.5153 43.2262 45.0084 42.7121 43.3091 45.0948C41.4753 47.6651 41.6098 48.6647 39.1281 54.5969C39.9431 62.7975 44.8046 74.2457 44.8046 74.2457L65.2896 70.0107C65.2896 70.0107 64.495 47.9058 62.6939 44.8377C60.8927 41.7697 54.5153 43.2262 54.5153 43.2262Z" fill="#FF914D"/>
<path d="M51.1616 44.8989L56.9033 75.0086L62.7835 74.8944L58.4722 45.2335L51.1616 44.8989Z" fill="#231F20"/>
<path d="M56.9033 75.2126C56.8558 75.2124 56.8098 75.1956 56.7733 75.1651C56.7368 75.1345 56.7122 75.0921 56.7036 75.0453L50.9619 44.9356C50.9558 44.9056 50.9566 44.8744 50.9644 44.8447C50.9721 44.815 50.9867 44.7875 51.0068 44.7643C51.0264 44.7404 51.0514 44.7217 51.0798 44.7096C51.1082 44.6975 51.139 44.6925 51.1698 44.6949L58.5048 45.0295C58.5521 45.0319 58.5971 45.0507 58.6321 45.0827C58.667 45.1147 58.6897 45.1579 58.6963 45.2049L63.0036 74.8658C63.0076 74.8942 63.0056 74.9232 62.9977 74.9507C62.9898 74.9783 62.9762 75.0039 62.9577 75.0259C62.9392 75.0478 62.9164 75.0656 62.8906 75.0781C62.8648 75.0906 62.8366 75.0975 62.808 75.0984L56.9277 75.2126H56.9033ZM51.4102 45.1111L57.0704 74.8005L62.5472 74.6944L58.2969 45.4293L51.4102 45.1111Z" fill="#231F20"/>
<path d="M47.1804 70.8838C47.1804 70.8838 41.7402 76.6405 45.5096 81.21C49.279 85.7795 60.0248 80.9734 60.0248 80.9734L57.3434 98.8474L65.2163 98.7658C65.2163 98.7658 73.4234 74.4333 72.478 71.916C71.5326 69.3987 64.8088 68.2441 64.8088 68.2441L47.1804 70.8838Z" fill="#231F20"/>
<path d="M57.3434 99.0555C57.3142 99.0553 57.2854 99.049 57.2587 99.0371C57.2321 99.0251 57.2082 99.0078 57.1886 98.9862C57.1702 98.9628 57.1567 98.9359 57.149 98.9071C57.1413 98.8784 57.1395 98.8484 57.1437 98.8189L59.7721 81.308C57.9776 82.0429 56.1198 82.6124 54.222 83.0093C50.0125 83.8457 46.944 83.2704 45.3548 81.3447C41.512 76.6895 46.9848 70.8063 47.0296 70.7369C47.0617 70.7048 47.103 70.6835 47.1478 70.6758L64.7925 68.0279H64.8577C65.1348 68.0769 71.7037 69.2519 72.6817 71.8344C73.6597 74.417 65.7542 97.8275 65.4201 98.823C65.407 98.8635 65.3814 98.8988 65.347 98.9238C65.3125 98.9487 65.271 98.962 65.2285 98.9617L57.3597 99.0433L57.3434 99.0555ZM60.0248 80.7735C60.0702 80.7726 60.1147 80.787 60.1511 80.8143C60.1793 80.837 60.2012 80.8665 60.2147 80.9001C60.2283 80.9337 60.233 80.9701 60.2285 81.0061L57.5798 98.6272L65.0696 98.5496C67.9221 90.1165 73.0118 73.903 72.2864 71.9732C71.4266 69.6803 65.306 68.5216 64.8088 68.4318L47.2863 71.0633C46.7688 71.6386 42.2455 76.9139 45.6563 81.0673C49.2831 85.4613 59.8251 80.8225 59.9188 80.7735C59.9533 80.7631 59.9902 80.7631 60.0248 80.7735Z" fill="#231F20"/>
<path d="M49.2301 24.3933C47.9179 23.7081 46.4211 23.4616 44.9589 23.69C43.4967 23.9183 42.1459 24.6095 41.1045 25.6622C39.5438 27.2941 38.9163 29.8155 39.7476 31.9044C40.1921 32.9387 40.9514 33.806 41.9174 34.3826C42.8833 34.9591 44.0064 35.2156 45.1266 35.1153C47.2945 34.9358 49.3197 32.7857 50.2407 30.9416C51.345 28.7139 51.9074 25.756 49.2301 24.3933Z" fill="white"/>
<path d="M44.6783 35.3356C43.5885 35.3484 42.5196 35.0364 41.6074 34.4392C40.6953 33.842 39.9812 32.9866 39.556 31.9819C39.1651 30.8809 39.0892 29.6925 39.3369 28.5506C39.5846 27.4087 40.146 26.3588 40.9578 25.5194C42.0261 24.4346 43.4142 23.7221 44.9175 23.487C46.4208 23.252 47.9598 23.5068 49.3075 24.2138C50.3874 24.7605 52.6572 26.5271 50.4078 31.0313C49.442 32.9652 47.38 35.1316 45.1103 35.3152C44.988 35.3274 44.825 35.3356 44.6783 35.3356ZM45.9823 23.8099C45.1002 23.8067 44.2266 23.9818 43.4136 24.3246C42.6007 24.6674 41.8652 25.1709 41.2512 25.805C40.4926 26.5867 39.9673 27.5652 39.7348 28.63C39.5022 29.6948 39.5715 30.8035 39.935 31.831C40.3619 32.8261 41.0926 33.6602 42.0224 34.2136C42.9522 34.767 44.0332 35.0113 45.1103 34.9113C47.1111 34.7481 49.116 32.7449 50.0614 30.8314C50.7541 29.4401 52.0541 26.0416 49.1404 24.5606C48.1612 24.0657 47.0793 23.8085 45.9823 23.8099Z" fill="#231F20"/>
<path d="M45.3711 28.5467C44.6868 29.3346 44.2152 30.2847 44.0012 31.3066C43.7872 32.3285 43.8379 33.3882 44.1486 34.385C44.2892 34.9418 44.621 35.4314 45.0858 35.7681C46.0068 36.3311 47.2089 35.7681 48.0239 35.0582C49.3319 33.8572 50.3433 32.3683 50.9783 30.709C51.4591 29.5381 52.0744 26.9555 50.3059 26.5761C48.5373 26.1966 46.455 27.3145 45.3711 28.5467Z" fill="#231F20"/>
<path d="M45.9253 36.2046C45.5905 36.2089 45.2614 36.1184 44.9758 35.9435C44.4637 35.5872 44.0987 35.0564 43.9489 34.4503C43.6293 33.4179 43.5794 32.3207 43.8042 31.2635C44.0289 30.2064 44.5207 29.2246 45.2325 28.412C46.3694 27.135 48.5536 25.9885 50.3548 26.3721C50.5868 26.416 50.8058 26.5123 50.995 26.6537C51.1843 26.7951 51.3388 26.9778 51.4469 27.188C52.107 28.4446 51.2717 30.558 51.1739 30.7947C50.5287 32.4842 49.499 33.9999 48.1665 35.2214C47.5539 35.7963 46.7627 36.1434 45.9253 36.2046ZM49.5928 26.7148C48.1258 26.7148 46.4428 27.6409 45.5178 28.6894C44.8541 29.4479 44.3961 30.3644 44.1877 31.351C43.9794 32.3376 44.0276 33.3612 44.3279 34.3238C44.4485 34.8373 44.7511 35.2896 45.1795 35.5967C45.9945 36.1026 47.1152 35.5722 47.8813 34.9072C49.1664 33.7298 50.1574 32.2666 50.7745 30.6356C51.1046 29.8441 51.5284 28.2611 51.0638 27.3716C50.9832 27.216 50.8676 27.0813 50.7262 26.9779C50.5848 26.8746 50.4214 26.8055 50.2488 26.776C50.0385 26.7318 49.824 26.7099 49.6091 26.7107L49.5928 26.7148Z" fill="#231F20"/>
<path d="M55.8275 40.7293C55.5035 41.1364 55.158 41.5259 54.7925 41.8961C54.0454 42.4751 53.1641 42.8554 52.2308 43.0017C51.2974 43.1479 50.3422 43.0553 49.4542 42.7325C45.2162 41.2189 44.6946 36.5596 45.0084 32.6755C45.1388 31.0966 45.8234 27.7429 48.1217 29.0648C47.4534 28.6568 49.7517 26.7882 50.0858 26.6169C52.5838 25.1889 55.5912 26.3354 57.4208 28.3019C58.4939 29.409 59.4422 30.6308 60.2489 31.9452C61.0639 33.4058 60.6808 35.6172 59.9881 37.037C59.4417 38.1453 58.6051 39.0844 57.5675 39.7542C57.0867 40.0642 56.4388 40.2111 56.0068 40.5702C55.9444 40.6201 55.8845 40.6732 55.8275 40.7293Z" fill="white"/>
<path d="M51.3735 43.2751C50.6963 43.2761 50.0238 43.1616 49.3849 42.9365C45.8927 41.688 44.3523 38.2446 44.825 32.6714C44.8861 31.9207 45.1836 29.4075 46.4876 28.7384C46.6958 28.6328 46.925 28.5751 47.1583 28.5695C47.3917 28.5639 47.6233 28.6104 47.8364 28.7058C48.0606 27.8898 49.7843 26.5557 50.0043 26.4292C52.6816 24.8992 55.8153 26.2497 57.5879 28.155C58.6726 29.2685 59.6294 30.5002 60.4404 31.8269C61.288 33.3487 60.9009 35.6294 60.1837 37.1104C59.6216 38.2527 58.7594 39.2202 57.6898 39.9092C57.4591 40.0475 57.2179 40.1675 56.9685 40.2682C56.6767 40.3759 56.4021 40.5257 56.1535 40.7129C56.0949 40.7599 56.0391 40.8103 55.9864 40.8639C55.8519 41.0067 55.7256 41.1617 55.5789 41.329C55.3876 41.5908 55.1675 41.8303 54.9228 42.043C53.9166 42.8503 52.663 43.2855 51.3735 43.2751ZM47.1518 28.9954C46.9802 28.9933 46.8108 29.034 46.6588 29.1138C45.7704 29.5789 45.3262 31.3495 45.2121 32.7204C44.7761 38.0773 46.2268 41.3902 49.5235 42.5652C50.3802 42.8765 51.3018 42.965 52.202 42.8223C53.1022 42.6795 53.9515 42.3103 54.6702 41.7492C54.89 41.5523 55.0893 41.3336 55.2651 41.0964C55.392 40.9234 55.5281 40.7572 55.6726 40.5987C55.7338 40.5375 55.799 40.4763 55.8683 40.4192C56.149 40.2065 56.4592 40.036 56.7892 39.9133C57.0177 39.8226 57.2385 39.7134 57.4493 39.5869C58.457 38.9388 59.2686 38.0275 59.7966 36.9512C60.4689 35.5641 60.8398 33.4425 60.0614 32.0554C59.2708 30.7533 58.3358 29.5447 57.2741 28.4528C55.6034 26.6617 52.6775 25.3806 50.1877 26.8208C49.8454 27.0167 48.2032 28.4283 48.2032 28.9016H48.2317C48.2577 28.9134 48.2809 28.9304 48.2999 28.9517C48.3188 28.973 48.3331 28.9981 48.3418 29.0253C48.3505 29.0525 48.3534 29.0812 48.3503 29.1096C48.3473 29.1379 48.3383 29.1653 48.3239 29.19C48.3096 29.2147 48.2903 29.2361 48.2672 29.2528C48.2441 29.2695 48.2177 29.2812 48.1898 29.2871C48.1619 29.293 48.1331 29.2929 48.1052 29.287C48.0773 29.281 48.051 29.2693 48.028 29.2525C47.7651 29.0856 47.4628 28.9913 47.1518 28.9791V28.9954Z" fill="#231F20"/>
<path d="M57.596 31.4312C57.596 31.4312 59.605 34.6135 59.5887 37.3715C59.605 38.1402 59.397 38.897 58.9902 39.5492C58.5835 40.2014 57.9956 40.7206 57.2986 41.0434L58.3336 45.6945C58.3336 45.6945 58.8837 48.069 55.8886 48.3505C55.0223 48.4274 54.1508 48.2824 53.3559 47.9291C52.5611 47.5758 51.8691 47.0258 51.345 46.331L49.1037 37.8366C49.1037 37.8366 51.9807 35.1969 51.0108 32.19C51.0108 32.2063 55.3548 33.2345 57.596 31.4312Z" fill="white"/>
<path d="M55.3793 48.5708C54.5613 48.5659 53.7556 48.3715 53.0253 48.0027C52.295 47.6339 51.6599 47.1008 51.1698 46.4452C51.1562 46.4269 51.1465 46.4061 51.1413 46.384L48.9 37.9019C48.8903 37.8662 48.8909 37.8285 48.9017 37.7931C48.9125 37.7577 48.9331 37.7261 48.9611 37.702C48.9856 37.6775 51.7281 35.1153 50.8112 32.2716C50.7991 32.2371 50.7965 32.1999 50.8036 32.164C50.8108 32.1281 50.8275 32.0948 50.8519 32.0676C50.877 32.041 50.9088 32.0217 50.944 32.0117C50.9791 32.0016 51.0163 32.0012 51.0516 32.0105C51.0924 32.0105 55.3263 32.9897 57.4616 31.272C57.4835 31.2539 57.5089 31.2405 57.5363 31.2328C57.5637 31.225 57.5924 31.2231 57.6205 31.2272C57.6488 31.2323 57.6758 31.2434 57.6996 31.2595C57.7235 31.2757 57.7437 31.2966 57.7591 31.321C57.8446 31.4516 59.7966 34.5849 59.7966 37.3756C59.8063 38.1527 59.5999 38.9173 59.2005 39.5838C58.8011 40.2502 58.2244 40.7923 57.5349 41.1495L58.5374 45.6374C58.6606 46.2731 58.5273 46.9318 58.1666 47.4692C57.7265 48.0812 56.9685 48.4403 55.9131 48.5423C55.7256 48.5627 55.5504 48.5708 55.3793 48.5708ZM51.5243 46.2453C52.0348 46.8978 52.6997 47.4126 53.4588 47.7432C54.218 48.0737 55.0475 48.2095 55.8723 48.1384C56.8014 48.0527 57.4616 47.7304 57.8283 47.2367C58.1223 46.7939 58.2319 46.2537 58.134 45.7312L57.0989 41.1005C57.0895 41.0525 57.0969 41.0028 57.12 40.9597C57.143 40.9166 57.1802 40.8827 57.2252 40.8639C57.8853 40.5605 58.4418 40.0697 58.8257 39.4525C59.2097 38.8353 59.4041 38.1188 59.385 37.3919C59.385 35.099 57.9587 32.4715 57.539 31.7494C55.5667 33.1488 52.3434 32.6918 51.2961 32.496C51.94 35.1806 49.8128 37.4612 49.332 37.9345L51.5243 46.2453Z" fill="#231F20"/>
<path d="M50.5789 36.89C50.5789 36.89 48.4232 33.9811 47.2619 36.3801C46.1005 38.779 48.953 40.46 50.3426 39.9704" fill="white"/>
<path d="M49.7843 40.2846C49.3457 40.2673 48.915 40.1623 48.5175 39.976C48.12 39.7896 47.7638 39.5255 47.4697 39.1993C47.1051 38.823 46.8693 38.3406 46.796 37.8215C46.7228 37.3024 46.816 36.7734 47.0622 36.3107C47.38 35.658 47.7998 35.303 48.3173 35.254C49.4909 35.1439 50.6767 36.7228 50.7256 36.7881C50.7417 36.8095 50.7533 36.8339 50.76 36.8599C50.7666 36.8858 50.7681 36.9128 50.7643 36.9393C50.7605 36.9659 50.7516 36.9914 50.7379 37.0144C50.7243 37.0375 50.7063 37.0576 50.6849 37.0737C50.6413 37.1051 50.5872 37.1184 50.534 37.1108C50.4808 37.1032 50.4327 37.0753 50.3996 37.0329C50.0981 36.6249 49.1404 35.5845 48.3621 35.662C47.9954 35.6947 47.6816 35.9721 47.433 36.478C47.2198 36.8676 47.1364 37.3152 47.195 37.7555C47.2537 38.1959 47.4513 38.6059 47.759 38.926C48.4314 39.6685 49.552 40.0602 50.2611 39.799C50.3114 39.7824 50.3663 39.7861 50.414 39.8093C50.4617 39.8325 50.4985 39.8734 50.5165 39.9234C50.5346 39.9733 50.5324 40.0283 50.5106 40.0767C50.4888 40.1251 50.449 40.1631 50.3996 40.1826C50.2018 40.2513 49.9937 40.2858 49.7843 40.2846Z" fill="#231F20"/>
<path d="M56.4021 38.1548H56.2798C56.2258 38.1548 56.174 38.1333 56.1357 38.0951C56.0975 38.0568 56.0761 38.0049 56.0761 37.9508C56.0761 37.8967 56.0975 37.8448 56.1357 37.8066C56.174 37.7683 56.2258 37.7468 56.2798 37.7468C56.7452 37.7803 57.2104 37.6798 57.6205 37.4572C57.6449 37.2491 56.781 36.2821 55.7623 35.4172C55.7417 35.3998 55.7247 35.3785 55.7123 35.3545C55.7 35.3305 55.6924 35.3043 55.6902 35.2774C55.6879 35.2505 55.6909 35.2235 55.6991 35.1977C55.7073 35.172 55.7205 35.1482 55.7378 35.1275C55.7552 35.1069 55.7765 35.0899 55.8005 35.0775C55.8244 35.0651 55.8506 35.0576 55.8774 35.0553C55.9043 35.053 55.9314 35.0561 55.9571 35.0643C55.9827 35.0725 56.0066 35.0856 56.0272 35.1031C56.4958 35.511 58.0158 36.8492 58.0158 37.4735C58.0177 37.5291 58.007 37.5845 57.9844 37.6354C57.9618 37.6863 57.9279 37.7314 57.8854 37.7672C57.4414 38.0435 56.9243 38.1786 56.4021 38.1548Z" fill="#231F20"/>
<path d="M55.7297 39.8398H55.6889C54.8344 39.8314 54.0131 39.5074 53.3825 38.93C53.3667 38.9083 53.3552 38.8837 53.3489 38.8576C53.3426 38.8315 53.3415 38.8044 53.3457 38.7779C53.3498 38.7514 53.3592 38.7259 53.3732 38.703C53.3872 38.6801 53.4056 38.6602 53.4273 38.6444C53.4482 38.6279 53.4722 38.6158 53.4979 38.6089C53.5235 38.602 53.5504 38.6004 53.5767 38.6042C53.603 38.6081 53.6283 38.6172 53.6509 38.6311C53.6736 38.645 53.6932 38.6635 53.7085 38.6852C54.2737 39.1559 54.9824 39.4193 55.7175 39.4318H55.746C56.6995 39.4318 57.5675 38.9259 58.3295 37.9549C58.3461 37.9337 58.3667 37.9161 58.3901 37.9029C58.4136 37.8897 58.4393 37.8812 58.466 37.878C58.4927 37.8748 58.5197 37.8769 58.5456 37.8841C58.5715 37.8913 58.5957 37.9036 58.6168 37.9202C58.638 37.9368 58.6556 37.9575 58.6688 37.9809C58.682 38.0043 58.6904 38.0302 58.6937 38.0569C58.6969 38.0836 58.6948 38.1107 58.6876 38.1366C58.6803 38.1625 58.6681 38.1867 58.6515 38.2079C57.8079 39.289 56.8218 39.8398 55.7297 39.8398Z" fill="#231F20"/>
<path d="M57.2986 41.0352C57.2986 41.0352 54.8862 41.9002 53.3784 41.8512C53.3784 41.8512 55.7542 45.1682 58.1054 44.6215L57.2986 41.0352Z" fill="#231F20"/>
<path d="M57.5675 44.8908C55.3304 44.8908 53.3051 42.1042 53.2154 41.9736C53.1956 41.9411 53.1852 41.9037 53.1852 41.8655C53.1852 41.8274 53.1956 41.79 53.2154 41.7574C53.2353 41.7254 53.2628 41.6989 53.2956 41.6803C53.3283 41.6618 53.3652 41.6518 53.4029 41.6513C54.8495 41.6921 57.2211 40.8353 57.2456 40.8353C57.2728 40.8253 57.3019 40.8213 57.3308 40.8234C57.3597 40.8256 57.3878 40.8339 57.4133 40.8478C57.4388 40.8617 57.461 40.8809 57.4784 40.9041C57.4959 40.9272 57.5082 40.9539 57.5145 40.9822L58.3295 44.5725C58.3418 44.625 58.3328 44.6802 58.3046 44.7261C58.2763 44.7719 58.2311 44.8047 58.1788 44.8173C57.9786 44.8658 57.7735 44.8905 57.5675 44.8908ZM53.7941 42.0348C54.4216 42.8019 56.1453 44.6786 57.8691 44.4461L57.16 41.2841C56.0707 41.6714 54.9395 41.9289 53.79 42.0512L53.7941 42.0348Z" fill="#231F20"/>
<path d="M54.3591 35.7667C54.5584 35.7106 54.6407 35.3821 54.5427 35.0328C54.4448 34.6835 54.2038 34.4458 54.0045 34.5018C53.8051 34.5579 53.7229 34.8864 53.8208 35.2357C53.9188 35.585 54.1598 35.8227 54.3591 35.7667Z" fill="#231F20"/>
<path d="M57.6795 34.8304C57.8788 34.7744 57.961 34.4458 57.8631 34.0965C57.7652 33.7472 57.5242 33.5095 57.3249 33.5655C57.1255 33.6216 57.0433 33.9501 57.1412 34.2994C57.2392 34.6487 57.4801 34.8864 57.6795 34.8304Z" fill="#231F20"/>
<path d="M59.0345 69.1091L63.1014 55.9351H82.0542L77.5228 69.1091H59.0345Z" fill="white"/>
<path d="M77.5228 69.313H59.0345C59.0029 69.3127 58.9719 69.3052 58.9436 69.2911C58.9154 69.2769 58.8907 69.2565 58.8715 69.2314C58.8516 69.2058 58.8382 69.1756 58.8325 69.1437C58.8269 69.1117 58.829 69.0788 58.8389 69.0478L62.9139 55.8738C62.927 55.8322 62.953 55.7959 62.9882 55.7702C63.0235 55.7445 63.066 55.7308 63.1095 55.731H82.0624C82.0944 55.7312 82.1259 55.739 82.1543 55.7539C82.1827 55.7688 82.207 55.7904 82.2253 55.8167C82.2449 55.8433 82.2578 55.8743 82.2627 55.907C82.2677 55.9397 82.2647 55.9731 82.2539 56.0044L77.7225 69.1743C77.7079 69.2155 77.6808 69.251 77.645 69.2759C77.6092 69.3008 77.5664 69.3138 77.5228 69.313ZM59.3116 68.905H77.3761L81.769 56.139H63.2522L59.3116 68.905Z" fill="#231F20"/>
<path d="M39.9065 52.6385C39.9065 52.6385 32.9586 68.3053 36.239 71.8834C39.5194 75.4615 57.0215 68.4644 57.0215 68.4644C60.0207 67.8647 63.2522 66.808 64.0957 63.4258C64.2016 62.9933 64.2098 62.4425 63.8349 62.2018C63.632 62.0962 63.4013 62.0563 63.1747 62.0875C62.4192 62.1263 61.6741 62.2818 60.9661 62.5486L60.9865 61.1859C59.3239 62.5894 57.3638 64.1397 55.1918 64.511C53.7615 64.7517 52.2537 64.7762 50.8071 64.8904C48.286 65.0917 45.7636 65.2753 43.2398 65.4412C43.2398 65.4412 44.9065 59.3785 46.1209 55.9351" fill="white"/>
<path d="M39.7883 73.0992C38.1583 73.0992 36.8135 72.7973 36.1208 72.0221C32.7711 68.3869 39.4501 53.1974 39.7394 52.5528C39.7636 52.5069 39.8043 52.4719 39.8534 52.455C39.9024 52.4381 39.9561 52.4406 40.0034 52.4619C40.0506 52.4832 40.088 52.5218 40.1079 52.5698C40.1277 52.6178 40.1286 52.6715 40.1102 52.7201C40.0409 52.8751 33.252 68.3053 36.4183 71.7447C37.7101 73.1481 41.6628 73.0013 47.8283 71.3367C50.9239 70.474 53.9744 69.4569 56.9685 68.289C59.9718 67.6892 63.1095 66.657 63.9204 63.3931C63.9653 63.2136 64.0875 62.6098 63.7493 62.3935C63.5828 62.3112 63.3948 62.2827 63.2114 62.3119C62.4765 62.3482 61.7519 62.4996 61.0639 62.7607C61.0325 62.7732 60.9985 62.7775 60.965 62.7732C60.9315 62.7689 60.8996 62.7562 60.8724 62.7362C60.8454 62.7166 60.8236 62.6908 60.8087 62.661C60.7938 62.6312 60.7863 62.5982 60.7868 62.5649V61.6469C59.1568 62.9973 57.2986 64.3804 55.2366 64.7313C54.201 64.8877 53.1576 64.9871 52.1111 65.0291C51.6832 65.0577 51.2594 65.0822 50.8356 65.1148C48.4966 65.2984 46.019 65.4779 43.2643 65.6656C43.2319 65.6682 43.1994 65.6629 43.1696 65.6501C43.1398 65.6373 43.1135 65.6174 43.0931 65.5922C43.073 65.5666 43.0588 65.5368 43.0518 65.505C43.0447 65.4732 43.0449 65.4403 43.0524 65.4086C43.0524 65.3474 44.7394 59.2887 45.9415 55.8902C45.9592 55.8395 45.996 55.7979 46.044 55.7742C46.0921 55.7505 46.1475 55.7468 46.1983 55.7637C46.2491 55.7822 46.2908 55.8198 46.3144 55.8686C46.338 55.9173 46.3416 55.9734 46.3246 56.0248C45.2732 59.0031 43.8796 64.0132 43.5251 65.2372C46.1616 65.0577 48.5495 64.8863 50.803 64.7068C51.2105 64.6742 51.6588 64.6497 52.0867 64.6252C53.1195 64.5816 54.1493 64.4821 55.1714 64.3274C57.2782 63.9684 59.2138 62.4466 60.8764 61.0635C60.9071 61.0392 60.9438 61.0238 60.9825 61.0187C61.0213 61.0137 61.0606 61.0193 61.0965 61.0349C61.1315 61.0522 61.1612 61.0789 61.182 61.1121C61.2029 61.1452 61.2142 61.1834 61.2147 61.2226V62.2956C61.8571 62.0795 62.5263 61.9531 63.2033 61.9203C63.473 61.8861 63.7466 61.9375 63.9857 62.0671C64.3728 62.3119 64.4991 62.8382 64.332 63.5114C63.4681 66.9875 60.1918 68.085 57.103 68.701C56.5406 68.8806 45.913 73.0992 39.7883 73.0992Z" fill="#231F20"/>
<path d="M57.05 105.702C57.05 105.702 61.7362 106.367 62.2252 106.367L64.6458 105.102C64.6458 105.102 69.5969 107.17 68.8879 107.835C68.1788 108.5 57.918 108.651 57.05 108.17C56.182 107.689 57.05 105.702 57.05 105.702Z" fill="#231F20"/>
<path d="M61.6547 108.647C59.3564 108.647 57.3271 108.541 56.9685 108.35C55.9701 107.807 56.7851 105.84 56.8788 105.62C56.8964 105.579 56.927 105.544 56.9661 105.522C57.0051 105.5 57.0504 105.491 57.0948 105.498C58.354 105.677 61.6303 106.134 62.1926 106.163L64.5684 104.918C64.5953 104.906 64.6244 104.9 64.6539 104.9C64.6835 104.9 64.7126 104.906 64.7395 104.918C65.742 105.326 69.0183 106.767 69.169 107.615C69.1816 107.683 69.1765 107.754 69.1544 107.819C69.1323 107.885 69.0939 107.944 69.0427 107.991C68.5537 108.443 64.8455 108.647 61.6547 108.647ZM57.1967 105.926C56.9766 106.493 56.6425 107.709 57.1641 107.991C58.1013 108.492 68.1666 108.231 68.7656 107.689C68.786 107.35 66.883 106.257 64.6906 105.326L62.3516 106.55C62.322 106.563 62.2901 106.57 62.2578 106.571C61.7892 106.571 58.0321 106.044 57.1967 105.926Z" fill="#231F20"/>
<path d="M78.7005 101.985C78.7005 101.985 83.3827 102.654 83.8717 102.654L86.3167 101.385C86.3167 101.385 91.2678 103.454 90.5587 104.123C89.8497 104.792 79.5848 104.939 78.7209 104.453C77.857 103.968 78.7005 101.985 78.7005 101.985Z" fill="#231F20"/>
<path d="M83.2889 104.931C80.9906 104.931 78.9613 104.824 78.6027 104.633C77.6002 104.094 78.4152 102.128 78.513 101.903C78.5312 101.863 78.5622 101.829 78.6011 101.808C78.6401 101.786 78.685 101.778 78.729 101.785C79.9841 101.964 83.2604 102.417 83.8268 102.446L86.2025 101.222C86.2292 101.209 86.2585 101.202 86.2881 101.202C86.3178 101.202 86.347 101.209 86.3737 101.222C87.3762 101.63 90.6484 103.07 90.8032 103.915C90.8165 103.983 90.8118 104.055 90.7897 104.121C90.7676 104.187 90.7287 104.247 90.6769 104.294C90.1879 104.747 86.4756 104.931 83.2889 104.931ZM78.8268 102.209C78.6108 102.78 78.2726 103.992 78.7983 104.274C79.7315 104.78 89.8008 104.519 90.3957 103.972C90.4202 103.637 88.5172 102.544 86.3207 101.61L83.9817 102.834C83.9531 102.85 83.9208 102.858 83.888 102.858C83.4193 102.858 79.6622 102.328 78.8268 102.209Z" fill="#231F20"/>
<path d="M60.0777 43.1241L69.2587 45.262L68.9042 53.0669H61.015L60.0777 43.1241Z" fill="#FF914D"/>
<path d="M64.385 55.2741C64.3363 55.2736 64.2893 55.2556 64.2527 55.2234C64.216 55.1912 64.1921 55.147 64.1853 55.0986L62.8935 45.8862C62.8901 45.8594 62.8919 45.8322 62.8989 45.8061C62.9059 45.7801 62.918 45.7556 62.9345 45.7342C62.951 45.7128 62.9715 45.6949 62.9949 45.6814C63.0182 45.6679 63.044 45.6592 63.0708 45.6557C63.0976 45.6522 63.1247 45.6541 63.1508 45.6611C63.1768 45.6681 63.2013 45.6802 63.2226 45.6967C63.244 45.7132 63.2619 45.7337 63.2754 45.7571C63.2889 45.7806 63.2976 45.8064 63.301 45.8332L64.5928 55.0415C64.5968 55.0681 64.5954 55.0952 64.5887 55.1213C64.582 55.1473 64.5701 55.1717 64.5538 55.1931C64.5374 55.2144 64.5169 55.2322 64.4935 55.2454C64.4701 55.2586 64.4443 55.267 64.4176 55.27L64.385 55.2741Z" fill="#231F20"/>
<path d="M46.1412 56.139C46.1183 56.1432 46.0949 56.1432 46.072 56.139C46.0465 56.1304 46.023 56.1166 46.003 56.0987C45.9829 56.0807 45.9667 56.0589 45.9553 56.0345C45.9438 56.0101 45.9375 55.9837 45.9365 55.9568C45.9356 55.9299 45.94 55.903 45.9497 55.8779L47.8487 50.574C47.8572 50.5481 47.8708 50.5242 47.8888 50.5037C47.9067 50.4831 47.9286 50.4664 47.9531 50.4545C47.9776 50.4426 48.0042 50.4357 48.0314 50.4342C48.0586 50.4328 48.0858 50.4368 48.1114 50.4461C48.1371 50.4554 48.1606 50.4697 48.1805 50.4883C48.2005 50.5068 48.2166 50.5291 48.2278 50.554C48.239 50.5789 48.2452 50.6057 48.2458 50.633C48.2465 50.6602 48.2417 50.6874 48.2317 50.7127L46.3328 56.0166C46.3166 56.0537 46.2897 56.0852 46.2556 56.107C46.2215 56.1288 46.1817 56.14 46.1412 56.139Z" fill="#231F20"/>
<path d="M71.2106 79.472H71.1454C71.0946 79.4535 71.0529 79.4159 71.0293 79.3671C71.0057 79.3183 71.0021 79.2623 71.0191 79.2109C71.0395 79.1497 73.1625 72.8462 71.8667 71.1408C71.0069 70.0148 67.9628 69.3212 67.9302 69.3171C67.9035 69.3112 67.8782 69.3001 67.8557 69.2844C67.8332 69.2687 67.8141 69.2487 67.7993 69.2256C67.7845 69.2025 67.7745 69.1767 67.7697 69.1497C67.7649 69.1227 67.7654 69.095 67.7713 69.0682C67.7772 69.0414 67.7883 69.0161 67.804 68.9936C67.8197 68.9711 67.8396 68.9519 67.8627 68.9371C67.8858 68.9224 67.9115 68.9123 67.9385 68.9075C67.9655 68.9027 67.9931 68.9032 68.0199 68.9091C68.1503 68.9377 71.2432 69.6394 72.1886 70.8838C73.6189 72.7646 71.4959 79.0681 71.4021 79.3333C71.3891 79.3738 71.3635 79.4091 71.3291 79.434C71.2946 79.459 71.2531 79.4723 71.2106 79.472Z" fill="white"/>
</svg>
