<svg width="119" height="111" viewBox="0 0 119 111" fill="none" xmlns="http://www.w3.org/2000/svg">
<path d="M102.457 108.62C102.457 109.828 92.3072 110.802 77.4324 110.802C62.5575 110.802 18.4152 110.005 18.4152 108.802C18.4152 107.6 60.7102 106.448 75.5648 106.448C90.4193 106.448 102.457 107.417 102.457 108.62Z" fill="#D1D3D4"/>
<path d="M18.4152 108.803H71.2459C71.7053 108.808 72.1609 108.718 72.5839 108.539C73.007 108.36 73.3884 108.095 73.7043 107.761C74.0203 107.428 74.2639 107.032 74.4198 106.6C74.5758 106.168 74.6408 105.708 74.6107 105.25L69.3225 4.47065C69.2635 3.5154 68.845 2.61793 68.151 1.95882C67.4571 1.29971 66.5393 0.927883 65.5822 0.918155H12.7363C12.2771 0.912918 11.8218 1.00274 11.399 1.18197C10.9761 1.3612 10.595 1.62596 10.2795 1.95961C9.96392 2.29326 9.72082 2.68858 9.56545 3.12072C9.41007 3.55286 9.34578 4.01247 9.37661 4.47065L14.68 105.25C14.7377 106.205 15.1552 107.102 15.8483 107.761C16.5415 108.421 17.4587 108.793 18.4152 108.803Z" fill="#231F20"/>
<path d="M71.2459 109.021H18.4152C17.4024 109.01 16.4312 108.616 15.6969 107.918C14.9625 107.221 14.5194 106.271 14.4567 105.26L9.15331 4.4808C9.12258 3.99326 9.19272 3.50463 9.35936 3.04543C9.52601 2.58623 9.78557 2.16633 10.1218 1.81198C10.4581 1.45762 10.8638 1.17643 11.3137 0.985959C11.7635 0.795492 12.2478 0.699846 12.7363 0.705001H65.567C66.58 0.716973 67.5511 1.11102 68.286 1.80829C69.0209 2.50556 69.4654 3.45462 69.5306 4.46558L74.834 105.25C74.8655 105.738 74.7957 106.228 74.6291 106.688C74.4625 107.148 74.2026 107.569 73.8657 107.924C73.5288 108.279 73.1222 108.561 72.6714 108.751C72.2206 108.942 71.7353 109.037 71.2459 109.031V109.021ZM12.7363 1.14145C12.3079 1.13704 11.8833 1.22114 11.489 1.38846C11.0947 1.55579 10.7392 1.80275 10.4447 2.11386C10.1503 2.42497 9.92328 2.79353 9.7779 3.19646C9.63253 3.59938 9.57193 4.02799 9.59991 4.45543L14.9033 105.25C14.9584 106.147 15.3514 106.99 16.0031 107.608C16.6547 108.227 17.5166 108.576 18.4152 108.584H71.2459C71.6739 108.589 72.0982 108.506 72.4928 108.34C72.8873 108.174 73.2437 107.929 73.5398 107.62C73.8374 107.305 74.0671 106.932 74.2146 106.524C74.3621 106.116 74.4244 105.683 74.3975 105.25L69.084 4.4808C69.03 3.58215 68.6368 2.73751 67.984 2.11762C67.3311 1.49773 66.4673 1.14883 65.567 1.14145H12.7363Z" fill="#231F20"/>
<path d="M22.3179 108.62H75.1537C75.6127 108.624 76.0676 108.534 76.4901 108.354C76.9125 108.175 77.2934 107.91 77.6087 107.577C77.9241 107.243 78.1673 106.848 78.3229 106.416C78.4786 105.985 78.5434 105.525 78.5133 105.067L73.21 4.28795C73.1522 3.33314 72.7347 2.4357 72.0416 1.77648C71.3485 1.11726 70.4313 0.745265 69.4748 0.735453H16.644C16.1846 0.73027 15.7291 0.820084 15.306 0.99926C14.883 1.17844 14.5015 1.44311 14.1856 1.77667C13.8697 2.11024 13.6261 2.50549 13.4701 2.93764C13.3142 3.36979 13.2492 3.82951 13.2793 4.28795L18.5725 105.072C18.6316 106.028 19.0511 106.926 19.7462 107.584C20.4414 108.242 21.3604 108.613 22.3179 108.62Z" fill="white"/>
<path d="M75.1537 108.874H22.3179C21.2984 108.858 20.3222 108.459 19.5831 107.757C18.8441 107.055 18.3963 106.1 18.3289 105.083L13.0255 4.30318C12.9941 3.81056 13.0646 3.31676 13.2327 2.85265C13.4008 2.38854 13.6629 1.96411 14.0025 1.6059C14.3422 1.2477 14.7521 0.963425 15.2066 0.770861C15.6611 0.578297 16.1504 0.481587 16.644 0.486778H69.4748C70.4909 0.501989 71.4645 0.897758 72.203 1.5959C72.9416 2.29404 73.3914 3.24378 73.4637 4.2575L78.7671 105.037C78.7985 105.529 78.7281 106.022 78.5603 106.486C78.3925 106.95 78.1309 107.374 77.7918 107.732C77.4527 108.09 77.0435 108.375 76.5896 108.568C76.1356 108.761 75.6469 108.858 75.1537 108.853V108.874ZM16.644 0.994278C16.2213 0.9901 15.8022 1.07283 15.4128 1.23734C15.0234 1.40185 14.6719 1.64462 14.3802 1.9506C14.0885 2.25658 13.8628 2.61924 13.717 3.01607C13.5713 3.41291 13.5087 3.83546 13.533 4.2575L18.8364 105.037C18.8973 105.924 19.2886 106.756 19.9332 107.369C20.5778 107.981 21.4287 108.33 22.3179 108.346H75.1537C75.5782 108.351 75.9993 108.268 76.3902 108.103C76.7812 107.937 77.1337 107.692 77.4255 107.384C77.7172 107.075 77.942 106.71 78.0855 106.31C78.2291 105.911 78.2883 105.486 78.2596 105.062L72.9562 4.30318C72.8954 3.41598 72.504 2.58387 71.8594 1.97123C71.2148 1.35859 70.3639 1.00998 69.4748 0.994278H16.644Z" fill="#231F20"/>
<path d="M71.1495 102.286H25.7181C24.8971 102.277 24.1098 101.958 23.5135 101.393C22.9171 100.829 22.5554 100.06 22.5006 99.2412L17.8316 10.5353C17.8064 10.1373 17.8636 9.73834 17.9995 9.36339C18.1354 8.98845 18.347 8.64552 18.6213 8.35601C18.8956 8.06649 19.2266 7.8366 19.5937 7.68066C19.9607 7.52473 20.356 7.4461 20.7548 7.44968H66.1811C67.0026 7.45925 67.7905 7.7779 68.3877 8.34218C68.9849 8.90646 69.3476 9.67497 69.4037 10.4947L74.0676 99.2006C74.0942 99.5985 74.0383 99.9977 73.9033 100.373C73.7682 100.748 73.5571 101.092 73.2831 101.381C73.009 101.671 72.678 101.901 72.3109 102.057C71.9437 102.212 71.5483 102.291 71.1495 102.286ZM20.7548 7.94195C20.4256 7.93807 20.0993 8.00235 19.7962 8.13074C19.4931 8.25913 19.2199 8.44885 18.9937 8.68798C18.7668 8.92831 18.5916 9.21266 18.479 9.52343C18.3664 9.83419 18.3188 10.1648 18.3391 10.4947L23.0081 99.2006C23.0503 99.8933 23.3534 100.544 23.8561 101.023C24.3589 101.501 25.0242 101.771 25.7181 101.779H71.1495C71.4779 101.781 71.8033 101.717 72.1057 101.588C72.408 101.46 72.6808 101.271 72.9072 101.033C73.1337 100.796 73.3089 100.514 73.4221 100.206C73.5352 99.8973 73.584 99.5691 73.5652 99.2412L68.8962 10.5353C68.8515 9.84259 68.5471 9.19228 68.0437 8.71432C67.5403 8.23636 66.8752 7.96597 66.1811 7.95718L20.7548 7.94195Z" fill="#D1D3D4"/>
<path d="M52.0066 4.765H42.0799C42.0126 4.765 41.9481 4.73827 41.9005 4.69068C41.8529 4.64309 41.8262 4.57855 41.8262 4.51125C41.8262 4.44395 41.8529 4.37941 41.9005 4.33182C41.9481 4.28424 42.0126 4.2575 42.0799 4.2575H52.0066C52.0739 4.2575 52.1384 4.28424 52.186 4.33182C52.2336 4.37941 52.2604 4.44395 52.2604 4.51125C52.2604 4.57855 52.2336 4.64309 52.186 4.69068C52.1384 4.73827 52.0739 4.765 52.0066 4.765Z" fill="#D1D3D4"/>
<path d="M40.6082 4.765H38.8725C38.8052 4.765 38.7407 4.73827 38.6931 4.69068C38.6455 4.64309 38.6188 4.57855 38.6188 4.51125C38.6188 4.44395 38.6455 4.37941 38.6931 4.33182C38.7407 4.28424 38.8052 4.2575 38.8725 4.2575H40.6082C40.6755 4.2575 40.74 4.28424 40.7876 4.33182C40.8352 4.37941 40.8619 4.44395 40.8619 4.51125C40.8619 4.57855 40.8352 4.64309 40.7876 4.69068C40.74 4.73827 40.6755 4.765 40.6082 4.765Z" fill="#D1D3D4"/>
<path d="M12.2186 24.994C12.1539 24.9941 12.0915 24.9694 12.0444 24.9251C11.9972 24.8807 11.9687 24.8201 11.9649 24.7554L11.4168 14.3365C11.414 14.2686 11.438 14.2024 11.4835 14.1521C11.5291 14.1018 11.5926 14.0714 11.6604 14.0675C11.6937 14.0661 11.727 14.0713 11.7583 14.0829C11.7896 14.0944 11.8183 14.1119 11.8428 14.1346C11.8673 14.1572 11.8871 14.1844 11.9011 14.2147C11.9151 14.245 11.9229 14.2777 11.9243 14.3111L12.4825 24.7301C12.4846 24.7631 12.48 24.7963 12.469 24.8276C12.4581 24.8588 12.441 24.8876 12.4188 24.9122C12.3966 24.9368 12.3697 24.9567 12.3396 24.9707C12.3096 24.9848 12.2771 24.9927 12.244 24.994H12.2186Z" fill="#D1D3D4"/>
<path d="M32.4019 18.295H26.7889L17.6539 7.35325H23.2618L32.4019 18.295Z" fill="white"/>
<path d="M32.4019 18.5233H26.7889C26.7553 18.5228 26.7222 18.5153 26.6916 18.5013C26.661 18.4873 26.6337 18.4672 26.6113 18.4421L17.4763 7.50043C17.448 7.46724 17.43 7.42648 17.4246 7.38319C17.4192 7.3399 17.4266 7.29597 17.4458 7.25683C17.4635 7.21629 17.4926 7.18177 17.5296 7.15744C17.5665 7.13312 17.6097 7.12004 17.6539 7.1198H23.2618C23.2961 7.11921 23.3301 7.12671 23.3609 7.1417C23.3918 7.15669 23.4187 7.17875 23.4394 7.20608L32.5744 18.1427C32.6026 18.177 32.6204 18.2186 32.6258 18.2626C32.6312 18.3067 32.624 18.3513 32.6049 18.3914C32.5868 18.4302 32.5582 18.4631 32.5223 18.4865C32.4864 18.5098 32.4447 18.5226 32.4019 18.5233ZM26.9006 18.0615H31.9045L23.14 7.5867H18.136L26.9006 18.0615Z" fill="#231F20"/>
<path d="M32.4019 18.295H26.7889L26.9716 21.0761C27.0222 21.7585 27.3263 22.3972 27.824 22.8668C28.3218 23.3364 28.9772 23.6028 29.6614 23.6136H30.245C30.5714 23.6184 30.8951 23.5546 31.1952 23.4264C31.4953 23.2981 31.7652 23.1082 31.9872 22.8689C32.2092 22.6297 32.3785 22.3464 32.484 22.0376C32.5895 21.7287 32.629 21.4011 32.5998 21.0761L32.4019 18.295Z" fill="white"/>
<path d="M30.245 23.8318H29.6766C28.9364 23.8202 28.2271 23.5329 27.6874 23.026C27.1477 22.5192 26.8165 21.8293 26.7585 21.0913L26.5758 18.3102C26.573 18.2785 26.5768 18.2466 26.587 18.2165C26.5972 18.1864 26.6135 18.1588 26.635 18.1354C26.6565 18.112 26.6827 18.0933 26.7118 18.0806C26.7409 18.0679 26.7724 18.0614 26.8042 18.0615H32.4171C32.476 18.0614 32.5325 18.0841 32.5751 18.1248C32.6176 18.1654 32.6429 18.2209 32.6455 18.2797L32.8333 21.0608C32.8615 21.4164 32.8153 21.774 32.6977 22.1108C32.58 22.4476 32.3935 22.7562 32.15 23.0169C31.9065 23.2776 31.6113 23.4847 31.2833 23.625C30.9553 23.7653 30.6017 23.8357 30.245 23.8318ZM27.0528 18.5233L27.2203 21.0608C27.2694 21.6822 27.5482 22.263 28.0024 22.6899C28.4565 23.1168 29.0534 23.3593 29.6766 23.37H30.245C30.5382 23.3738 30.829 23.3163 31.0987 23.201C31.3683 23.0858 31.6108 22.9154 31.8106 22.7007C32.0105 22.4861 32.1631 22.232 32.2588 21.9548C32.3545 21.6776 32.3912 21.3835 32.3663 21.0913L32.1989 18.5233H27.0528Z" fill="#231F20"/>
<path d="M38.0098 18.295H32.4019L23.2618 7.35325H28.8697L38.0098 18.295Z" fill="#FF914D"/>
<path d="M38.0098 18.5233H32.4019C32.3681 18.5238 32.3347 18.5167 32.304 18.5027C32.2732 18.4886 32.246 18.468 32.2242 18.4421L23.0893 7.50043C23.0609 7.46724 23.043 7.42648 23.0376 7.38319C23.0321 7.3399 23.0395 7.29597 23.0588 7.25683C23.0765 7.21629 23.1056 7.18177 23.1425 7.15744C23.1794 7.13312 23.2227 7.12004 23.2669 7.1198H28.8494C28.8837 7.11921 28.9176 7.12671 28.9485 7.1417C28.9794 7.15669 29.0063 7.17875 29.027 7.20608L38.162 18.1427C38.1919 18.176 38.2113 18.2174 38.2178 18.2616C38.2244 18.3059 38.2178 18.3511 38.1988 18.3917C38.1799 18.4322 38.1495 18.4663 38.1114 18.4897C38.0733 18.5131 38.0291 18.5248 37.9844 18.5233H38.0098ZM32.5085 18.0615H37.5124L28.7631 7.5867H23.7592L32.5085 18.0615Z" fill="#231F20"/>
<path d="M38.0097 18.295H32.4019L32.5846 21.0761C32.6329 21.7593 32.9363 22.3994 33.4345 22.8695C33.9327 23.3395 34.5894 23.6051 35.2743 23.6136H35.8275C36.1539 23.6184 36.4776 23.5546 36.7777 23.4264C37.0778 23.2981 37.3477 23.1082 37.5697 22.8689C37.7917 22.6297 37.961 22.3464 38.0665 22.0376C38.172 21.7287 38.2115 21.4011 38.1823 21.0761L38.0097 18.295Z" fill="#FF914D"/>
<path d="M35.8275 23.8318H35.2591C34.518 23.8214 33.8074 23.5347 33.2667 23.0277C32.726 22.5208 32.394 21.8302 32.3359 21.0913L32.1532 18.3102C32.15 18.2454 32.1718 18.1818 32.2141 18.1326C32.2368 18.1099 32.2637 18.092 32.2933 18.0799C32.3229 18.0677 32.3546 18.0614 32.3866 18.0615H38.0097C38.0688 18.0625 38.1253 18.0854 38.1684 18.1257C38.2115 18.166 38.2382 18.2209 38.2432 18.2797L38.4259 21.0608C38.4542 21.4173 38.4078 21.7758 38.2895 22.1133C38.1713 22.4507 37.9838 22.7598 37.7392 23.0207C37.4946 23.2815 37.1982 23.4884 36.869 23.6281C36.5398 23.7678 36.1851 23.8371 35.8275 23.8318ZM32.6302 18.5233L32.8028 21.0608C32.8497 21.683 33.1278 22.2651 33.5824 22.6925C34.037 23.1199 34.6352 23.3616 35.2591 23.37H35.8275C36.1207 23.3738 36.4115 23.3163 36.6811 23.201C36.9508 23.0858 37.1933 22.9154 37.3931 22.7007C37.593 22.4861 37.7456 22.232 37.8413 21.9548C37.937 21.6776 37.9737 21.3835 37.9488 21.0913L37.7763 18.5233H32.6302Z" fill="#231F20"/>
<path d="M43.6227 18.295H38.0098L28.8697 7.35325H34.4776L43.6227 18.295Z" fill="white"/>
<path d="M43.6227 18.5233H38.0097C37.9541 18.5227 37.9004 18.503 37.8575 18.4675L28.7225 7.5258C28.6942 7.49261 28.6762 7.45185 28.6708 7.40856C28.6654 7.36527 28.6728 7.32134 28.692 7.2822C28.7103 7.24204 28.7395 7.20786 28.7763 7.18361C28.8131 7.15936 28.856 7.14604 28.9001 7.14518H34.508C34.543 7.14495 34.5775 7.15259 34.6092 7.16753C34.6408 7.18246 34.6686 7.20431 34.6907 7.23145L43.8257 18.1681C43.8539 18.2024 43.8717 18.2439 43.8771 18.288C43.8825 18.332 43.8752 18.3767 43.8562 18.4168C43.8324 18.4559 43.7974 18.4869 43.7558 18.5059C43.7142 18.5249 43.6678 18.531 43.6227 18.5233ZM38.1214 18.0615H43.1253L34.371 7.5867H29.367L38.1214 18.0615Z" fill="#231F20"/>
<path d="M43.6227 18.295H38.0098L38.1975 21.0761C38.2458 21.7584 38.5484 22.3978 39.0456 22.8678C39.5427 23.3377 40.1982 23.6038 40.8822 23.6136H41.4506C41.777 23.6184 42.1007 23.5546 42.4008 23.4264C42.7009 23.2981 42.9708 23.1082 43.1928 22.8689C43.4148 22.6297 43.5841 22.3464 43.6896 22.0376C43.7951 21.7287 43.8346 21.4011 43.8054 21.0761L43.6227 18.295Z" fill="white"/>
<path d="M41.4506 23.8318H40.9025C40.1622 23.8202 39.4529 23.5329 38.9133 23.026C38.3736 22.5192 38.0424 21.8293 37.9844 21.0913L37.8017 18.3102C37.7988 18.2785 37.8027 18.2466 37.8129 18.2165C37.8231 18.1864 37.8394 18.1588 37.8609 18.1354C37.8824 18.112 37.9086 18.0933 37.9377 18.0806C37.9668 18.0679 37.9983 18.0614 38.03 18.0615H43.643C43.7018 18.0614 43.7584 18.0841 43.801 18.1248C43.8435 18.1654 43.8688 18.2209 43.8714 18.2797L44.0591 21.0608C44.0874 21.4164 44.0412 21.774 43.9235 22.1108C43.8059 22.4476 43.6194 22.7562 43.3759 23.0169C43.1324 23.2776 42.8372 23.4847 42.5092 23.625C42.1812 23.7653 41.8276 23.8357 41.4709 23.8318H41.4506ZM38.2584 18.5233L38.4259 21.0608C38.4753 21.6856 38.757 22.2693 39.2155 22.6967C39.6739 23.1241 40.2758 23.3643 40.9025 23.37H41.4709C41.7643 23.3738 42.0553 23.3162 42.3252 23.201C42.5951 23.0858 42.8379 22.9155 43.0381 22.7009C43.2383 22.4864 43.3915 22.2324 43.4878 21.9552C43.5841 21.678 43.6214 21.3837 43.5973 21.0913L43.4248 18.5233H38.2584Z" fill="#231F20"/>
<path d="M49.2306 18.295H43.6227L34.4776 7.35325H40.0905L49.2306 18.295Z" fill="#FF914D"/>
<path d="M49.2306 18.5233H43.6481C43.6115 18.5319 43.5733 18.5312 43.537 18.5215C43.5007 18.5118 43.4674 18.4932 43.44 18.4675L34.305 7.50043C34.2778 7.46666 34.2606 7.42598 34.2552 7.38296C34.2498 7.33993 34.2565 7.29626 34.2746 7.25683C34.2932 7.21703 34.3226 7.18317 34.3593 7.15899C34.396 7.13481 34.4387 7.12125 34.4826 7.1198H40.0905C40.1246 7.12033 40.1582 7.12833 40.1889 7.14324C40.2196 7.15814 40.2466 7.17959 40.2681 7.20608L49.4031 18.1427C49.433 18.176 49.4524 18.2174 49.4589 18.2616C49.4655 18.3059 49.4589 18.3511 49.44 18.3917C49.421 18.4322 49.3906 18.4663 49.3525 18.4897C49.3144 18.5131 49.2702 18.5248 49.2255 18.5233H49.2306ZM43.7293 18.0615H48.7332L39.9789 7.58671H34.9749L43.7293 18.0615Z" fill="#231F20"/>
<path d="M49.2306 18.295H43.6481L43.8308 21.0761C43.8802 21.7589 44.184 22.3983 44.6819 22.8681C45.1799 23.3379 45.836 23.6039 46.5205 23.6136H47.0889C47.4153 23.6184 47.739 23.5546 48.0391 23.4264C48.3393 23.2981 48.6091 23.1082 48.8311 22.8689C49.0531 22.6297 49.2224 22.3464 49.3279 22.0376C49.4335 21.7287 49.4729 21.4011 49.4437 21.0761L49.2306 18.295Z" fill="#FF914D"/>
<path d="M47.0635 23.8318H46.485C45.7444 23.8213 45.0345 23.5344 44.4946 23.0273C43.9547 22.5203 43.6238 21.8298 43.5669 21.0913L43.3791 18.3102C43.3759 18.2454 43.3977 18.1818 43.44 18.1326C43.4627 18.1099 43.4896 18.092 43.5192 18.0799C43.5488 18.0677 43.5805 18.0614 43.6125 18.0615H49.195C49.2541 18.0625 49.3106 18.0854 49.3537 18.1257C49.3968 18.166 49.4235 18.2209 49.4285 18.2797L49.6112 21.0608C49.6442 21.417 49.6015 21.7762 49.4859 22.1147C49.3704 22.4533 49.1845 22.7635 48.9406 23.0252C48.6967 23.2869 48.4002 23.494 48.0705 23.633C47.7409 23.772 47.3857 23.8397 47.028 23.8318H47.0635ZM43.8663 18.5233L44.0388 21.0608C44.0867 21.6809 44.3637 22.2609 44.8159 22.6878C45.2682 23.1147 45.8632 23.3579 46.485 23.37H47.0534C47.3466 23.3738 47.6374 23.3163 47.9071 23.201C48.1767 23.0858 48.4192 22.9154 48.619 22.7007C48.8189 22.4861 48.9715 22.232 49.0672 21.9548C49.1629 21.6776 49.1996 21.3835 49.1747 21.0913L49.0225 18.5233H43.8663Z" fill="#231F20"/>
<path d="M54.8435 18.295H49.2306L40.0905 7.35325H45.6984L54.8435 18.295Z" fill="white"/>
<path d="M54.8435 18.5233H49.2306C49.197 18.5228 49.1638 18.5153 49.1333 18.5013C49.1027 18.4873 49.0754 18.4672 49.0529 18.4421L39.918 7.50043C39.8888 7.46778 39.8699 7.42728 39.8636 7.38397C39.8573 7.34066 39.8638 7.29645 39.8824 7.25683C39.902 7.21663 39.9322 7.18259 39.9698 7.15842C40.0074 7.13425 40.0509 7.12089 40.0956 7.1198H45.6781C45.7122 7.12033 45.7458 7.12833 45.7765 7.14324C45.8072 7.15814 45.8342 7.17959 45.8557 7.20608L54.9907 18.1427C55.0189 18.177 55.0367 18.2186 55.0421 18.2626C55.0475 18.3067 55.0402 18.3513 55.0212 18.3914C55.0052 18.4266 54.9805 18.4572 54.9494 18.4803C54.9183 18.5034 54.8819 18.5182 54.8435 18.5233ZM49.3371 18.0615H54.3462L45.5867 7.58671H40.5828L49.3371 18.0615Z" fill="#231F20"/>
<path d="M54.8435 18.295H49.2306L49.4183 21.0761C49.4667 21.7593 49.77 22.3994 50.2683 22.8695C50.7665 23.3395 51.4232 23.6051 52.1081 23.6136H52.6765C53.0027 23.6185 53.3262 23.5547 53.6261 23.4264C53.926 23.2981 54.1955 23.1081 54.4171 22.8687C54.6388 22.6294 54.8075 22.3461 54.9125 22.0372C55.0174 21.7284 55.0562 21.4009 55.0262 21.0761L54.8435 18.295Z" fill="white"/>
<path d="M52.6765 23.8318H52.1081C51.367 23.8214 50.6564 23.5347 50.1157 23.0277C49.575 22.5208 49.243 21.8302 49.1849 21.0913L49.0225 18.3102C49.0198 18.278 49.0238 18.2455 49.0343 18.215C49.0448 18.1844 49.0615 18.1563 49.0834 18.1325C49.1048 18.1096 49.1307 18.0914 49.1596 18.0792C49.1884 18.067 49.2195 18.0609 49.2509 18.0615H54.8638C54.9227 18.0614 54.9793 18.0841 55.0218 18.1248C55.0644 18.1654 55.0896 18.2209 55.0922 18.2797L55.28 21.0608C55.3082 21.416 55.2621 21.7732 55.1448 22.1096C55.0274 22.446 54.8414 22.7544 54.5984 23.015C54.3554 23.2756 54.0609 23.4828 53.7335 23.6234C53.4061 23.7641 53.0531 23.835 52.6968 23.8318H52.6765ZM49.4792 18.5233L49.6467 21.0608C49.6959 21.683 49.9755 22.2645 50.4307 22.6916C50.8859 23.1186 51.484 23.3605 52.1081 23.37H52.6765C52.9695 23.3731 53.2599 23.315 53.5292 23.1995C53.7985 23.0839 54.0407 22.9135 54.2403 22.699C54.44 22.4846 54.5927 22.2308 54.6887 21.954C54.7847 21.6771 54.8219 21.3833 54.7979 21.0913L54.605 18.5233H49.4792Z" fill="#231F20"/>
<path d="M60.4514 18.295H54.8435L45.6984 7.35325H51.3063L60.4514 18.295Z" fill="#FF914D"/>
<path d="M60.4514 18.5233H54.8435C54.8098 18.5238 54.7763 18.5167 54.7456 18.5027C54.7149 18.4886 54.6877 18.468 54.6659 18.4421L45.5309 7.50043C45.5018 7.46778 45.4829 7.42728 45.4765 7.38397C45.4702 7.34066 45.4768 7.29645 45.4954 7.25683C45.5149 7.21663 45.5451 7.18259 45.5827 7.15842C45.6203 7.13425 45.6638 7.12089 45.7085 7.1198H51.3062C51.3404 7.12033 51.3739 7.12833 51.4046 7.14324C51.4353 7.15814 51.4624 7.17959 51.4839 7.20608L60.6189 18.1427C60.6487 18.176 60.6681 18.2174 60.6747 18.2616C60.6812 18.3059 60.6746 18.3511 60.6557 18.3917C60.6368 18.4322 60.6064 18.4663 60.5683 18.4897C60.5301 18.5131 60.486 18.5248 60.4412 18.5233H60.4514ZM54.9501 18.0615H59.954L51.1997 7.58671H46.1906L54.9501 18.0615Z" fill="#231F20"/>
<path d="M60.4514 18.295H54.8435L55.0262 21.0761C55.0768 21.7585 55.3809 22.3972 55.8786 22.8668C56.3764 23.3364 57.0318 23.6028 57.716 23.6136H58.2844C58.6107 23.6184 58.9345 23.5546 59.2346 23.4264C59.5347 23.2981 59.8045 23.1082 60.0266 22.8689C60.2486 22.6297 60.4178 22.3464 60.5234 22.0376C60.6289 21.7287 60.6684 21.4011 60.6392 21.0761L60.4514 18.295Z" fill="#FF914D"/>
<path d="M58.2844 23.8318H57.716C56.9757 23.8202 56.2664 23.5329 55.7268 23.026C55.1871 22.5192 54.8559 21.8293 54.7979 21.0913L54.605 18.3102C54.6018 18.2454 54.6236 18.1818 54.6659 18.1326C54.6886 18.1099 54.7155 18.092 54.7451 18.0799C54.7747 18.0677 54.8064 18.0614 54.8385 18.0615H60.4463C60.5053 18.0625 60.5619 18.0854 60.605 18.1257C60.6481 18.166 60.6748 18.2209 60.6798 18.2797L60.8676 21.0608C60.8966 21.419 60.8512 21.7793 60.7341 22.1191C60.6171 22.4588 60.431 22.7707 60.1875 23.035C59.9426 23.2922 59.6471 23.4958 59.3195 23.6329C58.9919 23.7701 58.6395 23.8378 58.2844 23.8318ZM55.1125 18.5233L55.2851 21.0608C55.3342 21.6822 55.613 22.263 56.0671 22.6899C56.5213 23.1168 57.1181 23.3593 57.7414 23.37H58.3098C58.603 23.3738 58.8938 23.3163 59.1634 23.201C59.4331 23.0858 59.6756 22.9154 59.8754 22.7007C60.0752 22.4861 60.2279 22.232 60.3236 21.9548C60.4193 21.6776 60.4559 21.3835 60.4311 21.0913L60.2586 18.5233H55.1125Z" fill="#231F20"/>
<path d="M66.0644 18.295H60.4514L51.3063 7.35325H56.9141L66.0644 18.295Z" fill="white"/>
<path d="M66.0644 18.5233H60.4514C60.4178 18.5228 60.3847 18.5153 60.3541 18.5013C60.3235 18.4873 60.2962 18.4672 60.2738 18.4421L51.1388 7.50043C51.1096 7.46777 51.0907 7.42727 51.0844 7.38396C51.0781 7.34065 51.0847 7.29644 51.1033 7.25683C51.1228 7.21663 51.153 7.18259 51.1906 7.15842C51.2282 7.13425 51.2717 7.12089 51.3164 7.1198H56.9243C56.9585 7.1196 56.9923 7.12728 57.0231 7.14224C57.0539 7.1572 57.0809 7.17904 57.1019 7.20608L66.2369 18.1427C66.264 18.1775 66.2812 18.219 66.2865 18.2628C66.2919 18.3066 66.2853 18.3511 66.2673 18.3914C66.2488 18.4298 66.2201 18.4625 66.1843 18.4857C66.1485 18.509 66.107 18.522 66.0644 18.5233ZM60.558 18.0615H65.567L56.8075 7.5867H51.8036L60.558 18.0615Z" fill="#231F20"/>
<path d="M66.0644 18.295H60.4514L60.6392 21.0761C60.6886 21.7589 60.9924 22.3983 61.4904 22.8681C61.9883 23.3379 62.6444 23.6039 63.3289 23.6136H63.8973C64.2235 23.6185 64.547 23.5547 64.8469 23.4264C65.1468 23.2981 65.4164 23.1081 65.638 22.8687C65.8596 22.6294 66.0284 22.3461 66.1333 22.0372C66.2383 21.7284 66.277 21.4009 66.2471 21.0761L66.0644 18.295Z" fill="white"/>
<path d="M63.8973 23.8318H63.3289C62.5882 23.8203 61.8782 23.5331 61.3377 23.0264C60.7973 22.5197 60.465 21.8298 60.4057 21.0913L60.218 18.3102C60.2167 18.2448 60.2403 18.1813 60.2839 18.1325C60.3053 18.1096 60.3313 18.0914 60.3601 18.0792C60.389 18.067 60.4201 18.0609 60.4514 18.0615H66.0644C66.1232 18.0614 66.1798 18.0841 66.2224 18.1248C66.2649 18.1654 66.2901 18.2209 66.2927 18.2797L66.4805 21.0608C66.5135 21.417 66.4708 21.7762 66.3552 22.1147C66.2397 22.4533 66.0538 22.7635 65.8099 23.0252C65.566 23.2869 65.2695 23.494 64.9399 23.633C64.6102 23.772 64.255 23.8397 63.8973 23.8318ZM60.695 18.5233L60.8676 21.0608C60.9156 21.6826 61.194 22.2641 61.6484 22.6912C62.1028 23.1184 62.7003 23.3604 63.3239 23.37H63.8923C64.1855 23.3738 64.4763 23.3163 64.7459 23.201C65.0156 23.0858 65.2581 22.9153 65.4579 22.7007C65.6577 22.4861 65.8104 22.232 65.9061 21.9548C66.0018 21.6776 66.0384 21.3835 66.0136 21.0913L65.8411 18.5233H60.695Z" fill="#231F20"/>
<path d="M71.6722 18.295H66.0643L56.9141 7.35325H62.522L71.6722 18.295Z" fill="#FF914D"/>
<path d="M71.6722 18.5233H66.0897C66.056 18.5238 66.0225 18.5167 65.9918 18.5027C65.9611 18.4886 65.9339 18.468 65.9121 18.4421L56.7771 7.50043C56.7488 7.46724 56.7308 7.42648 56.7254 7.38319C56.72 7.33989 56.7274 7.29596 56.7466 7.25683C56.7643 7.21629 56.7934 7.18176 56.8303 7.15744C56.8673 7.13312 56.9105 7.12004 56.9547 7.1198H62.5372C62.5715 7.1196 62.6053 7.12728 62.6361 7.14224C62.6669 7.1572 62.6938 7.17904 62.7148 7.20608L71.8498 18.1427C71.8775 18.1767 71.895 18.2178 71.9003 18.2613C71.9057 18.3048 71.8987 18.3489 71.8802 18.3886C71.8617 18.4283 71.8323 18.462 71.7956 18.4858C71.7588 18.5097 71.716 18.5227 71.6722 18.5233ZM66.1709 18.0615H71.1749L62.4154 7.5867H57.4115L66.1709 18.0615Z" fill="#231F20"/>
<path d="M71.6722 18.295H66.0897L66.2724 21.0761C66.3231 21.7593 66.6279 22.3988 67.1267 22.8685C67.6255 23.3382 68.2822 23.604 68.9673 23.6136H69.5357C69.8618 23.6185 70.1854 23.5547 70.4852 23.4264C70.7851 23.2981 71.0547 23.1081 71.2763 22.8687C71.4979 22.6294 71.6667 22.3461 71.7716 22.0372C71.8766 21.7284 71.9153 21.4009 71.8854 21.0761L71.6722 18.295Z" fill="#FF914D"/>
<path d="M69.5103 23.8318H68.9419C68.2008 23.8214 67.4902 23.5347 66.9495 23.0277C66.4087 22.5208 66.0768 21.8302 66.0187 21.0913L65.8309 18.3102C65.8277 18.2454 65.8495 18.1818 65.8918 18.1326C65.9145 18.1099 65.9414 18.092 65.971 18.0799C66.0006 18.0677 66.0323 18.0614 66.0644 18.0615H71.6469C71.7059 18.0625 71.7624 18.0854 71.8055 18.1257C71.8487 18.166 71.8753 18.2209 71.8803 18.2797L72.0681 21.0608C72.0963 21.416 72.0502 21.7732 71.9329 22.1096C71.8155 22.446 71.6295 22.7544 71.3865 23.015C71.1436 23.2756 70.849 23.4828 70.5216 23.6234C70.1943 23.7641 69.8412 23.835 69.4849 23.8318H69.5103ZM66.308 18.5233L66.4805 21.0608C66.5297 21.683 66.8092 22.2645 67.2645 22.6916C67.7197 23.1186 68.3178 23.3605 68.9419 23.37H69.5103C69.8031 23.3731 70.0933 23.3151 70.3623 23.1995C70.6314 23.0839 70.8733 22.9134 71.0726 22.6988C71.2718 22.4843 71.424 22.2304 71.5194 21.9536C71.6148 21.6768 71.6513 21.383 71.6266 21.0913L71.454 18.5233H66.308Z" fill="#231F20"/>
<path d="M77.2852 18.295H71.6722L62.522 7.35325H68.1299L77.2852 18.295Z" fill="white"/>
<path d="M77.2852 18.5233H71.6722C71.6386 18.5228 71.6055 18.5153 71.5749 18.5013C71.5444 18.4873 71.517 18.4672 71.4946 18.4421L62.3596 7.50043C62.3313 7.46724 62.3133 7.42648 62.3079 7.38319C62.3025 7.3399 62.3099 7.29597 62.3292 7.25683C62.3468 7.21629 62.3759 7.18177 62.4129 7.15744C62.4498 7.13312 62.493 7.12004 62.5372 7.1198H68.1451C68.1794 7.11921 68.2134 7.12671 68.2442 7.1417C68.2751 7.15669 68.302 7.17875 68.3227 7.20608L77.4577 18.1427C77.4849 18.1775 77.502 18.219 77.5074 18.2628C77.5127 18.3066 77.5061 18.3511 77.4882 18.3914C77.4696 18.4298 77.4409 18.4625 77.4051 18.4857C77.3693 18.509 77.3278 18.522 77.2852 18.5233ZM71.7788 18.0615H76.7878L68.0233 7.5867H63.0194L71.7788 18.0615Z" fill="#231F20"/>
<path d="M77.2852 18.295H71.6722L71.86 21.0761C71.9106 21.7585 72.2147 22.3972 72.7124 22.8668C73.2102 23.3364 73.8656 23.6028 74.5498 23.6136H75.1182C75.4445 23.6184 75.7683 23.5546 76.0684 23.4264C76.3685 23.2981 76.6383 23.1082 76.8603 22.8689C77.0824 22.6297 77.2516 22.3464 77.3572 22.0376C77.4627 21.7287 77.5021 21.4011 77.473 21.0761L77.2852 18.295Z" fill="white"/>
<path d="M75.1181 23.8318H74.5498C73.8093 23.8191 73.1 23.5316 72.5598 23.0251C72.0195 22.5186 71.6869 21.8294 71.6265 21.0913L71.4438 18.3102C71.4411 18.278 71.4452 18.2455 71.4557 18.215C71.4661 18.1844 71.4829 18.1563 71.5048 18.1325C71.5261 18.1096 71.5521 18.0914 71.5809 18.0792C71.6098 18.067 71.6409 18.0609 71.6722 18.0615H77.2852C77.3437 18.0626 77.3996 18.0857 77.4419 18.1261C77.4842 18.1665 77.5098 18.2214 77.5136 18.2797L77.7013 21.0608C77.7343 21.417 77.6916 21.7762 77.5761 22.1147C77.4605 22.4533 77.2746 22.7635 77.0307 23.0252C76.7868 23.2869 76.4903 23.494 76.1607 23.633C75.8311 23.772 75.4758 23.8397 75.1181 23.8318ZM71.9209 18.5233L72.0935 21.0608C72.1414 21.6826 72.4199 22.2641 72.8743 22.6912C73.3287 23.1184 73.9262 23.3604 74.5498 23.37H75.1181C75.4114 23.3738 75.7022 23.3163 75.9718 23.201C76.2415 23.0858 76.484 22.9153 76.6838 22.7007C76.8836 22.4861 77.0363 22.232 77.132 21.9548C77.2277 21.6776 77.2643 21.3835 77.2395 21.0913L77.067 18.5233H71.9209Z" fill="#231F20"/>
<path d="M17.6539 7.35325L18.3746 18.295H26.7889L17.6539 7.35325Z" fill="#231F20"/>
<path d="M26.7889 18.5183H18.3746C18.3182 18.5172 18.2643 18.4954 18.2231 18.457C18.1818 18.4186 18.1563 18.3663 18.1513 18.3102L17.4306 7.36848C17.4282 7.32111 17.4406 7.27416 17.466 7.23414C17.4915 7.19413 17.5288 7.16303 17.5727 7.14518C17.6166 7.12801 17.6647 7.12515 17.7103 7.137C17.7559 7.14885 17.7965 7.17481 17.8265 7.21115L26.9615 18.1478C26.9882 18.1808 27.0053 18.2206 27.0106 18.2627C27.016 18.3048 27.0095 18.3476 26.9919 18.3863C26.9744 18.4255 26.9459 18.4588 26.9099 18.4822C26.8739 18.5056 26.8319 18.5181 26.7889 18.5183ZM18.5725 18.0717H26.3017L17.9128 8.02315L18.5725 18.0717Z" fill="#231F20"/>
<path d="M105.172 44.8068C105.128 44.8045 105.085 44.7923 105.045 44.7712C105.004 44.7462 104.97 44.7102 104.948 44.6672C104.925 44.6243 104.915 44.576 104.919 44.5276C104.863 43.8628 103.462 38.9908 102.178 39.0669C102.102 39.0706 102.028 39.0912 101.962 39.1272C101.895 39.1632 101.837 39.2137 101.792 39.275C101.046 40.1428 101.168 43.1675 101.285 44.2587C101.291 44.3258 101.27 44.3924 101.227 44.4445C101.185 44.4967 101.123 44.5301 101.056 44.5378C101.023 44.5413 100.989 44.5381 100.957 44.5285C100.925 44.5189 100.895 44.5031 100.869 44.4818C100.843 44.4606 100.822 44.4344 100.806 44.4048C100.79 44.3752 100.781 44.3428 100.777 44.3094C100.777 44.1419 100.371 40.153 101.412 38.9451C101.501 38.832 101.613 38.739 101.741 38.6725C101.868 38.606 102.009 38.5675 102.153 38.5594C102.686 38.529 103.218 38.9401 103.731 39.7673C104.614 41.2035 105.573 44.3703 105.401 44.6748C105.378 44.7156 105.345 44.7495 105.305 44.7728C105.265 44.7961 105.219 44.8078 105.172 44.8068Z" fill="#231F20"/>
<path d="M103.097 60.4225C103.034 60.4217 102.973 60.3981 102.927 60.3561C102.88 60.3141 102.85 60.2565 102.843 60.1942L101.199 45.8979C101.195 45.8646 101.197 45.8308 101.206 45.7985C101.215 45.7661 101.231 45.7359 101.251 45.7095C101.272 45.6831 101.298 45.6611 101.327 45.6447C101.356 45.6282 101.389 45.6177 101.422 45.6137C101.455 45.6097 101.489 45.6123 101.521 45.6213C101.554 45.6304 101.584 45.6457 101.61 45.6665C101.637 45.6872 101.659 45.7129 101.675 45.7422C101.692 45.7714 101.702 45.8037 101.706 45.837L103.325 60.1383C103.329 60.1714 103.327 60.205 103.318 60.2371C103.309 60.2692 103.293 60.2992 103.273 60.3252C103.252 60.3513 103.226 60.3729 103.196 60.3887C103.167 60.4045 103.135 60.4143 103.102 60.4175L103.097 60.4225Z" fill="#D1D3D4"/>
<path d="M95.4638 61.9044C95.3674 61.6964 96.2301 45.0199 96.2301 45.0199L106.152 46.2125L108.334 61.6152L95.4638 61.9044Z" fill="white"/>
<path d="M95.4638 62.1582C95.4159 62.1572 95.3691 62.143 95.3288 62.117C95.2884 62.091 95.2561 62.0543 95.2354 62.011C95.1999 61.9349 95.1136 61.742 95.9764 45.0047C95.9781 44.9696 95.9871 44.9352 96.0029 44.9037C96.0186 44.8723 96.0407 44.8444 96.0678 44.822C96.0939 44.7992 96.1247 44.7824 96.158 44.7728C96.1913 44.7631 96.2263 44.7609 96.2606 44.7662L106.182 45.9588C106.238 45.9659 106.29 45.991 106.33 46.0304C106.371 46.0698 106.397 46.1213 106.406 46.177L108.588 61.5796C108.593 61.6151 108.59 61.6513 108.58 61.6855C108.569 61.7198 108.551 61.7513 108.527 61.7775C108.504 61.805 108.475 61.8273 108.443 61.843C108.41 61.8587 108.375 61.8676 108.339 61.8689L95.4689 62.1582H95.4638ZM96.4788 45.3041C96.1693 51.3941 95.7379 60.118 95.7226 61.6405L108.055 61.3665L105.939 46.4409L96.4788 45.3041Z" fill="#D1D3D4"/>
<path d="M96.2302 45.0199L97.6512 43.2284L108.664 43.4619L106.152 46.2125L96.2302 45.0199Z" fill="#D1D3D4"/>
<path d="M106.152 46.4663H106.121L96.22 45.2686C96.1758 45.2633 96.1337 45.2464 96.0981 45.2197C96.0625 45.1929 96.0345 45.1573 96.017 45.1163C96 45.0738 95.9943 45.0276 96.0005 44.9822C96.0067 44.9368 96.0247 44.8939 96.0525 44.8575L97.4735 43.0711C97.4971 43.0399 97.5279 43.0149 97.5633 42.9981C97.5986 42.9813 97.6374 42.9733 97.6765 42.9747L108.689 43.2081C108.738 43.2111 108.785 43.2274 108.825 43.2551C108.866 43.2828 108.897 43.321 108.918 43.3655C108.936 43.4101 108.941 43.4589 108.933 43.5064C108.925 43.554 108.904 43.5983 108.872 43.6344L106.34 46.38C106.316 46.4065 106.287 46.4279 106.255 46.4427C106.222 46.4575 106.187 46.4656 106.152 46.4663ZM96.7275 44.822L106.071 45.9436L108.101 43.7055L97.773 43.4873L96.7275 44.822Z" fill="#D1D3D4"/>
<path d="M108.664 43.4619L111.227 60.0165L108.334 61.6152L106.152 46.2125L108.664 43.4619Z" fill="white"/>
<path d="M108.334 61.8689C108.295 61.8683 108.256 61.8578 108.222 61.8385C108.185 61.8214 108.153 61.7953 108.129 61.7624C108.105 61.7295 108.09 61.6911 108.085 61.6507L105.903 46.2481C105.897 46.2106 105.9 46.1723 105.911 46.1362C105.923 46.1001 105.943 46.0671 105.969 46.04L108.476 43.2944C108.508 43.2587 108.549 43.2326 108.595 43.2191C108.64 43.2056 108.689 43.2053 108.735 43.2183C108.781 43.2329 108.822 43.2602 108.853 43.2969C108.885 43.3337 108.905 43.3785 108.913 43.4264L111.475 59.981C111.482 60.0319 111.474 60.0836 111.451 60.1297C111.429 60.1758 111.393 60.2141 111.349 60.2398L108.461 61.8334C108.422 61.8552 108.379 61.8674 108.334 61.8689ZM106.421 46.2937L108.537 61.2142L110.938 59.8795L108.481 44.0252L106.421 46.2937Z" fill="#D1D3D4"/>
<path d="M103.35 47.6691C103.317 47.6671 103.284 47.6586 103.254 47.644C103.224 47.6295 103.197 47.6091 103.175 47.5841C103.153 47.5591 103.136 47.53 103.125 47.4984C103.114 47.4668 103.11 47.4334 103.112 47.4001C103.279 44.4058 103 39.5998 101.549 39.4679C101.43 39.4596 101.311 39.4762 101.199 39.5163C101.088 39.5565 100.985 39.6195 100.899 39.7013C99.6355 40.7874 99.0925 45.0605 98.9859 46.6185C98.9807 46.685 98.9496 46.7467 98.8992 46.7904C98.8489 46.8341 98.7834 46.8562 98.7169 46.852C98.6838 46.8501 98.6513 46.8415 98.6215 46.8269C98.5918 46.8122 98.5652 46.7918 98.5435 46.7667C98.5217 46.7417 98.5052 46.7125 98.4949 46.6809C98.4846 46.6494 98.4807 46.6161 98.4834 46.583C98.4834 46.3445 98.8844 40.7569 100.569 39.3156C100.706 39.1914 100.866 39.0963 101.041 39.0361C101.215 38.9759 101.4 38.9519 101.584 38.9654C103.995 39.1786 103.655 46.5779 103.614 47.4305C103.609 47.4965 103.579 47.558 103.53 47.6023C103.481 47.6467 103.417 47.6706 103.35 47.6691Z" fill="#231F20"/>
<path d="M102.31 44.7814C102.26 44.7818 102.211 44.767 102.169 44.7389C102.127 44.7108 102.095 44.6708 102.077 44.6241C102.006 44.4515 100.295 40.3002 101.016 38.6711C101.074 38.5252 101.163 38.3934 101.276 38.284C101.388 38.1747 101.523 38.0904 101.671 38.0367C102.229 37.8337 102.919 38.0976 103.726 38.8183C105.182 40.1073 107.182 43.1929 107.106 43.5228C107.106 43.5901 107.079 43.6546 107.032 43.7022C106.984 43.7498 106.919 43.7765 106.852 43.7765C106.785 43.7765 106.72 43.7498 106.673 43.7022C106.625 43.6546 106.598 43.5901 106.598 43.5228C106.385 43.0153 103.289 37.991 101.833 38.5188C101.75 38.5498 101.675 38.5986 101.612 38.6617C101.55 38.7248 101.502 38.8008 101.473 38.8842C100.965 40.0667 102.061 43.2944 102.538 44.4363C102.551 44.4673 102.557 44.5004 102.556 44.5337C102.556 44.5671 102.549 44.6001 102.536 44.6307C102.523 44.6613 102.503 44.6891 102.48 44.7123C102.456 44.7356 102.427 44.7539 102.396 44.7662C102.369 44.7773 102.34 44.7825 102.31 44.7814Z" fill="#231F20"/>
<path d="M109.694 61.1889C109.645 61.1884 109.597 61.1738 109.555 61.1468C109.514 61.1199 109.481 61.0816 109.461 61.0366L103.056 46.1922C103.043 46.1616 103.036 46.1286 103.035 46.0952C103.034 46.0617 103.04 46.0285 103.053 45.9974C103.065 45.9663 103.083 45.9379 103.106 45.9139C103.13 45.8899 103.157 45.8706 103.188 45.8573C103.219 45.844 103.252 45.8368 103.285 45.8362C103.318 45.8356 103.352 45.8416 103.383 45.8539C103.414 45.8661 103.442 45.8844 103.466 45.9076C103.49 45.9308 103.51 45.9586 103.523 45.9892L109.923 60.8336C109.936 60.8642 109.943 60.8972 109.944 60.9307C109.944 60.9642 109.938 60.9974 109.926 61.0285C109.914 61.0597 109.896 61.0881 109.872 61.1121C109.849 61.1361 109.821 61.1553 109.791 61.1686C109.76 61.1823 109.727 61.1892 109.694 61.1889Z" fill="#D1D3D4"/>
<path d="M102.051 65.2793C101.884 65.0864 97.3974 46.8723 97.3974 46.8723L108.456 44.9387L115.799 60.7879L102.051 65.2793Z" fill="white"/>
<path d="M102.051 65.5331C102.016 65.5327 101.98 65.5248 101.948 65.5099C101.916 65.495 101.887 65.4735 101.863 65.4468C101.813 65.3859 101.65 65.2083 97.1487 46.9332C97.1402 46.8996 97.139 46.8645 97.1451 46.8304C97.1512 46.7963 97.1646 46.7638 97.1842 46.7353C97.2028 46.706 97.2273 46.681 97.2562 46.6617C97.285 46.6425 97.3176 46.6295 97.3517 46.6236L108.415 44.685C108.47 44.6768 108.526 44.6868 108.574 44.7133C108.623 44.7399 108.662 44.7816 108.684 44.8321L116.012 60.6814C116.028 60.714 116.035 60.7495 116.035 60.7854C116.035 60.8213 116.028 60.8568 116.012 60.8894C115.982 60.9547 115.927 61.0056 115.86 61.0315L102.112 65.5178C102.093 65.526 102.072 65.5311 102.051 65.5331ZM97.707 47.0753C99.3513 53.7489 101.767 63.3965 102.214 64.9596L115.449 60.6357L108.309 45.2178L97.707 47.0753Z" fill="#D1D3D4"/>
<path d="M97.3974 46.8723L98.3464 44.487L110.263 41.1629L108.456 44.9387L97.3974 46.8723Z" fill="#D1D3D4"/>
<path d="M97.3974 47.126C97.3594 47.1255 97.3219 47.1166 97.2877 47.0999C97.2535 47.0832 97.2233 47.0592 97.1995 47.0296C97.1721 46.994 97.154 46.9522 97.1469 46.9079C97.1398 46.8636 97.1439 46.8182 97.1589 46.7758L98.113 44.3957C98.1257 44.3582 98.1477 44.3245 98.177 44.2979C98.2063 44.2713 98.2419 44.2525 98.2805 44.2434L110.197 40.9193C110.243 40.907 110.292 40.908 110.338 40.9224C110.384 40.9368 110.424 40.9639 110.455 41.0005C110.488 41.0375 110.508 41.0834 110.515 41.1321C110.521 41.1809 110.513 41.2305 110.491 41.2745L108.684 45.0453C108.668 45.082 108.642 45.1141 108.61 45.1389C108.579 45.1636 108.541 45.1803 108.502 45.1874L97.438 47.121L97.3974 47.126ZM98.5342 44.7002L97.7983 46.5424L108.283 44.7103L109.806 41.5587L98.5342 44.7002Z" fill="#D1D3D4"/>
<path d="M110.263 41.1629L118.388 58.1388L115.799 60.7879L108.456 44.9387L110.263 41.1629Z" fill="white"/>
<path d="M115.799 61.0417H115.759C115.718 61.0344 115.679 61.0172 115.646 60.9915C115.614 60.9659 115.588 60.9325 115.571 60.8945L108.227 45.0453C108.211 45.0112 108.203 44.9739 108.203 44.9362C108.203 44.8984 108.211 44.8611 108.227 44.827L110.034 41.0563C110.057 41.0163 110.091 40.983 110.131 40.9599C110.171 40.9368 110.216 40.9247 110.263 40.9247C110.309 40.9247 110.354 40.9368 110.394 40.9599C110.434 40.983 110.468 41.0163 110.491 41.0563L118.611 58.0271C118.633 58.0746 118.641 58.128 118.632 58.1798C118.623 58.2317 118.598 58.2794 118.56 58.3164L115.972 60.9656C115.926 61.0117 115.864 61.0389 115.799 61.0417ZM108.735 44.9387L115.875 60.3515L118.083 58.088L110.263 41.7516L108.735 44.9387Z" fill="#D1D3D4"/>
<path d="M100.59 48.0192C100.532 48.0195 100.476 48 100.43 47.964C100.385 47.928 100.354 47.8777 100.341 47.8213C100.28 47.5625 98.8844 41.442 100.224 39.3562C100.327 39.1787 100.466 39.0247 100.632 38.9041C100.798 38.7835 100.988 38.6989 101.188 38.6559C103.827 38.1179 105.852 46.1618 106.076 47.0804C106.084 47.1127 106.086 47.1464 106.081 47.1794C106.076 47.2124 106.064 47.244 106.046 47.2725C106.029 47.3009 106.006 47.3255 105.979 47.3448C105.951 47.3641 105.921 47.3777 105.888 47.3849C105.823 47.4003 105.755 47.3898 105.698 47.3556C105.641 47.3215 105.6 47.2664 105.583 47.2022C104.787 43.9085 102.919 38.8183 101.29 39.1532C101.157 39.1854 101.031 39.2443 100.921 39.3263C100.811 39.4083 100.719 39.5117 100.651 39.6303C99.6355 41.2137 100.437 45.9994 100.833 47.7097C100.841 47.742 100.843 47.7757 100.838 47.8087C100.833 47.8417 100.821 47.8733 100.804 47.9018C100.786 47.9302 100.763 47.9548 100.736 47.9741C100.709 47.9934 100.678 48.007 100.645 48.0142L100.59 48.0192Z" fill="#231F20"/>
<path d="M77.9957 47.4914C77.6354 46.1364 77.9094 44.8118 79.5842 44.5276C82.1217 44.1115 84.8926 45.9791 87.2271 46.7454C88.0442 47.0144 92.4341 48.0801 92.4341 48.0801C92.4341 48.0801 93.1141 46.8469 93.3222 46.3699C93.7789 45.294 94.1951 44.1978 94.6062 43.1016C95.4588 40.833 96.1033 38.6559 97.5192 36.6665C97.8108 36.2542 98.1242 35.8578 98.4581 35.4789C99.3364 34.4299 100.474 33.6287 101.757 33.1546C101.795 33.1384 101.837 33.13 101.879 33.13C101.92 33.13 101.962 33.1384 102 33.1546C102.163 33.251 102.026 33.4997 101.879 33.6215L100.178 35.0932C100.647 34.6564 101.175 34.2874 101.747 33.997C102.011 33.86 102.812 33.3271 103.092 33.6062C103.482 33.997 102.584 34.332 102.391 34.4893C101.919 34.8598 101.468 35.2708 100.98 35.6261C101.608 35.174 102.29 34.8023 103.01 34.5197C103.35 34.3878 103.868 34.3573 103.949 34.7176C104 34.9511 103.797 35.1541 103.614 35.3064L102.158 36.5244C102.564 36.1894 103.305 36.8492 103.447 37.1943C103.549 37.4762 103.578 37.7793 103.532 38.0755C103.486 38.3718 103.366 38.6516 103.183 38.8893C103.1 39.0039 102.99 39.0963 102.863 39.1583C102.799 39.1867 102.728 39.1984 102.658 39.1922C102.588 39.186 102.521 39.1621 102.462 39.1228C102.005 38.7726 102.503 37.92 101.767 37.7221C101.614 37.6935 101.456 37.7216 101.323 37.8009C101.189 37.8803 101.089 38.0056 101.041 38.1534C100.998 38.3029 100.995 38.4612 101.034 38.612C101.072 38.7628 101.15 38.9006 101.259 39.0111C101.427 39.1938 101.681 39.3562 101.676 39.6049C101.669 39.6782 101.645 39.749 101.607 39.8115C101.568 39.8741 101.515 39.9267 101.452 39.9652C101.361 40.0228 101.259 40.0615 101.153 40.0789C101.047 40.0963 100.938 40.0921 100.833 40.0665C100.729 40.0409 100.63 39.9945 100.544 39.93C100.457 39.8655 100.385 39.7843 100.331 39.6912C100.234 39.5034 100.128 39.2293 99.9247 39.2801C99.853 39.3043 99.792 39.3527 99.7522 39.4171C99.4984 39.7165 98.6002 44.822 98.3921 46.5221C98.113 48.8363 97.6562 53.7895 94.7483 54.434C94.656 54.4525 94.5628 54.4661 94.4691 54.4746C91.7185 54.7487 88.8866 54.0077 86.3085 53.1298C84.1567 52.404 81.6852 51.8153 79.843 50.4349C78.9376 49.6684 78.2922 48.64 77.9957 47.4914Z" fill="white"/>
<path d="M93.2613 54.7335C90.7745 54.7335 88.3284 54.0331 86.2172 53.3226C85.801 53.1805 85.3747 53.0435 84.9434 52.9065C83.1062 52.3279 81.2081 51.724 79.6907 50.5923C78.7533 49.7978 78.082 48.735 77.7673 47.5473C77.6375 47.1698 77.588 46.7694 77.6221 46.3718C77.6562 45.9741 77.7731 45.5879 77.9652 45.2381C78.1456 44.9764 78.3805 44.757 78.6539 44.5949C78.9272 44.4328 79.2325 44.3319 79.5486 44.2992C81.3908 43.9947 83.3092 44.8423 85.1667 45.6594C85.9178 45.9892 86.6232 46.3039 87.2982 46.5272C87.9731 46.7505 91.5003 47.6132 92.3173 47.8112C92.5051 47.4661 92.9517 46.6388 93.109 46.2887C93.5759 45.1925 93.9971 44.076 94.393 43.0305C94.5419 42.6347 94.684 42.2439 94.8193 41.8582C95.4993 39.9804 96.1388 38.2143 97.3314 36.5396C97.6562 36.0828 97.9709 35.6921 98.2805 35.3368C99.1862 34.2538 100.36 33.4278 101.686 32.9414C101.753 32.9097 101.827 32.8933 101.901 32.8933C101.976 32.8933 102.05 32.9097 102.117 32.9414C102.169 32.971 102.213 33.0129 102.244 33.0633C102.276 33.1138 102.295 33.1712 102.3 33.2307C102.306 33.301 102.297 33.3719 102.274 33.4388C102.63 33.2764 103.015 33.1799 103.254 33.4388C103.312 33.4922 103.358 33.5586 103.386 33.6326C103.414 33.7067 103.424 33.7862 103.416 33.865C103.389 33.9999 103.32 34.1226 103.218 34.2152C103.436 34.1651 103.665 34.1883 103.868 34.2812C103.942 34.3181 104.007 34.3716 104.057 34.4376C104.107 34.5036 104.142 34.5804 104.157 34.6618C104.249 35.0628 103.883 35.3672 103.746 35.4789L102.787 36.2808C103.155 36.4513 103.457 36.7385 103.645 37.0978C103.762 37.4181 103.796 37.7627 103.744 38.0998C103.693 38.4368 103.557 38.7555 103.35 39.0263C103.245 39.1733 103.103 39.2905 102.939 39.3664C102.836 39.4073 102.723 39.4205 102.612 39.4044C102.502 39.3884 102.398 39.3438 102.31 39.275C102.199 39.1708 102.113 39.0436 102.057 38.9025C102.001 38.7613 101.976 38.6096 101.985 38.4579C101.96 38.1078 101.934 37.9809 101.701 37.9149C101.605 37.9025 101.508 37.9235 101.426 37.9743C101.343 38.0252 101.281 38.1027 101.249 38.194C101.22 38.3044 101.221 38.4205 101.25 38.5308C101.279 38.6411 101.337 38.7419 101.417 38.8233L101.534 38.935C101.637 39.0102 101.723 39.1067 101.786 39.2178C101.849 39.329 101.887 39.4523 101.899 39.5795C101.893 39.6902 101.86 39.7979 101.804 39.8933C101.747 39.9887 101.668 40.0691 101.574 40.1276C101.457 40.2069 101.324 40.2608 101.184 40.2856C101.044 40.3104 100.901 40.3057 100.763 40.2718C100.626 40.2378 100.497 40.1754 100.384 40.0885C100.272 40.0016 100.18 39.8922 100.113 39.7673L100.072 39.6861C100.039 39.6098 99.9965 39.5381 99.945 39.4729C99.945 39.4729 99.9451 39.5186 99.9146 39.5338C99.6964 39.9094 98.8286 44.756 98.6154 46.4967L98.5748 46.8367C98.2754 49.3286 97.7222 53.9418 94.7888 54.6066C94.6873 54.6066 94.5858 54.6472 94.4843 54.6573C94.0733 54.7182 93.6825 54.7335 93.2613 54.7335ZM80.3454 44.7002C80.1041 44.7009 79.8632 44.7196 79.6247 44.756C79.3726 44.78 79.1285 44.8576 78.9088 44.9836C78.6891 45.1096 78.4989 45.2812 78.3509 45.4868C78.2003 45.7856 78.1111 46.1115 78.0884 46.4453C78.0658 46.7791 78.1102 47.1141 78.219 47.4305C78.5071 48.5153 79.1155 49.488 79.9648 50.2218C81.4213 51.3078 83.2838 51.8965 85.0855 52.4649C85.5168 52.602 85.9482 52.739 86.3643 52.8811C88.775 53.6982 91.617 54.4899 94.4336 54.2158C94.5172 54.2072 94.6003 54.1937 94.6823 54.1752C97.2959 53.5967 97.8237 49.1763 98.1079 46.8012L98.1485 46.4612C98.3007 45.1925 99.2193 39.6607 99.5593 39.2547C99.633 39.1549 99.7359 39.0804 99.8537 39.0416C100.214 38.9604 100.392 39.3105 100.483 39.5034L100.519 39.5694C100.555 39.6364 100.605 39.6944 100.667 39.7392C100.728 39.784 100.799 39.8144 100.874 39.8282C100.943 39.8514 101.017 39.8593 101.089 39.8514C101.162 39.8435 101.232 39.82 101.295 39.7825C101.327 39.7634 101.354 39.7376 101.375 39.707C101.396 39.6763 101.41 39.6415 101.417 39.6049C101.417 39.5135 101.315 39.412 101.199 39.3055C101.152 39.264 101.108 39.22 101.067 39.1735C100.928 39.0325 100.83 38.857 100.781 38.6652C100.733 38.4734 100.737 38.2722 100.793 38.0824C100.861 37.8782 101.003 37.7064 101.19 37.5998C101.377 37.4931 101.597 37.4589 101.808 37.5038C102.381 37.6561 102.417 38.1433 102.442 38.463C102.442 38.7066 102.477 38.8589 102.584 38.9451C102.61 38.9589 102.639 38.9661 102.668 38.9661C102.697 38.9661 102.726 38.9589 102.752 38.9451C102.844 38.9035 102.923 38.8367 102.98 38.7523C103.138 38.5466 103.242 38.3047 103.283 38.0485C103.323 37.7924 103.3 37.5302 103.213 37.2856C103.054 37.0038 102.798 36.7893 102.493 36.6817C102.356 36.6462 102.305 36.6817 102.285 36.6817C102.261 36.7013 102.235 36.7161 102.206 36.7252C102.177 36.7343 102.146 36.7375 102.116 36.7347C102.086 36.7319 102.056 36.723 102.029 36.7087C102.003 36.6943 101.979 36.6748 101.96 36.6512C101.921 36.6038 101.903 36.5433 101.909 36.4826C101.915 36.4219 101.944 36.3659 101.99 36.3264L103.447 35.1084C103.635 34.9511 103.721 34.8293 103.701 34.7481C103.699 34.7328 103.694 34.7182 103.685 34.7057C103.676 34.6932 103.664 34.6833 103.65 34.6771C103.46 34.6187 103.256 34.6332 103.076 34.7177C102.384 34.9878 101.729 35.346 101.128 35.7834C101.103 35.8017 101.075 35.8148 101.045 35.8219C101.015 35.829 100.984 35.8299 100.953 35.8247C100.923 35.8195 100.894 35.8082 100.868 35.7915C100.842 35.7748 100.82 35.7531 100.803 35.7276C100.785 35.7033 100.772 35.6757 100.765 35.6465C100.758 35.6172 100.757 35.5869 100.762 35.5572C100.766 35.5275 100.777 35.499 100.793 35.4734C100.808 35.4477 100.829 35.4255 100.853 35.4079C101.138 35.2049 101.417 34.9714 101.686 34.743C101.868 34.5908 102.051 34.4385 102.239 34.2914C102.314 34.2401 102.392 34.1926 102.472 34.1493C102.584 34.0833 102.934 33.8904 102.949 33.7889C102.949 33.7889 102.949 33.7889 102.919 33.7534C102.889 33.7179 102.752 33.6773 102.011 34.0934L101.843 34.1848C101.44 34.3899 101.059 34.6365 100.706 34.9207L100.321 35.2505C100.277 35.2927 100.219 35.3163 100.158 35.3163C100.098 35.3163 100.039 35.2927 99.9958 35.2505C99.9548 35.2064 99.932 35.1484 99.932 35.0881C99.932 35.0279 99.9548 34.9699 99.9958 34.9257C100.123 34.809 100.255 34.6923 100.392 34.5857L101.706 33.4489L101.747 33.4083C100.525 33.8723 99.4429 34.643 98.6053 35.6464C98.2789 36.0192 97.9723 36.4088 97.6867 36.8136C96.5296 38.4326 95.9003 40.1784 95.2304 42.0206C95.0933 42.4114 94.9462 42.8021 94.799 43.198C94.4032 44.2485 93.9769 45.3701 93.51 46.4764C93.3019 46.9839 92.6421 48.1563 92.6117 48.207C92.5875 48.2509 92.5495 48.2856 92.5037 48.3057C92.4578 48.3259 92.4066 48.3305 92.3579 48.3187C92.1752 48.273 87.9477 47.2478 87.1256 46.9788C86.4303 46.7505 85.7147 46.4358 84.9535 46.1009C83.4361 45.4005 81.8476 44.7002 80.3454 44.7002Z" fill="#231F20"/>
<path d="M58.8579 43.4822L50.3268 45.6695L47.2107 34.1137C47.2107 34.1137 46.6119 31.3681 45.9927 30.9165C44.7544 30.0182 41.3948 30.5967 40.8061 32.0939C40.728 32.307 40.6869 32.5318 40.6843 32.7587C40.6829 33.3969 40.9305 34.0105 41.3745 34.469C41.9378 35.0374 43.3233 34.9765 43.4451 35.5956C43.506 35.9103 43.1152 36.4482 43.0797 36.7832C43.0653 37.2136 43.0993 37.6443 43.1812 38.0672C43.3994 39.9195 43.6481 41.7668 43.9424 43.609C44.2139 45.4335 44.5798 47.2426 45.0386 49.0291C45.2924 49.9629 45.5918 51.5666 46.4241 52.201C46.5306 52.2965 46.66 52.3629 46.7997 52.3939C49.2407 52.7593 59.8018 49.8564 59.8018 49.8564" fill="white"/>
<path d="M47.3021 52.6578C47.1221 52.6605 46.9422 52.6486 46.7641 52.6223C46.5872 52.5882 46.4226 52.5076 46.2871 52.3888C45.5004 51.79 45.1655 50.4654 44.9219 49.5011C44.8881 49.3556 44.8525 49.2186 44.8153 49.0901C44.353 47.2955 43.9854 45.4778 43.714 43.6446C43.4451 41.9597 43.2065 40.1428 42.9528 38.0925C42.9528 37.991 42.9528 37.8895 42.9122 37.788C42.8476 37.4538 42.8271 37.1126 42.8513 36.773C42.8847 36.5712 42.9497 36.3759 43.0441 36.1945C43.1367 36.0284 43.1954 35.8455 43.2167 35.6565C43.1761 35.4383 42.7853 35.3216 42.3742 35.1998C41.9459 35.1133 41.5452 34.9234 41.207 34.6466C40.7189 34.1462 40.4489 33.4729 40.4559 32.7739C40.4527 32.5192 40.4974 32.2661 40.5879 32.0279C40.8467 31.3682 41.6029 30.815 42.6483 30.5054C43.9729 30.1197 45.404 30.2111 46.1298 30.7389C46.8555 31.2667 47.3325 33.6012 47.4391 34.0782L50.4841 45.3955L58.7969 43.269C58.8263 43.2615 58.8568 43.2598 58.8868 43.2641C58.9168 43.2685 58.9456 43.2787 58.9716 43.2943C58.9976 43.3099 59.0202 43.3305 59.0381 43.3549C59.0561 43.3793 59.069 43.4071 59.0761 43.4365C59.0844 43.4658 59.0866 43.4966 59.0826 43.5268C59.0786 43.5571 59.0684 43.5861 59.0527 43.6123C59.037 43.6384 59.0161 43.6611 58.9914 43.6789C58.9666 43.6967 58.9384 43.7092 58.9086 43.7156L50.3826 45.8725C50.324 45.888 50.2617 45.8796 50.2094 45.8491C50.1571 45.8186 50.119 45.7686 50.1035 45.7101L46.9925 34.2C46.7641 33.185 46.2617 31.4189 45.8608 31.155C45.2518 30.7135 43.9576 30.6475 42.7802 30.9926C41.8718 31.2565 41.2324 31.7082 41.0243 32.2309C40.9544 32.4174 40.92 32.6154 40.9228 32.8145C40.9242 33.384 41.1483 33.9304 41.547 34.337C41.8313 34.5536 42.161 34.7029 42.5113 34.7735C43.0188 34.9257 43.5821 35.0881 43.6785 35.5855C43.688 35.8698 43.6177 36.1511 43.4755 36.3975C43.4058 36.5384 43.3513 36.6865 43.3131 36.839C43.2961 37.1448 43.3165 37.4516 43.374 37.7525L43.4197 38.0672C43.6582 40.0972 43.9272 41.9242 44.1759 43.604C44.4458 45.4199 44.81 47.2206 45.267 48.9987C45.3025 49.1256 45.338 49.2677 45.3736 49.4199C45.6019 50.3182 45.9115 51.5464 46.5713 52.0488C46.6468 52.1174 46.7371 52.1678 46.8352 52.196C49.2052 52.5461 59.6394 49.6585 59.7409 49.6585C59.8001 49.6411 59.8638 49.6479 59.918 49.6774C59.9722 49.7069 60.0125 49.7567 60.0302 49.8158C60.0459 49.8756 60.0378 49.9393 60.0075 49.9933C59.9772 50.0472 59.9271 50.0873 59.8678 50.1051C59.4567 50.1761 50.4384 52.6578 47.3021 52.6578Z" fill="#231F20"/>
<path d="M75.108 38.1433L78.7062 37.8083C78.7062 37.8083 77.3765 36.4279 77.6049 35.2708C77.8333 34.1137 78.5894 34.063 77.3105 32.0939C76.5747 30.9672 75.6459 30.0994 75.3567 28.7545C75.0268 27.1965 74.0524 26.486 72.3827 26.9174C71.8771 27.0788 71.357 27.191 70.8298 27.2523C70.3223 27.2523 69.8604 27.1711 69.3783 27.166C68.7001 27.1669 68.0346 27.3501 67.4515 27.6965C66.8685 28.043 66.3893 28.5399 66.0643 29.1351C65.8055 29.6426 65.9578 30.277 65.7192 30.6576C65.4807 31.0383 64.8057 31.2007 64.4962 31.4443C64.1339 31.6964 63.8597 32.0557 63.7123 32.4717C63.5648 32.8878 63.5514 33.3395 63.674 33.7635C64.014 35.621 65.7548 36.5396 64.0191 37.6307C62.2835 38.7218 62.2073 39.9703 62.2073 39.9703L75.108 38.1433Z" fill="white"/>
<path d="M62.2175 40.219C62.1885 40.2197 62.1597 40.2148 62.1327 40.2043C62.1057 40.1939 62.081 40.1781 62.0602 40.158C62.034 40.1357 62.0134 40.1076 62.0002 40.0758C61.987 40.0441 61.9814 40.0096 61.984 39.9753C61.984 39.9195 62.0906 38.5949 63.9075 37.4378C64.8514 36.8441 64.6129 36.4229 64.1409 35.5246C63.8207 34.9957 63.5892 34.418 63.4558 33.8143C63.3301 33.3492 63.3497 32.8567 63.5121 32.4031C63.6745 31.9495 63.9719 31.5564 64.3642 31.2768C64.5242 31.1622 64.6941 31.062 64.8717 30.9774C65.1166 30.8788 65.3392 30.7321 65.5264 30.546C65.6147 30.3534 65.6597 30.1438 65.6584 29.9319C65.6679 29.6239 65.7369 29.3206 65.8613 29.0387C66.206 28.4052 66.715 27.8762 67.3347 27.5074C67.9545 27.1386 68.6622 26.9435 69.3834 26.9427C69.6016 26.9427 69.8148 26.9681 70.033 26.9884C70.2955 27.0219 70.5602 27.0355 70.8247 27.029C71.2179 26.9944 71.606 26.9161 71.9818 26.7956L72.332 26.7042C72.679 26.5641 73.0542 26.508 73.427 26.5404C73.7998 26.5728 74.1597 26.6928 74.4773 26.8907C74.7949 27.0886 75.0612 27.3587 75.2546 27.6791C75.448 27.9995 75.563 28.361 75.5901 28.7342C75.8301 29.6022 76.262 30.4052 76.8538 31.084C77.072 31.3732 77.2953 31.6777 77.5085 31.9975C78.4778 33.4895 78.3509 33.9919 78.0617 34.6821C77.9652 34.8957 77.8904 35.1184 77.8384 35.347C77.6709 36.1843 78.5285 37.3008 78.8787 37.6611C78.9089 37.692 78.9296 37.7309 78.9386 37.7731C78.9476 37.8153 78.9444 37.8592 78.9295 37.8997C78.9138 37.9409 78.887 37.9769 78.852 38.0038C78.8171 38.0306 78.7754 38.0473 78.7316 38.0519L75.1385 38.392L62.2175 40.219ZM69.3225 27.4147C68.6978 27.4269 68.0873 27.6036 67.5527 27.927C67.0181 28.2505 66.5782 28.7092 66.2775 29.257C66.1813 29.487 66.1296 29.7333 66.1253 29.9827C66.1236 30.2673 66.0541 30.5475 65.9223 30.7998C65.697 31.0656 65.4092 31.2713 65.0849 31.3986C64.9324 31.4687 64.7864 31.5519 64.6484 31.6473C64.3212 31.8751 64.0739 32.2001 63.9418 32.5764C63.8097 32.9526 63.7995 33.3609 63.9126 33.7432C64.0394 34.2995 64.2535 34.8322 64.5469 35.3216C65.0189 36.1945 65.4655 37.0217 64.1511 37.8591C63.4031 38.2684 62.8228 38.9277 62.5119 39.7216L75.0826 37.925L78.2393 37.6256C77.8384 37.1181 77.1989 36.1386 77.3816 35.2505C77.4368 34.9902 77.5202 34.7366 77.6303 34.4944C77.8637 33.9412 78.0007 33.6062 77.1228 32.2461C76.9249 31.9366 76.7016 31.6422 76.4884 31.3529C75.8524 30.62 75.3909 29.7524 75.1385 28.8154C75.1214 28.5059 75.0299 28.2051 74.8716 27.9387C74.7133 27.6722 74.4929 27.4479 74.2293 27.2849C73.9656 27.122 73.6665 27.0251 73.3574 27.0027C73.0482 26.9802 72.7382 27.0328 72.4538 27.1559L72.1087 27.2473C71.6998 27.3772 71.2776 27.4606 70.8501 27.4959C70.5636 27.5054 70.2767 27.4919 69.9924 27.4553C69.7894 27.4553 69.5864 27.4147 69.3834 27.4147H69.3225Z" fill="#231F20"/>
<path d="M36.0457 41.5385C35.9988 41.5374 35.9532 41.5233 35.9138 41.4978C35.857 41.4631 35.8162 41.4075 35.8 41.3429C35.7839 41.2784 35.7938 41.2101 35.8275 41.1527C37.1064 39.0568 41.3491 32.2157 42.4808 32.0685C42.5399 32.0598 42.6002 32.0644 42.6572 32.0819C42.7143 32.0995 42.7667 32.1296 42.8107 32.17C43.5872 32.916 41.4303 37.8134 40.4661 39.8891C40.4521 39.9194 40.4322 39.9467 40.4077 39.9693C40.3832 39.992 40.3544 40.0096 40.3231 40.0211C40.2917 40.0327 40.2584 40.0379 40.225 40.0366C40.1917 40.0353 40.1589 40.0274 40.1286 40.0134C40.0982 39.9994 40.071 39.9796 40.0483 39.9551C40.0257 39.9305 40.008 39.9018 39.9965 39.8704C39.985 39.8391 39.9797 39.8058 39.981 39.7724C39.9823 39.739 39.9902 39.7062 40.0042 39.6759C41.3948 36.6868 42.699 33.2205 42.4859 32.5709C41.7399 32.9211 38.7812 37.2602 36.264 41.3964C36.2434 41.4372 36.2123 41.4719 36.174 41.4968C36.1357 41.5218 36.0914 41.5362 36.0457 41.5385Z" fill="#231F20"/>
<path d="M35.0459 40.5996L22.5614 56.7076L24.5052 58.2301L25.3121 61.5796L40.6995 55.9007L43.6278 39.9449L35.0459 40.5996Z" fill="white"/>
<path d="M25.3121 61.8334C25.2736 61.841 25.2339 61.841 25.1954 61.8334C25.1633 61.8164 25.1353 61.7926 25.1134 61.7637C25.0915 61.7348 25.0762 61.7014 25.0685 61.6659L24.2768 58.4027L22.4041 56.936C22.3518 56.8941 22.3182 56.8333 22.3106 56.7667C22.303 56.7002 22.322 56.6333 22.3635 56.5808L34.848 40.4727C34.869 40.4449 34.8957 40.4218 34.9264 40.4052C34.957 40.3886 34.9909 40.3787 35.0257 40.3763L43.6075 39.7165C43.6464 39.7143 43.6854 39.7209 43.7214 39.7358C43.7574 39.7508 43.7896 39.7737 43.8156 39.8028C43.8415 39.8312 43.8605 39.8652 43.8711 39.9022C43.8816 39.9392 43.8835 39.9781 43.8765 40.0159L40.9482 55.9717C40.9412 56.0149 40.923 56.0554 40.8954 56.0893C40.8678 56.1231 40.8317 56.1491 40.7909 56.1646L25.4035 61.8435C25.3727 61.845 25.3418 61.8416 25.3121 61.8334ZM22.9167 56.667L24.6625 58.0525C24.6861 58.0681 24.7063 58.0883 24.7219 58.1118C24.7376 58.1354 24.7485 58.1618 24.7539 58.1895L25.4999 61.265L40.4813 55.7332L43.3233 40.2443L35.2033 40.8685L22.9167 56.667Z" fill="#D1D3D4"/>
<path d="M36.5938 43.3147L34.508 40.5894L41.4557 37.7474L43.0391 39.4881L36.5938 43.3147Z" fill="#D1D3D4"/>
<path d="M36.5938 43.5685C36.5556 43.5687 36.5179 43.5601 36.4836 43.5433C36.4493 43.5266 36.4193 43.5022 36.3959 43.472L34.305 40.7417C34.2806 40.7116 34.2637 40.6761 34.2557 40.6381C34.2478 40.6001 34.249 40.5608 34.2593 40.5235C34.2696 40.4855 34.2888 40.4505 34.3153 40.4214C34.3418 40.3923 34.3748 40.3699 34.4116 40.356L41.3643 37.5089C41.4127 37.4893 41.466 37.4852 41.5169 37.497C41.5677 37.5088 41.6137 37.536 41.6485 37.5749L43.2268 39.3156C43.2521 39.3436 43.271 39.3766 43.2824 39.4125C43.2937 39.4484 43.2973 39.4863 43.2928 39.5237C43.2865 39.561 43.2724 39.5965 43.2514 39.628C43.2304 39.6595 43.203 39.6862 43.171 39.7064L36.7258 43.5329C36.6861 43.5571 36.6403 43.5694 36.5938 43.5685ZM34.9089 40.696L36.6598 42.9798L42.6432 39.4273L41.41 38.0469L34.9089 40.696Z" fill="#D1D3D4"/>
<path d="M40.1007 42.7971H40.0651C39.9991 42.7858 39.9399 42.7494 39.9002 42.6954C39.8604 42.6415 39.8431 42.5742 39.852 42.5078C39.852 42.4824 40.2326 39.9449 40.7503 37.4328C41.8312 32.17 42.4656 32.1396 42.7803 32.1243C42.8561 32.1201 42.932 32.1329 43.0023 32.1619C43.0726 32.1909 43.1354 32.2353 43.1863 32.2918C44.1302 33.2358 43.8156 39.5135 43.7445 40.762C43.7381 40.8284 43.7068 40.8899 43.6569 40.9341C43.607 40.9784 43.5422 41.0021 43.4755 41.0005C43.4422 40.9986 43.4096 40.9901 43.3795 40.9755C43.3495 40.9609 43.3226 40.9405 43.3004 40.9155C43.2783 40.8906 43.2612 40.8614 43.2504 40.8299C43.2395 40.7983 43.2349 40.7649 43.237 40.7315C43.4806 36.5244 43.2827 32.8095 42.8006 32.6115C42.1814 32.8044 41.0497 37.9301 40.3646 42.5687C40.357 42.6328 40.3257 42.6918 40.2769 42.734C40.2281 42.7763 40.1652 42.7988 40.1007 42.7971Z" fill="#231F20"/>
<path d="M38.1722 42.792L34.0005 60.5646L38.0808 63.3051L45.2163 57.8444L46.0689 40.8533L38.1722 42.792Z" fill="white"/>
<path d="M38.0808 63.5589C38.0306 63.5586 37.9815 63.5446 37.9387 63.5183L33.8787 60.7727C33.8345 60.7451 33.8003 60.7042 33.7812 60.6558C33.762 60.6073 33.7588 60.5541 33.7721 60.5037L37.9438 42.7412C37.9538 42.6947 37.9768 42.652 38.01 42.6179C38.0432 42.5838 38.0853 42.5597 38.1315 42.5484L46.0283 40.6097C46.0668 40.6001 46.1072 40.5997 46.146 40.6085C46.1847 40.6173 46.2209 40.6351 46.2515 40.6605C46.2822 40.6854 46.3065 40.7173 46.3224 40.7535C46.3383 40.7897 46.3453 40.8291 46.3429 40.8686L45.47 57.8546C45.4694 57.8912 45.4604 57.9272 45.4437 57.9597C45.427 57.9923 45.403 58.0206 45.3736 58.0424L38.2331 63.5081C38.1897 63.5421 38.1359 63.5601 38.0808 63.5589ZM34.305 60.453L38.091 62.9905L44.9625 57.7125L45.7897 41.1781L38.365 43.0001L34.305 60.453Z" fill="#D1D3D4"/>
<path d="M37.7408 42.6144L40.5473 44.01L46.0689 40.8533L44.3281 39.1735L37.7408 42.6144Z" fill="#D1D3D4"/>
<path d="M40.5473 44.2637C40.5085 44.2651 40.47 44.2564 40.4356 44.2384L37.624 42.8275C37.583 42.805 37.5487 42.772 37.5246 42.7319C37.5005 42.6917 37.4876 42.6459 37.487 42.5991C37.487 42.5522 37.4998 42.5062 37.5239 42.466C37.548 42.4257 37.5827 42.3928 37.624 42.3708L44.2215 38.935C44.2687 38.91 44.3225 38.9004 44.3753 38.9077C44.4281 38.915 44.4773 38.9387 44.5159 38.9756L46.2566 40.6554C46.2853 40.6824 46.3071 40.7158 46.3203 40.7528C46.3336 40.7899 46.3378 40.8295 46.3328 40.8686C46.3265 40.9072 46.312 40.944 46.2901 40.9765C46.2681 41.0089 46.2394 41.0361 46.2059 41.0563L40.6843 44.2181C40.6439 44.246 40.5963 44.2618 40.5473 44.2637ZM38.299 42.6093L40.5422 43.7258L45.6476 40.7975L44.2825 39.4831L38.299 42.6093Z" fill="#D1D3D4"/>
<path d="M26.2814 59.8389C26.2313 59.8379 26.1824 59.8239 26.1393 59.7983C26.0834 59.7602 26.0446 59.7016 26.0313 59.6352C26.018 59.5688 26.0313 59.4998 26.0683 59.4431L36.066 44.2181C36.1032 44.1624 36.1609 44.1238 36.2265 44.1104C36.2921 44.0971 36.3603 44.1103 36.4162 44.147C36.4443 44.165 36.4685 44.1884 36.4873 44.2159C36.5062 44.2434 36.5193 44.2744 36.5259 44.307C36.5325 44.3397 36.5325 44.3734 36.5259 44.406C36.5193 44.4387 36.5061 44.4697 36.4873 44.4972L26.4946 59.7222C26.4713 59.7576 26.4397 59.7868 26.4026 59.8071C26.3654 59.8275 26.3238 59.8384 26.2814 59.8389Z" fill="#D1D3D4"/>
<path d="M38.7609 62.3256H38.7253C38.6587 62.3168 38.5984 62.2819 38.5575 62.2286C38.5166 62.1754 38.4985 62.1081 38.5071 62.0414L40.7147 45.6999C40.7191 45.6666 40.7299 45.6345 40.7467 45.6053C40.7634 45.5762 40.7857 45.5507 40.8124 45.5302C40.839 45.5097 40.8694 45.4946 40.9018 45.4859C40.9343 45.4771 40.9681 45.4749 41.0015 45.4792C41.0348 45.4835 41.0669 45.4944 41.0961 45.5111C41.1252 45.5279 41.1507 45.5502 41.1712 45.5768C41.1917 45.6035 41.2068 45.6339 41.2155 45.6663C41.2243 45.6987 41.2266 45.7326 41.2222 45.7659L39.0095 62.1125C38.9999 62.1717 38.9697 62.2255 38.9242 62.2646C38.8787 62.3036 38.8208 62.3252 38.7609 62.3256Z" fill="#D1D3D4"/>
<path d="M42.3184 44.9133C42.2511 44.9133 42.1866 44.8866 42.139 44.839C42.0914 44.7914 42.0647 44.7269 42.0647 44.6596C42.1002 39.1329 42.3489 32.5253 43.3486 32.4339C44.1556 32.4339 44.9067 36.23 45.5766 43.7156C45.5793 43.749 45.5755 43.7825 45.5653 43.8144C45.555 43.8462 45.5386 43.8758 45.5169 43.9012C45.4952 43.9267 45.4686 43.9476 45.4388 43.9628C45.409 43.978 45.3765 43.9871 45.3431 43.9897C45.31 43.9932 45.2766 43.99 45.2448 43.9803C45.2129 43.9707 45.1834 43.9547 45.1578 43.9334C45.1323 43.9121 45.1113 43.8859 45.096 43.8564C45.0808 43.8268 45.0716 43.7945 45.0691 43.7613C44.6377 38.9248 43.8967 33.723 43.3689 32.9922C42.897 33.8042 42.5823 39.4425 42.5519 44.6647C42.5508 44.7277 42.5263 44.7881 42.4832 44.8341C42.44 44.88 42.3813 44.9083 42.3184 44.9133Z" fill="#231F20"/>
<path d="M60.7254 79.1442L57.2237 89.4566L44.5869 83.26C44.5869 83.26 39.9281 89.4109 40.7706 89.5835C41.613 89.756 44.5565 88.9542 44.5565 88.9542C44.5565 88.9542 58.6549 98.9976 60.3499 97.5106C62.045 96.0237 67.8 81.0778 67.8 81.0778" fill="white"/>
<path d="M59.8373 97.8912C58.868 97.8912 56.7517 97.1351 51.7173 93.9886C48.3424 91.8875 45.1198 89.6139 44.5311 89.2079C43.9373 89.3652 41.547 89.9793 40.7401 89.8119C40.6815 89.7998 40.6269 89.773 40.5816 89.7339C40.5363 89.6948 40.5017 89.6448 40.4813 89.5885C40.1971 88.8222 43.1406 84.813 44.4195 83.123C44.4519 83.0793 44.4985 83.0483 44.5513 83.0353C44.6041 83.0224 44.6598 83.0282 44.7088 83.0519L57.1121 89.1419L60.5275 79.0782C60.5472 79.0198 60.5892 78.9715 60.6444 78.944C60.6995 78.9164 60.7633 78.9117 60.8219 78.931C60.8786 78.9528 60.9249 78.9954 60.9513 79.0501C60.9777 79.1048 60.9822 79.1675 60.964 79.2254L57.447 89.5175C57.4229 89.5789 57.3755 89.6281 57.315 89.6545C57.2848 89.6683 57.2519 89.6754 57.2186 89.6754C57.1854 89.6754 57.1525 89.6683 57.1222 89.6545L44.6529 83.5645C42.8056 86.0208 40.9736 88.7562 40.8974 89.3805C41.6333 89.4617 43.7242 88.9542 44.4956 88.741C44.5293 88.7331 44.5642 88.7322 44.5982 88.7383C44.6323 88.7445 44.6647 88.7575 44.6935 88.7765C50.0832 92.6183 59.0609 98.3429 60.1977 97.3431C61.507 96.1962 65.6025 86.1528 67.5869 81.0067C67.5975 80.9781 67.6138 80.952 67.6347 80.9298C67.6557 80.9076 67.6808 80.8899 67.7087 80.8776C67.7366 80.8653 67.7667 80.8587 67.7972 80.8582C67.8277 80.8577 67.858 80.8634 67.8863 80.8748C67.9431 80.8974 67.9888 80.9415 68.0135 80.9975C68.0382 81.0535 68.0399 81.117 68.0182 81.1742C67.7848 81.7832 62.2277 96.1861 60.5072 97.6933C60.3167 97.8412 60.0776 97.9118 59.8373 97.8912Z" fill="#231F20"/>
<path d="M82.959 77.9973L95.1746 101.342C95.1746 101.342 101.863 98.9418 101.366 99.6421C100.869 100.342 91.5104 105.986 91.5104 105.986L74.4533 79.4335" fill="white"/>
<path d="M91.5104 106.265C91.4713 106.264 91.4329 106.254 91.3984 106.236C91.364 106.217 91.3345 106.191 91.3125 106.158L74.2605 79.606C74.243 79.5807 74.2309 79.5521 74.225 79.5219C74.2191 79.4917 74.2195 79.4607 74.2262 79.4307C74.2329 79.4006 74.2457 79.3723 74.2638 79.3475C74.2819 79.3226 74.305 79.3018 74.3315 79.2863C74.3567 79.2693 74.3851 79.2575 74.4149 79.2517C74.4448 79.2458 74.4755 79.2459 74.5053 79.252C74.535 79.2582 74.5633 79.2702 74.5884 79.2874C74.6134 79.3046 74.6348 79.3267 74.6513 79.3523L91.5814 105.717C94.7685 103.793 99.5391 100.835 100.848 99.84C98.9587 100.333 97.0954 100.923 95.2659 101.606C95.2144 101.626 95.1574 101.626 95.1059 101.606C95.0544 101.587 95.0119 101.549 94.9868 101.5L82.7662 78.1241C82.7467 78.0708 82.7474 78.0123 82.7679 77.9594C82.7885 77.9065 82.8277 77.863 82.878 77.8369C82.9284 77.8107 82.9865 77.8039 83.0416 77.8175C83.0967 77.8311 83.1449 77.8644 83.1772 77.911L95.3014 101.104C101.224 98.9875 101.468 99.3021 101.584 99.4594C101.625 99.5114 101.648 99.5758 101.648 99.6421C101.648 99.7084 101.625 99.7728 101.584 99.8248C101.077 100.545 92.6218 105.651 91.6576 106.229C91.6152 106.26 91.5622 106.273 91.5104 106.265Z" fill="#231F20"/>
<path d="M64.755 42.4063C61.4918 45.639 62.3444 51.6225 62.1464 56.6975L78.2545 59.1538C78.2545 59.1538 79.1325 44.822 76.8436 42.6296C74.5548 40.4372 68.0233 39.1735 64.755 42.4063Z" fill="#231F20"/>
<path d="M78.2545 59.3771H78.219L62.116 56.9208C62.0618 56.9122 62.0124 56.8845 61.977 56.8425C61.9416 56.8006 61.9225 56.7473 61.9232 56.6924C61.9638 55.6774 61.9587 54.5863 61.9587 53.5358C61.9587 49.288 61.9282 44.9083 64.5977 42.2439C67.8457 39.0314 74.5244 40.0972 76.9959 42.4672C79.3355 44.7103 78.5184 58.5803 78.4778 59.169C78.4757 59.1999 78.4669 59.23 78.452 59.2572C78.4371 59.2844 78.4165 59.3079 78.3915 59.3263C78.354 59.3601 78.305 59.3783 78.2545 59.3771ZM62.3799 56.53L78.0414 58.9153C78.1429 57.0223 78.7163 44.756 76.6914 42.8123C74.6665 40.8686 68.1908 39.341 64.9123 42.5839C62.3748 45.1214 62.3748 49.3996 62.4053 53.5561C62.4104 54.5 62.4104 55.515 62.3799 56.53Z" fill="#231F20"/>
<path d="M76.5899 50.775L83.365 52.5817L85.1464 45.1772L75.7475 41.8277L76.5899 50.775Z" fill="#231F20"/>
<path d="M83.365 52.8049H83.3041L76.5341 51.0033C76.4901 50.9915 76.4507 50.9669 76.4209 50.9325C76.391 50.8981 76.3721 50.8556 76.3666 50.8105L75.5292 41.8632C75.5241 41.826 75.5289 41.7881 75.5432 41.7534C75.5575 41.7186 75.5806 41.6882 75.6104 41.6653C75.6398 41.6414 75.6749 41.6256 75.7123 41.6193C75.7497 41.6131 75.788 41.6167 75.8236 41.6298L85.2225 44.9742C85.274 44.9937 85.3168 45.0311 85.3429 45.0796C85.369 45.1281 85.3767 45.1844 85.3646 45.2381L83.5782 52.6425C83.5726 52.6722 83.5606 52.7002 83.543 52.7248C83.5255 52.7493 83.5029 52.7697 83.4767 52.7846C83.4417 52.8005 83.4034 52.8075 83.365 52.8049ZM76.798 50.6024L83.1975 52.3076L84.8825 45.3193L76.0063 42.1576L76.798 50.6024Z" fill="#231F20"/>
<path d="M68.6577 40.1377L55.8433 43.5431L58.1067 51.2926L70.0685 49.1306L68.6983 40.9447" fill="#231F20"/>
<path d="M58.1067 51.5159C58.0589 51.5167 58.0121 51.5017 57.9736 51.4733C57.935 51.4449 57.9069 51.4046 57.8936 51.3586L55.62 43.604C55.6003 43.5482 55.6003 43.4873 55.62 43.4314C55.6507 43.38 55.6996 43.3419 55.757 43.3249L68.5714 39.9246C68.6286 39.9091 68.6896 39.917 68.741 39.9465C68.7924 39.976 68.83 40.0247 68.8454 40.0819C68.8609 40.1391 68.853 40.2001 68.8235 40.2515C68.794 40.3029 68.7453 40.3405 68.6881 40.356L56.1275 43.7004L58.2691 51.0389L69.83 48.953L68.4953 40.9853C68.4903 40.9563 68.491 40.9266 68.4975 40.8979C68.504 40.8692 68.5161 40.8421 68.533 40.818C68.55 40.794 68.5715 40.7735 68.5964 40.7578C68.6213 40.7421 68.649 40.7315 68.678 40.7265C68.707 40.7215 68.7367 40.7222 68.7654 40.7287C68.794 40.7352 68.8212 40.7472 68.8452 40.7642C68.8693 40.7812 68.8897 40.8027 68.9054 40.8276C68.9211 40.8524 68.9318 40.8802 68.9368 40.9092L70.307 49.0951C70.316 49.1535 70.3019 49.2131 70.2679 49.2614C70.2338 49.3096 70.1824 49.3428 70.1243 49.354L58.1575 51.5159H58.1067Z" fill="#231F20"/>
<path d="M73.2506 38.392L73.5652 41.5283C73.5652 41.5283 73.413 43.3147 71.4489 42.9595C70.8681 42.8475 70.3197 42.607 69.8438 42.2558C69.3679 41.9046 68.9765 41.4514 68.6983 40.9295C68.6438 40.6641 68.6301 40.392 68.6577 40.1225L68.5562 38.2854C68.5054 37.3567 68.3786 36.4026 68.4039 35.4738C68.4293 34.5451 68.4039 33.5758 68.4395 32.6166C68.4383 32.5607 68.4542 32.5058 68.4851 32.4593C68.5195 32.427 68.5648 32.4089 68.612 32.4085C68.8747 32.3528 69.1461 32.3528 69.4088 32.4085C69.4246 31.7564 69.3477 31.1054 69.1804 30.475C69.7345 30.888 70.1632 31.4467 70.4187 32.0888C71.0699 32.0573 71.7226 32.0896 72.3675 32.1852C72.4522 31.7361 72.3899 31.2716 72.1899 30.8607C72.4636 31.2006 72.7146 31.5583 72.941 31.9315C73.2419 32.03 73.5586 32.0713 73.8748 32.0533C74.027 31.9213 73.9763 31.0383 73.9966 30.7998C74.4422 31.3619 74.7452 32.0236 74.8796 32.7283C74.9992 34.0509 75.045 35.3793 75.0167 36.7071C75.0453 36.9424 75.0186 37.1811 74.9386 37.4043C74.8587 37.6275 74.7278 37.8289 74.5562 37.9925C74.3847 38.1561 74.1774 38.2775 73.9507 38.3468C73.724 38.4162 73.4843 38.4316 73.2506 38.392Z" fill="white"/>
<path d="M71.9412 43.2386C71.7709 43.2368 71.601 43.2198 71.4337 43.1878C70.8195 43.0682 70.2393 42.8141 69.7348 42.4438C69.2303 42.0736 68.8139 41.5963 68.5156 41.0462C68.4442 40.827 68.42 40.5953 68.4445 40.3661C68.4493 40.2952 68.4493 40.224 68.4445 40.153L68.3075 38.3108C68.3075 38.0063 68.2618 37.6967 68.2365 37.3871C68.1738 36.7547 68.1467 36.1194 68.1553 35.484C68.1553 35.0306 68.1553 34.5789 68.1553 34.129C68.1553 33.6215 68.1553 33.114 68.1553 32.6065C68.1493 32.4933 68.1875 32.3823 68.2618 32.2969C68.3299 32.2292 68.4199 32.1878 68.5156 32.1802C68.7174 32.1495 68.9227 32.1495 69.1246 32.1802C69.1133 31.6387 69.0384 31.1004 68.9013 30.5765C68.8888 30.5307 68.8908 30.4821 68.9072 30.4375C68.9236 30.393 68.9534 30.3546 68.9926 30.3278C69.0323 30.3007 69.0791 30.2863 69.1271 30.2863C69.1751 30.2863 69.222 30.3007 69.2616 30.3278C69.8079 30.7314 70.2398 31.27 70.5151 31.8909C71.049 31.8739 71.5835 31.8977 72.1138 31.9619C72.1357 31.6313 72.071 31.3007 71.926 31.0028C71.9049 30.9517 71.9026 30.8948 71.9195 30.8423C71.9364 30.7897 71.9714 30.7448 72.0183 30.7156C72.0651 30.6864 72.1208 30.6747 72.1755 30.6827C72.2301 30.6907 72.2802 30.7178 72.3168 30.7592C72.5814 31.0806 72.8239 31.4197 73.0425 31.7742C73.2513 31.8196 73.4635 31.8484 73.6769 31.8604C73.6769 31.7082 73.7022 31.2971 73.7022 31.1093C73.7022 30.9216 73.7022 30.8657 73.7022 30.8048C73.7045 30.7586 73.7208 30.7141 73.7489 30.6773C73.7771 30.6406 73.8157 30.6132 73.8597 30.5989C73.9038 30.5846 73.9511 30.584 73.9955 30.5972C74.0399 30.6104 74.0792 30.6368 74.1082 30.6729C74.5842 31.2609 74.9053 31.9588 75.042 32.7029C75.1732 33.9332 75.2207 35.1709 75.1841 36.4076V36.7375C75.1926 37.0156 75.1412 37.2923 75.0335 37.5488C74.9258 37.8053 74.7643 38.0357 74.5599 38.2245C74.2499 38.4923 73.8531 38.6384 73.4434 38.6356L73.7276 41.5029C73.7062 41.7683 73.6318 42.0268 73.5089 42.263C73.386 42.4992 73.2171 42.7084 73.012 42.8783C72.7028 43.1098 72.3275 43.236 71.9412 43.2386ZM68.6729 32.6471C68.6729 33.1546 68.6729 33.6621 68.6729 34.129C68.6729 34.5959 68.6729 35.0425 68.6729 35.4992C68.6671 36.116 68.6942 36.7326 68.7541 37.3465C68.7795 37.6612 68.8099 37.9758 68.8252 38.2854L68.9216 40.1276C68.9267 40.2121 68.9267 40.2969 68.9216 40.3814C68.9054 40.5374 68.9139 40.6949 68.947 40.8483C69.2125 41.3318 69.5811 41.751 70.0266 42.0764C70.4721 42.4017 70.9836 42.6252 71.5251 42.7311C71.7451 42.7906 71.9753 42.8024 72.2002 42.7656C72.4252 42.7288 72.6397 42.6444 72.8293 42.5179C73.1322 42.2611 73.3248 41.8977 73.3673 41.5029L73.0526 38.4072C73.0502 38.3724 73.0554 38.3374 73.068 38.3048C73.0805 38.2722 73.1001 38.2428 73.1252 38.2186C73.1504 38.1944 73.1806 38.176 73.2137 38.1648C73.2467 38.1535 73.2818 38.1496 73.3165 38.1534C73.4958 38.1833 73.6795 38.1738 73.8547 38.1256C74.03 38.0774 74.1927 37.9916 74.3315 37.8743C74.4852 37.7288 74.606 37.552 74.6856 37.356C74.7653 37.1599 74.802 36.949 74.7934 36.7375V36.4127C74.8199 35.2101 74.7759 34.0069 74.6614 32.8095C74.5684 32.3768 74.4218 31.9574 74.225 31.561C74.225 31.9467 74.159 32.1497 74.0423 32.2563C73.8342 32.4441 72.9004 32.2005 72.8953 32.1954C72.8382 32.17 72.7891 32.1297 72.7532 32.0787L72.6466 31.9112C72.6431 32.0272 72.6296 32.1426 72.606 32.2563C72.5961 32.3152 72.5634 32.3679 72.515 32.403C72.4666 32.4381 72.4063 32.4529 72.3472 32.4441C71.7171 32.3537 71.0801 32.3214 70.4441 32.3476C70.3957 32.352 70.3473 32.3405 70.3061 32.3148C70.2649 32.2892 70.2332 32.2508 70.2157 32.2055C70.0606 31.8224 69.8409 31.4688 69.5661 31.1601C69.633 31.5847 69.6619 32.0144 69.6524 32.4441C69.6519 32.4785 69.6436 32.5124 69.6282 32.5433C69.6127 32.5741 69.5905 32.601 69.5631 32.622C69.5358 32.643 69.504 32.6575 69.4703 32.6645C69.4365 32.6715 69.4016 32.6707 69.3682 32.6623C69.1398 32.6102 68.9033 32.605 68.6729 32.6471Z" fill="#231F20"/>
<path d="M73.3825 39.9348C72.6085 40.0202 71.8312 39.8059 71.2104 39.3359C70.9574 39.141 70.7496 38.8935 70.6016 38.6105C70.4535 38.3275 70.3686 38.0157 70.3527 37.6967C71.2484 38.1637 72.2455 38.4025 73.2556 38.392L73.3825 39.9348Z" fill="#231F20"/>
<path d="M73.0526 40.1783C72.3317 40.1936 71.6281 39.9566 71.0632 39.5084C70.783 39.2919 70.5537 39.0166 70.3915 38.7018C70.2292 38.387 70.1381 38.0404 70.1244 37.6865C70.1262 37.6485 70.1379 37.6117 70.1584 37.5797C70.1789 37.5476 70.2074 37.5215 70.2411 37.5038C70.2735 37.4851 70.3102 37.4753 70.3477 37.4753C70.3851 37.4753 70.4218 37.4851 70.4542 37.5038C71.3135 37.9485 72.2678 38.1784 73.2353 38.1737C73.2644 38.1709 73.2937 38.174 73.3216 38.1828C73.3495 38.1916 73.3753 38.2058 73.3975 38.2248C73.4198 38.2437 73.438 38.2669 73.4511 38.293C73.4642 38.3191 73.4719 38.3476 73.4738 38.3767L73.6007 39.8992C73.6052 39.9567 73.5879 40.0137 73.5521 40.0589C73.5163 40.104 73.4648 40.134 73.4079 40.1428C73.2902 40.161 73.1716 40.1729 73.0526 40.1783ZM70.6268 38.0773C70.7533 38.5058 71.0062 38.8861 71.3525 39.1684C71.8618 39.5588 72.4928 39.7565 73.1338 39.7267L73.0425 38.6203C72.2083 38.6084 71.3858 38.4235 70.6268 38.0773Z" fill="#231F20"/>
<path d="M72.2254 36.0828C72.1156 36.0922 72.0053 36.0922 71.8955 36.0828C71.837 36.0741 71.7843 36.0424 71.7491 35.9948C71.7139 35.9472 71.699 35.8876 71.7077 35.8291C71.7177 35.7701 71.7504 35.7174 71.7988 35.6823C71.8472 35.6472 71.9074 35.6325 71.9666 35.6413C72.1949 35.6768 72.5705 35.6413 72.6568 35.555C72.4115 35.0396 72.0973 34.5599 71.723 34.129C71.7043 34.1063 71.6902 34.0802 71.6817 34.0521C71.6731 34.024 71.6701 33.9945 71.6729 33.9653C71.6758 33.9361 71.6843 33.9077 71.6981 33.8818C71.712 33.8559 71.7307 33.8329 71.7534 33.8143C71.8005 33.7775 71.8599 33.7601 71.9194 33.7658C71.9788 33.7715 72.0339 33.7997 72.0731 33.8448C73.3368 35.3977 73.0881 35.7174 73.012 35.824C72.9076 35.9217 72.7831 35.9954 72.6472 36.0401C72.5114 36.0848 72.3674 36.0994 72.2254 36.0828Z" fill="#231F20"/>
<path d="M69.3225 33.7788C69.1671 33.3965 68.9338 33.0508 68.6374 32.7638C68.4866 32.6232 68.2965 32.5319 68.0926 32.502C67.8886 32.472 67.6803 32.5049 67.4955 32.5963C67.3207 32.7404 67.1885 32.9296 67.1134 33.1434C67.0383 33.3572 67.023 33.5874 67.0692 33.8092C67.1288 34.3221 67.2693 34.8222 67.4853 35.2911C67.5866 35.5798 67.7616 35.8369 67.9928 36.0372C68.11 36.1345 68.2559 36.1908 68.4081 36.1972C68.5603 36.2036 68.7104 36.1599 68.8353 36.0727" fill="white"/>
<path d="M68.4496 36.4381C68.2243 36.4341 68.006 36.3596 67.8254 36.2249C67.5649 36.0002 67.3672 35.7117 67.2519 35.3876C67.0276 34.906 66.8804 34.3923 66.8154 33.8651C66.7608 33.5993 66.7824 33.3235 66.8775 33.0695C66.9727 32.8154 67.1376 32.5933 67.3534 32.4288C67.5797 32.3127 67.8361 32.2684 68.0882 32.302C68.3403 32.3355 68.5762 32.4453 68.7642 32.6166C69.0858 32.9207 69.34 33.289 69.5103 33.6976C69.5271 33.7252 69.538 33.7559 69.5423 33.7879C69.5466 33.82 69.5442 33.8525 69.5353 33.8836C69.5263 33.9146 69.5111 33.9435 69.4904 33.9683C69.4698 33.9931 69.4442 34.0134 69.4153 34.0279C69.3864 34.0423 69.3548 34.0506 69.3226 34.0522C69.2903 34.0538 69.2581 34.0487 69.2279 34.0372C69.1977 34.0258 69.1702 34.0081 69.1472 33.9855C69.1242 33.9628 69.1061 33.9356 69.0941 33.9057C68.9507 33.5557 68.7384 33.2381 68.4699 32.9719C68.3556 32.8632 68.2115 32.7911 68.0559 32.7649C67.9004 32.7386 67.7406 32.7595 67.597 32.8247C67.2367 33.048 67.262 33.6418 67.2773 33.8397C67.335 34.3283 67.4703 34.8046 67.6782 35.2505C67.7632 35.5008 67.9118 35.7247 68.1096 35.9001C68.184 35.9655 68.2774 36.0052 68.3761 36.0135C68.4748 36.0217 68.5735 35.998 68.6577 35.9458C68.7059 35.9072 68.7672 35.8887 68.8288 35.8944C68.8903 35.9001 68.9472 35.9294 68.9875 35.9763C69.0259 36.0237 69.0442 36.0842 69.0385 36.1449C69.0328 36.2056 69.0036 36.2616 68.9571 36.3011C68.8088 36.404 68.6295 36.4524 68.4496 36.4381Z" fill="#231F20"/>
<path d="M90.8963 105.199C90.9319 105.245 95.8089 102.038 95.8089 102.038C95.8089 102.038 95.6719 100.571 96.0627 100.266C96.4535 99.9619 102.071 98.2922 102.538 99.0839C103.005 99.8756 91.6931 107.316 91.6931 107.316L90.8963 105.199Z" fill="#231F20"/>
<path d="M91.6931 107.539H91.6271C91.5945 107.528 91.5647 107.511 91.5401 107.487C91.5155 107.463 91.4966 107.434 91.485 107.402L90.6882 105.291C90.6683 105.24 90.6676 105.185 90.6863 105.134C90.7051 105.083 90.7419 105.042 90.7897 105.017H90.8303C91.1196 104.869 93.7688 103.144 95.5755 101.972C95.5399 101.494 95.5196 100.449 95.9256 100.134C96.3316 99.8198 100.823 98.4596 102.239 98.7286C102.34 98.7368 102.437 98.7669 102.525 98.8169C102.612 98.8669 102.688 98.9355 102.746 99.0179C102.904 99.2869 103.142 99.6878 97.4329 103.728C94.6975 105.666 91.8504 107.529 91.8504 107.549C91.7981 107.561 91.7435 107.557 91.6931 107.539ZM91.1856 105.286L91.82 106.975C96.7579 103.727 101.99 99.9568 102.31 99.16C102.264 99.1374 102.214 99.122 102.163 99.1143C100.909 98.8555 96.5346 100.18 96.1946 100.429C96.017 100.566 95.9662 101.352 96.0271 102.002C96.0314 102.042 96.0247 102.083 96.0077 102.119C95.9907 102.156 95.9641 102.187 95.9307 102.21C92.906 104.235 91.6931 105.011 91.1704 105.286H91.1856Z" fill="#231F20"/>
<path d="M45.8912 83.6559L42.5823 88.5025L43.5618 89.7104C43.5618 89.7104 39.3191 92.2478 38.5781 91.6388C37.8372 91.0298 43.9475 82.5597 43.9475 82.5597L45.8912 83.6559Z" fill="#231F20"/>
<path d="M38.9131 91.9484C38.7428 91.9611 38.5736 91.9125 38.4361 91.8114C37.69 91.2024 40.9127 86.371 43.7496 82.4328C43.7806 82.3874 43.8276 82.3553 43.8813 82.3431C43.9349 82.3309 43.9912 82.3393 44.0389 82.3668L46.0029 83.458C46.0557 83.4894 46.094 83.5405 46.1095 83.6001C46.1173 83.6301 46.1187 83.6615 46.1134 83.6922C46.1082 83.7228 46.0964 83.7519 46.079 83.7777L42.8615 88.5025L43.7344 89.5784C43.7555 89.6033 43.7705 89.6328 43.7785 89.6644C43.7864 89.6961 43.7869 89.7292 43.78 89.7611C43.7748 89.7922 43.7631 89.8219 43.7456 89.8481C43.7281 89.8743 43.7052 89.8966 43.6785 89.9134C42.7955 90.431 40.1514 91.9484 38.9131 91.9484ZM43.9881 82.854C41.2425 86.6856 38.5528 90.9233 38.7355 91.4815C39.0806 91.7556 41.273 90.766 43.2218 89.6342L42.4047 88.6192C42.3767 88.5809 42.3616 88.5347 42.3616 88.4873C42.3616 88.4398 42.3767 88.3936 42.4047 88.3553L45.5715 83.7117L43.9881 82.854Z" fill="#231F20"/>
<path d="M72.2203 37.245H72.0833C71.4794 37.1841 70.9465 36.7375 70.5101 35.8595C70.496 35.8333 70.4874 35.8045 70.4847 35.7749C70.482 35.7452 70.4852 35.7154 70.4942 35.687C70.5032 35.6586 70.5177 35.6323 70.537 35.6097C70.5563 35.587 70.5799 35.5684 70.6065 35.555C70.6598 35.5281 70.7215 35.5231 70.7784 35.5412C70.8353 35.5592 70.8829 35.5988 70.911 35.6515C71.2713 36.367 71.6824 36.7527 72.129 36.7984C72.3738 36.7851 72.6129 36.7193 72.83 36.6054C73.0472 36.4916 73.2373 36.3324 73.3876 36.1387C73.4059 36.1156 73.4285 36.0964 73.4542 36.0821C73.48 36.0678 73.5083 36.0588 73.5375 36.0555C73.5668 36.0522 73.5964 36.0547 73.6246 36.0629C73.6529 36.071 73.6793 36.0847 73.7022 36.1031C73.7257 36.121 73.7453 36.1434 73.7601 36.169C73.7748 36.1945 73.7843 36.2227 73.7881 36.252C73.7919 36.2812 73.7898 36.311 73.7821 36.3394C73.7743 36.3679 73.761 36.3945 73.7428 36.4178C73.557 36.6502 73.3265 36.843 73.0651 36.9851C72.8036 37.1271 72.5164 37.2155 72.2203 37.245Z" fill="#231F20"/>
<path d="M70.2817 33.4743C70.2348 33.4732 70.1891 33.4591 70.1497 33.4337C70.1019 33.3982 70.0699 33.3454 70.0604 33.2867C70.0509 33.2279 70.0648 33.1677 70.099 33.119C70.1446 33.0581 70.5354 32.5354 70.9871 32.5862C71.1141 32.6055 71.2332 32.66 71.3309 32.7434C71.4286 32.8268 71.5011 32.9358 71.5403 33.0581C71.5556 33.1108 71.5515 33.1672 71.5286 33.217C71.5058 33.2669 71.4658 33.3069 71.4159 33.3296C71.366 33.3524 71.3096 33.3565 71.2569 33.3411C71.2043 33.3258 71.159 33.292 71.1292 33.2459C71.0987 33.1698 71.0277 33.0429 70.9414 33.0327C70.8552 33.0226 70.5811 33.2256 70.4644 33.3829C70.4434 33.4116 70.4159 33.4348 70.3841 33.4507C70.3523 33.4666 70.3172 33.4747 70.2817 33.4743Z" fill="#231F20"/>
<path d="M73.7936 33.52C73.7513 33.5197 73.71 33.5076 73.6741 33.4852C73.6383 33.4628 73.6094 33.4309 73.5906 33.3931C73.55 33.3068 73.3825 33.0429 73.1947 33.0023C73.007 32.9617 72.9765 33.2459 72.9765 33.251C72.959 33.3075 72.9197 33.3547 72.8674 33.3823C72.8151 33.4099 72.7539 33.4156 72.6974 33.3981C72.6689 33.39 72.6424 33.3763 72.6193 33.3578C72.5962 33.3393 72.5771 33.3164 72.5629 33.2904C72.5487 33.2645 72.5399 33.2359 72.5368 33.2065C72.5338 33.1771 72.5366 33.1473 72.5451 33.119C72.5751 32.9475 72.6696 32.794 72.8094 32.6902C72.9491 32.5863 73.1234 32.54 73.2962 32.5608C73.4504 32.6141 73.592 32.6983 73.7124 32.8082C73.8328 32.9182 73.9295 33.0516 73.9966 33.2002C74.0094 33.2268 74.0169 33.2558 74.0185 33.2853C74.0201 33.3148 74.0158 33.3444 74.0059 33.3722C73.996 33.4001 73.9806 33.4257 73.9607 33.4476C73.9408 33.4694 73.9168 33.4871 73.89 33.4997C73.86 33.514 73.8269 33.521 73.7936 33.52Z" fill="#231F20"/>
<path d="M61.71 54.7182C61.71 54.7182 60.3296 63.7568 54.9704 86.234C54.9704 86.234 55.6251 89.9286 66.9778 90.1367C78.3306 90.3447 88.0848 82.24 88.0848 82.24L79.0563 56.4945L61.71 54.7182Z" fill="#FF914D"/>
<path d="M65.8817 59.0421L65.7243 40.7214L67.6376 40.1022L67.6833 59.3619L65.8817 59.0421Z" fill="#FF914D"/>
<path d="M74.7883 40.7823L74.5193 58.3012L76.1941 58.8391L76.6051 41.371L74.7883 40.7823Z" fill="#FF914D"/>
<path d="M44.8407 31.7945C44.6547 31.5746 44.4207 31.4003 44.1567 31.285C43.8928 31.1698 43.6059 31.1166 43.3182 31.1296C42.7473 31.1585 42.1841 31.2749 41.6485 31.4747C41.542 31.5102 41.41 31.5762 41.4151 31.6879C41.4201 31.7995 41.5216 31.8401 41.613 31.8756C42.2218 32.116 42.8718 32.235 43.5263 32.2258C43.3724 32.4136 43.2685 32.6372 43.2242 32.8758C43.1798 33.1145 43.1964 33.3605 43.2725 33.591C43.38 34.2367 43.7083 34.825 44.2013 35.2556C44.4495 35.4651 44.7551 35.595 45.0782 35.6285C45.4013 35.6619 45.7271 35.5975 46.013 35.4434" fill="white"/>
<path d="M45.2924 35.8748C44.8471 35.8714 44.4161 35.7175 44.0693 35.4383C43.5368 34.9721 43.1788 34.3385 43.0543 33.6418C42.953 33.2476 42.9724 32.8321 43.1101 32.4491C42.5712 32.4081 42.0411 32.2884 41.5369 32.0939C41.4467 32.0711 41.3655 32.0216 41.3039 31.9518C41.2423 31.8821 41.2033 31.7954 41.1918 31.7031C41.1918 31.6067 41.1918 31.3732 41.5927 31.2514C42.1466 31.047 42.7285 30.9289 43.3182 30.9013C43.6392 30.8896 43.9587 30.9512 44.2524 31.0813C44.546 31.2114 44.8063 31.4067 45.0133 31.6524C45.0359 31.6762 45.0533 31.7046 45.0642 31.7356C45.0752 31.7666 45.0794 31.7996 45.0767 31.8324C45.074 31.8652 45.0644 31.8971 45.0485 31.9259C45.0326 31.9547 45.0108 31.9798 44.9845 31.9996C44.9582 32.0194 44.9281 32.0334 44.896 32.0408C44.8639 32.0481 44.8306 32.0485 44.7984 32.0421C44.7661 32.0357 44.7356 32.0225 44.7088 32.0034C44.6819 31.9844 44.6595 31.9598 44.6428 31.9315C44.4799 31.7421 44.2759 31.5924 44.0463 31.4939C43.8168 31.3954 43.5677 31.3506 43.3182 31.3631C42.7876 31.3921 42.2642 31.4998 41.7653 31.6828C42.3297 31.9014 42.9312 32.0082 43.5364 31.9975C43.5831 31.9985 43.6284 32.0129 43.6671 32.039C43.7058 32.0651 43.7362 32.1018 43.7547 32.1446C43.7716 32.1881 43.7749 32.2357 43.764 32.2811C43.7531 32.3264 43.7286 32.3674 43.6938 32.3984C43.5748 32.5615 43.4959 32.7503 43.4633 32.9495C43.4307 33.1487 43.4453 33.3528 43.506 33.5453C43.6076 34.1343 43.9065 34.6712 44.3535 35.0678C44.5622 35.2431 44.8179 35.353 45.0887 35.3837C45.3595 35.4144 45.6334 35.3646 45.876 35.2404C45.9274 35.2161 45.9859 35.2115 46.0405 35.2273C46.0951 35.2431 46.142 35.2783 46.1725 35.3262C46.203 35.3741 46.215 35.4316 46.2062 35.4877C46.1974 35.5438 46.1684 35.5949 46.1247 35.6312C45.8755 35.7887 45.5872 35.8731 45.2924 35.8748Z" fill="#231F20"/>
<path d="M71.8245 66.0456H71.4997C65.9425 65.8629 65.633 59.6257 65.6279 59.5648C65.6275 59.4956 65.6528 59.4287 65.6989 59.3771C65.7229 59.3517 65.7521 59.3317 65.7845 59.3186C65.8169 59.3054 65.8518 59.2994 65.8867 59.301L77.4019 59.4126C77.4638 59.4146 77.523 59.4388 77.5686 59.4807C77.6142 59.5226 77.6433 59.5794 77.6506 59.641C77.7667 60.486 77.7018 61.346 77.4603 62.1641C77.2188 62.9822 76.8062 63.7396 76.2499 64.3861C75.2196 65.4823 73.7327 66.0456 71.8245 66.0456ZM66.1608 59.8085C66.2623 60.7433 66.516 61.6553 66.9119 62.5083C67.2938 63.4129 67.9345 64.1845 68.7534 64.7262C69.5723 65.2679 70.533 65.5557 71.5149 65.5533C73.4231 65.6092 74.8948 65.1118 75.8794 64.0308C76.3562 63.4636 76.7153 62.807 76.9358 62.0995C77.1562 61.392 77.2336 60.6477 77.1634 59.91L66.1608 59.8085Z" fill="#231F20"/>
<path d="M31.26 82.8134C31.1914 82.8133 31.1257 82.7859 31.0773 82.7373C31.0537 82.7142 31.0349 82.6865 31.0221 82.656C31.0093 82.6255 31.0027 82.5928 31.0027 82.5597C31.0027 82.5266 31.0093 82.4938 31.0221 82.4633C31.0349 82.4328 31.0537 82.4052 31.0773 82.3821L52.575 61.402C52.5979 61.3756 52.6261 61.3543 52.6577 61.3393C52.6893 61.3243 52.7236 61.316 52.7586 61.3149C52.7935 61.3138 52.8283 61.3199 52.8608 61.3329C52.8932 61.3459 52.9227 61.3654 52.9472 61.3903C52.9718 61.4152 52.9909 61.4449 53.0034 61.4776C53.0159 61.5102 53.0216 61.5451 53.02 61.58C53.0184 61.615 53.0096 61.6492 52.9942 61.6806C52.9787 61.7119 52.957 61.7398 52.9303 61.7623L31.4681 82.7424C31.4412 82.7694 31.4084 82.7898 31.3723 82.8022C31.3362 82.8145 31.2978 82.8183 31.26 82.8134Z" fill="#D1D3D4"/>
<path d="M52.1335 32.5709C52.0965 32.5713 52.0599 32.5633 52.0265 32.5475C51.9931 32.5317 51.9637 32.5084 51.9406 32.4796C51.9189 32.4545 51.9024 32.4252 51.8921 32.3936C51.8818 32.362 51.878 32.3286 51.8808 32.2955C51.8837 32.2624 51.8931 32.2302 51.9086 32.2008C51.9241 32.1714 51.9454 32.1454 51.9711 32.1243L58.5229 26.6129C58.548 26.5911 58.5773 26.5746 58.6089 26.5643C58.6405 26.5541 58.6738 26.5502 58.707 26.5531C58.7401 26.5559 58.7723 26.5654 58.8017 26.5809C58.8311 26.5964 58.8571 26.6176 58.8782 26.6433C58.9211 26.6955 58.942 26.7624 58.9363 26.8297C58.9306 26.897 58.8988 26.9595 58.8477 27.0037L52.2959 32.51C52.2508 32.5492 52.1932 32.5708 52.1335 32.5709Z" fill="#D1D3D4"/>
<path d="M33.0921 72.3234C33.0411 72.3228 32.9916 72.3068 32.9498 72.2776C32.9081 72.2484 32.8761 72.2073 32.858 72.1597C32.8399 72.112 32.8366 72.0601 32.8485 72.0105C32.8604 71.961 32.8869 71.9161 32.9246 71.8819L39.9332 65.599C39.9837 65.5539 40.05 65.5307 40.1175 65.5345C40.1851 65.5384 40.2484 65.5689 40.2935 65.6193C40.3386 65.6698 40.3618 65.7361 40.358 65.8037C40.3542 65.8713 40.3237 65.9346 40.2732 65.9796L33.29 72.2625C33.2345 72.3079 33.1635 72.3298 33.0921 72.3234Z" fill="#D1D3D4"/>
<path d="M4.50968 108.498C6.81922 108.498 8.69148 108.205 8.69148 107.843C8.69148 107.482 6.81922 107.189 4.50968 107.189C2.20014 107.189 0.327881 107.482 0.327881 107.843C0.327881 108.205 2.20014 108.498 4.50968 108.498Z" fill="#D1D3D4"/>
<path d="M5.01211 104.742C4.61626 102.124 3.37796 92.9076 3.36273 92.8162L3.70276 92.7706C3.70276 92.8619 4.95628 102.078 5.35213 104.692L5.01211 104.742Z" fill="#D1D3D4"/>
<path d="M5.47392 107.189H5.1339C5.1339 104.083 6.44832 92.2174 7.19942 91.4003L7.45317 91.6338C6.95582 92.1717 5.50945 102.936 5.47392 107.189Z" fill="#D1D3D4"/>
<path d="M6.14891 106.6H5.80381C6.10323 99.906 4.68223 85.8432 4.66701 85.7011L5.00703 85.6656C5.02226 85.7925 6.44833 99.8807 6.14891 106.6Z" fill="#D1D3D4"/>
</svg>
