<svg xmlns="http://www.w3.org/2000/svg" xmlns:xlink="http://www.w3.org/1999/xlink" width="500" zoomAndPan="magnify" viewBox="0 0 375 374.999991" height="500" preserveAspectRatio="xMidYMid meet" version="1.0"><defs><filter x="0%" y="0%" width="100%" height="100%" id="d2e5f3a674"><feColorMatrix values="0 0 0 0 1 0 0 0 0 1 0 0 0 0 1 0 0 0 1 0" color-interpolation-filters="sRGB"/></filter><mask id="6b29450d88"><g filter="url(#d2e5f3a674)"><rect x="-37.5" width="450" fill="#000000" y="-37.499999" height="449.999989" fill-opacity="0.098"/></g></mask><clipPath id="e5698abd72"><path d="M 0 1 L 375 1 L 375 70 L 0 70 Z M 0 1 " clip-rule="nonzero"/></clipPath><clipPath id="0754ef872c"><rect x="0" width="375" y="0" height="70"/></clipPath></defs><rect x="-37.5" width="450" fill="#ffffff" y="-37.499999" height="449.999989" fill-opacity="1"/><rect x="-37.5" width="450" fill="#ffffff" y="-37.499999" height="449.999989" fill-opacity="1"/><g mask="url(#6b29450d88)"><g transform="matrix(1, 0, 0, 1, 0, 152)"><g clip-path="url(#0754ef872c)"><g clip-path="url(#e5698abd72)"><path fill="#35a15e" d="M 374.949219 40.835938 L 374.949219 13.046875 C 374.949219 6.5625 369.695312 1.300781 363.222656 1.300781 C 356.75 1.300781 351.496094 6.5625 351.496094 13.046875 L 351.496094 13.472656 L 351.496094 13.046875 C 351.496094 6.5625 346.246094 1.300781 339.773438 1.300781 C 333.300781 1.300781 328.046875 6.5625 328.046875 13.046875 L 328.046875 13.472656 L 328.046875 13.046875 C 328.046875 6.5625 322.792969 1.300781 316.320312 1.300781 C 309.847656 1.300781 304.59375 6.5625 304.59375 13.046875 L 304.59375 13.472656 L 304.59375 13.046875 C 304.59375 6.5625 299.339844 1.300781 292.867188 1.300781 C 286.394531 1.300781 281.144531 6.5625 281.144531 13.046875 L 281.144531 13.472656 L 281.144531 13.046875 C 281.144531 6.5625 275.890625 1.300781 269.417969 1.300781 C 262.945312 1.300781 257.691406 6.5625 257.691406 13.046875 L 257.691406 13.472656 L 257.691406 13.046875 C 257.691406 6.5625 252.4375 1.300781 245.964844 1.300781 C 239.492188 1.300781 234.238281 6.5625 234.238281 13.046875 L 234.238281 13.472656 L 234.238281 13.046875 C 234.238281 6.5625 228.984375 1.300781 222.511719 1.300781 C 216.039062 1.300781 210.789062 6.5625 210.789062 13.046875 L 210.789062 13.472656 L 210.789062 13.046875 C 210.789062 6.5625 205.535156 1.300781 199.0625 1.300781 C 193.152344 1.300781 188.273438 5.671875 187.476562 11.402344 L 187.242188 11.402344 C 186.445312 5.71875 181.566406 1.300781 175.65625 1.300781 C 169.183594 1.300781 163.929688 6.5625 163.929688 13.046875 L 163.929688 13.472656 L 163.929688 13.046875 C 163.929688 6.5625 158.679688 1.300781 152.207031 1.300781 C 145.734375 1.300781 140.480469 6.5625 140.480469 13.046875 L 140.480469 13.472656 L 140.480469 13.046875 C 140.480469 6.5625 135.226562 1.300781 128.753906 1.300781 C 122.28125 1.300781 117.027344 6.5625 117.027344 13.046875 L 117.027344 13.472656 L 117.027344 13.046875 C 117.027344 6.5625 111.773438 1.300781 105.300781 1.300781 C 98.828125 1.300781 93.574219 6.5625 93.574219 13.046875 L 93.574219 13.472656 L 93.574219 13.046875 C 93.574219 6.5625 88.324219 1.300781 81.851562 1.300781 C 75.378906 1.300781 70.125 6.5625 70.125 13.046875 L 70.125 13.472656 L 70.125 13.046875 C 70.125 6.5625 64.871094 1.300781 58.398438 1.300781 C 51.925781 1.300781 46.671875 6.5625 46.671875 13.046875 L 46.671875 13.472656 L 46.671875 13.046875 C 46.671875 6.5625 41.417969 1.300781 34.945312 1.300781 C 28.472656 1.300781 23.21875 6.5625 23.21875 13.046875 L 23.21875 13.472656 L 23.21875 13.046875 C 23.21875 6.5625 17.96875 1.300781 11.496094 1.300781 C 5.023438 1.300781 -0.230469 6.5625 -0.230469 13.046875 C -0.230469 13.425781 -0.230469 13.800781 -0.183594 14.222656 L -0.183594 56.761719 C 0.00390625 57.140625 0.00390625 57.515625 0.00390625 57.890625 C 0.00390625 64.375 5.257812 69.636719 11.730469 69.636719 C 18.203125 69.636719 23.457031 64.375 23.457031 57.890625 C 23.457031 64.375 28.707031 69.636719 35.179688 69.636719 C 41.652344 69.636719 46.90625 64.375 46.90625 57.890625 L 46.90625 57.5625 L 46.90625 57.890625 C 46.90625 64.375 52.160156 69.636719 58.632812 69.636719 C 65.105469 69.636719 70.359375 64.375 70.359375 57.890625 C 70.359375 64.375 75.613281 69.636719 82.085938 69.636719 C 88.558594 69.636719 93.808594 64.375 93.808594 57.890625 L 93.808594 57.5625 L 93.808594 57.890625 C 93.808594 64.375 99.0625 69.636719 105.535156 69.636719 C 112.007812 69.636719 117.261719 64.375 117.261719 57.890625 C 117.261719 64.375 122.515625 69.636719 128.988281 69.636719 C 135.460938 69.636719 140.714844 64.375 140.714844 57.890625 L 140.714844 57.5625 L 140.714844 57.890625 C 140.714844 64.375 145.96875 69.636719 152.441406 69.636719 C 158.914062 69.636719 164.164062 64.375 164.164062 57.890625 L 164.164062 57.5625 L 164.164062 57.890625 C 164.164062 64.375 169.417969 69.636719 175.890625 69.636719 C 181.988281 69.636719 187.007812 64.9375 187.570312 58.972656 L 187.664062 58.972656 C 188.226562 64.9375 193.246094 69.636719 199.34375 69.636719 C 205.816406 69.636719 211.070312 64.375 211.070312 57.890625 C 211.070312 64.375 216.320312 69.636719 222.792969 69.636719 C 229.265625 69.636719 234.519531 64.375 234.519531 57.890625 C 234.519531 64.375 239.773438 69.636719 246.246094 69.636719 C 252.71875 69.636719 257.972656 64.375 257.972656 57.890625 C 257.972656 64.375 263.226562 69.636719 269.699219 69.636719 C 276.171875 69.636719 281.425781 64.375 281.425781 57.890625 C 281.425781 64.375 286.675781 69.636719 293.148438 69.636719 C 299.621094 69.636719 304.875 64.375 304.875 57.890625 C 304.875 64.375 310.128906 69.636719 316.601562 69.636719 C 323.074219 69.636719 328.328125 64.375 328.328125 57.890625 C 328.328125 64.375 333.582031 69.636719 340.054688 69.636719 C 346.527344 69.636719 351.777344 64.375 351.777344 57.890625 C 351.777344 64.375 357.03125 69.636719 363.503906 69.636719 C 369.976562 69.636719 375.230469 64.375 375.230469 57.890625 L 375.230469 40.835938 L 374.949219 40.835938 M 23.457031 57.890625 L 23.457031 57.609375 L 23.457031 57.890625 M 70.3125 57.890625 L 70.3125 57.609375 L 70.3125 57.890625 M 117.167969 57.890625 L 117.167969 57.609375 L 117.167969 57.890625 M 210.929688 57.890625 L 210.929688 57.609375 L 210.929688 57.890625 M 234.378906 57.890625 L 234.378906 57.609375 L 234.378906 57.890625 M 257.785156 57.890625 L 257.785156 57.609375 C 257.832031 57.703125 257.785156 57.796875 257.785156 57.890625 M 281.238281 57.890625 L 281.238281 57.609375 L 281.238281 57.890625 M 304.6875 57.890625 L 304.6875 57.609375 L 304.6875 57.890625 M 328.09375 57.890625 L 328.09375 57.609375 C 328.140625 57.703125 328.09375 57.796875 328.09375 57.890625 M 351.542969 57.890625 L 351.542969 57.609375 L 351.542969 57.890625 " fill-opacity="1" fill-rule="nonzero"/></g></g></g></g></svg>