<svg width="116" height="111" viewBox="0 0 116 111" fill="none" xmlns="http://www.w3.org/2000/svg">
<g clip-path="url(#clip0_114_255)">
<path d="M3.79457 68.6456C3.77658 68.6245 3.76381 68.5994 3.75731 68.5725C1.33517 58.5675 1.74239 48.0861 4.93349 38.2992C8.12459 28.5123 13.9739 19.8055 21.8278 13.1515C29.6818 6.49748 39.2311 2.15835 49.4088 0.618891C59.5866 -0.920565 69.9919 0.400288 79.4623 4.43388C79.4837 4.44297 79.5031 4.45619 79.5193 4.47278C79.5356 4.48937 79.5485 4.509 79.5572 4.53056C79.5659 4.55212 79.5702 4.57518 79.57 4.59842C79.5698 4.62167 79.565 4.64464 79.5559 4.66603C79.5468 4.68742 79.5336 4.70682 79.517 4.7231C79.5004 4.73938 79.4808 4.75224 79.4592 4.76093C79.4377 4.76963 79.4146 4.77399 79.3914 4.77378C79.3681 4.77356 79.3452 4.76877 79.3238 4.75967C59.9482 -3.47957 37.9622 -0.121728 21.9456 13.5229C6.02682 27.0842 -0.810616 48.146 4.10155 68.4893C4.11091 68.528 4.10694 68.5687 4.09029 68.6049C4.07363 68.6411 4.04526 68.6706 4.00977 68.6887C3.97428 68.7067 3.93373 68.7123 3.89468 68.7045C3.85563 68.6967 3.82036 68.6759 3.79457 68.6456Z" fill="#E6E6E6"/>
<path d="M36.1544 106.635C36.1285 106.605 36.1136 106.567 36.1121 106.527C36.1105 106.487 36.1225 106.448 36.146 106.416C36.1695 106.384 36.2031 106.36 36.2415 106.35C36.2799 106.339 36.3208 106.342 36.3575 106.357C55.6602 114.441 77.5404 111.039 93.4595 97.4773C109.627 83.7044 116.492 62.5328 111.377 42.2248C111.371 42.2023 111.37 42.1789 111.374 42.1559C111.377 42.1329 111.385 42.1107 111.397 42.0908C111.409 42.0708 111.424 42.0534 111.443 42.0396C111.462 42.0257 111.483 42.0157 111.506 42.01C111.528 42.0043 111.552 42.0031 111.575 42.0065C111.598 42.0099 111.62 42.0178 111.64 42.0297C111.66 42.0417 111.677 42.0574 111.691 42.0761C111.705 42.0948 111.715 42.116 111.72 42.1385C114.203 52.0068 113.888 62.3714 110.811 72.0709C107.626 82.0666 101.692 90.9643 93.6891 97.7469C85.8745 104.408 76.3652 108.769 66.2192 110.347C56.0733 111.925 45.6886 110.657 36.2205 106.684C36.195 106.673 36.1723 106.656 36.1544 106.635Z" fill="#E6E6E6"/>
<path d="M32.0634 109.777C32.0483 109.76 32.0368 109.739 32.0297 109.717C32.0225 109.695 32.0198 109.672 32.0216 109.649C32.0235 109.625 32.0299 109.603 32.0405 109.582C32.0511 109.561 32.0656 109.543 32.0833 109.528L115.708 38.2876C115.744 38.2572 115.79 38.2422 115.837 38.2459C115.884 38.2497 115.927 38.2719 115.958 38.3076C115.988 38.3433 116.003 38.3897 115.999 38.4365C115.996 38.4833 115.973 38.5267 115.938 38.5571L32.3129 109.797C32.2952 109.813 32.2747 109.824 32.2526 109.831C32.2305 109.838 32.2072 109.841 32.184 109.839C32.1608 109.837 32.1382 109.831 32.1175 109.82C32.0968 109.81 32.0784 109.795 32.0634 109.777Z" fill="#E6E6E6"/>
<path d="M0.0422824 72.186C0.0272024 72.1683 0.0157582 72.1478 0.0085999 72.1257C0.00144157 72.1035 -0.00129044 72.0802 0.000563375 72.0571C0.00241719 72.0339 0.00881936 72.0113 0.0194029 71.9906C0.0299864 71.9699 0.0445449 71.9515 0.0622459 71.9364L83.6871 0.696113C83.7228 0.665723 83.7692 0.650767 83.8159 0.654532C83.8627 0.658298 83.9061 0.680475 83.9365 0.716192C83.9669 0.751909 83.9819 0.798245 83.9782 0.845017C83.9745 0.891788 83.9523 0.935171 83.9167 0.965632L0.291827 72.2059C0.274134 72.221 0.253643 72.2325 0.231524 72.2396C0.209406 72.2468 0.186094 72.2495 0.16292 72.2477C0.139745 72.2458 0.117166 72.2394 0.0964662 72.2288C0.0757669 72.2182 0.0573535 72.2037 0.0422824 72.186Z" fill="#E6E6E6"/>
<path d="M32.0634 109.777C32.0483 109.76 32.0368 109.739 32.0297 109.717C32.0225 109.695 32.0198 109.672 32.0216 109.649C32.0235 109.625 32.0299 109.603 32.0405 109.582C32.0511 109.561 32.0656 109.543 32.0833 109.528L115.708 38.2876C115.744 38.2572 115.79 38.2422 115.837 38.2459C115.884 38.2497 115.927 38.2719 115.958 38.3076C115.988 38.3433 116.003 38.3897 115.999 38.4365C115.996 38.4833 115.973 38.5267 115.938 38.5571L32.3129 109.797C32.2952 109.813 32.2747 109.824 32.2526 109.831C32.2305 109.838 32.2072 109.841 32.184 109.839C32.1608 109.837 32.1382 109.831 32.1175 109.82C32.0968 109.81 32.0784 109.795 32.0634 109.777Z" fill="#E6E6E6"/>
<path d="M97.77 29.3628H65.4046V29.1933C65.4046 29.0613 65.3521 28.9347 65.2588 28.8414C65.1655 28.7481 65.0389 28.6956 64.9069 28.6956H51.2264C51.0944 28.6957 50.9679 28.7481 50.8746 28.8414C50.7812 28.9347 50.7288 29.0613 50.7288 29.1933V29.3628H18.23C17.6493 29.3628 17.0925 29.5934 16.6819 30.004C16.2714 30.4146 16.0407 30.9715 16.0407 31.5521V75.8726C16.0407 76.4533 16.2714 77.0102 16.6819 77.4208C17.0925 77.8314 17.6493 78.062 18.23 78.062H97.77C98.3506 78.062 98.9074 77.8313 99.318 77.4207C99.7286 77.0102 99.9593 76.4533 99.9593 75.8726V31.5521C99.9593 30.9715 99.7286 30.4146 99.318 30.004C98.9075 29.5934 98.3506 29.3628 97.77 29.3628Z" fill="#3F3D56"/>
<path d="M19.971 34.0224C19.9167 34.0224 19.8647 34.0441 19.8263 34.0825C19.7879 34.1209 19.7663 34.173 19.7662 34.2273V76.2663C19.7663 76.3206 19.7879 76.3727 19.8263 76.4111C19.8647 76.4495 19.9167 76.4711 19.971 76.4711H96.0289C96.0832 76.4711 96.1353 76.4495 96.1737 76.4111C96.2121 76.3727 96.2337 76.3206 96.2337 76.2663V34.2273C96.2337 34.173 96.2121 34.1209 96.1737 34.0825C96.1353 34.044 96.0832 34.0224 96.0289 34.0224H19.971Z" fill="#FF914D"/>
<path d="M57.9333 32.0312C58.3754 32.0312 58.7338 31.6728 58.7338 31.2307C58.7338 30.7886 58.3754 30.4301 57.9333 30.4301C57.4912 30.4301 57.1328 30.7886 57.1328 31.2307C57.1328 31.6728 57.4912 32.0312 57.9333 32.0312Z" fill="#FF914D"/>
<path d="M101.417 75.075H93.7999V74.2883C93.7999 74.2451 93.7512 74.2101 93.6911 74.2101H91.0795C91.0194 74.2101 90.9707 74.2451 90.9707 74.2883V75.075H89.3385V74.2883C89.3385 74.2451 89.2898 74.2101 89.2297 74.2101H86.6181C86.558 74.2101 86.5093 74.2451 86.5093 74.2883V75.075H84.8771V74.2883C84.8771 74.2451 84.8284 74.2101 84.7683 74.2101H82.1568C82.0967 74.2101 82.0479 74.2451 82.0479 74.2883V75.075H80.4157V74.2883C80.4157 74.2451 80.367 74.2101 80.3069 74.2101H77.6954C77.6353 74.2101 77.5865 74.2451 77.5865 74.2883V75.075H75.9543V74.2883C75.9543 74.2451 75.9056 74.2101 75.8455 74.2101H73.234C73.1739 74.2101 73.1252 74.2451 73.1252 74.2883V75.075H71.493V74.2883C71.493 74.2451 71.4442 74.2101 71.3841 74.2101H68.7726C68.7125 74.2101 68.6638 74.2451 68.6638 74.2883V75.075H67.0316V74.2883C67.0316 74.2451 66.9828 74.2101 66.9227 74.2101H46.4657C46.4056 74.2101 46.3568 74.2451 46.3568 74.2883V75.075H44.7246V74.2883C44.7246 74.2451 44.6759 74.2101 44.6158 74.2101H42.0043C41.9442 74.2101 41.8955 74.2451 41.8955 74.2883V75.075H40.2632V74.2883C40.2632 74.2451 40.2145 74.2101 40.1544 74.2101H37.5429C37.4828 74.2101 37.4341 74.2451 37.4341 74.2883V75.075H35.8019V74.2883C35.8019 74.2451 35.7531 74.2101 35.693 74.2101H33.0815C33.0214 74.2101 32.9727 74.2451 32.9727 74.2883V75.075H31.3405V74.2883C31.3405 74.2451 31.2917 74.2101 31.2316 74.2101H28.6201C28.56 74.2101 28.5113 74.2451 28.5113 74.2883V75.075H26.8791V74.2883C26.8791 74.2451 26.8304 74.2101 26.7703 74.2101H24.1587C24.0986 74.2101 24.0499 74.2451 24.0499 74.2883V75.075H22.4177V74.2883C22.4177 74.2451 22.369 74.2101 22.3089 74.2101H19.6973C19.6372 74.2101 19.5885 74.2451 19.5885 74.2883V75.075H14.5831C13.1407 75.075 11.9715 75.9155 11.9715 76.9524V77.8013C11.9715 78.8382 13.1407 79.6788 14.5831 79.6788H101.417C102.859 79.6788 104.028 78.8382 104.028 77.8013V76.9524C104.028 75.9155 102.859 75.075 101.417 75.075Z" fill="#3F3D56"/>
<path d="M49.1447 51.7088H26.6638C26.6168 51.7088 26.5718 51.6902 26.5386 51.657C26.5054 51.6238 26.4867 51.5788 26.4867 51.5318C26.4867 51.4849 26.5054 51.4398 26.5386 51.4066C26.5718 51.3734 26.6168 51.3548 26.6638 51.3548H49.1447C49.1917 51.3548 49.2367 51.3734 49.2699 51.4066C49.3031 51.4398 49.3218 51.4849 49.3218 51.5318C49.3218 51.5788 49.3031 51.6238 49.2699 51.657C49.2367 51.6902 49.1917 51.7088 49.1447 51.7088Z" fill="#F2F2F2"/>
<path d="M49.1447 55.6034H26.6638C26.6168 55.6034 26.5718 55.5848 26.5386 55.5516C26.5054 55.5184 26.4867 55.4733 26.4867 55.4264C26.4867 55.3794 26.5054 55.3344 26.5386 55.3012C26.5718 55.268 26.6168 55.2494 26.6638 55.2494H49.1447C49.1917 55.2494 49.2367 55.268 49.2699 55.3012C49.3031 55.3344 49.3218 55.3794 49.3218 55.4264C49.3218 55.4733 49.3031 55.5184 49.2699 55.5516C49.2367 55.5848 49.1917 55.6034 49.1447 55.6034Z" fill="#F2F2F2"/>
<path d="M49.1447 59.4979H26.6638C26.6405 59.498 26.6174 59.4935 26.5958 59.4846C26.5743 59.4758 26.5547 59.4627 26.5382 59.4463C26.5217 59.4298 26.5087 59.4103 26.4997 59.3888C26.4908 59.3673 26.4862 59.3442 26.4862 59.3209C26.4862 59.2976 26.4908 59.2746 26.4997 59.2531C26.5087 59.2315 26.5217 59.212 26.5382 59.1956C26.5547 59.1791 26.5743 59.1661 26.5958 59.1572C26.6174 59.1484 26.6405 59.1438 26.6638 59.1439H49.1447C49.168 59.1438 49.1911 59.1484 49.2126 59.1572C49.2342 59.1661 49.2538 59.1791 49.2703 59.1956C49.2867 59.212 49.2998 59.2315 49.3088 59.2531C49.3177 59.2746 49.3223 59.2976 49.3223 59.3209C49.3223 59.3442 49.3177 59.3673 49.3088 59.3888C49.2998 59.4103 49.2867 59.4298 49.2703 59.4463C49.2538 59.4627 49.2342 59.4758 49.2126 59.4846C49.1911 59.4935 49.168 59.498 49.1447 59.4979Z" fill="#F2F2F2"/>
<path d="M87.2916 41.5299H59.5002C59.2069 41.5299 58.9691 41.7677 58.9691 42.061V68.7917C58.9691 69.085 59.2069 69.3228 59.5002 69.3228H87.2916C87.5849 69.3228 87.8227 69.085 87.8227 68.7917V42.061C87.8227 41.7677 87.5849 41.5299 87.2916 41.5299Z" fill="white"/>
<path d="M64.7468 56.2388C64.842 54.5554 65.5319 52.9606 66.6936 51.7386C67.8552 50.5167 69.4131 49.747 71.0894 49.5669C72.7657 49.3867 74.4515 49.8078 75.8462 50.7551C77.241 51.7023 78.254 53.1141 78.7046 54.7388C78.7908 54.7357 78.8769 54.7323 78.9638 54.7323C79.2604 54.7351 79.5547 54.7852 79.8356 54.8806C83.3742 56.0426 82.4424 61.3261 78.7178 61.3261H69.5643C68.9169 61.328 68.2758 61.1991 67.6794 60.9474C67.083 60.6956 66.5435 60.326 66.0932 59.8609C65.6429 59.3957 65.2912 58.8444 65.059 58.2401C64.8267 57.6357 64.7189 56.9907 64.7418 56.3437C64.7432 56.3088 64.7449 56.2738 64.7468 56.2388Z" fill="#FF914D"/>
<path d="M73.0901 56.128V53.2161H71.5222V56.128H70.2704L71.2882 57.8912L72.3062 59.6542L73.324 57.8912L74.3418 56.128H73.0901Z" fill="white"/>
</g>
<defs>
<clipPath id="clip0_114_255">
<rect width="116" height="111" fill="white"/>
</clipPath>
</defs>
</svg>
