<svg width="57" height="57" viewBox="0 0 57 57" fill="none" xmlns="http://www.w3.org/2000/svg">
<path d="M28.5 3.5625C18.6664 3.5625 10.6875 10.7443 10.6875 19.5938C10.6875 33.8438 28.5 53.4375 28.5 53.4375C28.5 53.4375 46.3125 33.8438 46.3125 19.5938C46.3125 10.7443 38.3336 3.5625 28.5 3.5625ZM28.5 28.5C27.0908 28.5 25.7133 28.0821 24.5416 27.2992C23.3699 26.5163 22.4566 25.4035 21.9174 24.1016C21.3781 22.7997 21.237 21.3671 21.5119 19.985C21.7868 18.6029 22.4654 17.3333 23.4619 16.3369C24.4583 15.3404 25.7279 14.6618 27.11 14.3869C28.4921 14.112 29.9247 14.2531 31.2266 14.7924C32.5285 15.3316 33.6413 16.2449 34.4242 17.4166C35.2071 18.5883 35.625 19.9658 35.625 21.375C35.6229 23.264 34.8716 25.0751 33.5359 26.4109C32.2001 27.7466 30.389 28.4979 28.5 28.5Z" fill="black"/>
</svg>
