<svg width="42" height="40" viewBox="0 0 42 40" fill="none" xmlns="http://www.w3.org/2000/svg">
<path d="M41.5161 8.82018H33.017C33.2407 8.1886 33.383 7.4959 33.383 6.78283C33.383 3.40083 30.6584 0.670776 27.2832 0.670776C25.1483 0.670776 23.298 1.77095 22.2 3.4212L21.1834 4.78623L20.1667 3.40083C19.0688 1.77095 17.2185 0.670776 15.0836 0.670776C11.7083 0.670776 8.98374 3.40083 8.98374 6.78283C8.98374 7.4959 9.12607 8.1886 9.34973 8.82018H0.870972V39.3805H41.5161V8.82018ZM27.2832 4.74548C28.4015 4.74548 29.3165 5.66229 29.3165 6.78283C29.3165 7.90337 28.4015 8.82018 27.2832 8.82018C26.1649 8.82018 25.2499 7.90337 25.2499 6.78283C25.2499 5.66229 26.1649 4.74548 27.2832 4.74548ZM15.0836 4.74548C16.2019 4.74548 17.1168 5.66229 17.1168 6.78283C17.1168 7.90337 16.2019 8.82018 15.0836 8.82018C13.9653 8.82018 13.0503 7.90337 13.0503 6.78283C13.0503 5.66229 13.9653 4.74548 15.0836 4.74548ZM37.4496 35.3058H4.91719V31.2311H37.4496V35.3058ZM37.4496 25.119H4.91719V12.8949H15.2462L11.017 18.6606L14.3109 21.0443L21.1834 11.6725L28.0559 21.0443L31.3498 18.6606L27.1205 12.8949H37.4496V25.119Z" fill="#001E57"/>
</svg>
