<svg width="935" height="705" viewBox="0 0 935 705" fill="none" xmlns="http://www.w3.org/2000/svg">
<path d="M729.045 601.8C730.037 595.367 717.023 588.02 699.977 585.389C682.932 582.758 668.309 585.84 667.317 592.273C666.325 598.707 679.339 606.054 696.385 608.685C713.431 611.316 728.053 608.233 729.045 601.8Z" fill="#D1D3D4"/>
<path d="M503.809 591.106C509.659 560.601 431.993 520.056 330.337 500.546C228.681 481.036 141.531 489.948 135.681 520.452C129.831 550.957 207.498 591.502 309.153 611.012C410.809 630.523 497.96 621.61 503.809 591.106Z" fill="#D1D3D4"/>
<path d="M800.079 565.489H799.869L134.71 441.877C134.558 441.851 134.413 441.796 134.284 441.714C134.154 441.631 134.042 441.523 133.955 441.397C133.868 441.27 133.807 441.128 133.776 440.977C133.745 440.826 133.745 440.671 133.775 440.52C133.832 440.217 134.006 439.948 134.26 439.773C134.514 439.598 134.827 439.53 135.131 439.585L800.29 563.174C800.6 563.202 800.886 563.352 801.085 563.591C801.285 563.83 801.381 564.138 801.353 564.448C801.325 564.758 801.175 565.045 800.937 565.244C800.698 565.444 800.389 565.54 800.079 565.512V565.489Z" fill="#D1D3D4"/>
<path d="M435.079 69.4036L754.662 130.742V502.841L435.079 441.503V69.4036Z" fill="white"/>
<path d="M754.638 504.01H754.428L434.775 442.648C434.511 442.595 434.274 442.451 434.103 442.242C433.933 442.033 433.84 441.772 433.84 441.503V69.4035C433.838 69.2298 433.875 69.0578 433.947 68.9C434.02 68.7423 434.127 68.6027 434.261 68.4915C434.395 68.3861 434.549 68.309 434.714 68.2647C434.878 68.2205 435.05 68.2102 435.219 68.2343L754.872 129.573C755.138 129.631 755.376 129.779 755.546 129.992C755.716 130.205 755.808 130.469 755.807 130.742V502.841C755.813 503.012 755.777 503.182 755.704 503.336C755.631 503.491 755.522 503.626 755.386 503.73C755.181 503.914 754.914 504.014 754.638 504.01ZM436.248 440.52L753.47 501.321V131.701L436.248 70.9002V440.52Z" fill="#D1D3D4"/>
<path d="M576.521 427.542C576.253 427.538 575.994 427.443 575.786 427.273C575.578 427.103 575.433 426.869 575.375 426.606C573.552 417.58 574.955 408.834 576.544 400.626C578.882 388.115 582.271 373.897 590.803 363.374C595.057 357.879 600.904 353.834 607.545 351.791C614.185 349.748 621.294 349.808 627.899 351.962C628.045 352.013 628.179 352.092 628.295 352.194C628.41 352.297 628.504 352.421 628.571 352.56C628.639 352.699 628.678 352.85 628.687 353.004C628.696 353.158 628.674 353.313 628.624 353.459C628.573 353.605 628.494 353.739 628.392 353.854C628.289 353.97 628.165 354.064 628.026 354.131C627.887 354.199 627.736 354.238 627.582 354.247C627.428 354.256 627.274 354.234 627.128 354.184C620.976 352.183 614.357 352.134 608.177 354.043C601.996 355.952 596.556 359.726 592.603 364.847C584.422 374.949 581.219 388.84 578.835 401.07C577.292 409.044 575.937 417.44 577.666 426.139C577.697 426.289 577.698 426.444 577.669 426.595C577.639 426.746 577.581 426.889 577.496 427.018C577.411 427.146 577.302 427.256 577.175 427.342C577.048 427.428 576.905 427.488 576.755 427.518L576.521 427.542Z" fill="#D1D3D4"/>
<path d="M643.233 356.265C639.727 356.181 636.236 355.766 632.808 355.026C625.696 353.856 618.761 351.79 612.168 348.875C597.529 341.391 586.173 328.756 580.284 313.401C574.721 299.37 573.88 285.128 573.085 271.448C573.077 271.141 573.187 270.842 573.391 270.612C573.594 270.383 573.878 270.238 574.183 270.209C574.492 270.196 574.794 270.303 575.025 270.508C575.256 270.713 575.398 271 575.422 271.308C576.217 284.824 577.035 298.785 582.435 312.535C588.097 327.344 599.038 339.531 613.15 346.747C619.562 349.587 626.309 351.599 633.229 352.734C637.762 353.837 642.455 354.13 647.09 353.599C647.244 353.573 647.401 353.577 647.552 353.612C647.704 353.647 647.848 353.711 647.975 353.801C648.102 353.891 648.21 354.005 648.293 354.137C648.375 354.269 648.431 354.416 648.458 354.57C648.484 354.723 648.479 354.88 648.445 355.032C648.41 355.184 648.346 355.328 648.256 355.455C648.166 355.582 648.051 355.69 647.92 355.773C647.788 355.855 647.641 355.911 647.487 355.938C646.081 356.163 644.658 356.273 643.233 356.265Z" fill="#D1D3D4"/>
<path d="M593.304 206.742C592.998 206.736 592.707 206.61 592.493 206.392C592.279 206.173 592.159 205.879 592.159 205.573C592.156 194.54 593.491 183.547 596.132 172.834C597.628 166.754 599.849 159.949 604.805 155.553C613.43 147.906 627.034 149.567 640.218 151.952C642.719 152.396 646.155 153.332 647.487 156.231C647.614 156.514 647.623 156.834 647.514 157.124C647.404 157.413 647.185 157.647 646.903 157.775C646.624 157.903 646.305 157.916 646.016 157.811C645.728 157.706 645.492 157.491 645.36 157.213C644.495 155.296 641.784 154.594 639.82 154.244C627.174 151.905 614.108 150.338 606.347 157.307C601.859 161.282 599.802 167.666 598.4 173.396C595.802 183.948 594.491 194.776 594.496 205.643C594.478 205.945 594.344 206.228 594.122 206.433C593.899 206.638 593.606 206.749 593.304 206.742Z" fill="#D1D3D4"/>
<path d="M582.972 211.069C582.819 211.06 582.669 211.021 582.53 210.953C582.392 210.886 582.268 210.792 582.166 210.677C582.064 210.562 581.986 210.428 581.935 210.282C581.885 210.137 581.864 209.983 581.874 209.829V209.549C582.996 188.502 584.679 156.559 558.849 145.802C551.983 143.273 544.802 141.699 537.508 141.125C537.355 141.106 537.206 141.058 537.072 140.982C536.937 140.906 536.818 140.805 536.723 140.683C536.627 140.561 536.557 140.422 536.515 140.273C536.473 140.124 536.461 139.969 536.48 139.815C536.498 139.662 536.546 139.513 536.622 139.378C536.698 139.244 536.8 139.125 536.921 139.03C537.043 138.934 537.182 138.863 537.331 138.822C537.479 138.78 537.635 138.768 537.789 138.786C545.293 139.364 552.681 140.985 559.738 143.604C587.086 155.015 585.45 187.894 584.211 209.642V209.853C584.218 210.016 584.191 210.179 584.13 210.332C584.07 210.484 583.979 210.622 583.862 210.736C583.745 210.851 583.606 210.94 583.453 210.997C583.299 211.054 583.136 211.079 582.972 211.069Z" fill="#D1D3D4"/>
<path d="M689.072 310.478L511.211 276.359V178.798L689.072 212.939V310.478Z" fill="white"/>
<path d="M689.072 311.647H688.861L511.001 277.528C510.731 277.474 510.487 277.328 510.313 277.115C510.138 276.902 510.043 276.635 510.042 276.359V178.798C510.042 178.628 510.08 178.46 510.153 178.306C510.226 178.152 510.332 178.017 510.463 177.909C510.599 177.799 510.757 177.72 510.927 177.675C511.096 177.631 511.272 177.623 511.445 177.652L689.282 211.794C689.55 211.843 689.793 211.984 689.968 212.193C690.143 212.403 690.239 212.667 690.24 212.939V310.407C690.238 310.58 690.199 310.751 690.126 310.908C690.054 311.065 689.949 311.205 689.82 311.319C689.615 311.512 689.351 311.627 689.072 311.647ZM512.38 275.33L687.903 309.028V213.898L512.38 180.224V275.33Z" fill="#D1D3D4"/>
<path d="M656.674 239.809L543.609 218.107C541.454 217.646 539.516 216.473 538.108 214.776C536.701 213.079 535.905 210.958 535.848 208.754C535.811 207.785 536 206.821 536.4 205.939C536.801 205.056 537.402 204.28 538.156 203.671C538.91 203.062 539.795 202.638 540.742 202.432C541.689 202.227 542.671 202.245 543.609 202.486L656.674 224.188C658.832 224.648 660.772 225.821 662.184 227.517C663.595 229.213 664.396 231.335 664.458 233.541C664.492 234.511 664.299 235.475 663.896 236.357C663.492 237.239 662.889 238.015 662.133 238.624C661.378 239.232 660.491 239.656 659.544 239.861C658.596 240.067 657.613 240.049 656.674 239.809Z" fill="white"/>
<path d="M658.17 241.142C657.596 241.136 657.024 241.073 656.463 240.954L543.398 219.207C540.998 218.685 538.838 217.379 537.26 215.495C535.682 213.612 534.774 211.257 534.68 208.8C534.641 207.671 534.859 206.549 535.317 205.516C535.774 204.483 536.459 203.567 537.321 202.837C538.224 202.119 539.276 201.61 540.4 201.348C541.523 201.085 542.691 201.074 543.819 201.317L656.837 223.135C659.236 223.661 661.394 224.967 662.971 226.85C664.549 228.733 665.458 231.087 665.556 233.542C665.581 234.664 665.355 235.778 664.894 236.802C664.432 237.825 663.748 238.733 662.891 239.458C661.56 240.549 659.891 241.144 658.17 241.142ZM656.907 238.663C657.712 238.862 658.551 238.875 659.361 238.701C660.171 238.526 660.931 238.17 661.582 237.657C662.167 237.147 662.632 236.513 662.943 235.801C663.255 235.09 663.405 234.318 663.382 233.542C663.306 231.623 662.594 229.785 661.358 228.315C660.122 226.846 658.433 225.83 656.557 225.427L543.492 203.726C542.688 203.523 541.848 203.508 541.037 203.683C540.226 203.857 539.467 204.216 538.817 204.731C538.228 205.239 537.76 205.872 537.449 206.584C537.137 207.297 536.99 208.07 537.017 208.847C537.109 210.747 537.825 212.564 539.055 214.014C540.285 215.465 541.96 216.468 543.819 216.868L656.907 238.663Z" fill="#D1D3D4"/>
<path d="M656.674 263.264L543.609 241.562C541.454 241.101 539.516 239.928 538.108 238.231C536.701 236.534 535.905 234.413 535.848 232.209C535.807 231.238 535.993 230.271 536.392 229.386C536.791 228.501 537.392 227.721 538.146 227.109C538.901 226.498 539.788 226.072 540.736 225.865C541.685 225.658 542.669 225.676 543.609 225.918L656.674 247.643C658.832 248.103 660.772 249.276 662.184 250.972C663.595 252.668 664.396 254.79 664.458 256.996C664.492 257.966 664.299 258.93 663.896 259.812C663.492 260.694 662.889 261.47 662.133 262.079C661.378 262.687 660.491 263.111 659.544 263.316C658.596 263.522 657.613 263.504 656.674 263.264Z" fill="white"/>
<path d="M658.17 264.573C657.597 264.576 657.025 264.521 656.463 264.409L543.398 242.708C540.998 242.186 538.838 240.881 537.26 238.997C535.682 237.113 534.774 234.758 534.68 232.302C534.649 231.181 534.87 230.067 535.327 229.043C535.784 228.019 536.466 227.111 537.321 226.386C538.221 225.662 539.273 225.149 540.397 224.886C541.522 224.623 542.691 224.616 543.819 224.866L656.837 246.567C659.236 247.101 661.392 248.413 662.969 250.299C664.546 252.185 665.455 254.54 665.556 256.996C665.579 258.119 665.352 259.232 664.891 260.256C664.43 261.279 663.747 262.187 662.891 262.913C661.558 263.997 659.889 264.584 658.17 264.573ZM656.907 262.118C657.712 262.317 658.551 262.33 659.361 262.156C660.171 261.981 660.931 261.625 661.582 261.112C662.165 260.6 662.628 259.965 662.939 259.254C663.25 258.543 663.401 257.772 663.382 256.996C663.31 255.077 662.599 253.236 661.363 251.766C660.126 250.297 658.435 249.281 656.557 248.882L543.492 227.181C542.688 226.978 541.848 226.963 541.037 227.138C540.226 227.312 539.467 227.671 538.817 228.186C538.228 228.694 537.761 229.327 537.449 230.039C537.137 230.752 536.99 231.525 537.017 232.302C537.088 234.219 537.796 236.057 539.028 237.526C540.259 238.996 541.945 240.013 543.819 240.417L656.907 262.118Z" fill="#D1D3D4"/>
<path d="M656.674 286.719L543.609 265.017C541.455 264.552 539.52 263.378 538.113 261.682C536.706 259.986 535.909 257.867 535.848 255.663C535.807 254.693 535.993 253.726 536.392 252.841C536.791 251.955 537.392 251.176 538.146 250.564C538.901 249.953 539.788 249.527 540.736 249.32C541.685 249.113 542.669 249.131 543.609 249.373L656.674 271.074C658.828 271.542 660.764 272.717 662.174 274.412C663.584 276.106 664.388 278.224 664.458 280.428C664.495 281.399 664.306 282.366 663.904 283.252C663.502 284.137 662.899 284.916 662.143 285.527C661.387 286.138 660.499 286.564 659.55 286.77C658.6 286.977 657.615 286.96 656.674 286.719Z" fill="white"/>
<path d="M658.17 288.028C657.597 288.03 657.025 287.976 656.463 287.864L543.398 266.163C540.998 265.641 538.838 264.336 537.26 262.452C535.682 260.568 534.774 258.213 534.68 255.757C534.649 254.636 534.87 253.522 535.327 252.498C535.784 251.474 536.466 250.566 537.321 249.841C538.221 249.117 539.273 248.604 540.397 248.341C541.522 248.078 542.691 248.071 543.819 248.321L656.837 270.022C659.235 270.551 661.39 271.859 662.967 273.741C664.544 275.623 665.454 277.974 665.556 280.428C665.584 281.551 665.36 282.666 664.898 283.69C664.437 284.714 663.751 285.622 662.891 286.344C661.565 287.444 659.893 288.041 658.17 288.028ZM656.907 285.573C657.714 285.769 658.554 285.778 659.364 285.6C660.174 285.421 660.933 285.06 661.582 284.544C662.169 284.034 662.635 283.401 662.946 282.689C663.257 281.977 663.406 281.205 663.382 280.428C663.302 278.511 662.588 276.674 661.353 275.206C660.118 273.738 658.431 272.72 656.557 272.313L543.492 250.612C542.686 250.413 541.845 250.402 541.034 250.58C540.223 250.759 539.465 251.122 538.817 251.641C538.227 252.148 537.758 252.781 537.447 253.493C537.135 254.206 536.988 254.98 537.017 255.757C537.092 257.672 537.801 259.508 539.032 260.977C540.263 262.446 541.947 263.464 543.819 263.872L656.907 285.573Z" fill="#D1D3D4"/>
<path d="M729.3 389.939L624.58 369.852V318.218L729.3 338.329V389.939Z" fill="white"/>
<path d="M729.3 391.108H729.066L624.37 371.021C624.099 370.976 623.854 370.836 623.678 370.626C623.502 370.415 623.408 370.149 623.411 369.875V318.218C623.411 318.048 623.449 317.88 623.521 317.726C623.594 317.572 623.7 317.437 623.832 317.329C623.961 317.216 624.115 317.133 624.281 317.089C624.447 317.044 624.622 317.039 624.79 317.072L729.51 337.183C729.781 337.228 730.026 337.368 730.202 337.578C730.378 337.788 730.472 338.055 730.469 338.329V389.916C730.466 390.089 730.427 390.259 730.355 390.416C730.282 390.573 730.178 390.713 730.048 390.828C729.836 391 729.573 391.098 729.3 391.108ZM625.749 368.869L728.131 388.513V339.288L625.749 319.761V368.869Z" fill="#D1D3D4"/>
<path d="M537.438 166.497L460.417 151.718V109.181L537.438 123.96V166.497Z" fill="white"/>
<path d="M537.438 167.76H537.204L460.207 152.981C459.937 152.936 459.691 152.796 459.515 152.586C459.34 152.375 459.245 152.109 459.249 151.835V109.298C459.248 109.125 459.287 108.955 459.365 108.801C459.442 108.646 459.554 108.512 459.693 108.409C459.821 108.294 459.975 108.211 460.141 108.166C460.308 108.122 460.482 108.117 460.651 108.152L537.625 122.814C537.893 122.864 538.136 123.005 538.311 123.214C538.486 123.424 538.582 123.687 538.583 123.96V166.497C538.583 166.807 538.46 167.105 538.241 167.324C538.022 167.543 537.725 167.667 537.415 167.667L537.438 167.76ZM461.586 150.853L536.269 165.188V124.942L461.586 110.608V150.853Z" fill="#D1D3D4"/>
<path d="M666.444 368.869H666.187L634.958 362.883C634.69 362.834 634.447 362.692 634.272 362.483C634.097 362.274 634.001 362.01 634 361.737V330.542C634.002 330.366 634.044 330.194 634.12 330.036C634.197 329.878 634.308 329.74 634.444 329.63C634.576 329.522 634.731 329.445 634.897 329.404C635.063 329.364 635.235 329.361 635.402 329.396L666.631 335.382C666.898 335.432 667.137 335.574 667.309 335.784C667.48 335.994 667.571 336.257 667.566 336.528V367.77C667.568 367.944 667.532 368.116 667.459 368.274C667.386 368.431 667.279 368.571 667.146 368.682C666.936 368.815 666.692 368.88 666.444 368.869ZM636.384 360.731L665.276 366.274V337.487L636.384 331.945V360.731Z" fill="#D1D3D4"/>
<path d="M656.273 352.2C659.006 349.716 658.786 345.022 655.782 341.715C652.778 338.407 648.128 337.74 645.395 340.224C642.662 342.708 642.882 347.403 645.886 350.71C648.89 354.017 653.54 354.685 656.273 352.2Z" fill="white"/>
<path d="M652.162 354.838C651.614 354.837 651.067 354.79 650.526 354.698C648.237 354.197 646.18 352.948 644.678 351.149C643.176 349.35 642.314 347.102 642.228 344.76C642.191 343.69 642.399 342.626 642.837 341.649C643.275 340.672 643.93 339.808 644.753 339.124C645.615 338.432 646.621 337.943 647.697 337.692C648.773 337.441 649.891 337.435 650.97 337.674C653.255 338.174 655.31 339.42 656.812 341.214C658.314 343.008 659.178 345.251 659.268 347.589C659.292 348.66 659.078 349.724 658.641 350.702C658.205 351.681 657.557 352.55 656.744 353.248C655.449 354.298 653.828 354.86 652.162 354.838ZM649.334 339.849C648.7 339.848 648.072 339.976 647.489 340.226C646.906 340.475 646.38 340.841 645.943 341.3C645.506 341.76 645.166 342.303 644.945 342.898C644.725 343.493 644.627 344.126 644.659 344.76C644.732 346.56 645.401 348.286 646.56 349.666C647.719 351.046 649.303 352.001 651.064 352.383C651.801 352.562 652.569 352.57 653.31 352.408C654.051 352.246 654.746 351.918 655.341 351.448C655.889 350.968 656.324 350.374 656.615 349.707C656.906 349.04 657.046 348.317 657.024 347.589C656.947 345.789 656.278 344.066 655.119 342.687C653.961 341.308 652.379 340.351 650.62 339.966C650.226 339.9 649.827 339.869 649.428 339.872L649.334 339.849Z" fill="#D1D3D4"/>
<path d="M646.435 352.71L655.248 354.418C658.332 355.081 661.108 356.754 663.136 359.172C665.164 361.591 666.328 364.616 666.444 367.77L635.215 361.854C635.15 360.448 635.414 359.045 635.988 357.76C636.563 356.474 637.43 355.342 638.521 354.452C639.612 353.563 640.897 352.942 642.271 352.64C643.646 352.337 645.072 352.361 646.435 352.71Z" fill="white"/>
<path d="M666.444 368.869H666.187L634.958 362.883C634.69 362.834 634.447 362.692 634.272 362.483C634.097 362.274 634.001 362.01 634 361.737C633.959 360.194 634.265 358.661 634.896 357.252C635.527 355.844 636.467 354.595 637.647 353.599C638.889 352.606 640.338 351.904 641.887 351.543C643.436 351.183 645.046 351.175 646.599 351.518L655.412 353.225C658.757 353.953 661.766 355.772 663.966 358.396C666.166 361.02 667.432 364.301 667.567 367.723C667.569 367.897 667.532 368.069 667.459 368.227C667.386 368.385 667.279 368.524 667.146 368.635C666.942 368.784 666.697 368.866 666.444 368.869ZM636.431 360.755L665.182 366.274C664.77 363.665 663.581 361.241 661.772 359.318C659.962 357.395 657.615 356.062 655.038 355.493L646.202 353.786C644.989 353.505 643.728 353.501 642.513 353.777C641.299 354.052 640.162 354.599 639.189 355.376C638.387 356.053 637.73 356.884 637.256 357.82C636.782 358.756 636.501 359.778 636.431 360.825V360.755Z" fill="#D1D3D4"/>
<path d="M528.018 157.728H527.784L468.762 146.41C468.492 146.356 468.249 146.21 468.074 145.996C467.899 145.783 467.804 145.516 467.804 145.24V117.927C467.806 117.754 467.845 117.584 467.918 117.426C467.99 117.269 468.095 117.129 468.224 117.015C468.358 116.91 468.513 116.835 468.678 116.794C468.844 116.754 469.016 116.749 469.183 116.781L528.275 128.006C528.543 128.055 528.786 128.196 528.961 128.406C529.136 128.615 529.232 128.879 529.233 129.152V156.559C529.231 156.732 529.192 156.902 529.119 157.059C529.047 157.216 528.942 157.357 528.812 157.471C528.584 157.644 528.304 157.735 528.018 157.728ZM470.141 144.375L526.849 155.249V130.344L470.141 119.447V144.375Z" fill="#D1D3D4"/>
<path d="M468.973 146.386C468.719 146.39 468.471 146.31 468.268 146.157C468.065 146.005 467.918 145.789 467.851 145.544C467.808 145.396 467.796 145.24 467.814 145.086C467.832 144.932 467.881 144.783 467.957 144.648C468.033 144.513 468.135 144.395 468.257 144.3C468.379 144.205 468.519 144.135 468.669 144.095L527.714 128.123C528.012 128.044 528.328 128.086 528.595 128.239C528.862 128.392 529.058 128.644 529.14 128.941C529.178 129.09 529.186 129.245 529.163 129.398C529.139 129.55 529.086 129.695 529.005 129.826C528.924 129.957 528.818 130.071 528.693 130.16C528.567 130.249 528.425 130.311 528.275 130.344L469.23 146.34L468.973 146.386Z" fill="#D1D3D4"/>
<path d="M528.018 157.728C527.794 157.727 527.575 157.662 527.387 157.541L468.341 118.886C468.19 118.815 468.055 118.713 467.947 118.585C467.838 118.458 467.758 118.309 467.712 118.148C467.666 117.987 467.655 117.818 467.68 117.653C467.705 117.487 467.765 117.329 467.856 117.189C467.947 117.048 468.068 116.929 468.209 116.84C468.35 116.75 468.509 116.691 468.674 116.668C468.84 116.645 469.009 116.658 469.169 116.706C469.329 116.753 469.478 116.835 469.604 116.945L528.649 155.577C528.909 155.744 529.092 156.008 529.158 156.311C529.223 156.613 529.166 156.93 529 157.19C528.892 157.353 528.747 157.488 528.576 157.581C528.405 157.675 528.213 157.726 528.018 157.728Z" fill="#D1D3D4"/>
<path d="M717.285 198.675L636.571 183.194V120.967L717.285 136.448V198.675Z" fill="white"/>
<path d="M717.285 199.844H717.075L636.361 184.363C636.091 184.318 635.845 184.178 635.67 183.968C635.494 183.758 635.399 183.491 635.403 183.217V120.99C635.405 120.815 635.446 120.642 635.523 120.485C635.6 120.327 635.71 120.188 635.847 120.078C635.979 119.97 636.134 119.893 636.3 119.853C636.465 119.812 636.638 119.81 636.805 119.845L717.613 135.302C717.877 135.356 718.114 135.499 718.284 135.708C718.455 135.917 718.548 136.178 718.548 136.448V198.675C718.545 198.848 718.506 199.018 718.434 199.175C718.361 199.332 718.257 199.472 718.127 199.587C717.888 199.775 717.588 199.866 717.285 199.844ZM637.81 182.235L716.187 197.272V137.36L637.81 122.3V182.235Z" fill="#D1D3D4"/>
<path d="M696.949 182.937L656.837 175.267C655.061 174.883 653.462 173.919 652.294 172.526C651.125 171.133 650.454 169.39 650.386 167.573C650.357 166.769 650.516 165.97 650.85 165.238C651.184 164.507 651.684 163.863 652.311 163.359C652.937 162.855 653.673 162.504 654.458 162.334C655.244 162.165 656.059 162.181 656.837 162.381L696.949 170.098C698.723 170.482 700.319 171.448 701.483 172.841C702.648 174.235 703.314 175.977 703.377 177.792C703.403 178.591 703.242 179.385 702.907 180.111C702.573 180.836 702.074 181.474 701.45 181.973C700.826 182.473 700.094 182.82 699.313 182.987C698.532 183.154 697.722 183.137 696.949 182.937Z" fill="white"/>
<path d="M698.164 184.129C697.678 184.128 697.193 184.081 696.715 183.989L656.837 176.412C654.797 175.975 652.961 174.867 651.622 173.265C650.284 171.664 649.519 169.66 649.451 167.573C649.432 166.609 649.633 165.653 650.038 164.778C650.443 163.903 651.042 163.131 651.788 162.522C652.556 161.906 653.453 161.47 654.412 161.248C655.371 161.025 656.368 161.021 657.328 161.236L697.346 168.906C699.387 169.343 701.223 170.451 702.561 172.053C703.9 173.655 704.664 175.659 704.733 177.745C704.753 178.605 704.596 179.46 704.271 180.257C703.945 181.053 703.459 181.773 702.842 182.373C702.226 182.972 701.492 183.438 700.687 183.74C699.882 184.042 699.023 184.175 698.164 184.129ZM655.715 163.34C655.17 163.316 654.625 163.407 654.117 163.608C653.61 163.809 653.15 164.114 652.768 164.505C652.386 164.896 652.091 165.363 651.902 165.875C651.713 166.388 651.635 166.934 651.672 167.479C651.737 169.021 652.308 170.497 653.297 171.681C654.286 172.865 655.637 173.689 657.141 174.027L697.159 181.791C697.784 181.939 698.434 181.944 699.061 181.807C699.689 181.669 700.277 181.392 700.782 180.996C701.249 180.596 701.619 180.096 701.866 179.533C702.113 178.971 702.23 178.36 702.208 177.745C702.142 176.201 701.567 174.722 700.574 173.538C699.58 172.354 698.224 171.531 696.715 171.198L656.837 163.527C656.468 163.454 656.092 163.423 655.715 163.434V163.34Z" fill="#D1D3D4"/>
<path d="M713.568 350.021H713.358L681.451 343.894C681.3 343.869 681.156 343.814 681.027 343.731C680.898 343.648 680.788 343.54 680.703 343.413C680.617 343.286 680.559 343.143 680.531 342.992C680.503 342.842 680.506 342.687 680.54 342.538C680.596 342.235 680.771 341.966 681.025 341.791C681.279 341.616 681.592 341.548 681.895 341.603L713.779 347.823C714.089 347.851 714.375 348.001 714.575 348.24C714.774 348.479 714.87 348.787 714.842 349.097C714.815 349.408 714.665 349.694 714.426 349.893C714.187 350.093 713.878 350.189 713.568 350.161V350.021Z" fill="#D1D3D4"/>
<path d="M713.568 362.368H713.358L681.451 356.242C681.3 356.217 681.156 356.161 681.027 356.078C680.898 355.996 680.788 355.887 680.703 355.76C680.617 355.633 680.559 355.49 680.531 355.34C680.503 355.189 680.506 355.035 680.54 354.885C680.596 354.582 680.771 354.313 681.025 354.138C681.279 353.963 681.592 353.895 681.895 353.95L713.779 360.077C714.089 360.105 714.375 360.255 714.575 360.494C714.774 360.733 714.87 361.041 714.842 361.351C714.815 361.661 714.665 361.948 714.426 362.147C714.187 362.347 713.878 362.443 713.568 362.415V362.368Z" fill="#D1D3D4"/>
<path d="M713.568 374.716H713.358L681.451 368.589C681.3 368.564 681.156 368.508 681.027 368.426C680.898 368.343 680.788 368.235 680.703 368.108C680.617 367.98 680.559 367.837 680.531 367.687C680.503 367.536 680.506 367.382 680.54 367.232C680.596 366.929 680.771 366.66 681.025 366.485C681.279 366.31 681.592 366.242 681.895 366.297L713.779 372.424C714.089 372.452 714.375 372.602 714.575 372.841C714.774 373.08 714.87 373.388 714.842 373.698C714.815 374.008 714.665 374.295 714.426 374.494C714.187 374.694 713.878 374.79 713.568 374.762V374.716Z" fill="#D1D3D4"/>
<path d="M697.51 145.872H697.276L656.136 137.968C655.985 137.943 655.841 137.887 655.712 137.805C655.584 137.722 655.473 137.614 655.388 137.487C655.302 137.36 655.244 137.216 655.216 137.066C655.188 136.915 655.191 136.761 655.225 136.611C655.282 136.308 655.456 136.04 655.71 135.864C655.964 135.689 656.277 135.621 656.58 135.676L697.72 143.58C698.024 143.637 698.292 143.811 698.467 144.066C698.642 144.32 698.71 144.633 698.655 144.936C698.598 145.199 698.453 145.434 698.245 145.603C698.037 145.773 697.778 145.868 697.51 145.872Z" fill="#D1D3D4"/>
<path d="M614.529 457.732L552.515 445.829V381.801L614.529 393.704V457.732Z" fill="white"/>
<path d="M614.529 458.901H614.295L552.304 446.998C552.036 446.949 551.793 446.807 551.618 446.598C551.443 446.389 551.347 446.125 551.346 445.852V381.801C551.346 381.631 551.383 381.463 551.456 381.309C551.529 381.156 551.635 381.02 551.767 380.912C551.896 380.799 552.05 380.717 552.216 380.672C552.382 380.628 552.556 380.622 552.725 380.655L614.762 392.558C615.031 392.607 615.273 392.749 615.448 392.958C615.623 393.167 615.72 393.431 615.721 393.704V457.732C615.721 458.042 615.598 458.339 615.378 458.558C615.159 458.778 614.862 458.901 614.552 458.901H614.529ZM553.754 444.87L613.43 456.328V394.593L553.754 383.134V444.87Z" fill="#D1D3D4"/>
<path d="M604.01 409.793H603.8L562.8 401.935C562.649 401.905 562.506 401.845 562.379 401.759C562.252 401.673 562.143 401.563 562.058 401.435C561.974 401.306 561.915 401.163 561.886 401.012C561.857 400.861 561.857 400.706 561.888 400.556C561.916 400.406 561.974 400.264 562.057 400.137C562.141 400.009 562.249 399.9 562.375 399.815C562.501 399.731 562.643 399.672 562.792 399.642C562.941 399.613 563.095 399.613 563.244 399.644L604.22 407.501C604.523 407.558 604.792 407.732 604.967 407.986C605.142 408.241 605.21 408.554 605.155 408.857C605.097 409.119 604.953 409.354 604.745 409.524C604.537 409.694 604.278 409.789 604.01 409.793Z" fill="#D1D3D4"/>
<path d="M604.01 424.993H603.8L562.8 417.136C562.649 417.105 562.506 417.045 562.379 416.959C562.252 416.873 562.143 416.763 562.058 416.635C561.974 416.507 561.915 416.363 561.886 416.212C561.857 416.061 561.857 415.906 561.888 415.756C561.916 415.606 561.974 415.464 562.057 415.337C562.141 415.21 562.249 415.1 562.375 415.016C562.501 414.931 562.643 414.872 562.792 414.842C562.941 414.813 563.095 414.813 563.244 414.844L604.22 422.654C604.523 422.711 604.792 422.886 604.967 423.14C605.142 423.394 605.21 423.707 605.155 424.011C605.107 424.281 604.966 424.527 604.758 424.706C604.549 424.885 604.285 424.986 604.01 424.993Z" fill="#D1D3D4"/>
<path d="M591.995 437.644H591.785L562.8 432.008C562.49 431.949 562.216 431.77 562.038 431.509C561.861 431.248 561.794 430.927 561.853 430.617C561.912 430.307 562.092 430.033 562.353 429.855C562.613 429.678 562.934 429.611 563.244 429.67L592.229 435.235C592.381 435.263 592.526 435.321 592.655 435.406C592.783 435.492 592.894 435.602 592.979 435.731C593.064 435.86 593.122 436.004 593.15 436.156C593.178 436.308 593.175 436.464 593.141 436.615C593.112 436.898 592.978 437.161 592.766 437.351C592.555 437.541 592.28 437.646 591.995 437.644Z" fill="#D1D3D4"/>
<path d="M515.746 345.485H515.512L470.539 336.856C470.234 336.793 469.965 336.614 469.79 336.356C469.616 336.098 469.549 335.782 469.604 335.476C469.634 335.325 469.694 335.182 469.78 335.055C469.866 334.928 469.976 334.819 470.105 334.734C470.233 334.649 470.376 334.591 470.527 334.562C470.678 334.532 470.833 334.533 470.983 334.564L515.956 343.146C516.26 343.203 516.528 343.377 516.703 343.632C516.878 343.886 516.946 344.199 516.891 344.502C516.843 344.773 516.703 345.019 516.494 345.198C516.285 345.377 516.021 345.478 515.746 345.485Z" fill="#D1D3D4"/>
<path d="M515.746 361.223H515.512L470.539 352.5C470.235 352.443 469.967 352.269 469.792 352.015C469.617 351.76 469.549 351.447 469.604 351.144C469.666 350.838 469.845 350.57 470.103 350.395C470.361 350.22 470.676 350.153 470.983 350.208L515.956 358.837C516.26 358.894 516.528 359.069 516.703 359.323C516.878 359.577 516.946 359.89 516.891 360.194C516.853 360.473 516.717 360.729 516.507 360.918C516.297 361.106 516.028 361.214 515.746 361.223Z" fill="#D1D3D4"/>
<path d="M515.746 376.937H515.512L470.539 368.308C470.235 368.251 469.967 368.077 469.792 367.823C469.617 367.569 469.549 367.256 469.604 366.952C469.666 366.647 469.845 366.378 470.103 366.203C470.361 366.028 470.676 365.961 470.983 366.016L515.956 374.645C516.261 374.708 516.53 374.887 516.705 375.145C516.879 375.403 516.946 375.719 516.891 376.025C516.833 376.285 516.687 376.517 516.479 376.683C516.271 376.849 516.012 376.938 515.746 376.937Z" fill="#D1D3D4"/>
<path d="M515.746 392.675H515.512L470.539 384.046C470.385 384.017 470.239 383.958 470.108 383.872C469.978 383.786 469.865 383.676 469.777 383.547C469.689 383.417 469.628 383.272 469.596 383.119C469.564 382.966 469.563 382.808 469.592 382.655C469.621 382.501 469.68 382.355 469.766 382.224C469.852 382.093 469.962 381.981 470.091 381.893C470.22 381.805 470.366 381.743 470.519 381.712C470.672 381.68 470.829 381.678 470.983 381.708L515.956 390.36C516.259 390.417 516.528 390.591 516.703 390.845C516.878 391.099 516.946 391.413 516.891 391.716C516.838 391.983 516.696 392.223 516.487 392.397C516.279 392.572 516.017 392.67 515.746 392.675Z" fill="#D1D3D4"/>
<path d="M515.746 408.39H515.512L470.539 399.737C470.385 399.708 470.239 399.649 470.108 399.563C469.978 399.478 469.865 399.367 469.777 399.238C469.689 399.109 469.628 398.963 469.596 398.81C469.564 398.657 469.563 398.499 469.592 398.346C469.621 398.192 469.68 398.046 469.766 397.915C469.852 397.785 469.962 397.672 470.091 397.584C470.22 397.496 470.366 397.435 470.519 397.403C470.672 397.371 470.829 397.37 470.983 397.399L515.956 406.028C516.259 406.085 516.528 406.259 516.703 406.513C516.878 406.767 516.946 407.08 516.891 407.384C516.848 407.659 516.709 407.91 516.5 408.094C516.291 408.278 516.024 408.382 515.746 408.39Z" fill="#D1D3D4"/>
<path d="M498.495 420.807H498.285L470.539 415.475C470.235 415.418 469.967 415.244 469.792 414.99C469.617 414.736 469.549 414.423 469.604 414.119C469.666 413.814 469.845 413.545 470.103 413.37C470.361 413.195 470.676 413.128 470.983 413.184L498.706 418.515C499.016 418.543 499.302 418.693 499.501 418.932C499.701 419.171 499.797 419.48 499.769 419.79C499.741 420.1 499.591 420.386 499.352 420.586C499.114 420.785 498.805 420.882 498.495 420.854V420.807Z" fill="#D1D3D4"/>
<path d="M604.01 122.534H603.8L577.362 117.413C577.059 117.356 576.791 117.181 576.616 116.927C576.44 116.673 576.373 116.36 576.427 116.056C576.49 115.751 576.669 115.482 576.927 115.307C577.184 115.133 577.5 115.066 577.807 115.121L604.29 120.219C604.594 120.276 604.862 120.45 605.037 120.704C605.212 120.958 605.28 121.271 605.225 121.575C605.17 121.853 605.017 122.103 604.794 122.279C604.572 122.454 604.293 122.545 604.01 122.534Z" fill="#D1D3D4"/>
<path d="M604.01 132.426H603.799L577.362 127.328C577.209 127.299 577.063 127.239 576.932 127.154C576.801 127.068 576.689 126.957 576.601 126.828C576.513 126.699 576.451 126.554 576.42 126.401C576.388 126.248 576.387 126.09 576.416 125.936C576.445 125.783 576.504 125.636 576.59 125.506C576.675 125.375 576.786 125.263 576.915 125.175C577.044 125.087 577.189 125.025 577.342 124.993C577.495 124.961 577.653 124.96 577.806 124.989L604.29 130.087C604.594 130.144 604.862 130.318 605.037 130.573C605.212 130.827 605.28 131.14 605.225 131.443C605.175 131.726 605.024 131.981 604.801 132.162C604.578 132.342 604.297 132.436 604.01 132.426Z" fill="#D1D3D4"/>
<path d="M708.263 458.831C707.955 454.412 708.895 449.996 710.974 446.086C712.68 443.256 715.298 440.988 716.701 437.995C719.038 432.827 717.402 426.723 717.987 421.041C718.474 416.267 720.577 411.804 723.947 408.39C726.916 405.373 730.749 403.315 733.578 400.182C738.253 395.037 739.585 387.788 742.226 381.474C746 372.383 752.544 364.715 760.926 359.562C755.831 369.781 767.401 382.76 762.165 392.909C760.506 396.113 757.327 398.451 756.111 401.865C753.166 410.097 762.983 419.006 759.828 427.144C758.262 431.213 753.914 433.575 751.88 437.434C749.145 442.648 751.296 448.962 751.086 454.855C750.758 462.946 745.826 470.219 739.982 475.902C736.313 479.386 732.269 482.426 728.295 485.583C723.62 489.348 721.586 493.323 717.426 487.267C711.682 478.876 708.498 468.997 708.263 458.831Z" fill="#D1D3D4"/>
<path d="M703.003 463.461C704.522 457.194 705.598 450.389 703.003 444.472C700.105 437.784 692.905 433.037 692.04 425.765C691.503 421.088 693.91 416.224 692.975 411.523C692.04 406.823 688.183 403.643 685.028 400.205C677.769 392.215 673.456 381.985 672.803 371.208C667.912 376.98 663.967 383.492 661.115 390.5C658.637 397.516 658.567 406.004 662.798 412.248C664.027 413.697 665.021 415.331 665.743 417.089C667.193 421.766 663.219 426.022 661.185 430.395C659.971 432.901 659.465 435.692 659.72 438.466C659.976 441.239 660.983 443.89 662.634 446.133C666.772 451.301 674.766 453.312 676.8 459.602C677.316 461.951 677.551 464.354 677.501 466.758C677.942 470.922 679.615 474.859 682.305 478.066C684.994 481.274 688.579 483.606 692.601 484.764C697.51 485.957 697.416 484.016 698.281 479.877C699.544 474.358 701.671 469.003 703.003 463.461Z" fill="#D1D3D4"/>
<path d="M718.594 418.352C722.077 406.285 723.479 393.704 727.149 381.708C730.304 372.324 734.148 363.187 738.65 354.371L723.69 360.685C718.898 362.696 713.732 365.081 711.465 369.758C707.514 377.919 714.597 388.466 710.46 396.44C708.668 399.057 706.692 401.542 704.546 403.876C700.151 410.073 700.806 418.562 703.237 425.765C704.265 428.851 708.8 444.847 712.844 440.403C714.457 438.626 714.597 431.985 715.181 429.553C716.233 425.788 717.612 422.093 718.594 418.352Z" fill="#D1D3D4"/>
<path d="M710.436 578.491C713.405 558.777 722.755 489.348 722.848 488.646L720.277 488.296C720.277 488.997 710.927 558.45 707.888 578.093L710.436 578.491Z" fill="#D1D3D4"/>
<path d="M706.93 597.105H709.525C709.338 573.72 699.59 484.297 693.98 478.147L692.063 479.9C695.78 483.946 706.696 565.044 706.93 597.105Z" fill="#D1D3D4"/>
<path d="M701.858 592.639L704.452 592.522C702.115 542.081 712.914 436.147 713.008 435.095L710.436 434.838C710.343 435.89 699.614 541.917 701.858 592.639Z" fill="#D1D3D4"/>
<path d="M736.032 530.996H680.399L684.303 587.354C684.655 592.04 686.758 596.422 690.192 599.628C693.627 602.835 698.142 604.63 702.839 604.658H713.592C718.294 604.636 722.814 602.843 726.254 599.636C729.693 596.429 731.799 592.044 732.152 587.354L736.032 530.996Z" fill="white"/>
<path d="M713.592 605.827H702.839C697.839 605.816 693.028 603.913 689.372 600.499C685.717 597.085 683.488 592.414 683.134 587.424L679.231 531.09C679.219 530.927 679.242 530.763 679.298 530.61C679.355 530.457 679.443 530.317 679.558 530.201C679.664 530.083 679.793 529.988 679.939 529.924C680.084 529.859 680.241 529.826 680.399 529.827H736.032C736.194 529.826 736.354 529.859 736.502 529.924C736.65 529.988 736.783 530.083 736.893 530.202C737.003 530.32 737.087 530.461 737.14 530.613C737.193 530.766 737.214 530.928 737.201 531.09L733.32 587.424C732.96 592.416 730.727 597.087 727.068 600.501C723.409 603.914 718.595 605.817 713.592 605.827ZM681.662 532.165L685.472 587.26C685.784 591.659 687.749 595.776 690.97 598.787C694.191 601.797 698.431 603.477 702.839 603.489H713.592C718.002 603.477 722.245 601.798 725.47 598.788C728.695 595.779 730.664 591.661 730.983 587.26L734.793 532.165H681.662Z" fill="#D1D3D4"/>
<path d="M352.962 256.131C352.962 256.131 414.789 270.302 426.243 268.011C441.624 264.924 457.005 254.564 470.656 247.222C484.868 239.551 498.706 231.39 512.894 223.486C521.216 218.809 529.677 214.296 538.069 209.689C538.938 209.15 539.896 208.77 540.897 208.567C541.734 208.497 542.576 208.593 543.375 208.847C544.509 209.141 545.558 209.695 546.438 210.467C547.319 211.238 548.007 212.205 548.448 213.29C549.71 217.008 546.11 220.306 543.609 222.644C536.3 229.441 528.774 236.02 521.029 242.381L534.259 241.282C534.586 241.176 534.937 241.176 535.264 241.282C536.176 241.75 535.732 243.129 535.1 243.901C532.647 246.442 529.615 248.351 526.265 249.467C515.699 253.84 507.214 256.646 498.215 263.334C490.174 269.227 481.992 275.026 473.624 280.335C460.674 288.683 439.754 304.444 423.181 301.661L346.043 288.659" fill="white"/>
<path d="M426.944 303.158C425.519 303.159 424.096 303.042 422.69 302.807L345.552 289.829L345.95 287.49L423.087 300.469C437.229 302.807 454.831 291.115 467.687 282.626L472.689 279.329C480.496 274.325 488.514 268.782 497.233 262.375C504.405 257.375 512.221 253.371 520.468 250.472L525.657 248.367C528.822 247.31 531.69 245.515 534.025 243.129C534.242 242.876 534.387 242.569 534.446 242.241C534.446 242.241 534.259 242.241 534.189 242.241L520.958 243.363C520.707 243.388 520.454 243.332 520.237 243.201C520.021 243.07 519.852 242.873 519.757 242.638C519.663 242.404 519.646 242.145 519.711 241.9C519.776 241.655 519.918 241.439 520.117 241.282C527.807 234.991 535.381 228.35 542.65 221.592L542.884 221.381C545.105 219.3 548.167 216.471 547.162 213.571C546.786 212.66 546.2 211.851 545.453 211.209C544.706 210.567 543.818 210.11 542.861 209.876C542.233 209.647 541.561 209.567 540.897 209.642C540.071 209.842 539.281 210.174 538.56 210.624L530.542 214.997C524.792 218.107 519.065 221.218 513.385 224.351L499.173 232.419C490.033 237.634 480.473 243.036 471.123 248.11C468.201 249.7 465.209 251.407 462.124 253.161C450.623 259.756 438.749 266.561 426.453 269.016C414.906 271.355 355.206 257.721 352.682 257.137C352.372 257.068 352.102 256.88 351.931 256.612C351.76 256.345 351.702 256.02 351.77 255.71C351.838 255.4 352.027 255.13 352.294 254.959C352.562 254.788 352.886 254.73 353.196 254.798C353.827 254.939 414.883 268.829 426.009 266.678C437.86 264.339 449.618 257.581 461.072 251.08C464.157 249.326 467.173 247.596 470.095 246.006C479.445 240.931 488.958 235.553 498.145 230.338L512.357 222.27C518.06 219.152 523.787 216.034 529.537 212.916L537.555 208.566C538.547 207.941 539.65 207.513 540.804 207.304C541.796 207.194 542.8 207.298 543.749 207.608C545.065 207.948 546.28 208.596 547.296 209.499C548.312 210.402 549.099 211.533 549.593 212.799C551.066 217.125 547.255 220.703 544.684 223.065L544.45 223.275C538.069 229.239 531.431 234.968 524.675 240.697L534.212 239.902C534.769 239.806 535.341 239.888 535.848 240.136C536.133 240.274 536.38 240.478 536.571 240.729C536.762 240.981 536.891 241.275 536.947 241.586C537.007 242.113 536.957 242.648 536.8 243.155C536.643 243.662 536.383 244.131 536.035 244.532C533.446 247.23 530.236 249.253 526.685 250.425L521.473 252.553C513.413 255.422 505.772 259.354 498.752 264.246C490.01 270.676 481.946 276.265 474.115 281.317C472.549 282.299 470.889 283.421 469.113 284.59C457.005 292.541 441.039 303.158 426.944 303.158Z" fill="#231F20"/>
<path d="M214.021 290.437C178.468 316.3 173.84 370.179 172.881 410.658C171.946 448.728 180.455 485.022 188.379 522.157C196.14 558.473 218.276 567.851 253.432 575.942C305.605 588.055 368.343 585.296 421.358 579.379C474.372 573.463 477.621 535.86 472.268 493.043C470.796 481.35 462.474 473.797 453.568 467.319C442.423 459.872 432.701 450.486 424.864 439.608C399.736 403.011 398.24 359.749 381.457 320.065C368.18 288.659 338.564 266.771 304.319 267.894C270.075 269.016 237.607 273.272 214.021 290.437Z" fill="white"/>
<path d="M338.353 585.67C305.838 585.67 277.578 582.84 253.151 577.158C220.823 569.651 195.462 560.788 187.234 522.391L185.551 514.58C178 479.386 170.848 446.156 171.713 410.635C173.676 328.671 195.088 302.831 213.32 289.501C238.308 271.331 273.324 267.87 304.272 266.865C337.745 265.766 368.39 286.531 382.438 319.761C388.546 335.247 393.538 351.15 397.375 367.349C403.803 391.716 410.441 416.925 425.659 439.094C432.391 448.892 440.899 457.1 454.083 466.501C463.199 473.002 471.848 480.695 473.367 492.973C476.312 516.638 477.458 543.226 463.573 560.788C454.76 571.966 440.993 578.444 421.498 580.595C393.896 583.805 366.14 585.499 338.353 585.67ZM214.021 290.437L214.699 291.395C180.618 316.183 174.962 368.168 174.05 410.658C173.185 445.922 180.315 479.012 187.841 514.066L189.524 521.899C196.794 555.971 216.008 566.12 253.689 574.866C296.769 584.851 351.583 585.974 421.241 578.28C440.151 576.176 453.405 570.002 461.82 559.362C475.167 542.431 474.021 516.427 471.17 493.23C469.744 481.865 461.516 474.522 452.844 468.372C439.403 458.807 430.731 450.436 423.835 440.31C408.408 417.814 401.699 392.418 395.248 367.817C391.4 351.723 386.416 335.922 380.334 320.533C366.66 288.215 336.927 267.964 304.412 269.086C273.791 270.069 239.22 273.483 214.746 291.279L214.021 290.437Z" fill="#231F20"/>
<path d="M307.171 491.382C300.844 491.371 294.523 491.004 288.237 490.283C276.164 488.917 264.26 486.332 252.707 482.566C236.929 477.445 226.34 471.622 218.369 463.671C206.261 451.558 201.656 435.235 199.903 423.66C195.859 396.931 199.903 367.396 202.848 352.196C204.753 341.754 208.926 331.858 215.074 323.206C221.221 314.555 229.193 307.36 238.425 302.129C251.211 294.669 266.475 289.875 285.011 287.443C304.483 284.894 318.508 286.976 329.143 294.015C346.487 305.473 351.42 327.502 354.996 349.086L361.05 385.73C362.523 394.826 364.58 407.314 371.732 413.207C374.253 415.116 376.973 416.747 379.844 418.071C384.846 420.62 390.012 423.239 392.91 428.968C396.51 435.984 398.029 448.003 394.336 455.791C390.269 464.396 381.947 470.055 376.033 473.563C355.105 485.607 331.311 491.764 307.171 491.382ZM299.691 288.753C294.859 288.777 290.034 289.113 285.245 289.759C266.989 292.097 252.029 296.774 239.523 304.14C230.603 309.22 222.901 316.192 216.961 324.566C211.021 332.941 206.986 342.516 205.139 352.617C202.334 367.7 198.126 396.908 202.217 423.309C203.9 434.534 208.365 450.342 220.029 462.011C227.719 469.681 238.004 475.34 253.432 480.345C264.831 484.067 276.579 486.621 288.494 487.968C320.728 491.616 350.555 485.91 374.771 471.599C380.405 468.255 388.352 462.853 392.162 454.832C395.552 447.699 394.102 436.662 390.76 430.091C388.188 425.04 383.584 422.701 378.722 420.199C375.699 418.8 372.838 417.075 370.19 415.054C362.336 408.6 360.209 395.622 358.666 386.151L352.612 349.53C349.129 328.484 344.337 306.946 327.787 296.002C320.448 291.115 311.331 288.753 299.691 288.753Z" fill="#D1D3D4"/>
<path d="M219.725 454.2C219.494 454.199 219.269 454.13 219.078 454.001C218.886 453.872 218.737 453.689 218.65 453.476C218.589 453.335 218.557 453.183 218.556 453.029C218.555 452.876 218.585 452.724 218.644 452.582C218.702 452.44 218.789 452.312 218.899 452.204C219.008 452.096 219.138 452.012 219.281 451.956C234.545 445.642 244.713 447.115 245.134 447.279C245.444 447.325 245.722 447.493 245.909 447.745C246.095 447.997 246.174 448.313 246.127 448.623C246.081 448.933 245.913 449.212 245.661 449.399C245.409 449.585 245.093 449.664 244.783 449.617C244.783 449.617 234.778 448.191 220.169 454.294C220.016 454.297 219.864 454.265 219.725 454.2Z" fill="#D1D3D4"/>
<path d="M441.133 534.083C441.133 534.083 452.82 594.252 456.023 597.432C459.225 600.613 509.785 598.298 509.084 592.755C508.383 587.213 481.899 579.333 481.899 579.333L473.788 529.733" fill="white"/>
<path d="M469.837 600.098C462.357 600.098 456.42 599.537 455.134 598.251C451.862 595 441.904 544.466 439.941 534.317C439.91 534.165 439.91 534.008 439.941 533.856C439.972 533.704 440.032 533.559 440.119 533.431C440.206 533.303 440.318 533.193 440.448 533.108C440.578 533.023 440.723 532.965 440.876 532.937C441.176 532.882 441.486 532.946 441.739 533.117C441.993 533.287 442.169 533.55 442.231 533.849C446.696 556.79 454.573 594.112 456.794 596.614C459.272 598.531 489.683 598.064 503.334 594.603C507.448 593.55 507.868 592.685 508.009 592.685C507.658 589.739 494.334 584.15 481.665 580.502C481.452 580.44 481.26 580.319 481.111 580.154C480.962 579.989 480.863 579.785 480.824 579.566L472.689 529.944C472.64 529.634 472.715 529.317 472.899 529.062C473.083 528.808 473.361 528.637 473.671 528.588C473.981 528.538 474.298 528.613 474.552 528.798C474.806 528.982 474.977 529.26 475.027 529.57L483.044 578.444C490.057 580.525 509.692 586.769 510.346 592.475C510.471 593.675 509.692 594.681 508.009 595.491C502.235 598.251 483.488 600.098 469.837 600.098Z" fill="#231F20"/>
<path d="M333.772 560.625C333.772 560.625 326.408 614.573 330.219 616.117C334.029 617.66 385.734 620.139 384.916 615.602C384.098 611.066 358.572 602.39 358.572 602.39L367.806 549.774" fill="white"/>
<path d="M364.463 619.297C349.62 619.297 332.088 618.034 329.774 617.099C325.941 615.532 329.19 585.366 332.603 560.344C332.646 560.034 332.811 559.754 333.061 559.565C333.311 559.377 333.625 559.295 333.935 559.339C334.245 559.382 334.525 559.547 334.714 559.797C334.902 560.047 334.984 560.361 334.94 560.672C331.598 585.226 329.167 612.118 330.826 614.971C339.658 616.175 348.56 616.792 357.474 616.818C375.519 617.239 382.275 616.187 383.677 615.392C382.345 612.843 369.652 607.277 358.222 603.396C357.951 603.309 357.721 603.125 357.579 602.878C357.436 602.632 357.39 602.341 357.45 602.063L366.8 549.47C366.853 549.16 367.027 548.884 367.283 548.702C367.54 548.52 367.858 548.447 368.168 548.5C368.478 548.552 368.754 548.726 368.936 548.983C369.118 549.239 369.191 549.558 369.138 549.868L359.975 601.501C366.987 603.84 385.337 610.645 386.155 615.275C386.21 615.615 386.17 615.964 386.038 616.282C385.905 616.6 385.687 616.875 385.407 617.076C383.35 618.713 374.491 619.297 364.463 619.297Z" fill="#231F20"/>
<path d="M394.897 440.988C412.452 438.369 443.26 549.657 443.26 549.657L478.509 545.565C478.509 545.565 472.128 444.847 465.396 416.738C460.721 397.375 439.684 387.905 418.389 394.195C386.552 392.932 353.851 388.887 353.851 388.887L394.897 440.988Z" fill="#231F20"/>
<path d="M443.26 550.826C443.006 550.83 442.758 550.75 442.555 550.597C442.352 550.445 442.205 550.229 442.138 549.985C442.138 549.704 434.331 521.923 424.56 494.726C407.637 447.676 398.848 441.596 395.084 442.157C394.878 442.188 394.668 442.163 394.474 442.085C394.281 442.007 394.113 441.878 393.986 441.713L352.962 389.612C352.814 389.43 352.723 389.208 352.703 388.975C352.682 388.741 352.732 388.507 352.846 388.302C352.958 388.097 353.13 387.931 353.338 387.827C353.547 387.722 353.783 387.684 354.014 387.717C354.342 387.717 386.926 391.763 418.272 393.026C423.725 391.309 429.466 390.706 435.156 391.252C440.846 391.798 446.368 393.483 451.395 396.206C455.174 398.363 458.47 401.274 461.08 404.757C463.689 408.241 465.556 412.223 466.565 416.457C473.227 444.332 479.632 544.466 479.702 545.495C479.721 545.791 479.625 546.084 479.433 546.311C479.241 546.538 478.969 546.681 478.673 546.711L443.424 550.826H443.26ZM395.458 439.772C413.106 439.772 439.871 533.311 444.125 548.394L477.271 544.536C476.546 533.452 470.515 443.116 464.274 416.995C463.352 413.078 461.63 409.394 459.217 406.175C456.803 402.955 453.75 400.27 450.249 398.287C445.465 395.713 440.211 394.129 434.801 393.631C429.391 393.133 423.937 393.73 418.763 395.388H418.389C392.232 394.359 365.164 391.389 356.562 390.407L395.482 439.795L395.458 439.772Z" fill="#231F20"/>
<path d="M312.711 247.759C312.711 247.759 258.177 244.813 248.43 258.47C237.911 273.202 238.682 278.931 224.447 312.933C229.122 359.936 257.008 425.554 257.008 425.554L374.514 401.281C374.514 401.281 369.956 274.582 359.624 256.996C349.293 239.411 312.711 247.759 312.711 247.759Z" fill="#FF914D"/>
<path d="M293.473 257.347L326.409 429.927L360.139 429.272L335.408 259.265L293.473 257.347Z" fill="#231F20"/>
<path d="M326.408 431.096C326.136 431.095 325.872 430.999 325.663 430.824C325.454 430.649 325.312 430.406 325.263 430.138L292.328 257.558C292.292 257.385 292.297 257.207 292.342 257.037C292.386 256.866 292.469 256.708 292.585 256.576C292.697 256.439 292.841 256.331 293.004 256.262C293.166 256.193 293.343 256.164 293.52 256.178L335.595 258.096C335.866 258.109 336.124 258.217 336.325 258.401C336.525 258.584 336.656 258.832 336.693 259.101L361.401 429.109C361.424 429.271 361.412 429.437 361.367 429.595C361.322 429.753 361.244 429.9 361.138 430.026C361.032 430.152 360.901 430.254 360.753 430.325C360.605 430.397 360.443 430.437 360.279 430.442L326.549 431.096H326.408ZM294.899 258.563L327.367 428.734L358.783 428.126L334.403 260.387L294.899 258.563Z" fill="#231F20"/>
<path d="M270.636 406.285C270.636 406.285 239.43 439.281 261.052 465.472C282.674 491.663 344.314 464.116 344.314 464.116L328.933 566.564L374.093 566.097C374.093 566.097 421.171 426.63 415.748 412.201C410.325 397.773 371.756 391.155 371.756 391.155L270.636 406.285Z" fill="#231F20"/>
<path d="M328.933 567.757C328.766 567.756 328.6 567.719 328.447 567.651C328.295 567.583 328.157 567.483 328.045 567.36C327.939 567.225 327.862 567.071 327.818 566.906C327.774 566.742 327.764 566.57 327.788 566.401L342.865 466.033C332.571 470.246 321.914 473.51 311.028 475.785C286.881 480.578 269.28 477.281 260.164 466.244C238.121 439.562 269.514 405.841 269.771 405.443C269.955 405.259 270.192 405.137 270.449 405.092L371.663 389.916H372.037C373.626 390.196 411.307 396.931 416.917 411.734C422.527 426.536 377.179 560.718 375.262 566.424C375.188 566.656 375.041 566.859 374.843 567.002C374.646 567.145 374.408 567.221 374.164 567.219L329.027 567.687L328.933 567.757ZM344.314 462.97C344.575 462.965 344.83 463.047 345.038 463.204C345.2 463.334 345.326 463.503 345.403 463.695C345.481 463.888 345.508 464.097 345.483 464.303L330.289 565.302L373.252 564.857C389.615 516.521 418.81 423.59 414.649 412.529C409.717 399.386 374.608 392.745 371.756 392.231L271.244 407.314C268.275 410.611 242.329 440.848 261.894 464.653C282.697 489.839 343.168 463.25 343.706 462.97C343.904 462.91 344.116 462.91 344.314 462.97Z" fill="#231F20"/>
<path d="M282.393 139.815C274.867 135.888 266.281 134.475 257.893 135.784C249.505 137.093 241.757 141.054 235.784 147.088C226.831 156.442 223.231 170.894 228 182.867C230.549 188.795 234.905 193.766 240.446 197.07C245.987 200.375 252.429 201.845 258.855 201.27C271.29 200.242 282.908 187.918 288.19 177.348C294.525 164.58 297.751 147.626 282.393 139.815Z" fill="white"/>
<path d="M256.283 202.533C250.032 202.607 243.9 200.818 238.668 197.395C233.436 193.972 229.34 189.07 226.901 183.311C224.658 177 224.223 170.188 225.644 163.644C227.065 157.099 230.285 151.081 234.942 146.269C241.07 140.052 249.032 135.968 257.655 134.621C266.279 133.273 275.106 134.734 282.837 138.786C289.032 141.92 302.052 152.045 289.149 177.862C283.609 188.947 271.781 201.364 258.761 202.416C258.06 202.486 257.125 202.533 256.283 202.533ZM263.763 136.471C258.704 136.453 253.692 137.456 249.029 139.421C244.366 141.386 240.147 144.272 236.625 147.906C232.273 152.387 229.26 157.996 227.926 164.099C226.592 170.202 226.99 176.557 229.075 182.446C231.523 188.149 235.715 192.93 241.049 196.102C246.382 199.274 252.583 200.674 258.761 200.101C270.238 199.166 281.739 187.684 287.162 176.716C291.135 168.742 298.592 149.263 281.879 140.774C276.262 137.937 270.056 136.463 263.763 136.471Z" fill="#231F20"/>
<path d="M260.257 163.621C256.332 168.137 253.627 173.583 252.4 179.44C251.172 185.297 251.463 191.372 253.245 197.085C254.052 200.276 255.955 203.082 258.621 205.012C263.904 208.239 270.799 205.012 275.474 200.943C282.977 194.059 288.779 185.525 292.421 176.015C295.18 169.303 298.709 154.501 288.564 152.326C278.42 150.151 266.475 156.559 260.257 163.621Z" fill="#231F20"/>
<path d="M263.436 207.514C261.516 207.539 259.628 207.02 257.99 206.018C255.052 203.975 252.958 200.933 252.099 197.459C250.266 191.541 249.98 185.253 251.269 179.193C252.558 173.134 255.379 167.507 259.462 162.849C265.984 155.53 278.513 148.959 288.845 151.157C290.176 151.408 291.432 151.96 292.517 152.771C293.603 153.581 294.489 154.629 295.109 155.834C298.896 163.036 294.104 175.15 293.543 176.506C289.842 186.19 283.936 194.877 276.292 201.878C272.778 205.174 268.24 207.163 263.436 207.514ZM284.474 153.121C276.059 153.121 266.405 158.429 261.099 164.439C257.292 168.787 254.665 174.04 253.469 179.695C252.274 185.349 252.551 191.217 254.273 196.734C254.965 199.677 256.701 202.27 259.158 204.03C263.833 206.93 270.262 203.89 274.656 200.078C282.028 193.329 287.713 184.943 291.252 175.594C293.146 171.057 295.577 161.984 292.912 156.886C292.449 155.994 291.787 155.222 290.975 154.629C290.164 154.037 289.227 153.641 288.237 153.472C287.03 153.219 285.8 153.093 284.567 153.098L284.474 153.121Z" fill="#231F20"/>
<path d="M320.237 233.448C318.379 235.781 316.397 238.014 314.3 240.136C310.015 243.455 304.96 245.635 299.606 246.473C294.252 247.311 288.773 246.78 283.679 244.93C259.369 236.254 256.377 209.549 258.177 187.286C258.925 178.236 262.852 159.014 276.035 166.591C272.202 164.252 285.385 153.542 287.302 152.56C301.631 144.375 318.882 150.946 329.377 162.218C335.532 168.564 340.972 175.567 345.599 183.1C350.274 191.472 348.077 204.147 344.103 212.285C340.969 218.637 336.17 224.02 330.219 227.859C327.46 229.636 323.744 230.478 321.266 232.536C320.908 232.822 320.565 233.127 320.237 233.448Z" fill="white"/>
<path d="M294.688 248.04C290.804 248.046 286.946 247.39 283.281 246.099C263.249 238.943 254.413 219.207 257.125 187.263C257.475 182.96 259.182 168.555 266.662 164.72C267.856 164.115 269.171 163.784 270.509 163.752C271.848 163.72 273.177 163.986 274.399 164.533C275.685 159.856 285.572 152.209 286.834 151.484C302.192 142.715 320.167 150.455 330.335 161.376C336.558 167.758 342.046 174.818 346.698 182.422C351.56 191.145 349.339 204.217 345.225 212.706C342.001 219.253 337.056 224.799 330.92 228.748C329.596 229.54 328.213 230.228 326.782 230.805C325.108 231.423 323.533 232.282 322.107 233.354C321.771 233.624 321.451 233.913 321.149 234.22C320.378 235.038 319.653 235.927 318.811 236.886C317.714 238.386 316.452 239.759 315.048 240.978C309.276 245.606 302.085 248.1 294.688 248.04ZM270.472 166.193C269.488 166.181 268.516 166.414 267.644 166.871C262.548 169.537 260 179.686 259.345 187.544C256.844 218.248 265.166 237.236 284.076 243.971C288.99 245.756 294.277 246.263 299.441 245.445C304.605 244.626 309.476 242.51 313.599 239.294C314.86 238.165 316.003 236.912 317.012 235.553C317.739 234.561 318.52 233.608 319.349 232.7C319.7 232.349 320.074 231.998 320.471 231.671C322.081 230.452 323.861 229.475 325.754 228.771C327.065 228.251 328.331 227.626 329.541 226.9C335.32 223.186 339.976 217.962 343.005 211.794C346.861 203.843 348.989 191.683 344.524 183.732C339.989 176.269 334.625 169.342 328.535 163.083C318.952 152.817 302.168 145.474 287.886 153.729C285.923 154.852 276.503 162.943 276.503 165.655H276.666C276.815 165.723 276.949 165.821 277.057 165.943C277.166 166.065 277.248 166.209 277.298 166.364C277.348 166.52 277.365 166.685 277.347 166.847C277.329 167.01 277.278 167.167 277.195 167.309C277.113 167.45 277.002 167.573 276.87 167.668C276.737 167.764 276.586 167.831 276.426 167.865C276.266 167.899 276.101 167.899 275.941 167.864C275.781 167.83 275.63 167.763 275.498 167.667C273.99 166.71 272.256 166.169 270.472 166.1V166.193Z" fill="#231F20"/>
<path d="M330.382 180.154C330.382 180.154 341.906 198.394 341.813 214.202C341.906 218.608 340.713 222.946 338.38 226.684C336.046 230.422 332.674 233.399 328.676 235.249L334.613 261.907C334.613 261.907 337.769 275.517 320.588 277.131C315.619 277.571 310.62 276.74 306.06 274.715C301.501 272.69 297.531 269.538 294.525 265.555L281.669 216.868C281.669 216.868 298.171 201.738 292.608 184.504C292.608 184.597 317.526 190.49 330.382 180.154Z" fill="white"/>
<path d="M317.666 278.394C312.974 278.365 308.353 277.251 304.164 275.137C299.974 273.023 296.331 269.968 293.52 266.21C293.442 266.105 293.386 265.986 293.356 265.859L280.5 217.242C280.444 217.038 280.448 216.821 280.51 216.619C280.572 216.416 280.69 216.235 280.851 216.096C280.991 215.956 296.722 201.27 291.463 184.971C291.393 184.773 291.378 184.56 291.419 184.355C291.461 184.149 291.556 183.958 291.697 183.802C291.841 183.65 292.023 183.539 292.224 183.481C292.426 183.424 292.639 183.421 292.842 183.475C293.076 183.475 317.362 189.087 329.611 179.242C329.736 179.138 329.882 179.061 330.039 179.017C330.196 178.972 330.361 178.962 330.522 178.985C330.685 179.014 330.839 179.078 330.976 179.17C331.113 179.263 331.229 179.383 331.317 179.523C331.808 180.271 343.005 198.23 343.005 214.226C343.06 218.68 341.877 223.062 339.585 226.882C337.294 230.702 333.987 233.81 330.032 235.857L335.782 261.58C336.489 265.223 335.724 268.999 333.655 272.08C331.13 275.587 326.782 277.645 320.728 278.23C319.653 278.347 318.648 278.394 317.666 278.394ZM295.553 265.064C298.482 268.804 302.295 271.755 306.65 273.65C311.005 275.544 315.763 276.323 320.495 275.915C325.824 275.424 329.611 273.576 331.715 270.747C333.401 268.209 334.03 265.113 333.468 262.118L327.53 235.576C327.476 235.301 327.519 235.016 327.651 234.769C327.783 234.521 327.997 234.328 328.255 234.22C332.041 232.481 335.233 229.668 337.436 226.13C339.638 222.592 340.754 218.485 340.644 214.319C340.644 201.177 332.463 186.117 330.055 181.978C318.741 189.999 300.252 187.38 294.244 186.257C297.938 201.645 285.736 214.717 282.978 217.429L295.553 265.064Z" fill="#231F20"/>
<path d="M290.13 211.443C290.13 211.443 277.765 194.769 271.103 208.52C264.441 222.27 280.804 231.905 288.775 229.098" fill="white"/>
<path d="M285.572 230.899C283.057 230.8 280.586 230.198 278.306 229.13C276.026 228.062 273.982 226.548 272.295 224.679C270.204 222.522 268.851 219.757 268.431 216.781C268.011 213.806 268.546 210.774 269.958 208.122C271.781 204.381 274.189 202.346 277.157 202.066C283.889 201.434 290.692 210.484 290.972 210.858C291.064 210.981 291.131 211.121 291.169 211.27C291.207 211.418 291.216 211.573 291.194 211.725C291.172 211.877 291.121 212.023 291.043 212.156C290.964 212.288 290.861 212.403 290.738 212.495C290.488 212.675 290.178 212.752 289.873 212.708C289.568 212.664 289.292 212.504 289.102 212.261C287.372 209.923 281.879 203.96 277.414 204.404C275.311 204.591 273.511 206.181 272.085 209.081C270.862 211.314 270.384 213.879 270.72 216.403C271.056 218.927 272.19 221.278 273.955 223.112C277.812 227.368 284.24 229.613 288.307 228.116C288.596 228.021 288.911 228.042 289.185 228.175C289.458 228.308 289.669 228.543 289.773 228.829C289.876 229.115 289.864 229.43 289.739 229.708C289.613 229.985 289.385 230.203 289.102 230.314C287.967 230.709 286.774 230.906 285.572 230.899Z" fill="#231F20"/>
<path d="M323.533 218.692H322.832C322.522 218.692 322.225 218.569 322.006 218.35C321.786 218.13 321.663 217.833 321.663 217.523C321.663 217.213 321.786 216.915 322.006 216.696C322.225 216.477 322.522 216.354 322.832 216.354C325.501 216.546 328.17 215.969 330.522 214.693C330.663 213.501 325.707 207.958 319.863 203.001C319.745 202.901 319.648 202.779 319.577 202.642C319.506 202.504 319.463 202.354 319.449 202.2C319.436 202.046 319.454 201.89 319.501 201.743C319.548 201.596 319.623 201.459 319.723 201.341C319.823 201.222 319.945 201.125 320.082 201.054C320.22 200.983 320.37 200.94 320.524 200.927C320.678 200.914 320.833 200.931 320.981 200.978C321.128 201.025 321.265 201.1 321.383 201.2C324.071 203.539 332.79 211.209 332.79 214.787C332.801 215.106 332.739 215.423 332.61 215.715C332.48 216.007 332.286 216.265 332.042 216.471C329.495 218.054 326.529 218.828 323.533 218.692Z" fill="#231F20"/>
<path d="M319.676 228.35H319.443C314.541 228.302 309.829 226.445 306.212 223.135C306.121 223.011 306.056 222.87 306.02 222.72C305.983 222.571 305.977 222.415 306.001 222.263C306.025 222.111 306.079 221.965 306.159 221.834C306.239 221.703 306.345 221.589 306.469 221.498C306.589 221.404 306.727 221.335 306.874 221.295C307.021 221.255 307.175 221.246 307.326 221.268C307.477 221.29 307.622 221.342 307.752 221.422C307.882 221.502 307.994 221.607 308.082 221.732C311.324 224.43 315.39 225.94 319.606 226.012H319.77C325.24 226.012 330.218 223.112 334.59 217.546C334.685 217.425 334.803 217.324 334.937 217.248C335.071 217.172 335.219 217.124 335.372 217.105C335.525 217.087 335.681 217.099 335.829 217.14C335.977 217.182 336.116 217.252 336.237 217.348C336.359 217.443 336.46 217.561 336.536 217.695C336.611 217.83 336.66 217.978 336.678 218.131C336.697 218.284 336.685 218.439 336.643 218.588C336.602 218.736 336.531 218.875 336.436 218.996C331.598 225.193 325.941 228.35 319.676 228.35Z" fill="#231F20"/>
<path d="M328.676 235.202C328.676 235.202 314.838 240.159 306.189 239.879C306.189 239.879 319.817 258.891 333.304 255.757L328.676 235.202Z" fill="#231F20"/>
<path d="M330.219 257.3C317.386 257.3 305.768 241.329 305.254 240.58C305.141 240.394 305.081 240.179 305.081 239.961C305.081 239.742 305.141 239.528 305.254 239.341C305.368 239.157 305.526 239.006 305.714 238.899C305.902 238.793 306.114 238.736 306.329 238.733C314.628 238.967 328.232 234.056 328.372 234.056C328.528 233.999 328.695 233.975 328.861 233.988C329.027 234 329.188 234.048 329.334 234.127C329.48 234.207 329.607 234.317 329.708 234.45C329.808 234.583 329.878 234.735 329.915 234.898L334.59 255.476C334.66 255.777 334.609 256.094 334.447 256.356C334.284 256.619 334.025 256.807 333.725 256.88C332.577 257.157 331.4 257.299 330.219 257.3ZM308.573 240.931C312.173 245.327 322.061 256.084 331.948 254.751L327.881 236.628C321.632 238.848 315.144 240.324 308.55 241.025L308.573 240.931Z" fill="#231F20"/>
<path d="M311.814 205.004C312.958 204.683 313.429 202.799 312.868 200.797C312.306 198.796 310.924 197.433 309.78 197.754C308.637 198.075 308.165 199.958 308.727 201.96C309.289 203.962 310.671 205.325 311.814 205.004Z" fill="#231F20"/>
<path d="M330.861 199.638C332.004 199.316 332.476 197.433 331.914 195.431C331.352 193.429 329.97 192.067 328.827 192.388C327.683 192.709 327.211 194.592 327.773 196.594C328.335 198.596 329.717 199.959 330.861 199.638Z" fill="#231F20"/>
<path d="M338.634 396.113L361.962 320.603H470.679L444.686 396.113H338.634Z" fill="white"/>
<path d="M444.686 397.282H338.634C338.452 397.28 338.274 397.237 338.112 397.156C337.95 397.075 337.809 396.958 337.699 396.814C337.584 396.667 337.508 396.495 337.475 396.311C337.442 396.128 337.455 395.939 337.512 395.762L360.887 320.252C360.962 320.014 361.111 319.806 361.313 319.658C361.515 319.511 361.759 319.432 362.009 319.434H470.726C470.91 319.435 471.09 319.48 471.253 319.565C471.416 319.651 471.556 319.774 471.661 319.925C471.773 320.078 471.847 320.255 471.875 320.443C471.904 320.63 471.886 320.821 471.824 321.001L445.831 396.487C445.748 396.723 445.593 396.927 445.387 397.069C445.181 397.212 444.936 397.286 444.686 397.282ZM340.223 394.943H443.845L469.043 321.772H362.827L340.223 394.943Z" fill="#231F20"/>
<path d="M228.911 301.708C228.911 301.708 189.057 391.506 207.874 412.014C226.691 432.523 327.086 392.418 327.086 392.418C344.29 388.98 362.827 382.924 367.665 363.538C368.273 361.059 368.32 357.902 366.169 356.522C365.005 355.917 363.682 355.688 362.383 355.867C358.049 356.089 353.775 356.981 349.713 358.51L349.83 350.699C340.293 358.744 329.05 367.63 316.591 369.758C308.386 371.138 299.738 371.278 291.439 371.933C276.978 373.086 262.509 374.139 248.032 375.09C248.032 375.09 257.592 340.34 264.558 320.603" fill="white"/>
<path d="M228.234 418.983C218.884 418.983 211.17 417.252 207.196 412.809C187.982 391.973 226.293 304.912 227.953 301.217C228.092 300.954 228.326 300.753 228.607 300.657C228.888 300.56 229.196 300.574 229.467 300.696C229.738 300.818 229.953 301.04 230.067 301.314C230.181 301.589 230.185 301.897 230.08 302.176C229.683 303.064 190.74 391.506 208.902 411.219C216.312 419.264 238.986 418.422 274.352 408.881C292.109 403.936 309.608 398.106 326.783 391.412C344.01 387.975 362.009 382.058 366.66 363.351C366.917 362.322 367.619 358.861 365.679 357.621C364.723 357.149 363.645 356.986 362.593 357.154C358.378 357.362 354.221 358.229 350.274 359.726C350.094 359.797 349.899 359.822 349.707 359.797C349.515 359.773 349.332 359.7 349.176 359.586C349.021 359.473 348.896 359.325 348.811 359.154C348.725 358.983 348.682 358.794 348.685 358.603V353.342C339.335 361.082 328.676 369.01 316.848 371.021C310.908 371.917 304.922 372.487 298.92 372.728C296.465 372.892 294.034 373.032 291.603 373.219C278.186 374.271 263.974 375.3 248.172 376.376C247.987 376.391 247.801 376.36 247.629 376.287C247.458 376.214 247.308 376.1 247.191 375.955C247.075 375.808 246.994 375.638 246.953 375.456C246.913 375.273 246.914 375.084 246.957 374.903C246.957 374.552 256.634 339.825 263.53 320.346C263.631 320.056 263.842 319.817 264.118 319.681C264.393 319.546 264.711 319.524 265.002 319.621C265.294 319.727 265.533 319.943 265.668 320.222C265.804 320.502 265.825 320.823 265.727 321.118C259.696 338.188 251.702 366.905 249.668 373.92C264.792 372.892 278.49 371.909 291.416 370.88C293.754 370.693 296.325 370.553 298.779 370.413C304.704 370.162 310.611 369.593 316.474 368.706C328.559 366.648 339.662 357.925 349.199 349.998C349.375 349.859 349.585 349.77 349.808 349.741C350.03 349.713 350.256 349.745 350.461 349.834C350.663 349.933 350.832 350.086 350.952 350.276C351.072 350.466 351.137 350.685 351.139 350.91V357.06C354.825 355.821 358.663 355.097 362.546 354.909C364.093 354.713 365.663 355.007 367.034 355.75C369.255 357.154 369.98 360.17 369.021 364.029C364.066 383.953 345.272 390.243 327.554 393.774C324.328 394.803 263.366 418.983 228.234 418.983Z" fill="#231F20"/>
<path d="M327.25 605.851C327.25 605.851 354.131 609.663 356.936 609.663L370.821 602.413C370.821 602.413 399.222 614.27 395.154 618.081C391.087 621.893 332.229 622.758 327.25 619.999C322.271 617.239 327.25 605.851 327.25 605.851Z" fill="#231F20"/>
<path d="M353.664 622.735C340.48 622.735 328.839 622.127 326.782 621.028C321.056 617.917 325.731 606.646 326.268 605.383C326.369 605.146 326.545 604.949 326.769 604.822C326.993 604.695 327.252 604.646 327.507 604.682C334.73 605.711 353.523 608.33 356.749 608.493L370.377 601.361C370.531 601.291 370.698 601.255 370.868 601.255C371.037 601.255 371.204 601.291 371.359 601.361C377.109 603.7 395.902 611.954 396.767 616.818C396.839 617.209 396.81 617.612 396.683 617.988C396.557 618.364 396.336 618.702 396.043 618.97C393.238 621.565 371.966 622.735 353.664 622.735ZM328.091 607.137C326.829 610.388 324.912 617.356 327.904 618.97C333.281 621.846 391.017 620.349 394.453 617.239C394.57 615.298 383.654 609.031 371.078 603.7L357.661 610.715C357.491 610.79 357.308 610.829 357.123 610.832C354.435 610.832 332.883 607.815 328.091 607.137Z" fill="#231F20"/>
<path d="M451.441 584.547C451.441 584.547 478.299 588.382 481.104 588.382L495.129 581.11C495.129 581.11 523.53 592.966 519.462 596.801C515.395 600.636 456.514 601.478 451.558 598.695C446.603 595.912 451.441 584.547 451.441 584.547Z" fill="#231F20"/>
<path d="M477.761 601.431C464.578 601.431 452.937 600.823 450.88 599.724C445.13 596.637 449.805 585.366 450.366 584.08C450.47 583.847 450.648 583.655 450.871 583.532C451.095 583.41 451.353 583.364 451.605 583.402C458.804 584.43 477.598 587.026 480.847 587.19L494.475 580.174C494.627 580.1 494.795 580.061 494.965 580.061C495.135 580.061 495.303 580.1 495.456 580.174C501.207 582.513 519.977 590.768 520.865 595.608C520.941 596.003 520.914 596.41 520.787 596.791C520.66 597.172 520.438 597.513 520.14 597.783C517.335 600.379 496.041 601.431 477.761 601.431ZM452.166 585.834C450.927 589.107 448.987 596.053 452.002 597.666C457.355 600.566 515.115 599.069 518.527 595.936C518.668 594.018 507.752 587.751 495.152 582.396L481.735 589.411C481.571 589.504 481.386 589.553 481.198 589.552C478.509 589.552 456.958 586.512 452.166 585.834Z" fill="#231F20"/>
<path d="M344.617 247.175L397.281 259.428L395.248 304.164H349.994L344.617 247.175Z" fill="#FF914D"/>
<path d="M369.325 316.815C369.045 316.812 368.776 316.709 368.566 316.524C368.356 316.34 368.219 316.086 368.179 315.809L360.77 263.006C360.75 262.853 360.76 262.697 360.8 262.547C360.841 262.398 360.91 262.258 361.005 262.135C361.099 262.012 361.217 261.909 361.351 261.832C361.485 261.755 361.633 261.705 361.786 261.685C361.94 261.665 362.096 261.676 362.245 261.716C362.395 261.756 362.535 261.826 362.657 261.92C362.78 262.015 362.883 262.132 362.96 262.266C363.037 262.401 363.087 262.549 363.107 262.702L370.517 315.482C370.54 315.634 370.532 315.79 370.493 315.939C370.455 316.088 370.387 316.228 370.293 316.35C370.199 316.473 370.081 316.575 369.947 316.651C369.813 316.726 369.665 316.774 369.512 316.791L369.325 316.815Z" fill="#231F20"/>
<path d="M264.675 321.772C264.544 321.796 264.409 321.796 264.278 321.772C264.131 321.723 263.997 321.644 263.882 321.541C263.767 321.438 263.674 321.313 263.608 321.173C263.543 321.034 263.506 320.882 263.501 320.728C263.495 320.574 263.521 320.42 263.576 320.276L274.469 289.875C274.518 289.727 274.596 289.59 274.699 289.472C274.802 289.354 274.927 289.259 275.068 289.19C275.209 289.122 275.361 289.082 275.517 289.074C275.673 289.066 275.83 289.089 275.977 289.142C276.123 289.196 276.258 289.278 276.373 289.384C276.488 289.49 276.58 289.618 276.644 289.761C276.708 289.903 276.744 290.057 276.747 290.213C276.751 290.37 276.724 290.525 276.666 290.671L265.774 321.071C265.681 321.284 265.527 321.464 265.331 321.589C265.135 321.714 264.907 321.778 264.675 321.772Z" fill="#231F20"/>
<path d="M408.478 455.51H408.104C407.812 455.404 407.573 455.188 407.438 454.909C407.303 454.629 407.282 454.308 407.379 454.013C407.496 453.663 419.675 417.533 412.242 407.758C407.309 401.304 389.848 397.329 389.661 397.305C389.508 397.271 389.362 397.208 389.234 397.118C389.105 397.028 388.995 396.913 388.91 396.781C388.825 396.648 388.768 396.501 388.74 396.346C388.713 396.191 388.716 396.032 388.75 395.879C388.783 395.725 388.847 395.58 388.937 395.451C389.027 395.322 389.141 395.212 389.274 395.127C389.406 395.043 389.554 394.985 389.709 394.957C389.863 394.93 390.022 394.933 390.175 394.967C390.923 395.13 408.665 399.153 414.088 406.285C422.293 417.065 410.114 453.195 409.577 454.715C409.502 454.947 409.355 455.15 409.158 455.293C408.96 455.436 408.722 455.512 408.478 455.51Z" fill="white"/>
</svg>
