<svg width="57" height="57" viewBox="0 0 57 57" fill="none" xmlns="http://www.w3.org/2000/svg">
<g clip-path="url(#clip0_184_58)">
<path fill-rule="evenodd" clip-rule="evenodd" d="M-0.000439758 45.3986V11.6224L18.8609 28.5105L-0.00878906 45.3986H-0.000439758Z" fill="black"/>
<path fill-rule="evenodd" clip-rule="evenodd" d="M12.866 57.0099L34.0402 38.0177H64.1148V56.9987H12.866V57.0099Z" fill="#0000CC"/>
<path fill-rule="evenodd" clip-rule="evenodd" d="M11.5134 -1.41105e-05H64.1148V19.0144H34.0318C34.0318 19.0144 11.789 -0.189268 11.5134 -1.41105e-05Z" fill="#FF0000"/>
<path fill-rule="evenodd" clip-rule="evenodd" d="M-0.000439757 7.12482V11.6224L18.8609 28.4994L-0.00878906 45.3986V49.885L23.7453 28.5105L-0.00878906 7.12482H-0.000439757Z" fill="#FFCC00"/>
<path fill-rule="evenodd" clip-rule="evenodd" d="M-0.000427246 7.12485V0H7.93153L33.08 22.7105H64.1232V34.3106H33.08L7.92318 56.9988H-0.000427246V49.8851L23.7454 28.5105L0.00792206 7.12485H-0.000427246Z" fill="#009933"/>
<path fill-rule="evenodd" clip-rule="evenodd" d="M7.92316 0H12.866L34.0402 19.0033H64.1148V22.7105H33.08L7.92316 0.0111326V0ZM7.92316 57.0099H12.866L34.0402 38.0177H64.1148V34.3217H33.08L7.92316 56.9988V57.0099Z" fill="white"/>
</g>
<defs>
<clipPath id="clip0_184_58">
<rect width="57" height="57" fill="white"/>
</clipPath>
</defs>
</svg>
