<svg width="48" height="48" viewBox="0 0 48 48" fill="none" xmlns="http://www.w3.org/2000/svg">
<path fill-rule="evenodd" clip-rule="evenodd" d="M12 21.6V16.8C12 10.1726 17.3726 4.80005 24 4.80005C30.6274 4.80005 36 10.1726 36 16.8V21.6C38.651 21.6 40.8 23.7491 40.8 26.4V38.4001C40.8 41.0511 38.651 43.2001 36 43.2001H12C9.34903 43.2001 7.2 41.0511 7.2 38.4001V26.4C7.2 23.7491 9.34903 21.6 12 21.6ZM31.2 16.8V21.6H16.8V16.8C16.8 12.8236 20.0236 9.60005 24 9.60005C27.9766 9.60005 31.2 12.8236 31.2 16.8Z" fill="#4A5568"/>
</svg>
