<svg width="24" height="24" viewBox="0 0 24 24" fill="none" xmlns="http://www.w3.org/2000/svg">
<path d="M2.40002 3.60002C2.40002 2.93729 2.93729 2.40002 3.60002 2.40002H6.18347C6.77008 2.40002 7.2707 2.82412 7.36715 3.40274L8.25432 8.72579C8.34092 9.24544 8.0785 9.76079 7.6073 9.99639L5.74954 10.9253C7.0891 14.254 9.74604 16.9109 13.0747 18.2505L14.0037 16.3927C14.2392 15.9215 14.7546 15.6591 15.2742 15.7457L20.5973 16.6329C21.1759 16.7293 21.6 17.23 21.6 17.8165V20.4C21.6 21.0628 21.0628 21.6 20.4 21.6H18C9.38438 21.6 2.40002 14.6157 2.40002 6.00002V3.60002Z" fill="white"/>
<path d="M20.0486 3.95144C20.5172 4.42008 20.5172 5.17987 20.0486 5.64851L18.4971 7.19998L20.0486 8.75144C20.5172 9.22008 20.5172 9.97987 20.0486 10.4485C19.58 10.9171 18.8201 10.9171 18.3515 10.4485L16.8 8.89703L15.2486 10.4485C14.78 10.9171 14.0201 10.9171 13.5515 10.4485C13.0829 9.97987 13.0829 9.22008 13.5515 8.75144L15.103 7.19998L13.5515 5.64851C13.0829 5.17987 13.0829 4.42008 13.5515 3.95144C14.0201 3.48282 14.78 3.48282 15.2486 3.95144L16.8 5.50292L18.3515 3.95144C18.8201 3.48282 19.58 3.48282 20.0486 3.95144Z" fill="white"/>
</svg>
