<svg width="57" height="57" viewBox="0 0 57 57" fill="none" xmlns="http://www.w3.org/2000/svg">
<path d="M28.5 0C12.7853 0 0 12.7853 0 28.5C0 44.2147 12.7853 57 28.5 57C44.2147 57 57 44.2147 57 28.5C57 12.7853 44.2147 0 28.5 0ZM21.6189 16.0066C23.3549 14.1664 25.798 13.1538 28.5 13.1538C31.202 13.1538 33.6231 14.1733 35.366 16.023C37.1322 17.8975 37.9913 20.4159 37.7885 23.1234C37.383 28.5 33.2176 32.8846 28.5 32.8846C23.7824 32.8846 19.6088 28.5 19.2115 23.122C19.01 20.3926 19.8678 17.8659 21.6189 16.0066ZM28.5 52.6154C25.2807 52.6175 22.0937 51.9732 19.1281 50.7205C16.1625 49.4679 13.4786 47.6325 11.2356 45.3232C12.5202 43.4912 14.157 41.9336 16.0504 40.7413C19.5431 38.5024 23.9633 37.2692 28.5 37.2692C33.0367 37.2692 37.4569 38.5024 40.9455 40.7413C42.8404 41.933 44.4787 43.4907 45.7644 45.3232C43.5216 47.6328 40.8377 49.4683 37.8721 50.721C34.9064 51.9736 31.7194 52.6178 28.5 52.6154Z" fill="black"/>
</svg>
