<svg width="36" height="41" viewBox="0 0 36 41" fill="none" xmlns="http://www.w3.org/2000/svg">
<path d="M16 0.0256348L30.596 4.58564C31.0031 4.71272 31.3589 4.9666 31.6115 5.31021C31.8641 5.65382 32.0002 6.06918 32 6.49564V10.0256H36C36.5304 10.0256 37.0391 10.2363 37.4142 10.6114C37.7893 10.9865 38 11.4952 38 12.0256V16.0256H12V12.0256C12 11.4952 12.2107 10.9865 12.5858 10.6114C12.9609 10.2363 13.4696 10.0256 14 10.0256H28V7.96563L16 4.21363L4 7.96563V22.7736C3.99971 23.9981 4.2805 25.2063 4.82073 26.3051C5.36096 27.4039 6.14621 28.3641 7.116 29.1116L7.494 29.3836L16 35.1856L23.564 30.0256H14C13.4696 30.0256 12.9609 29.8149 12.5858 29.4398C12.2107 29.0648 12 28.5561 12 28.0256V20.0256H38V28.0256C38 28.5561 37.7893 29.0648 37.4142 29.4398C37.0391 29.8149 36.5304 30.0256 36 30.0256L29.56 30.0276C28.786 31.0476 27.846 31.9476 26.76 32.6876L16 40.0256L5.24 32.6896C3.62504 31.5885 2.3035 30.1096 1.39028 28.3815C0.477056 26.6533 -0.000202446 24.7282 6.44197e-08 22.7736V6.49564C0.000241212 6.06952 0.136573 5.65462 0.389124 5.31141C0.641676 4.96819 0.997243 4.71462 1.404 4.58764L16 0.0256348Z" fill="black"/>
</svg>
